<svg width="21" height="22" viewBox="0 0 21 22" fill="none" xmlns="http://www.w3.org/2000/svg">
<path opacity="0.4" fill-rule="evenodd" clip-rule="evenodd" d="M10.5003 0.761719C18.0593 0.761719 20.7373 3.43972 20.7373 10.9987C20.7373 18.5577 18.0593 21.2357 10.5003 21.2357C2.9423 21.2357 0.263304 18.5577 0.263304 10.9987C0.263304 3.43972 2.9423 0.761719 10.5003 0.761719Z" fill="#01A657"/>
<path d="M9.75061 11.7498H6.92261C6.50861 11.7498 6.17261 11.4138 6.17261 10.9998C6.17261 10.5858 6.50861 10.2498 6.92261 10.2498H9.75061V7.42578C9.75061 7.01178 10.0866 6.67578 10.5006 6.67578C10.9146 6.67578 11.2506 7.01178 11.2506 7.42578V10.2498H14.0786C14.4926 10.2498 14.8286 10.5858 14.8286 10.9998C14.8286 11.4138 14.4926 11.7498 14.0786 11.7498H11.2506V14.5738C11.2506 14.9878 10.9146 15.3238 10.5006 15.3238C10.0866 15.3238 9.75061 14.9878 9.75061 14.5738V11.7498Z" fill="#01A657"/>
</svg>
