<svg width="19" height="21" viewBox="0 0 19 21" fill="none" xmlns="http://www.w3.org/2000/svg">
<path fill-rule="evenodd" clip-rule="evenodd" d="M1.4252 4.27481H5.5662C5.6072 3.62081 5.7882 2.69881 6.4392 1.95081C7.1272 1.15981 8.1572 0.757812 9.50119 0.757812C10.8442 0.757812 11.8742 1.15981 12.5622 1.95081C13.2132 2.69881 13.3952 3.62081 13.4362 4.27481H17.5752C17.9892 4.27481 18.3252 4.61081 18.3252 5.02481C18.3252 5.43881 17.9892 5.77481 17.5752 5.77481H1.4252C1.0112 5.77481 0.675196 5.43881 0.675196 5.02481C0.675196 4.61081 1.0112 4.27481 1.4252 4.27481Z" fill="#D23D3D"/>
<path opacity="0.4" fill-rule="evenodd" clip-rule="evenodd" d="M2.40152 8.09766C2.40152 7.82166 2.62552 7.59766 2.90152 7.59766H16.0975C16.3745 7.59766 16.5975 7.82166 16.5975 8.09766C16.5975 9.09466 16.6155 10.0237 16.6325 10.8847C16.7065 14.6337 16.7555 17.1107 15.2405 18.6557C14.1645 19.7527 12.3975 20.2427 9.51052 20.2427C6.62052 20.2427 4.85052 19.7517 3.77152 18.6527C2.24952 17.1007 2.29752 14.6117 2.36852 10.8417C2.38452 9.99266 2.40152 9.07766 2.40152 8.09766Z" fill="#D23D3D"/>
</svg>
