<svg width="24" height="25" viewBox="0 0 24 25" fill="none" xmlns="http://www.w3.org/2000/svg">
<path fill-rule="evenodd" clip-rule="evenodd" d="M14.6331 8.23692C14.5336 8.10465 14.3459 8.07789 14.2134 8.1771L9.03347 12.0575C8.90077 12.1569 8.87388 12.3451 8.97342 12.4777L13.7931 18.8976C14.9531 20.4476 16.7031 20.7576 17.9131 20.7576C18.6631 20.7576 19.2031 20.6376 19.2631 20.6276C19.3931 20.5976 19.5131 20.5076 19.5831 20.3876C19.6531 20.2576 21.3731 17.1976 19.4531 14.6476L14.6331 8.23692Z" fill="#7B4794"/>
<path opacity="0.4" fill-rule="evenodd" clip-rule="evenodd" d="M7.04349 9.90828L7.71351 10.799C7.81297 10.9312 8.0007 10.958 8.13312 10.8588L13.3139 6.97774C13.4463 6.87856 13.4735 6.69093 13.3746 6.55832L12.7035 5.65828C12.0135 4.72828 10.9435 4.23828 9.86349 4.23828C9.12349 4.23828 8.38349 4.46828 7.74349 4.94828C6.99349 5.51828 6.50349 6.34828 6.36349 7.27828C6.23349 8.21828 6.47349 9.14828 7.04349 9.90828Z" fill="#7B4794"/>
<path opacity="0.4" fill-rule="evenodd" clip-rule="evenodd" d="M4.39155 19.2461H10.7686C11.1826 19.2461 11.5186 19.5821 11.5186 19.9961C11.5186 20.4101 11.1826 20.7461 10.7686 20.7461H4.39155C3.97755 20.7461 3.64156 20.4101 3.64156 19.9961C3.64156 19.5821 3.97755 19.2461 4.39155 19.2461Z" fill="#7B4794"/>
</svg>
