<svg width="27" height="26" viewBox="0 0 27 26" fill="none" xmlns="http://www.w3.org/2000/svg">
<mask id="path-1-inside-1_2906_7180" fill="white">
<path fill-rule="evenodd" clip-rule="evenodd" d="M13.8368 25.9538C20.9811 25.9538 26.7727 20.1622 26.7727 13.0179C26.7727 5.87363 20.9811 0.0820312 13.8368 0.0820312C6.69248 0.0820312 0.900879 5.87363 0.900879 13.0179C0.900879 20.1622 6.69248 25.9538 13.8368 25.9538ZM10.2234 12.43C11.1935 12.43 11.9799 11.6436 11.9799 10.6735C11.9799 9.70335 11.1935 8.91691 10.2234 8.91691C9.25324 8.91691 8.4668 9.70335 8.4668 10.6735C8.4668 11.6436 9.25324 12.43 10.2234 12.43ZM19.2068 10.6735C19.2068 11.6436 18.4204 12.43 17.4502 12.43C16.4801 12.43 15.6937 11.6436 15.6937 10.6735C15.6937 9.70335 16.4801 8.91691 17.4502 8.91691C18.4204 8.91691 19.2068 9.70335 19.2068 10.6735ZM19.2067 14.9402H8.46669C8.46669 17.906 10.8709 20.36 13.8367 20.36C16.8025 20.36 19.2067 17.906 19.2067 14.9402Z"/>
</mask>
<path fill-rule="evenodd" clip-rule="evenodd" d="M13.8368 25.9538C20.9811 25.9538 26.7727 20.1622 26.7727 13.0179C26.7727 5.87363 20.9811 0.0820312 13.8368 0.0820312C6.69248 0.0820312 0.900879 5.87363 0.900879 13.0179C0.900879 20.1622 6.69248 25.9538 13.8368 25.9538ZM10.2234 12.43C11.1935 12.43 11.9799 11.6436 11.9799 10.6735C11.9799 9.70335 11.1935 8.91691 10.2234 8.91691C9.25324 8.91691 8.4668 9.70335 8.4668 10.6735C8.4668 11.6436 9.25324 12.43 10.2234 12.43ZM19.2068 10.6735C19.2068 11.6436 18.4204 12.43 17.4502 12.43C16.4801 12.43 15.6937 11.6436 15.6937 10.6735C15.6937 9.70335 16.4801 8.91691 17.4502 8.91691C18.4204 8.91691 19.2068 9.70335 19.2068 10.6735ZM19.2067 14.9402H8.46669C8.46669 17.906 10.8709 20.36 13.8367 20.36C16.8025 20.36 19.2067 17.906 19.2067 14.9402Z" fill="#01A657"/>
<path d="M8.46669 14.9402V13.9402H7.46669V14.9402H8.46669ZM19.2067 14.9402H20.2067V13.9402H19.2067V14.9402ZM25.7727 13.0179C25.7727 19.6099 20.4288 24.9538 13.8368 24.9538V26.9538C21.5334 26.9538 27.7727 20.7145 27.7727 13.0179H25.7727ZM13.8368 1.08203C20.4288 1.08203 25.7727 6.42592 25.7727 13.0179H27.7727C27.7727 5.32135 21.5334 -0.917969 13.8368 -0.917969V1.08203ZM1.90088 13.0179C1.90088 6.42592 7.24476 1.08203 13.8368 1.08203V-0.917969C6.14019 -0.917969 -0.0991211 5.32135 -0.0991211 13.0179H1.90088ZM13.8368 24.9538C7.24476 24.9538 1.90088 19.6099 1.90088 13.0179H-0.0991211C-0.0991211 20.7145 6.14019 26.9538 13.8368 26.9538V24.9538ZM10.9799 10.6735C10.9799 11.0913 10.6412 11.43 10.2234 11.43V13.43C11.7458 13.43 12.9799 12.1959 12.9799 10.6735H10.9799ZM10.2234 9.91691C10.6412 9.91691 10.9799 10.2556 10.9799 10.6735H12.9799C12.9799 9.15106 11.7458 7.91691 10.2234 7.91691V9.91691ZM9.4668 10.6735C9.4668 10.2556 9.80552 9.91691 10.2234 9.91691V7.91691C8.70096 7.91691 7.4668 9.15106 7.4668 10.6735H9.4668ZM10.2234 11.43C9.80552 11.43 9.4668 11.0913 9.4668 10.6735H7.4668C7.4668 12.1959 8.70096 13.43 10.2234 13.43V11.43ZM17.4502 13.43C18.9726 13.43 20.2068 12.1959 20.2068 10.6735H18.2068C18.2068 11.0913 17.8681 11.43 17.4502 11.43V13.43ZM14.6937 10.6735C14.6937 12.1959 15.9278 13.43 17.4502 13.43V11.43C17.0324 11.43 16.6937 11.0913 16.6937 10.6735H14.6937ZM17.4502 7.91691C15.9278 7.91691 14.6937 9.15106 14.6937 10.6735H16.6937C16.6937 10.2556 17.0324 9.91691 17.4502 9.91691V7.91691ZM20.2068 10.6735C20.2068 9.15106 18.9726 7.91691 17.4502 7.91691V9.91691C17.8681 9.91691 18.2068 10.2556 18.2068 10.6735H20.2068ZM8.46669 15.9402H19.2067V13.9402H8.46669V15.9402ZM13.8367 19.36C11.4352 19.36 9.46669 17.3657 9.46669 14.9402H7.46669C7.46669 18.4462 10.3067 21.36 13.8367 21.36V19.36ZM18.2067 14.9402C18.2067 17.3657 16.2382 19.36 13.8367 19.36V21.36C17.3667 21.36 20.2067 18.4462 20.2067 14.9402H18.2067Z" fill="#01A657" mask="url(#path-1-inside-1_2906_7180)"/>
</svg>
