<svg width="25" height="25" viewBox="0 0 25 25" fill="none" xmlns="http://www.w3.org/2000/svg">
<path d="M10 20.25C10.4142 20.25 10.75 19.9142 10.75 19.5C10.75 19.0858 10.4142 18.75 10 18.75V20.25ZM11.5 5.5V6.25C11.8033 6.25 12.0768 6.06727 12.1929 5.78701C12.309 5.50676 12.2448 5.18417 12.0303 4.96967L11.5 5.5ZM10.0303 2.96967C9.73744 2.67678 9.26256 2.67678 8.96967 2.96967C8.67678 3.26256 8.67678 3.73744 8.96967 4.03033L10.0303 2.96967ZM10 18.75H9.50028V20.25H10V18.75ZM9.5 6.25H11.5V4.75H9.5V6.25ZM12.0303 4.96967L10.0303 2.96967L8.96967 4.03033L10.9697 6.03033L12.0303 4.96967ZM1.75 12.5C1.75 16.7802 5.22011 20.25 9.50028 20.25V18.75C6.04846 18.75 3.25 15.9517 3.25 12.5H1.75ZM3.25 12.5C3.25 9.04822 6.04822 6.25 9.5 6.25V4.75C5.21979 4.75 1.75 8.21979 1.75 12.5H3.25Z" fill="#01A657"/>
<path opacity="0.5" d="M13.5 19.5V18.75C13.1967 18.75 12.9232 18.9327 12.8071 19.213C12.691 19.4932 12.7552 19.8158 12.9697 20.0303L13.5 19.5ZM14.9697 22.0303C15.2626 22.3232 15.7374 22.3232 16.0303 22.0303C16.3232 21.7374 16.3232 21.2626 16.0303 20.9697L14.9697 22.0303ZM15 4.75C14.5858 4.75 14.25 5.08579 14.25 5.5C14.25 5.91421 14.5858 6.25 15 6.25V4.75ZM15.5 18.75H13.5V20.25H15.5V18.75ZM12.9697 20.0303L14.9697 22.0303L16.0303 20.9697L14.0303 18.9697L12.9697 20.0303ZM15 6.25H15.5V4.75H15V6.25ZM21.75 12.5C21.75 15.9518 18.9518 18.75 15.5 18.75V20.25C19.7802 20.25 23.25 16.7802 23.25 12.5H21.75ZM23.25 12.5C23.25 8.21979 19.7802 4.75 15.5 4.75V6.25C18.9518 6.25 21.75 9.04822 21.75 12.5H23.25Z" fill="#01A657"/>
<path d="M11 12L12.5 10.5V14.5" stroke="#01A657" stroke-linecap="round" stroke-linejoin="round"/>
</svg>
