<svg width="24" height="24" viewBox="0 0 24 24" fill="none" xmlns="http://www.w3.org/2000/svg">
<path opacity="0.4" fill-rule="evenodd" clip-rule="evenodd" d="M7.6 7.28607C8.72 7.20607 9.90005 7.16625 11.1301 7.15625H12.6301C13.8401 7.16625 15.1 7.21607 16.4 7.28607H16.42C20.45 7.65607 21.75 9.48607 21.75 14.7861C21.75 22.3861 18.9 22.3861 12 22.3861C5.1 22.3861 2.25 22.3861 2.25 14.7861C2.25 9.48607 3.55 7.65607 7.6 7.28607Z" fill="#01A657"/>
<path fill-rule="evenodd" clip-rule="evenodd" d="M11.2502 4.16953L9.61117 5.81253C9.46517 5.95953 9.27217 6.03353 9.08017 6.03353C8.88917 6.03353 8.69717 5.95953 8.55117 5.81453C8.25717 5.52153 8.25717 5.04653 8.54917 4.75353L11.4692 1.82553C11.7502 1.54253 12.2502 1.54253 12.5312 1.82553L15.4512 4.75353C15.7432 5.04653 15.7432 5.52153 15.4492 5.81453C15.1552 6.10653 14.6812 6.10653 14.3892 5.81253L12.7502 4.16953V14.4064C12.7502 14.8181 12.4046 15.1486 11.993 15.1486C11.5811 15.1486 11.2502 14.8177 11.2502 14.4058V4.16953Z" fill="#01A657"/>
</svg>
