<svg width="1093" height="468" viewBox="0 0 1093 468" fill="none" xmlns="http://www.w3.org/2000/svg">
<path d="M531.527 285.345L530.813 284.747C530.726 284.68 522.069 277.538 515.088 278.802C508.108 280.065 506.767 283.643 506.709 283.803L505.324 283.377C505.324 283.191 507.044 278.922 514.797 277.498C521.369 276.301 528.787 281.488 531.09 283.204C532.547 280.664 537.735 272.684 543.113 272.072C549.307 271.367 556.01 276.062 556.229 276.275L555.34 277.326C555.267 277.326 548.796 272.75 543.229 273.336C537.662 273.921 531.95 284.401 531.891 284.508L531.527 285.345Z" fill="#263238"/>
<path d="M512.188 311.134L511.474 310.535C511.387 310.469 502.73 303.313 495.75 304.59C488.769 305.867 487.443 309.431 487.384 309.578L486 309.152C486 308.979 487.705 304.71 495.473 303.287C502.031 302.09 509.449 307.277 511.751 308.992C513.208 306.452 518.397 298.459 523.774 297.847C529.982 297.155 536.672 301.837 536.89 302.063L536.001 303.114C536.001 303.114 529.472 298.525 523.905 299.124C518.338 299.722 512.626 310.189 512.567 310.296L512.188 311.134Z" fill="#263238"/>
<path d="M576.792 311.134L576.078 310.535C576.078 310.535 569.505 305.096 564.259 306.053C559.012 307.011 558.065 309.631 558.021 309.751L556.637 309.325C556.637 309.179 557.977 305.84 563.923 304.75C568.82 303.859 574.358 307.543 576.296 309.006C577.564 306.891 581.426 301.026 585.477 300.6C590.257 300.068 595.416 303.686 595.679 303.845L594.79 304.896C594.79 304.896 589.893 301.438 585.696 301.93C582.315 302.316 578.409 308.128 577.214 310.349L576.792 311.134Z" fill="#263238"/>
<path d="M652.791 338.28L652.077 337.682C652.077 337.682 647.836 334.197 644.543 334.796C641.249 335.394 640.666 337.003 640.637 337.07L639.18 336.644C639.18 336.551 640.112 334.237 644.193 333.492C647.326 332.92 650.809 335.088 652.281 336.152C653.258 334.556 655.691 331.072 658.344 330.832C661.55 330.447 665.047 332.894 665.193 333L664.304 334.051C664.304 334.051 661.127 331.843 658.475 332.149C656.362 332.388 653.884 336.139 653.097 337.549L652.791 338.28Z" fill="#263238"/>
<path d="M803.866 366.641C795.596 366.615 787.402 368.075 779.751 370.939C772.1 373.803 765.142 378.014 759.274 383.332C753.406 388.65 748.744 394.971 745.553 401.933C742.362 408.896 740.705 416.364 740.676 423.911C740.648 438.009 746.361 451.613 756.707 462.082C764.143 461.117 771.723 461.75 778.843 463.931C786.795 466.35 794.11 470.249 800.325 475.382H805.994C812.215 470.251 819.534 466.352 827.489 463.931C834.991 461.623 843.002 461.047 850.807 462.255C861.295 451.779 867.112 438.102 867.114 423.911C867.084 416.36 865.423 408.888 862.228 401.923C859.032 394.958 854.364 388.636 848.491 383.317C842.617 377.999 835.653 373.789 827.996 370.928C820.339 368.066 812.14 366.61 803.866 366.641Z" fill="#01A657"/>
<path d="M833.276 446.881C831.333 447.767 829.389 448.654 827.446 449.541C825.542 450.482 823.698 451.521 821.923 452.653C821.267 453.065 820.626 453.504 819.97 453.983L830.332 436.387L816.123 456.683C814.666 457.747 813.208 458.824 811.882 459.928C809.599 461.701 807.364 463.563 805.178 465.514L804.45 446.428L819.314 425.773L804.45 443.489L803.794 426.412L802.686 445.551L801.622 464.703C799.713 463.067 797.79 461.471 795.793 459.901C794.234 458.664 792.645 457.441 791.028 456.27L777.591 435.323L787.457 453.797C786.889 453.424 786.335 453.038 785.752 452.679C783.977 451.547 782.133 450.508 780.229 449.567C778.334 448.649 776.396 447.758 774.399 446.907C770.51 445.173 766.521 443.632 762.449 442.292C766.391 443.872 770.234 445.648 773.962 447.612C775.828 448.57 777.664 449.554 779.471 450.565C781.246 451.58 782.954 452.69 784.586 453.89C787.836 456.263 790.936 458.803 793.869 461.497C796.434 463.825 798.941 466.245 801.331 468.679L800.078 492.912H806.3L805.411 469.584C808.078 466.791 810.92 464.051 813.835 461.404C816.769 458.71 819.868 456.17 823.118 453.797C824.75 452.597 826.458 451.487 828.233 450.472C830.04 449.461 831.877 448.477 833.742 447.519C837.475 445.555 841.323 443.779 845.27 442.199C841.181 443.558 837.177 445.12 833.276 446.881Z" fill="#263238"/>
<path d="M318.734 445.23C318.734 461.682 308.62 462.919 296.145 462.919C283.671 462.919 273.557 461.682 273.557 445.23C273.557 428.778 283.671 394.371 296.145 394.371C308.62 394.371 318.734 428.765 318.734 445.23Z" fill="#01A657"/>
<path d="M303.782 452.691L300.051 452.93L309.772 446.945L302.835 450.151L303.782 447.637L300.605 451.175L296.874 452.891L296.583 441.08L298.565 436.704L296.539 439.165L296.364 432.315L302.558 424.774L296.321 430.6L295.942 415.518L295.607 425.173L291.643 421.13L295.548 427.022L295.024 442.317L291.555 440.256L288.407 435.162L289.675 439.125L283.496 435.441L294.951 444.458L293.217 494.639H297.924L296.933 454.846L298.026 454.181L303.782 452.691Z" fill="#263238"/>
<path d="M926.164 388.559C926.164 420.705 906.403 423.139 882.036 423.139C857.67 423.139 837.908 420.705 837.908 388.559C837.908 356.413 857.655 289.182 882.036 289.182C906.417 289.182 926.164 356.44 926.164 388.559Z" fill="#01A657"/>
<path opacity="0.31" d="M926.164 388.559C926.164 420.705 906.403 423.139 882.036 423.139C857.67 423.139 837.908 420.705 837.908 388.559C837.908 356.413 857.655 289.182 882.036 289.182C906.417 289.182 926.164 356.44 926.164 388.559Z" fill="white"/>
<path d="M896.961 403.148L889.659 403.601L908.663 391.91L895.095 398.174L896.961 393.28L890.752 400.169L883.466 403.534L882.883 380.445L886.745 371.893L882.795 376.708L882.46 363.315L894.556 348.605L882.373 359.977L881.63 330.504L880.988 349.377L873.221 341.476L880.857 352.994L879.822 382.866L873.075 378.836L866.925 368.888L869.388 376.642L857.307 369.433L879.677 387.042L876.296 485.103H885.506L883.553 407.351L885.695 406.048L896.961 403.148Z" fill="#263238"/>
<path d="M1020.63 401.207C1020.63 417.673 1010.52 418.91 998.042 418.91C985.567 418.91 975.453 417.673 975.453 401.207C975.453 384.742 985.567 350.361 998.042 350.361C1010.52 350.361 1020.63 384.755 1020.63 401.207Z" fill="#01A657"/>
<path opacity="0.5" d="M1020.63 401.207C1020.63 417.673 1010.52 418.91 998.042 418.91C985.567 418.91 975.453 417.673 975.453 401.207C975.453 384.742 985.567 350.361 998.042 350.361C1010.52 350.361 1020.63 384.755 1020.63 401.207Z" fill="white"/>
<path d="M1005.68 408.681L1001.95 408.907L1011.67 402.922L1004.71 406.128L1005.68 403.627L1002.5 407.152L998.769 408.881L998.478 397.057L1000.44 392.681L998.434 395.142L998.259 388.292L1004.45 380.765L998.215 386.59L997.836 371.508L997.501 381.15L993.537 377.12L997.443 383.012L996.904 398.307L993.45 396.233L990.302 391.139L991.57 395.115L985.391 391.418L996.831 400.435L995.097 450.616H999.818L998.827 410.836L999.906 410.158L1005.68 408.681Z" fill="#263238"/>
<path d="M100.076 387.296C100.076 403.748 89.9619 404.999 77.4871 404.999C65.0123 404.999 54.8984 403.748 54.8984 387.296C54.8984 370.844 65.0123 336.49 77.4871 336.49C89.9619 336.49 100.076 370.844 100.076 387.296Z" fill="#01A657"/>
<path opacity="0.5" d="M100.076 387.296C100.076 403.748 89.9619 404.999 77.4871 404.999C65.0123 404.999 54.8984 403.748 54.8984 387.296C54.8984 370.844 65.0123 336.49 77.4871 336.49C89.9619 336.49 100.076 370.844 100.076 387.296Z" fill="white"/>
<path d="M85.124 394.758L81.3932 394.997L91.1136 389.012L84.1621 392.218L85.124 389.717L81.947 393.242L78.2162 394.957L77.9247 383.147L79.8921 378.771L77.881 381.232L77.7061 374.382L83.8852 366.854L77.6624 372.667L77.2835 357.598L76.9483 367.24L72.9844 363.197L76.89 369.102L76.3654 384.384L72.8969 382.322L69.7491 377.228L71.017 381.205L64.8379 377.508L76.278 386.525L74.5437 436.706H79.2655L78.2745 396.912L79.3529 396.247L85.124 394.758Z" fill="#263238"/>
<path d="M211.985 349.975C203.715 349.949 195.521 351.41 187.87 354.274C180.219 357.137 173.261 361.349 167.393 366.667C161.526 371.985 156.863 378.305 153.672 385.268C150.481 392.23 148.824 399.698 148.795 407.245C148.768 421.347 154.481 434.955 164.826 445.429C172.261 444.459 179.841 445.087 186.963 447.265C194.914 449.684 202.229 453.584 208.444 458.716H214.229C220.451 453.585 227.77 449.686 235.725 447.265C243.229 444.971 251.237 444.395 259.042 445.589C269.511 435.105 275.307 421.429 275.292 407.245C275.261 399.69 273.599 392.214 270.4 385.245C267.2 378.276 262.527 371.952 256.648 366.633C250.768 361.314 243.797 357.105 236.133 354.246C228.47 351.388 220.264 349.937 211.985 349.975Z" fill="#01A657"/>
<path opacity="0.33" d="M211.983 349.977C203.714 349.951 195.519 351.412 187.868 354.275C180.217 357.139 173.259 361.35 167.391 366.668C161.524 371.986 156.861 378.307 153.67 385.27C150.479 392.232 148.822 399.7 148.793 407.247C148.766 421.349 154.479 434.957 164.824 445.431C172.259 444.461 179.839 445.089 186.961 447.267C194.912 449.686 202.227 453.586 208.442 458.718H214.227C220.449 453.587 227.768 449.688 235.723 447.267C243.227 444.973 251.235 444.397 259.04 445.591C269.509 435.107 275.305 421.431 275.29 407.247C275.259 399.692 273.597 392.216 270.398 385.247C267.199 378.278 262.526 371.954 256.646 366.635C250.766 361.316 243.795 357.107 236.131 354.248C228.468 351.39 220.262 349.939 211.983 349.977Z" fill="white"/>
<path d="M241.394 430.229C239.451 431.116 237.508 432.003 235.565 432.889C233.658 433.821 231.814 434.856 230.042 435.988L228.089 437.318L238.451 419.709L224.242 440.018C222.794 441.073 221.38 442.151 220.001 443.25C217.713 445.072 215.483 446.921 213.297 448.836L212.568 429.751L227.433 409.096L212.466 426.865L211.811 409.774L210.747 428.886L209.683 448.051C207.774 446.402 205.85 444.806 203.854 443.237C202.299 442.004 200.711 440.794 199.088 439.606L185.651 418.658L195.518 437.145C194.949 436.76 194.395 436.387 193.813 436.015C192.041 434.883 190.196 433.848 188.289 432.916C186.395 431.985 184.456 431.094 182.46 430.256C178.571 428.522 174.582 426.981 170.51 425.641C174.503 427.198 178.395 428.961 182.168 430.921C184.034 431.879 185.87 432.867 187.677 433.887C189.452 434.898 191.16 436.004 192.792 437.199C196.039 439.575 199.138 442.115 202.076 444.806C204.641 447.134 207.147 449.554 209.537 452.002L208.182 476.314H214.405L213.516 452.986C216.183 450.193 219.024 447.453 221.939 444.806C224.876 442.115 227.976 439.575 231.222 437.199C232.854 436.004 234.562 434.898 236.338 433.887C238.115 432.796 239.947 431.808 241.832 430.921C245.564 428.979 249.412 427.229 253.359 425.681C249.283 426.997 245.289 428.515 241.394 430.229Z" fill="#263238"/>
<path d="M988.613 398.534C988.613 432.157 967.948 434.697 942.474 434.697C917 434.697 896.262 432.157 896.262 398.534C896.262 364.912 916.927 294.635 942.415 294.635C967.904 294.635 988.613 364.912 988.613 398.534Z" fill="#01A657"/>
<path d="M504.351 435.9C504.351 469.522 483.686 472.062 458.212 472.062C432.738 472.062 412 469.522 412 435.9C412 402.277 432.665 332 458.154 332C483.642 332 504.351 402.277 504.351 435.9Z" fill="#01A657"/>
<path d="M635.351 435.9C635.351 469.522 614.686 472.062 589.212 472.062C563.738 472.062 543 469.522 543 435.9C543 402.277 563.665 332 589.154 332C614.642 332 635.351 402.277 635.351 435.9Z" fill="#01A657" fill-opacity="0.4"/>
<path d="M958.066 413.788L950.429 414.267L970.322 402.044L956.113 408.588L958.066 403.481L951.581 410.689L943.959 414.201L943.361 390.048L947.398 381.124L943.259 386.138L942.909 372.146L955.559 356.758L942.822 368.648L942.05 337.832L941.365 357.556L933.262 349.297L941.234 361.346L940.155 392.588L933.102 388.372L926.66 377.971L929.24 386.071L916.619 378.543L940.009 396.951L936.468 499.494H946.101L944.061 418.191L946.291 416.821L958.066 413.788Z" fill="#263238"/>
<path d="M473.804 451.154L466.168 451.632L486.06 439.41L471.851 445.953L473.804 440.846L467.319 448.055L459.697 451.566L459.1 427.413L463.136 418.489L458.998 423.503L458.648 409.511L471.297 394.123L458.56 406.013L457.788 375.197L457.103 394.921L449 386.662L456.972 398.712L455.893 429.953L448.84 425.737L442.398 415.337L444.978 423.436L432.357 415.909L455.748 434.316L452.206 536.859H461.839L459.799 455.556L462.029 454.186L473.804 451.154Z" fill="#263238"/>
<path d="M604.804 451.154L597.168 451.632L617.06 439.41L602.851 445.953L604.804 440.846L598.319 448.055L590.697 451.566L590.1 427.413L594.136 418.489L589.998 423.503L589.648 409.511L602.297 394.123L589.56 406.013L588.788 375.197L588.103 394.921L580 386.662L587.972 398.712L586.893 429.953L579.84 425.737L573.398 415.337L575.978 423.436L563.357 415.909L586.748 434.316L583.206 536.859H592.839L590.799 455.556L593.029 454.186L604.804 451.154Z" fill="#263238"/>
<path d="M123.482 480.396C123.482 480.396 108.748 466.471 112.872 466.896C116.997 467.322 124.75 477.722 124.75 477.722C124.75 477.722 124.852 454.767 128.539 459.794C132.226 464.821 127.693 477.816 127.693 477.816C127.693 477.816 138.201 462.866 138.172 465.3C138.172 472.868 130.083 478.773 130.083 478.773C130.083 478.773 146.901 467.402 144.147 472.017C141.392 476.632 130.637 480.981 130.637 480.981C130.637 480.981 150.034 477.417 143.141 479.93C136.248 482.444 129.705 484.12 129.705 484.12H124.327C124.327 484.12 106.023 475.741 112.901 476.991C116.608 477.593 120.181 478.743 123.482 480.396Z" fill="#263238"/>
<path d="M176.717 380.207C176.717 413.869 156.038 416.409 130.52 416.409C105.002 416.409 84.3223 413.869 84.3223 380.207C84.3223 346.544 105.016 276.188 130.52 276.188C156.023 276.188 176.717 346.544 176.717 380.207Z" fill="#01A657"/>
<path d="M146.142 395.476L138.505 395.954L158.398 383.718L144.189 390.275L146.142 385.155L139.642 392.377L132.02 395.888L131.423 371.722L135.459 362.771L131.32 367.798L130.971 353.78L143.635 338.379L130.883 350.295L130.111 319.439L129.426 339.19L121.309 330.917L129.295 342.98L128.216 374.249L121.148 370.033L114.707 359.619L117.286 367.732L104.637 360.191L128.071 378.624L124.515 481.274H134.162L132.122 399.891L134.352 398.521L146.142 395.476Z" fill="#263238"/>
<path d="M763.882 417.843C763.882 451.465 743.218 454.006 717.743 454.006C692.269 454.006 671.531 451.465 671.531 417.843C671.531 384.221 692.196 313.943 717.685 313.943C743.174 313.943 763.882 384.221 763.882 417.843Z" fill="#50C28B"/>
<path d="M733.335 433.101L725.699 433.58L745.591 421.357L731.382 427.901L733.335 422.793L726.85 430.002L719.228 433.513L718.631 409.36L722.668 400.436L718.529 405.45L718.179 391.459L730.829 376.07L718.092 387.961L717.319 357.145L716.634 376.868L708.531 368.609L716.503 380.659L715.425 411.901L708.371 407.685L701.93 397.284L704.509 405.384L691.889 397.856L715.279 416.263L711.738 518.806H721.371L719.33 437.503L721.56 436.133L733.335 433.101Z" fill="#263238"/>
<path d="M133.087 488.958C133.087 488.958 118.354 475.033 122.478 475.459C126.602 475.884 134.355 486.285 134.355 486.285C134.355 486.285 134.457 463.329 138.144 468.356C141.831 473.384 137.299 486.378 137.299 486.378C137.299 486.378 147.806 471.429 147.777 473.863C147.777 481.43 139.689 487.336 139.689 487.336C139.689 487.336 156.507 475.964 153.752 480.579C150.998 485.194 140.243 489.543 140.243 489.543C140.243 489.543 159.64 485.979 152.747 488.493C145.853 491.006 139.31 492.682 139.31 492.682H133.932C133.932 492.682 115.628 484.303 122.507 485.553C126.213 486.156 129.787 487.306 133.087 488.958Z" fill="#263238"/>
<path d="M412.032 375.793C412.032 409.455 391.352 411.995 365.834 411.995C340.316 411.995 319.637 409.455 319.637 375.793C319.637 342.13 340.331 271.773 365.834 271.773C391.338 271.773 412.032 342.13 412.032 375.793Z" fill="#55C38E"/>
<path d="M381.458 391.06L373.822 391.538L393.714 379.302L379.505 385.859L381.458 380.739L374.958 387.961L367.336 391.472L366.739 367.306L370.776 358.355L366.637 363.382L366.287 349.364L378.951 333.963L366.2 345.879L365.427 315.023L364.742 334.774L356.625 326.501L364.611 338.564L363.533 369.833L356.465 365.617L350.023 355.203L352.603 363.316L339.953 355.775L363.387 374.208L359.831 476.858H369.479L367.438 395.475L369.668 394.105L381.458 391.06Z" fill="#263238"/>
<path d="M165.335 506.118C165.335 506.118 149.945 481.885 154.332 480.023C158.718 478.161 167.798 496.582 167.798 496.582C167.798 496.582 166.034 461.855 170.129 465.061C174.224 468.266 178.028 492.844 178.028 492.844C178.028 492.844 186.233 466.125 188.871 471.737C191.508 477.35 186.758 494.347 186.758 494.347C186.758 494.347 198.518 473.905 199.699 480.582C200.879 487.258 194.132 498.204 194.132 498.204C194.132 498.204 209.638 484.053 210.818 489.666C211.999 495.278 206.723 500.877 206.723 500.877C206.723 500.877 227.199 490.73 222.229 496.342C217.26 501.955 209.944 509.163 209.944 509.163C209.944 509.163 229.545 502.753 227.199 506.503C224.852 510.254 216.079 514.244 216.079 514.244C216.079 514.244 232.11 511.584 230.419 513.978C228.78 515.854 226.81 517.468 224.59 518.753H151.723C151.723 518.753 132.414 512.382 140.065 511.85C145.057 511.646 150.036 512.464 154.638 514.244C154.638 514.244 130.927 499.614 142.047 498.497C153.166 497.38 162.245 510.241 162.245 510.241C162.245 510.241 146.448 489.945 152.044 493.15L165.335 506.118Z" fill="#01A657"/>
<path d="M820.771 548.731C820.771 548.731 791.625 502.953 799.975 499.415C808.326 495.877 825.435 530.67 825.435 530.67C825.435 530.67 822.112 465.048 829.807 471.099C837.502 477.151 844.744 523.608 844.744 523.608C844.744 523.608 860.236 473.068 865.22 483.708C870.204 494.348 861.285 526.441 861.285 526.441C861.285 526.441 883.524 487.804 885.739 500.426C887.954 513.048 875.232 533.742 875.232 533.742C875.232 533.742 904.553 506.983 906.769 517.583C908.984 528.183 899.016 538.796 899.016 538.796C899.016 538.796 937.737 519.604 928.337 530.205C918.937 540.805 905.107 554.45 905.107 554.45C905.107 554.45 942.167 542.321 937.737 549.396C933.307 556.472 916.722 564.026 916.722 564.026C916.722 564.026 947.151 558.972 943.829 563.521C940.506 568.07 932.782 572.525 932.782 572.525H795.006C795.006 572.525 758.485 560.489 772.869 559.478C787.253 558.467 800.558 564.026 800.558 564.026C800.558 564.026 755.76 536.256 776.774 534.234C797.789 532.213 814.942 556.445 814.942 556.445C814.942 556.445 785.067 518.075 795.589 524.14L820.771 548.731Z" fill="#01A657"/>
</svg>
