<svg width="25" height="25" viewBox="0 0 25 25" fill="none" xmlns="http://www.w3.org/2000/svg">
<path opacity="0.4" fill-rule="evenodd" clip-rule="evenodd" d="M20.6445 12.7031C20.6445 12.1508 20.1968 11.7031 19.6445 11.7031L4.64453 11.7031C4.09225 11.7031 3.64453 12.1508 3.64453 12.7031C3.64453 13.2554 4.09225 13.7031 4.64453 13.7031L19.6445 13.7031C20.1968 13.7031 20.6445 13.2554 20.6445 12.7031Z" fill="url(#paint0_linear_2123_6382)"/>
<path d="M10.2206 5.7971C10.7068 5.53506 11.3133 5.71674 11.5754 6.2029C11.7529 6.53218 11.7267 6.91674 11.5403 7.21207C11.4515 7.35269 11.3264 7.47309 11.1696 7.55764L11.1677 7.55868L11.1572 7.56437L11.1119 7.58932C11.0712 7.61187 11.0101 7.64609 10.9314 7.69106C10.774 7.78104 10.547 7.91374 10.2737 8.08182C9.72528 8.41917 8.99956 8.89352 8.27885 9.44649C7.55222 10.004 6.86313 10.6169 6.36479 11.2268C5.84707 11.8604 5.64512 12.357 5.64512 12.7004C5.64512 13.0444 5.84728 13.5416 6.36496 14.1755C6.86331 14.7857 7.5524 15.3989 8.27902 15.9566C8.99971 16.5098 9.72542 16.9843 10.2739 17.3218C10.5471 17.49 10.7741 17.6227 10.9315 17.7127C11.0106 17.7579 11.0899 17.8029 11.17 17.8463C11.6559 18.1085 11.8374 18.7149 11.5753 19.201C11.3132 19.6871 10.7067 19.8687 10.2205 19.6066C10.1258 19.5555 10.0322 19.5023 9.93877 19.4489C9.76533 19.3497 9.51967 19.206 9.22575 19.0252C8.63982 18.6646 7.85303 18.1509 7.06122 17.5431C6.27534 16.9399 5.45193 16.2193 4.81591 15.4405C4.19921 14.6854 3.64512 13.7383 3.64512 12.7004C3.64512 11.6627 4.19942 10.716 4.81607 9.96131C5.45211 9.18293 6.27552 8.46272 7.06139 7.85974C7.85318 7.25222 8.63996 6.73869 9.22589 6.37829C9.5198 6.1975 9.76546 6.05385 9.9389 5.95471C10.0257 5.90511 10.0945 5.86657 10.1424 5.84002L10.1983 5.80925L10.2138 5.80081L10.2183 5.79836L10.2206 5.7971Z" fill="url(#paint1_linear_2123_6382)"/>
<defs>
<linearGradient id="paint0_linear_2123_6382" x1="12.1445" y1="13.7031" x2="12.1445" y2="11.7031" gradientUnits="userSpaceOnUse">
<stop stop-color="#7B4794"/>
<stop offset="1" stop-color="#01A657"/>
</linearGradient>
<linearGradient id="paint1_linear_2123_6382" x1="7.67022" y1="19.7266" x2="7.67022" y2="5.67718" gradientUnits="userSpaceOnUse">
<stop stop-color="#7B4794"/>
<stop offset="1" stop-color="#01A657"/>
</linearGradient>
</defs>
</svg>
