<svg width="301" height="300" viewBox="0 0 301 300" fill="none" xmlns="http://www.w3.org/2000/svg">
<path d="M281.372 282.541C281.372 282.625 222.968 282.697 150.944 282.697C78.9198 282.697 20.5098 282.601 20.5098 282.541C20.5098 282.481 78.8958 282.385 150.944 282.385C222.992 282.385 281.372 282.451 281.372 282.541Z" fill="black"/>
<path d="M30.742 130.538H22C22 118.37 26.926 105.938 35.512 96.3976C44.548 86.3716 56.278 80.8516 68.512 80.8516C93.514 80.8516 110.98 99.1036 110.98 125.252H102.256C102.256 103.934 88.702 89.6116 68.53 89.6116C48.754 89.5936 30.742 109.106 30.742 130.538Z" fill="#01A657"/>
<path d="M35.5359 128.107C36.9339 128.107 38.0679 128.245 38.0619 128.371C38.0559 128.497 36.9279 128.593 35.5359 128.593C34.1439 128.593 33.0039 128.479 33.0039 128.329C33.0039 128.179 34.1439 128.083 35.5359 128.107Z" fill="#263238"/>
<path d="M41.5711 108.943C42.7711 109.711 43.5811 110.497 43.4491 110.707C43.3171 110.917 42.2491 110.491 41.0491 109.765C39.8491 109.039 39.0511 108.241 39.1771 108.001C39.3031 107.761 40.4011 108.181 41.5711 108.943Z" fill="#263238"/>
<path d="M56.6914 95.7377C57.2614 97.0157 57.5434 98.1377 57.2914 98.2337C57.0394 98.3297 56.3974 97.3997 55.7854 96.1457C55.1734 94.8917 54.8914 93.7457 55.1854 93.6497C55.4794 93.5537 56.1274 94.4417 56.6914 95.7377Z" fill="#263238"/>
<path d="M76.6121 94.1657C76.2641 95.5217 75.79 96.5657 75.556 96.5177C75.322 96.4697 75.37 95.3177 75.67 93.9437C75.97 92.5697 76.438 91.5437 76.726 91.5977C77.014 91.6517 76.9601 92.8157 76.6121 94.1657Z" fill="#263238"/>
<path d="M92.8849 105.603C91.7209 106.371 90.6709 106.839 90.5329 106.647C90.3949 106.455 91.2049 105.627 92.3329 104.805C93.4609 103.983 94.5169 103.521 94.6849 103.761C94.8529 104.001 94.0489 104.829 92.8849 105.603Z" fill="#263238"/>
<path d="M98.2428 124.441C96.8508 124.441 95.7168 124.333 95.7168 124.213C95.7168 124.093 96.8448 123.973 98.2428 123.955C99.6408 123.937 100.769 124.039 100.775 124.183C100.781 124.327 99.6528 124.441 98.2428 124.441Z" fill="#263238"/>
<path d="M66.1412 127.047C65.7057 127.05 65.2823 126.904 64.9412 126.633L50.2472 115.233C49.8399 114.914 49.5756 114.447 49.5126 113.934C49.4496 113.421 49.593 112.904 49.9112 112.497C50.2295 112.089 50.6965 111.825 51.2096 111.762C51.7227 111.699 52.2399 111.842 52.6472 112.161L66.0512 122.553L84.5612 105.555C84.9392 105.204 85.441 105.017 85.9564 105.036C86.4717 105.056 86.9583 105.279 87.3092 105.657C87.6601 106.035 87.8465 106.536 87.8274 107.052C87.8082 107.567 87.5852 108.054 87.2072 108.405L67.4852 126.525C67.12 126.863 66.6394 127.05 66.1412 127.047Z" fill="#01A657"/>
<path d="M76.1072 68H59.2592C58.9974 68 58.7852 68.2122 58.7852 68.474V74.576C58.7852 74.8378 58.9974 75.05 59.2592 75.05H76.1072C76.3689 75.05 76.5812 74.8378 76.5812 74.576V68.474C76.5812 68.2122 76.3689 68 76.1072 68Z" fill="#01A657"/>
<path d="M72.28 71.5273H63.082V79.8673H72.28V71.5273Z" fill="#01A657"/>
<path d="M29.7159 89.5755L22.8066 98.1322C22.538 98.4648 22.5899 98.9521 22.9225 99.2206L27.6467 103.035C27.9792 103.304 28.4666 103.252 28.7351 102.919L35.6444 94.3626C35.913 94.03 35.8611 93.5427 35.5285 93.2742L30.8043 89.4595C30.4718 89.191 29.9844 89.2429 29.7159 89.5755Z" fill="#01A657"/>
<path d="M76.1086 75.0491C76.1086 75.1511 72.3346 75.2291 67.7086 75.2291C63.0826 75.2291 59.3086 75.1511 59.3086 75.0491C59.3086 74.9471 63.0766 74.8691 67.7086 74.8691C72.3406 74.8691 76.1086 74.9531 76.1086 75.0491Z" fill="#263238"/>
<path d="M29.5591 101.449C29.4631 101.557 28.1911 100.585 26.6191 99.4031C25.0471 98.2211 23.7691 97.2611 23.8471 97.1411C23.9251 97.0211 25.3351 97.8011 26.9251 98.9951C28.5151 100.189 29.6491 101.347 29.5591 101.449Z" fill="#263238"/>
<path d="M31.0241 99.2967C30.9281 99.4047 29.6561 98.4327 28.0841 97.2507C26.5121 96.0687 25.2281 95.1087 25.3061 94.9887C25.3841 94.8687 26.8001 95.6487 28.3901 96.8487C29.9801 98.0487 31.1141 99.1947 31.0241 99.2967Z" fill="#263238"/>
<path d="M32.8172 97.4901C32.7272 97.5981 31.4552 96.6261 29.8832 95.4441C28.3112 94.2621 27.0512 93.3021 27.1052 93.1821C27.1592 93.0621 28.5992 93.8421 30.1832 95.0421C31.7672 96.2421 32.9132 97.3881 32.8172 97.4901Z" fill="#263238"/>
<path d="M34.5576 95.3358C34.4676 95.4438 33.1896 94.4718 31.6176 93.2898C30.0456 92.1078 28.7676 91.1478 28.8516 91.0278C28.9356 90.9078 30.3456 91.6878 31.9296 92.8878C33.5136 94.0878 34.6476 95.2338 34.5576 95.3358Z" fill="#263238"/>
<path d="M109.976 92.2797L102.539 84.1776C102.25 83.8627 101.76 83.8418 101.445 84.1308L96.9723 88.2369C96.6574 88.526 96.6364 89.0156 96.9255 89.3305L104.363 97.4326C104.652 97.7475 105.141 97.7685 105.456 97.4794L109.929 93.3733C110.244 93.0842 110.265 92.5946 109.976 92.2797Z" fill="#01A657"/>
<path d="M98.255 90.3739C98.165 90.2659 99.311 89.1739 100.715 87.7699C102.119 86.3659 103.253 85.2679 103.361 85.3699C103.469 85.4719 102.491 86.7499 101.069 88.1419C99.647 89.5339 98.339 90.4759 98.255 90.3739Z" fill="#263238"/>
<path d="M100.168 92.1375C100.072 92.0295 101.224 90.9375 102.622 89.5335C104.02 88.1295 105.166 87.0315 105.274 87.1335C105.382 87.2355 104.398 88.5135 102.982 89.9055C101.566 91.2975 100.252 92.2395 100.168 92.1375Z" fill="#263238"/>
<path d="M101.685 94.1844C101.589 94.0764 102.741 92.9844 104.139 91.5804C105.537 90.1764 106.683 89.0784 106.791 89.1804C106.899 89.2824 105.915 90.5544 104.493 91.9464C103.071 93.3384 101.769 94.2864 101.685 94.1844Z" fill="#263238"/>
<path d="M103.558 96.241C103.462 96.133 104.614 95.041 106.012 93.637C107.41 92.233 108.556 91.135 108.664 91.237C108.772 91.339 107.788 92.617 106.366 94.009C104.944 95.401 103.642 96.325 103.558 96.241Z" fill="#263238"/>
<path d="M61.1504 75.0438C61.0124 75.0438 60.8984 73.4838 60.8984 71.5698C60.8984 69.6558 61.0124 68.0898 61.1504 68.0898C61.2884 68.0898 61.4084 69.6498 61.4084 71.5698C61.4084 73.4898 61.2944 75.0438 61.1504 75.0438Z" fill="#263238"/>
<path d="M64.4493 75.0438C64.3113 75.0438 64.1973 73.4838 64.1973 71.5698C64.1973 69.6558 64.3113 68.0898 64.4493 68.0898C64.5873 68.0898 64.7013 69.6498 64.7013 71.5698C64.7013 73.4898 64.5873 75.0438 64.4493 75.0438Z" fill="#263238"/>
<path d="M67.7442 75.0438C67.6062 75.0438 67.4922 73.4838 67.4922 71.5698C67.4922 69.6558 67.6062 68.0898 67.7442 68.0898C67.8822 68.0898 67.9962 69.6498 67.9962 71.5698C67.9962 73.4898 67.8882 75.0438 67.7442 75.0438Z" fill="#263238"/>
<path d="M71.045 75.0438C70.901 75.0438 70.793 73.4838 70.793 71.5698C70.793 69.6558 70.901 68.0898 71.045 68.0898C71.189 68.0898 71.297 69.6498 71.297 71.5698C71.297 73.4898 71.183 75.0438 71.045 75.0438Z" fill="#263238"/>
<path d="M74.3379 75.0438C74.1999 75.0438 74.0859 73.4838 74.0859 71.5698C74.0859 69.6558 74.1999 68.0898 74.3379 68.0898C74.4759 68.0898 74.5899 69.6498 74.5899 71.5698C74.5899 73.4898 74.4519 75.0438 74.3379 75.0438Z" fill="#263238"/>
<path d="M69.7075 127.548C71.4274 125.828 71.4274 123.039 69.7075 121.319C67.9877 119.6 65.1992 119.6 63.4793 121.319C61.7595 123.039 61.7595 125.828 63.4793 127.548C65.1992 129.268 67.9877 129.268 69.7075 127.548Z" fill="#01A657"/>
<path d="M70.9963 124.442C70.9543 124.442 70.9603 124.052 70.7743 123.386C70.5075 122.457 69.9398 121.642 69.1603 121.07C68.5354 120.606 67.794 120.325 67.0186 120.258C66.2432 120.191 65.4644 120.34 64.7691 120.69C64.0738 121.04 63.4894 121.576 63.081 122.238C62.6726 122.901 62.4564 123.664 62.4564 124.442C62.4564 125.22 62.6726 125.983 63.081 126.646C63.4894 127.308 64.0738 127.844 64.7691 128.194C65.4644 128.544 66.2432 128.693 67.0186 128.626C67.794 128.559 68.5354 128.278 69.1603 127.814C69.9385 127.241 70.5058 126.427 70.7743 125.498C70.9603 124.832 70.9543 124.442 70.9963 124.442C71.0383 124.442 70.9963 124.538 70.9963 124.724C71.0058 124.999 70.9775 125.273 70.9123 125.54C70.6969 126.542 70.1362 127.436 69.3283 128.066C68.7246 128.54 68.0108 128.853 67.2534 128.977C66.4959 129.101 65.7195 129.031 64.9963 128.774C64.101 128.457 63.326 127.87 62.7779 127.094C62.2298 126.318 61.9355 125.392 61.9355 124.442C61.9355 123.492 62.2298 122.566 62.7779 121.79C63.326 121.014 64.101 120.427 64.9963 120.11C65.7192 119.854 66.495 119.784 67.2522 119.906C68.0093 120.029 68.7233 120.341 69.3283 120.812C70.1359 121.445 70.6963 122.341 70.9123 123.344C70.9775 123.611 71.0058 123.885 70.9963 124.16C71.0263 124.334 71.0143 124.442 70.9963 124.442Z" fill="#263238"/>
<path d="M229.261 107.485L236.785 106.285C241.716 110.264 247.958 112.254 254.282 111.864C260.607 111.475 266.557 108.734 270.963 104.179C275.369 99.6253 277.911 93.5878 278.092 87.2539C278.272 80.9199 276.076 74.7477 271.936 69.9505C267.796 65.1534 262.011 62.0784 255.719 61.33C249.427 60.5817 243.083 62.2141 237.933 65.9064C232.783 69.5986 229.201 75.0837 227.891 81.2832C226.58 87.4827 227.636 93.9482 230.851 99.4087L229.261 107.485Z" fill="white"/>
<path d="M229.261 107.484C229.261 107.484 229.261 107.316 229.345 106.974L229.633 105.438C229.891 104.058 230.275 102.036 230.773 99.3963C230.774 99.3877 230.778 99.3794 230.782 99.3722C230.787 99.3649 230.794 99.3588 230.801 99.3542C230.808 99.3496 230.817 99.3467 230.825 99.3457C230.834 99.3447 230.843 99.3456 230.851 99.3483C230.857 99.3451 230.863 99.3435 230.869 99.3435C230.876 99.3435 230.882 99.3451 230.887 99.3483L230.779 99.4323C228.632 95.8079 227.418 91.7074 227.245 87.4983C227.192 86.1884 227.242 84.8763 227.395 83.5743C227.574 82.1806 227.858 80.8025 228.247 79.4523C229.664 74.5572 232.519 70.2004 236.44 66.9462C240.362 63.6919 245.171 61.6902 250.243 61.2003C254.223 60.8247 258.236 61.3935 261.954 62.8603C265.673 64.3272 268.993 66.6508 271.645 69.6423L272.665 70.8423C272.983 71.2623 273.265 71.7003 273.577 72.1203C274.17 72.9742 274.709 73.8639 275.191 74.7843C275.455 75.2283 275.623 75.7203 275.845 76.1823C276.067 76.6443 276.295 77.1063 276.445 77.5983C276.801 78.5506 277.095 79.5246 277.327 80.5143C278.25 84.3603 278.281 88.3665 277.417 92.2263C276.26 97.2453 273.607 101.795 269.81 105.275C266.012 108.754 261.248 111 256.147 111.714C254.746 111.905 253.331 111.987 251.917 111.96C250.604 111.898 249.296 111.758 247.999 111.54C243.871 110.772 240.001 108.981 236.743 106.332H236.797L231.169 107.178L229.735 107.388L229.261 107.454L229.759 107.364L231.205 107.124L236.773 106.2H236.827C240.082 108.805 243.934 110.56 248.035 111.306C249.322 111.521 250.62 111.655 251.923 111.708C253.328 111.731 254.732 111.645 256.123 111.45C261.163 110.721 265.864 108.486 269.612 105.039C273.359 101.591 275.977 97.0917 277.123 92.1303C277.971 88.3148 277.936 84.3562 277.021 80.5563C276.786 79.5805 276.496 78.619 276.151 77.6763C276.001 77.1903 275.749 76.7463 275.551 76.2783C275.353 75.8103 275.161 75.3363 274.903 74.8983C274.428 73.989 273.895 73.1112 273.307 72.2703C273.007 71.8503 272.707 71.4183 272.407 71.0043L271.399 69.8043C268.78 66.8492 265.501 64.5526 261.828 63.1006C258.156 61.6485 254.193 61.0818 250.261 61.4463C246.78 61.7903 243.408 62.8524 240.359 64.5657C237.309 66.2791 234.648 68.6062 232.543 71.4003C230.709 73.8446 229.339 76.6041 228.499 79.5423C228.111 80.8789 227.825 82.2427 227.641 83.6223C227.482 84.9138 227.426 86.2159 227.473 87.5163C227.62 91.696 228.797 95.7748 230.899 99.3903C230.911 99.4025 230.917 99.4186 230.917 99.4353C230.917 99.452 230.911 99.4681 230.899 99.4803C230.887 99.49 230.873 99.4954 230.857 99.4954C230.842 99.4954 230.827 99.49 230.815 99.4803L230.923 99.4443C230.395 102.054 229.987 104.058 229.723 105.444C229.585 106.122 229.477 106.644 229.405 106.992C229.333 107.34 229.261 107.484 229.261 107.484Z" fill="#263238"/>
<path d="M260.395 87.289C260.393 86.7794 260.543 86.2809 260.826 85.8567C261.108 85.4325 261.51 85.1016 261.981 84.9061C262.451 84.7105 262.969 84.659 263.469 84.7582C263.969 84.8573 264.428 85.1025 264.789 85.4629C265.149 85.8232 265.394 86.2824 265.493 86.7823C265.592 87.2822 265.541 87.8002 265.345 88.2708C265.15 88.7414 264.819 89.1433 264.395 89.4257C263.971 89.7081 263.472 89.8582 262.963 89.857C262.282 89.8554 261.63 89.5843 261.148 89.1031C260.667 88.6218 260.396 87.9696 260.395 87.289Z" fill="#263238"/>
<path d="M250.1 87.289C250.098 86.7796 250.248 86.2814 250.531 85.8573C250.813 85.4332 251.214 85.1024 251.684 84.9066C252.155 84.7109 252.672 84.6591 253.172 84.7577C253.672 84.8564 254.131 85.101 254.492 85.4608C254.852 85.8205 255.098 86.2791 255.198 86.7786C255.298 87.2781 255.247 87.7959 255.052 88.2666C254.858 88.7373 254.528 89.1397 254.104 89.4228C253.681 89.7059 253.183 89.857 252.674 89.857C251.992 89.857 251.338 89.5866 250.856 89.1052C250.373 88.6238 250.101 87.9706 250.1 87.289Z" fill="#263238"/>
<path d="M239.833 88.5721C239.579 88.1312 239.461 87.6248 239.494 87.1168C239.527 86.6087 239.71 86.122 240.02 85.7181C240.33 85.3142 240.753 85.0112 241.235 84.8476C241.717 84.6839 242.237 84.6669 242.728 84.7986C243.22 84.9304 243.662 85.205 243.997 85.5877C244.333 85.9705 244.548 86.4442 244.614 86.949C244.681 87.4537 244.596 87.9668 244.371 88.4234C244.146 88.88 243.79 89.2596 243.349 89.5141C242.758 89.8538 242.056 89.9454 241.397 89.7689C240.738 89.5923 240.176 89.162 239.833 88.5721Z" fill="#263238"/>
<path d="M60.0752 179.399C58.4972 178.649 55.8392 177.083 54.1952 176.471C52.5702 175.775 50.7572 175.653 49.0532 176.123C48.0872 176.447 47.1212 177.221 47.1152 178.241L53.5652 182.999L60.0752 181.283V179.399Z" fill="#FF9A6C"/>
<path d="M53.0188 179.333C53.0188 179.333 41.4328 176.819 39.5008 175.829C37.5688 174.839 27.5008 169.799 25.8148 169.799C24.1288 169.799 22.6888 170.255 22.3828 171.935L24.5848 173.645L24.8668 174.521L28.6348 176.483L29.3008 177.719L38.9008 182.843C38.9008 182.843 48.9688 187.955 50.6488 188.243C52.3288 188.531 60.7168 189.233 64.3048 192.287L78.7048 186.371C78.7048 186.371 74.5468 180.467 71.3428 179.009C68.4868 177.713 63.6928 177.713 60.3388 179.087L53.0188 179.333Z" fill="#FFBF9D"/>
<path d="M62.6543 189C62.6543 189 80.9843 228.972 83.9363 237C83.9363 237 104.426 233.628 105.128 222.258L78.7283 186.258L62.6543 189Z" fill="#FFBF9D"/>
<path d="M45.6333 180.239C45.6333 180.239 45.5613 180.239 45.4353 180.239C45.2478 180.22 45.0628 180.182 44.8833 180.125C44.2261 179.925 43.5877 179.668 42.9753 179.357C42.1953 178.979 41.2893 178.481 40.2933 177.923C39.7953 177.647 39.2733 177.353 38.7273 177.071C38.1813 176.789 37.5873 176.543 36.9813 176.279C35.8592 175.771 34.6998 175.35 33.5133 175.019C32.4273 174.749 31.3833 174.545 30.5973 174.809C30.2924 174.931 30.0158 175.114 29.7846 175.348C29.5534 175.581 29.3726 175.859 29.2533 176.165C29.1646 176.399 29.0625 176.627 28.9473 176.849C28.9473 176.849 28.9473 176.777 28.9773 176.657C29.0174 176.473 29.0715 176.293 29.1393 176.117C29.2453 175.837 29.3886 175.573 29.5653 175.331C29.7988 175.001 30.1243 174.746 30.5013 174.599C30.9664 174.443 31.4606 174.394 31.9473 174.455C32.4915 174.509 33.031 174.603 33.5613 174.737C34.7731 175.057 35.957 175.474 37.1013 175.985C37.7013 176.249 38.3013 176.495 38.8593 176.789C39.4173 177.083 39.9333 177.389 40.4313 177.671C41.4213 178.241 42.3093 178.757 43.0713 179.153C43.6617 179.476 44.2731 179.758 44.9013 179.999C45.3693 180.173 45.6333 180.209 45.6333 180.239Z" fill="#FF9A6C"/>
<path d="M34.5808 174.492C34.0159 174.378 33.469 174.188 32.9548 173.928C31.7173 173.344 30.4448 172.837 29.1448 172.41C28.4334 172.208 27.6899 172.145 26.9548 172.224C26.6614 172.233 26.3729 172.301 26.1068 172.425C25.8407 172.549 25.6025 172.725 25.4068 172.944C25.1721 173.269 25.0179 173.645 24.9568 174.042C24.9513 174.196 24.9209 174.348 24.8668 174.492C24.8387 174.339 24.8387 174.183 24.8668 174.03C24.8892 173.602 25.0259 173.187 25.2628 172.83C25.4464 172.58 25.6844 172.375 25.9588 172.23C26.2726 172.081 26.6093 171.985 26.9548 171.948C27.7286 171.851 28.5142 171.91 29.2648 172.122C30.5833 172.545 31.8606 173.087 33.0808 173.742C33.5938 173.965 34.0946 174.215 34.5808 174.492Z" fill="#FF9A6C"/>
<path d="M63.5013 178.199C63.5013 178.199 63.3393 178.295 63.0333 178.403C62.5945 178.561 62.1479 178.698 61.6953 178.811C60.2058 179.198 58.6791 179.426 57.1413 179.489C55.6038 179.555 54.0637 179.463 52.5453 179.213C51.9453 179.111 51.5013 179.009 51.1833 178.919C51.0131 178.893 50.8487 178.838 50.6973 178.757C50.6973 178.709 51.4173 178.847 52.5813 178.991C54.0896 179.177 55.6107 179.24 57.1293 179.177C58.6489 179.099 60.1598 178.898 61.6473 178.577C62.7573 178.361 63.4593 178.157 63.5013 178.199Z" fill="#FF9A6C"/>
<path d="M234.165 154.47L207.501 148.95L200.901 144L165.681 150.792C165.117 151.824 159.411 159.792 159.411 159.792L145.539 164.502C139.643 166.051 134.38 169.408 130.491 174.102C126.792 178.67 123.762 183.741 121.491 189.162C115.251 203.808 106.245 220.728 106.245 220.728L100.599 211.632L76.8027 222.84C76.8027 222.84 90.7407 250.938 95.3547 254.952C100.485 259.41 112.281 259.926 120.435 251.61C125.349 246.594 139.551 226.77 142.509 221.808L146.901 242.556L150.939 266.238L144.411 282.54H239.691L235.749 267.132C235.749 267.132 239.631 226.974 240.705 219.498C243.231 201.864 234.165 154.47 234.165 154.47Z" fill="#01A657"/>
<path d="M234.165 154.469C234.165 154.469 253.245 159.821 257.445 178.787C259.989 190.277 268.629 223.031 271.671 249.995C273.471 266.027 273.423 280.841 273.471 282.539H244.191L231.783 159.821L234.165 154.469Z" fill="#01A657"/>
<path d="M185.228 170.754C185.228 170.754 185.228 170.826 185.15 170.952L184.88 171.504C184.64 171.99 184.28 172.704 183.89 173.61C183.044 175.41 182.048 178.08 180.44 181.062L180.362 181.212L180.23 181.098C178.25 179.412 176.102 177.384 173.882 175.194C169.952 171.294 166.508 167.664 163.964 165.09L160.934 162.048L160.1 161.226C159.999 161.135 159.906 161.034 159.824 160.926C159.94 160.999 160.047 161.085 160.142 161.184L161.006 161.964C161.75 162.648 162.806 163.662 164.108 164.934C166.694 167.472 170.168 171.078 174.086 174.972C176.306 177.162 178.442 179.172 180.398 180.888L180.182 180.924C181.802 177.984 182.834 175.326 183.722 173.538C184.16 172.632 184.526 171.936 184.79 171.462C184.91 171.252 185.012 171.072 185.096 170.934C185.134 170.869 185.178 170.809 185.228 170.754Z" fill="black"/>
<path d="M207.872 149.627C207.87 149.769 207.852 149.909 207.818 150.047C207.758 150.347 207.686 150.743 207.596 151.247C207.38 152.279 206.996 153.767 206.504 155.579C205.466 159.179 203.786 164.153 201.704 169.523C200.606 172.367 199.526 175.055 198.518 177.437L198.44 177.623L198.29 177.491C195.572 175.091 193.136 173.201 191.486 171.797C190.658 171.095 190.01 170.531 189.572 170.135L189.086 169.679C188.972 169.571 188.918 169.517 188.924 169.511C188.993 169.547 189.058 169.591 189.116 169.643L189.632 170.069L191.594 171.665C193.28 173.033 195.734 174.887 198.482 177.275L198.254 177.329C199.244 174.929 200.318 172.253 201.41 169.415C203.468 164.015 205.178 159.125 206.264 155.519C206.804 153.719 207.2 152.243 207.464 151.217C207.578 150.731 207.674 150.341 207.746 150.017C207.778 149.884 207.821 149.754 207.872 149.627Z" fill="black"/>
<path d="M146.15 239.897C146.125 239.856 146.107 239.812 146.096 239.765L145.97 239.357C145.862 238.957 145.712 238.429 145.52 237.773C145.316 237.089 145.118 236.243 144.878 235.259C144.638 234.275 144.38 233.147 144.122 231.899C142.795 225.389 141.861 218.805 141.326 212.183C140.648 204.425 140.498 197.375 140.534 192.281C140.534 189.731 140.6 187.667 140.672 186.245C140.708 185.549 140.732 185.003 140.75 184.601C140.75 184.433 140.75 184.289 140.78 184.175C140.774 184.127 140.774 184.079 140.78 184.031C140.785 184.081 140.785 184.131 140.78 184.181V184.607C140.78 185.009 140.78 185.555 140.78 186.245C140.78 187.673 140.732 189.731 140.744 192.281C140.744 197.369 140.948 204.413 141.626 212.153C142.166 218.766 143.067 225.343 144.326 231.857C144.572 233.105 144.8 234.257 145.034 235.217C145.268 236.177 145.442 237.059 145.634 237.743L146.03 239.339L146.12 239.753C146.15 239.849 146.156 239.897 146.15 239.897Z" fill="black"/>
<path d="M235.748 175.506C235.784 175.558 235.812 175.614 235.832 175.674C235.886 175.8 235.958 175.962 236.042 176.166C236.234 176.622 236.492 177.264 236.828 178.074C236.996 178.494 237.194 178.95 237.386 179.46L237.956 181.14C238.16 181.74 238.376 182.394 238.61 183.078C238.844 183.762 239 184.512 239.21 185.286C241.01 191.46 241.91 200.394 241.394 210.168C240.878 219.942 239.726 228.768 238.994 235.104C238.628 238.272 238.328 240.846 238.118 242.646C238.016 243.516 237.932 244.206 237.872 244.692L237.8 245.226C237.796 245.287 237.784 245.348 237.764 245.406C237.756 245.346 237.756 245.286 237.764 245.226L237.806 244.686C237.854 244.194 237.92 243.486 237.998 242.634C238.166 240.834 238.43 238.266 238.772 235.08C239.426 228.708 240.53 219.912 241.058 210.156C241.586 200.4 240.698 191.514 238.976 185.34L238.376 183.132L237.776 181.2C237.584 180.6 237.404 180.03 237.236 179.514C237.068 178.998 236.864 178.536 236.702 178.116C236.39 177.294 236.15 176.652 235.97 176.19C235.898 175.98 235.838 175.818 235.79 175.686C235.767 175.628 235.753 175.568 235.748 175.506Z" fill="black"/>
<path d="M106.4 241.158C106.316 241.158 106.214 236.586 106.178 230.958C106.142 225.33 106.178 220.758 106.268 220.758C106.358 220.758 106.454 225.33 106.49 230.958C106.526 236.586 106.49 241.158 106.4 241.158Z" fill="black"/>
<path d="M192.981 268.847V268.595C192.981 268.415 193.029 268.175 193.065 267.863C193.149 267.203 193.263 266.261 193.413 265.049C193.491 264.449 193.575 263.759 193.671 263.021C193.767 262.283 193.839 261.467 193.929 260.621C194.103 258.881 194.343 256.907 194.529 254.711C194.619 253.619 194.709 252.467 194.811 251.273C194.913 250.079 194.961 248.831 195.039 247.541C195.219 244.961 195.297 242.195 195.399 239.291C195.531 233.477 195.513 227.081 195.213 220.379C194.913 213.677 194.301 207.305 193.623 201.527C193.245 198.641 192.915 195.899 192.489 193.349C192.291 192.071 192.117 190.835 191.889 189.653C191.661 188.471 191.475 187.337 191.289 186.251C190.923 184.085 190.503 182.141 190.161 180.425C189.987 179.567 189.831 178.769 189.681 178.025C189.531 177.281 189.369 176.627 189.231 176.027L188.631 173.261C188.571 172.955 188.517 172.715 188.481 172.541C188.445 172.367 188.439 172.289 188.439 172.289C188.47 172.367 188.494 172.447 188.511 172.529L188.697 173.243L189.363 176.003L189.837 177.995C189.993 178.727 190.161 179.519 190.347 180.395C190.701 182.105 191.139 184.049 191.517 186.215C191.717 187.299 191.917 188.433 192.117 189.617C192.333 190.817 192.507 192.017 192.717 193.313C193.149 195.869 193.491 198.611 193.881 201.497C194.571 207.281 195.159 213.659 195.495 220.367C195.831 227.075 195.807 233.483 195.657 239.303C195.543 242.213 195.459 244.979 195.267 247.559C195.183 248.849 195.123 250.097 195.021 251.297C194.919 252.497 194.811 253.643 194.715 254.741C194.547 256.937 194.289 258.941 194.115 260.645C194.013 261.515 193.917 262.325 193.833 263.045C193.749 263.765 193.635 264.461 193.545 265.073C193.371 266.273 193.233 267.221 193.143 267.875L193.029 268.607C193.02 268.688 193.004 268.769 192.981 268.847Z" fill="black"/>
<path d="M205.664 204.083H205.784L206.162 204.041L207.632 203.873L213.254 203.273L233.264 201.197H233.414V201.347C233.564 207.401 233.744 214.253 233.93 221.519V221.585L233.888 221.627L231.488 224.225L222.74 233.573L222.662 233.657L222.56 233.603L207.818 226.283L207.752 226.253V226.199C207.11 219.509 206.552 213.977 206.21 210.095C206.03 208.187 205.892 206.687 205.796 205.649C205.754 205.151 205.718 204.767 205.694 204.485C205.67 204.203 205.694 204.101 205.694 204.101C205.694 204.101 205.694 204.245 205.748 204.509C205.802 204.773 205.826 205.187 205.886 205.709C205.994 206.759 206.156 208.265 206.366 210.185C206.768 214.037 207.338 219.539 208.034 226.193L207.962 226.091L222.722 233.369L222.548 233.399L231.278 224.015L233.678 221.423L233.636 221.531C233.462 214.265 233.294 207.419 233.15 201.359L233.306 201.491L213.356 203.399L207.698 203.927L206.192 204.059L205.802 204.095L205.664 204.083Z" fill="black"/>
<path d="M233.45 208.307C233.11 208.401 232.763 208.468 232.412 208.505C231.74 208.613 230.768 208.751 229.562 208.907C227.162 209.213 223.808 209.567 220.118 209.921L210.662 210.845L207.8 211.145C207.453 211.201 207.102 211.227 206.75 211.223C207.09 211.129 207.437 211.062 207.788 211.025C208.46 210.917 209.432 210.779 210.638 210.623C213.038 210.317 216.392 209.963 220.088 209.609L229.538 208.685L232.4 208.385C232.747 208.329 233.098 208.303 233.45 208.307Z" fill="black"/>
<g opacity="0.3">
<path d="M239.248 231.904L240.256 244.162C242.482 233.662 245.98 222.376 245.434 211.66C244.888 200.944 243.88 190.69 237.844 180.988C240.468 188.293 241.671 196.032 241.39 203.788C240.838 216.328 239.248 231.904 239.248 231.904Z" fill="black"/>
</g>
<path d="M102.429 209.088C102.105 208.349 101.531 207.748 100.809 207.39C99.9687 207.102 99.0567 207.51 98.2587 207.906L76.4907 218.742C75.0567 219.456 73.4907 220.302 72.9627 221.802C72.2727 223.722 73.5627 225.75 74.7627 227.4C76.7667 230.154 79.1667 233.154 82.5627 233.544L101.289 220.704C103.575 220.368 104.997 217.818 104.889 215.508C104.781 213.198 103.593 211.092 102.429 209.088Z" fill="#01A657"/>
<path d="M104.793 216.935C104.738 217.012 104.674 217.083 104.601 217.145L104.001 217.703C103.485 218.183 102.723 218.861 101.769 219.677C99.8554 221.315 97.1374 223.493 93.9694 225.713C90.8014 227.933 87.9034 229.763 85.7014 230.999C84.6094 231.629 83.7154 232.121 83.0914 232.445L82.3714 232.811C82.2034 232.895 82.1134 232.931 82.1074 232.919C82.1768 232.854 82.2557 232.799 82.3414 232.757L83.0314 232.337L85.5874 230.807C87.7414 229.511 90.6754 227.651 93.8074 225.437C96.9394 223.223 99.6754 221.081 101.607 219.491L103.905 217.589L104.505 217.079C104.709 216.983 104.787 216.923 104.793 216.935Z" fill="black"/>
<g opacity="0.3">
<path d="M207.591 151.002C205.029 159.51 201.441 169.134 198.411 177.402C195.831 175.212 192.219 172.314 189.633 170.118C191.858 174.533 194.53 178.709 197.607 182.58C197.967 183.03 198.447 183.522 199.005 183.414C199.563 183.306 199.815 182.73 200.007 182.214L204.729 169.716C206.937 163.872 209.067 157.056 207.591 151.002Z" fill="black"/>
</g>
<path d="M167.091 58.4384C174.891 56.1944 182.187 58.4384 189.381 62.1704C196.575 65.9024 202.377 72.0644 206.133 79.2344C210.093 86.7884 211.845 95.5904 210.411 103.996C208.977 112.402 204.225 120.322 197.109 124.996C187.383 131.404 173.979 131.068 163.965 125.134C153.951 119.2 147.357 108.262 145.611 96.7484C144.411 88.8164 145.383 80.4524 149.085 73.3484C152.787 66.2444 159.333 60.4844 167.085 58.4324" fill="#263238"/>
<path d="M192.699 82.8526C191.193 79.9546 191.259 76.5166 190.437 73.3486C188.637 66.3826 182.277 61.3486 175.365 59.3386C168.939 57.4606 161.505 58.8706 154.365 62.0986C149.481 64.3126 145.035 67.7086 142.119 72.2086C140.212 75.2249 139.054 78.6534 138.741 82.2083C138.428 85.7632 138.969 89.3414 140.319 92.6446L175.953 83.2726C179.661 85.6726 183.459 88.1506 187.749 89.2726C188.997 89.6588 190.324 89.7187 191.601 89.4466C192.236 89.2967 192.813 88.9675 193.265 88.4983C193.717 88.0291 194.025 87.4398 194.151 86.8006C194.301 85.3726 193.353 84.1186 192.699 82.8526Z" fill="#263238"/>
<path d="M201.201 146.039L192.003 81.3474C191.595 78.2874 190.203 75.1674 187.125 75.3114L154.725 72.1914C144.573 72.6594 139.809 85.9914 140.709 96.0894C141.711 107.333 143.373 121.019 145.959 129.131C151.161 145.433 164.295 145.601 164.295 145.601C164.295 145.601 165.093 148.841 166.095 154.901L187.095 168.869L201.201 146.039Z" fill="#FFBF9D"/>
<path d="M148.539 108.395C148.619 108.955 148.915 109.461 149.364 109.805C149.812 110.149 150.377 110.304 150.939 110.237C151.215 110.218 151.484 110.143 151.731 110.018C151.977 109.892 152.196 109.719 152.375 109.507C152.553 109.296 152.687 109.051 152.769 108.787C152.852 108.523 152.88 108.245 152.853 107.969C152.771 107.41 152.474 106.905 152.027 106.56C151.579 106.215 151.014 106.058 150.453 106.121C150.177 106.142 149.908 106.218 149.662 106.344C149.415 106.471 149.197 106.645 149.018 106.857C148.84 107.068 148.706 107.313 148.624 107.578C148.541 107.842 148.512 108.12 148.539 108.395Z" fill="#263238"/>
<path d="M144.759 102.726C145.065 102.966 146.505 101.526 148.815 101.172C151.125 100.818 152.985 101.724 153.195 101.4C153.297 101.256 152.949 100.8 152.133 100.368C151.029 99.8318 149.787 99.6475 148.575 99.8395C147.375 100.018 146.263 100.575 145.401 101.43C144.771 102.078 144.609 102.6 144.759 102.726Z" fill="#263238"/>
<path d="M169.857 104.928C169.936 105.488 170.232 105.996 170.68 106.341C171.129 106.686 171.695 106.842 172.257 106.776C172.533 106.756 172.802 106.681 173.049 106.556C173.296 106.431 173.515 106.257 173.693 106.046C173.871 105.834 174.006 105.589 174.088 105.325C174.17 105.061 174.198 104.783 174.171 104.508C174.092 103.947 173.796 103.44 173.348 103.094C172.899 102.749 172.333 102.593 171.771 102.66C171.495 102.68 171.227 102.755 170.98 102.881C170.734 103.006 170.515 103.18 170.337 103.391C170.159 103.602 170.025 103.847 169.942 104.111C169.86 104.375 169.831 104.652 169.857 104.928Z" fill="#263238"/>
<path d="M166.702 99.6716C167.008 99.9116 168.454 98.4716 170.758 98.1176C173.062 97.7636 174.928 98.6696 175.138 98.3456C175.24 98.2016 174.892 97.7456 174.076 97.3136C172.97 96.7766 171.726 96.5923 170.512 96.7856C169.296 96.9647 168.17 97.5306 167.302 98.3996C166.702 98.9996 166.54 99.5996 166.702 99.6716Z" fill="#263238"/>
<path d="M161.733 118.073C161.733 117.941 160.251 117.911 157.887 117.971C157.287 117.971 156.687 117.971 156.549 117.581C156.411 117.191 156.495 116.507 156.675 115.781C157.011 114.273 157.365 112.691 157.737 111.035C159.177 104.279 160.137 98.7653 159.855 98.7113C159.573 98.6573 158.193 104.111 156.747 110.831C156.405 112.493 156.075 114.083 155.769 115.601C155.649 116.303 155.379 117.119 155.817 117.953C155.932 118.149 156.091 118.316 156.282 118.44C156.472 118.564 156.689 118.642 156.915 118.667C157.253 118.713 157.597 118.713 157.935 118.667C160.293 118.415 161.745 118.199 161.733 118.073Z" fill="#263238"/>
<path d="M164.301 145.601C172.19 144.517 179.622 141.262 185.769 136.199C185.769 136.199 180.531 149.309 165.369 150.629L164.301 145.601Z" fill="#FF9A6C"/>
<path d="M168.764 118.63C168.38 118.666 168.764 121.175 166.886 123.275C165.008 125.375 162.314 125.512 162.344 125.86C162.344 126.028 163.016 126.256 164.144 126.118C165.614 125.915 166.966 125.199 167.96 124.096C168.914 123.041 169.42 121.655 169.37 120.232C169.304 119.17 168.932 118.594 168.764 118.63Z" fill="#263238"/>
<path d="M166.041 92.7837C166.365 93.3837 168.621 92.7297 171.375 92.6397C174.129 92.5497 176.433 92.9577 176.703 92.3397C176.823 92.0457 176.355 91.5177 175.377 91.0437C174.086 90.48 172.684 90.2173 171.276 90.2755C169.869 90.3337 168.493 90.7113 167.253 91.3797C166.323 91.9317 165.897 92.5017 166.041 92.7837Z" fill="#263238"/>
<path d="M143.901 92.5437C144.387 93.0057 145.893 92.2197 147.801 91.9017C149.709 91.5837 151.401 91.7157 151.665 91.1097C151.791 90.8157 151.454 90.3357 150.674 89.9457C149.634 89.4978 148.485 89.3682 147.371 89.5732C146.257 89.7782 145.229 90.3087 144.417 91.0977C143.811 91.7397 143.673 92.3157 143.901 92.5437Z" fill="#263238"/>
<path d="M197.943 77.3149C193.575 68.0509 177.771 56.5489 167.739 58.6069L152.865 70.4629C153.758 73.1532 155.362 75.5523 157.505 77.4069C159.649 79.2614 162.254 80.5024 165.045 80.9989C168.015 81.4909 171.495 81.2689 173.523 83.5009C175.551 85.7329 175.065 89.5729 177.027 91.9429C179.745 95.2309 185.841 94.2469 188.037 97.9069C189.003 99.5029 188.889 101.579 189.873 103.163C191.193 105.269 197.247 107.363 199.473 106.295C201.699 105.227 201.195 101.243 201.681 99.0409C202.515 95.2909 201.723 93.5089 201.027 91.5649C199.401 86.9569 200.031 81.7309 197.943 77.3149Z" fill="#263238"/>
<path d="M192.831 109.198C192.645 107.95 193.635 104.8 194.835 104.398C198.039 103.39 203.997 102.748 205.323 111.076C207.123 122.476 195.339 121.93 195.261 121.606C195.183 121.282 193.479 113.482 192.831 109.198Z" fill="#FFBF9D"/>
<path d="M198.051 116.747C198.099 116.699 198.273 116.855 198.651 116.951C199.154 117.081 199.689 117.007 200.139 116.747C201.267 116.117 201.975 114.047 201.705 111.983C201.578 111.003 201.233 110.064 200.697 109.235C200.534 108.896 200.291 108.602 199.989 108.378C199.687 108.154 199.334 108.007 198.963 107.951C198.725 107.926 198.487 107.986 198.289 108.12C198.092 108.254 197.948 108.453 197.883 108.683C197.781 109.025 197.883 109.241 197.829 109.283C197.775 109.325 197.559 109.133 197.571 108.647C197.591 108.356 197.709 108.081 197.907 107.867C198.181 107.578 198.559 107.41 198.957 107.399C199.845 107.321 200.757 107.999 201.309 108.833C201.951 109.742 202.363 110.795 202.509 111.899C202.803 114.203 201.969 116.537 200.397 117.299C200.106 117.437 199.789 117.509 199.467 117.509C199.145 117.509 198.827 117.437 198.537 117.299C198.117 116.999 198.015 116.771 198.051 116.747Z" fill="#FF9A6C"/>
<path d="M155.792 66.6287C155.27 71.4287 148.868 78.1787 146.192 82.1567C141.05 89.7467 140.138 92.1767 141.95 107.633C138.542 102.611 135.806 97.6187 135.35 91.5647C134.894 85.5107 136.418 79.2287 140.114 74.4167C143.81 69.6047 149.756 66.4367 155.822 66.6167" fill="#263238"/>
<path d="M201.902 74.3988C195.458 64.9848 187.256 59.9508 179.834 58.3848L201.902 74.3988Z" fill="#263238"/>
<path d="M179.834 58.3848C180.174 58.5209 180.525 58.6273 180.884 58.7028C181.562 58.8948 182.54 59.1888 183.716 59.6388C186.778 60.8282 189.656 62.4441 192.266 64.4388C194.876 66.4286 197.255 68.7048 199.358 71.2248C200.15 72.2028 200.792 73.0248 201.206 73.5648C201.412 73.8708 201.645 74.158 201.902 74.4228C201.728 74.0946 201.528 73.7815 201.302 73.4868C200.918 72.8868 200.306 72.0768 199.532 71.0868C197.482 68.4911 195.12 66.1576 192.5 64.1388C189.859 62.1241 186.925 60.5256 183.8 59.3988C182.858 59.0634 181.896 58.7849 180.92 58.5648C180.563 58.4759 180.2 58.4157 179.834 58.3848Z" fill="#455A64"/>
<path d="M209.583 82.4206L209.439 82.4686L209.019 82.6366C208.659 82.7926 208.119 82.9966 207.411 83.2366C205.41 83.9066 203.335 84.3297 201.231 84.4967C198.112 84.7288 194.976 84.5269 191.913 83.8967C188.161 83.1084 184.493 81.9653 180.957 80.4826C177.177 78.9406 173.613 77.3566 170.439 75.8026C167.62 74.4386 164.906 72.8662 162.321 71.0986C160.583 69.9015 158.942 68.5694 157.413 67.1146C156.861 66.6046 156.465 66.1786 156.213 65.9146L155.895 65.5966C155.823 65.5306 155.787 65.4946 155.781 65.5006C155.775 65.5066 155.781 65.5427 155.871 65.6207L156.165 65.9626C156.423 66.2626 156.807 66.7007 157.365 67.2287C158.868 68.7258 160.496 70.0927 162.231 71.3146C164.807 73.1245 167.522 74.7294 170.349 76.1146C173.529 77.6926 177.087 79.2886 180.873 80.8366C184.431 82.3234 188.124 83.4627 191.901 84.2386C194.995 84.8562 198.16 85.0299 201.303 84.7546C203.404 84.5627 205.472 84.1071 207.459 83.3986C208.161 83.1286 208.695 82.9067 209.049 82.7267L209.451 82.5287C209.541 82.4507 209.589 82.4266 209.583 82.4206Z" fill="#455A64"/>
<path d="M175.586 138.923L174.5 136.799C174.578 136.757 182.114 132.893 185.012 130.457C191.84 124.721 198.116 115.559 198.182 115.457L200.162 116.807C199.898 117.197 193.64 126.335 186.554 132.287C183.434 134.891 175.904 138.761 175.586 138.923Z" fill="#455A64"/>
<path d="M181.196 132.293C181.196 132.293 170.9 136.889 170.9 137.909C170.9 138.929 172.532 140.969 173.756 140.867C174.98 140.765 178.52 138.773 179.156 137.957C179.792 137.141 180.92 135.041 182.156 134.021L181.196 132.293Z" fill="#263238"/>
<path d="M200.079 101.399L197.679 101.285C197.766 94.3644 196.574 87.4871 194.163 80.9992C188.955 67.5832 178.941 60.3832 164.409 59.5912C163.087 59.5333 161.763 59.6238 160.461 59.8612L161.511 58.8652C162.02 58.385 162.611 58.0008 163.257 57.7312C164.142 57.3613 165.104 57.213 166.059 57.2992C184.407 58.8892 192.699 70.5532 196.425 80.2012C198.963 86.9751 200.203 94.1665 200.079 101.399Z" fill="#455A64"/>
<path d="M198.879 123.221C203.078 123.221 206.481 118.327 206.481 112.289C206.481 106.252 203.078 101.357 198.879 101.357C194.681 101.357 191.277 106.252 191.277 112.289C191.277 118.327 194.681 123.221 198.879 123.221Z" fill="#455A64"/>
<path d="M206.482 112.29C206.474 112.24 206.474 112.19 206.482 112.14C206.482 112.02 206.482 111.876 206.446 111.696C206.419 111.129 206.361 110.564 206.272 110.004C205.961 107.937 205.157 105.975 203.926 104.286C203.511 103.74 203.031 103.246 202.498 102.816C201.916 102.358 201.261 102.003 200.56 101.766C199.809 101.523 199.014 101.447 198.232 101.544C197.403 101.668 196.61 101.964 195.904 102.414C194.406 103.456 193.25 104.917 192.58 106.614C191.83 108.421 191.445 110.358 191.445 112.314C191.445 114.27 191.83 116.207 192.58 118.014C193.249 119.711 194.405 121.172 195.904 122.214C196.61 122.663 197.403 122.959 198.232 123.084C199.014 123.178 199.808 123.102 200.56 122.862C201.261 122.625 201.916 122.27 202.498 121.812C203.03 121.38 203.509 120.887 203.926 120.342C205.157 118.653 205.961 116.691 206.272 114.624C206.36 114.063 206.418 113.499 206.446 112.932C206.446 112.752 206.446 112.608 206.482 112.488C206.474 112.438 206.474 112.387 206.482 112.338C206.491 112.387 206.491 112.438 206.482 112.488V112.932C206.475 113.504 206.435 114.075 206.362 114.642C206.093 116.746 205.305 118.75 204.07 120.474C203.649 121.039 203.162 121.551 202.618 121.998C202.018 122.482 201.337 122.858 200.608 123.108C199.821 123.366 198.988 123.45 198.166 123.354C197.297 123.229 196.465 122.923 195.724 122.454C194.171 121.398 192.97 119.902 192.274 118.158C191.501 116.315 191.104 114.336 191.104 112.338C191.104 110.339 191.501 108.361 192.274 106.518C192.97 104.774 194.171 103.278 195.724 102.222C196.465 101.753 197.297 101.446 198.166 101.322C198.988 101.226 199.821 101.31 200.608 101.568C201.337 101.818 202.018 102.193 202.618 102.678C203.163 103.123 203.651 103.635 204.07 104.202C205.307 105.925 206.095 107.929 206.362 110.034C206.435 110.599 206.475 111.168 206.482 111.738V112.188C206.486 112.222 206.486 112.256 206.482 112.29Z" fill="#263238"/>
<path d="M200.049 118.637C202.723 118.637 204.891 115.521 204.891 111.677C204.891 107.833 202.723 104.717 200.049 104.717C197.375 104.717 195.207 107.833 195.207 111.677C195.207 115.521 197.375 118.637 200.049 118.637Z" fill="#455A64"/>
<path d="M204.891 111.678C204.855 111.678 204.891 111.15 204.717 110.22C204.516 108.916 204.001 107.68 203.217 106.62C202.684 105.892 201.943 105.342 201.093 105.042C200.621 104.89 200.121 104.843 199.629 104.904C199.11 104.981 198.613 105.167 198.171 105.45C197.229 106.105 196.501 107.023 196.077 108.09C195.602 109.23 195.36 110.454 195.363 111.69C195.357 112.925 195.6 114.15 196.077 115.29C196.501 116.356 197.229 117.274 198.171 117.93C198.613 118.212 199.11 118.398 199.629 118.476C200.121 118.537 200.621 118.49 201.093 118.338C201.943 118.037 202.684 117.487 203.217 116.76C204.001 115.699 204.516 114.464 204.717 113.16C204.867 112.23 204.855 111.702 204.891 111.708C204.899 111.834 204.899 111.96 204.891 112.086C204.89 112.451 204.866 112.816 204.819 113.178C204.66 114.524 204.162 115.808 203.373 116.91C202.823 117.687 202.048 118.278 201.153 118.602C200.648 118.773 200.111 118.831 199.581 118.77C199.019 118.682 198.481 118.478 198.003 118.17C197.006 117.493 196.233 116.534 195.783 115.416C195.288 114.235 195.033 112.967 195.033 111.687C195.033 110.406 195.288 109.139 195.783 107.958C196.233 106.839 197.006 105.88 198.003 105.204C198.479 104.896 199.015 104.692 199.575 104.604C200.107 104.543 200.646 104.6 201.153 104.772C202.048 105.096 202.823 105.686 203.373 106.464C204.162 107.566 204.66 108.85 204.819 110.196C204.866 110.558 204.89 110.922 204.891 111.288C204.899 111.418 204.899 111.548 204.891 111.678Z" fill="#263238"/>
<path d="M200.384 116.682C202.306 116.682 203.864 114.441 203.864 111.678C203.864 108.914 202.306 106.674 200.384 106.674C198.462 106.674 196.904 108.914 196.904 111.678C196.904 114.441 198.462 116.682 200.384 116.682Z" fill="#455A64"/>
<path d="M203.864 111.677C203.834 111.677 203.834 111.299 203.726 110.633C203.571 109.697 203.197 108.81 202.634 108.047C202.254 107.529 201.727 107.138 201.122 106.925C200.777 106.815 200.412 106.784 200.053 106.835C199.695 106.886 199.352 107.017 199.052 107.219C197.75 108.077 197.06 109.877 197.054 111.671C197.048 113.465 197.75 115.271 199.052 116.129C199.352 116.331 199.695 116.462 200.053 116.513C200.412 116.564 200.777 116.533 201.122 116.423C201.727 116.21 202.254 115.819 202.634 115.301C203.197 114.537 203.571 113.651 203.726 112.715C203.834 112.049 203.834 111.671 203.864 111.677C203.878 111.766 203.878 111.857 203.864 111.947C203.867 112.21 203.853 112.472 203.822 112.733C203.714 113.708 203.359 114.64 202.79 115.439C202.385 115.992 201.822 116.41 201.176 116.639C200.807 116.763 200.417 116.806 200.03 116.765C199.62 116.708 199.228 116.565 198.878 116.345C198.152 115.853 197.589 115.155 197.264 114.341C196.903 113.487 196.717 112.568 196.717 111.641C196.717 110.713 196.903 109.795 197.264 108.941C197.589 108.127 198.152 107.429 198.878 106.937C199.228 106.717 199.62 106.573 200.03 106.517C200.417 106.476 200.807 106.519 201.176 106.643C201.822 106.871 202.385 107.29 202.79 107.843C203.359 108.642 203.714 109.574 203.822 110.549C203.853 110.81 203.867 111.072 203.864 111.335C203.885 111.448 203.885 111.564 203.864 111.677Z" fill="#263238"/>
<path d="M36.1001 149.3C36.3401 151.967 36.5201 153.767 36.6401 154.7C36.7067 155.38 36.8001 155.893 36.9201 156.24C37.0534 156.587 37.2467 156.833 37.5001 156.98C37.7534 157.127 38.1201 157.2 38.6001 157.2H38.8801L38.9801 158.1L38.8801 159H38.6001C37.5334 159 36.7201 158.687 36.1601 158.06C35.6001 157.42 35.2401 156.38 35.0801 154.94L34.7401 151.86L34.4801 149.62L36.1001 149.3ZM36.0001 157.6C35.2134 157.867 34.4267 158 33.6401 158C32.5467 158 31.6467 157.747 30.9401 157.24C30.2467 156.733 29.9001 156.047 29.9001 155.18C29.9001 153.287 31.6001 151.787 35.0001 150.68L35.3401 152.36C34.2867 152.64 33.3801 153.02 32.6201 153.5C31.8601 153.967 31.4601 154.42 31.4201 154.86C31.3801 155.247 31.5467 155.567 31.9201 155.82C32.3067 156.073 32.8267 156.2 33.4801 156.2C34.1467 156.2 34.8534 156.067 35.6001 155.8L36.0001 157.6ZM38.648 157.2H38.828C39.8547 157.2 40.6547 157.16 41.228 157.08C41.8014 156.987 42.2214 156.847 42.488 156.66C42.7547 156.473 42.948 156.22 43.068 155.9C43.148 155.66 43.188 155.373 43.188 155.04C43.188 154.613 43.108 153.88 42.948 152.84L44.428 152.56C44.588 153.4 44.6747 154.467 44.688 155.76C44.8747 156.72 45.4814 157.2 46.508 157.2H46.648L46.748 158.1L46.648 159H46.508C45.8414 159 45.2547 158.807 44.748 158.42C44.2547 158.02 43.908 157.513 43.708 156.9L44.108 156.98C43.9347 157.487 43.648 157.887 43.248 158.18C42.848 158.473 42.2947 158.687 41.588 158.82C40.8947 158.94 39.9747 159 38.828 159H38.648V157.2ZM39.748 149.1L40.648 148.2L41.988 149.54L40.648 150.9L39.308 149.54L39.748 149.1ZM43.308 149.1L44.208 148.2L45.548 149.54L44.208 150.9L42.868 149.54L43.308 149.1ZM46.441 157.2H46.681C48.9877 157.2 50.8477 157.12 52.261 156.96C53.6877 156.787 54.9277 156.5 55.981 156.1L56.361 157.7C55.2677 158.153 53.981 158.487 52.501 158.7C51.021 158.9 49.081 159 46.681 159H46.441V157.2ZM53.181 158.48C52.341 158.533 51.5343 158.393 50.761 158.06C49.9877 157.727 49.361 157.247 48.881 156.62C48.4143 155.993 48.181 155.28 48.181 154.48C48.181 153.827 48.341 153.213 48.661 152.64C48.9943 152.053 49.441 151.573 50.001 151.2C50.561 150.827 51.181 150.6 51.861 150.52C51.9543 150.507 52.0877 150.5 52.261 150.5C52.8477 150.5 53.421 150.627 53.981 150.88C54.5543 151.12 55.0677 151.447 55.521 151.86L54.881 153.1C54.0143 152.567 53.181 152.3 52.381 152.3C51.8477 152.3 51.3743 152.4 50.961 152.6C50.561 152.8 50.2477 153.073 50.021 153.42C49.7943 153.753 49.681 154.113 49.681 154.5C49.681 154.927 49.8277 155.333 50.121 155.72C50.4277 156.093 50.841 156.387 51.361 156.6C51.881 156.8 52.4543 156.887 53.081 156.86L53.181 158.48ZM59.9707 145.08C60.0774 145.76 60.1574 146.953 60.2107 148.66C60.2774 150.353 60.3107 151.893 60.3107 153.28V154.12L60.2907 154.82C60.2907 155.447 60.344 155.927 60.4507 156.26C60.5574 156.58 60.7574 156.82 61.0507 156.98C61.3574 157.127 61.8107 157.2 62.4107 157.2H62.5107L62.6107 158.1L62.5107 159H62.4107C61.464 159 60.724 158.847 60.1907 158.54C59.6574 158.22 59.2774 157.747 59.0507 157.12C58.8374 156.493 58.7307 155.667 58.7307 154.64C58.7307 153.12 58.6974 151.4 58.6307 149.48C58.5774 147.547 58.4907 146.193 58.3707 145.42L59.9707 145.08ZM73.5199 157.2C74.5199 157.2 75.0199 156.647 75.0199 155.54C75.0199 155.087 74.8866 154.453 74.6199 153.64C74.3666 152.813 74.1399 152.187 73.9399 151.76L75.3599 150.98C75.6266 151.54 75.8933 152.273 76.1599 153.18C76.4266 154.073 76.5599 154.86 76.5599 155.54C76.5599 156.193 76.4266 156.787 76.1599 157.32C75.9066 157.84 75.5466 158.253 75.0799 158.56C74.6266 158.853 74.1066 159 73.5199 159H73.4799V157.2H73.5199ZM68.0799 159V157.2H68.1399C68.8866 157.2 69.5266 156.733 70.0599 155.8C70.2333 155.48 70.3666 155.1 70.4599 154.66C70.5666 154.22 70.6666 153.733 70.7599 153.2L72.2399 153.28C72.2266 153.333 72.1799 153.58 72.0999 154.02C72.0199 154.46 71.9799 154.887 71.9799 155.3C71.9799 155.94 72.0999 156.42 72.3399 156.74C72.5933 157.047 72.9866 157.2 73.5199 157.2H73.5599L73.6599 158.1L73.5599 159H73.5199C72.7466 159 72.1266 158.773 71.6599 158.32C71.2066 157.853 70.9333 157.207 70.8399 156.38L71.1599 156.36C70.8799 157.12 70.4666 157.753 69.9199 158.26C69.3866 158.753 68.7866 159 68.1199 159H68.0799ZM62.3599 159L62.2599 158.1L62.3599 157.2H62.4599C62.9533 157.2 63.4199 157.087 63.8599 156.86C64.2999 156.633 64.6399 156.333 64.8799 155.96C65.1333 155.6 65.3266 155.22 65.4599 154.82C65.6066 154.42 65.7533 153.947 65.8999 153.4L67.3999 153.56C67.3733 153.64 67.3199 153.84 67.2399 154.16C67.1599 154.48 67.0933 154.78 67.0399 155.06C66.9999 155.34 66.9799 155.593 66.9799 155.82C66.9799 156.74 67.3533 157.2 68.0999 157.2H68.1399L68.2399 158.1L68.1399 159H68.0799C67.4666 159 66.9533 158.82 66.5399 158.46C66.1399 158.087 65.8999 157.587 65.8199 156.96C65.4066 157.627 64.9133 158.133 64.3399 158.48C63.7666 158.827 63.1333 159 62.4399 159H62.3599ZM87.6963 146.6C87.9363 147.24 88.163 147.753 88.3763 148.14C88.5897 148.527 88.863 148.84 89.1963 149.08C89.5297 149.307 89.9497 149.42 90.4563 149.42C91.2563 149.42 91.823 149.173 92.1563 148.68C92.4897 148.187 92.6563 147.493 92.6563 146.6C92.6563 146.36 92.6297 145.947 92.5763 145.36L94.0763 145.08C94.1697 145.6 94.2163 146.14 94.2163 146.7C94.2163 148.073 93.8963 149.187 93.2563 150.04C92.6163 150.893 91.6963 151.32 90.4963 151.32C89.4297 151.32 88.5963 150.98 87.9963 150.3C87.3963 149.62 86.8563 148.66 86.3763 147.42L87.6963 146.6ZM87.2563 159C87.2697 158.813 87.2763 158.513 87.2763 158.1C87.2763 156.993 87.243 155.867 87.1763 154.72C87.123 153.573 87.0363 152.567 86.9163 151.7C86.7697 150.527 86.5697 149.5 86.3163 148.62C86.0763 147.727 85.7763 146.873 85.4163 146.06L87.1163 145.08C87.8363 146.6 88.3497 148.733 88.6563 151.48C88.8563 153.28 88.9563 155.393 88.9563 157.82C88.9563 158.353 88.9497 158.747 88.9363 159H87.2563ZM98.5823 147.12C98.9689 148.653 99.5956 149.76 100.462 150.44C101.329 151.107 102.316 151.44 103.422 151.44C104.062 151.44 104.702 151.34 105.342 151.14C105.996 150.94 106.589 150.687 107.122 150.38L107.582 152.02C106.396 152.713 105.256 153.06 104.162 153.06C103.362 153.06 102.649 152.887 102.022 152.54C101.396 152.193 100.896 151.747 100.522 151.2C100.162 150.653 99.9623 150.1 99.9223 149.54C99.8689 148.807 100.009 148.107 100.342 147.44C100.676 146.773 101.156 146.24 101.782 145.84C102.422 145.427 103.129 145.22 103.902 145.22C104.502 145.22 105.069 145.34 105.602 145.58C106.136 145.82 106.669 146.153 107.202 146.58L106.502 147.92C106.156 147.693 105.756 147.507 105.302 147.36C104.862 147.2 104.429 147.12 104.002 147.12C103.282 147.12 102.682 147.327 102.202 147.74C101.722 148.14 101.482 148.633 101.482 149.22C101.482 149.833 101.689 150.34 102.102 150.74C102.516 151.127 103.102 151.32 103.862 151.32C104.782 151.32 105.869 151.007 107.122 150.38L107.582 152.02C107.062 152.353 106.449 152.627 105.742 152.84C105.049 153.04 104.336 153.14 103.602 153.14C102.202 153.14 100.936 152.733 99.8023 151.92C98.6689 151.107 97.8356 149.787 97.3023 147.96L98.5823 147.12ZM97.9823 158.1C97.9823 157.007 97.9489 155.887 97.8823 154.74C97.8289 153.593 97.7489 152.58 97.6423 151.7C97.4956 150.527 97.2956 149.5 97.0423 148.62C96.8023 147.727 96.5023 146.873 96.1423 146.06L97.8423 145.08C98.5623 146.6 99.0756 148.733 99.3823 151.48C99.5689 153.16 99.6623 155.273 99.6623 157.82V159H97.9823V158.1Z" fill="black"/>
</svg>
