<svg width="432" height="287" viewBox="0 0 432 287" fill="none" xmlns="http://www.w3.org/2000/svg">
<path d="M264.46 189.327C264.816 187.139 265.936 185.147 267.622 183.701C269.308 182.255 271.452 181.449 273.676 181.423C293.571 181.159 344.224 180.706 346.943 182.853C350.33 185.533 352.127 186.905 351.833 191.158C351.585 195.062 347.317 262.501 347.317 262.501H252.502L264.46 189.327Z" fill="#455A64"/>
<path d="M336.499 262.536C336.485 262.47 336.475 262.403 336.471 262.335C336.471 262.191 336.471 261.996 336.425 261.761C336.384 261.233 336.327 260.475 336.257 259.517C336.188 258.558 336.108 257.341 336.062 255.952C336.016 254.563 335.923 252.979 335.923 251.228C335.923 250.35 335.923 249.431 335.895 248.479C335.866 247.526 335.895 246.527 335.929 245.5C335.929 243.439 336.05 241.24 336.148 238.927C336.413 234.301 336.851 229.227 337.559 223.929C338.268 218.631 339.235 213.597 340.22 209.091C340.744 206.835 341.228 204.688 341.77 202.696C342.035 201.703 342.271 200.739 342.536 199.826C342.801 198.914 343.06 198.03 343.302 197.186C343.774 195.498 344.287 194 344.702 192.669C345.116 191.337 345.514 190.212 345.854 189.288C346.193 188.364 346.43 187.669 346.614 187.164L346.821 186.59C346.867 186.469 346.896 186.406 346.896 186.406C346.888 186.473 346.873 186.538 346.85 186.601L346.672 187.175C346.504 187.686 346.268 188.404 345.963 189.322C345.658 190.241 345.266 191.383 344.869 192.715C344.471 194.046 343.97 195.55 343.515 197.238C343.273 198.081 343.025 198.96 342.766 199.884C342.507 200.808 342.277 201.772 342.017 202.754C341.488 204.74 341.015 206.892 340.497 209.142C339.523 213.666 338.602 218.671 337.865 223.963C337.127 229.255 336.713 234.295 336.43 238.933C336.327 241.229 336.2 243.439 336.183 245.5C336.183 246.527 336.131 247.52 336.131 248.473C336.131 249.426 336.131 250.344 336.131 251.217C336.131 252.967 336.194 254.552 336.229 255.941C336.263 257.33 336.315 258.524 336.367 259.499C336.419 260.475 336.453 261.221 336.476 261.755C336.476 261.996 336.476 262.191 336.476 262.329C336.491 262.397 336.498 262.466 336.499 262.536Z" fill="#263238"/>
<path d="M283.191 215.37C283.191 215.37 283.237 215.37 283.335 215.312C283.48 215.289 283.627 215.289 283.772 215.312C284.048 215.343 284.314 215.432 284.554 215.572C284.793 215.713 285 215.902 285.16 216.127C285.399 216.469 285.538 216.869 285.563 217.285C285.587 217.7 285.496 218.114 285.299 218.481C285.086 218.919 284.77 219.299 284.377 219.588C283.944 219.89 283.436 220.067 282.908 220.099C282.373 220.141 281.839 220.001 281.393 219.703C281.188 219.561 281.012 219.378 280.878 219.168C280.743 218.957 280.652 218.721 280.61 218.475C280.539 218.068 280.568 217.649 280.695 217.255C280.821 216.862 281.041 216.504 281.336 216.213C282.401 215.306 283.34 215.278 283.323 215.364C283.306 215.45 283.271 215.364 283.179 215.364C283.041 215.398 282.906 215.444 282.776 215.502C282.298 215.697 281.86 215.979 281.486 216.334C281.23 216.606 281.043 216.935 280.938 217.293C280.833 217.65 280.813 218.028 280.881 218.395C280.919 218.604 280.999 218.804 281.116 218.982C281.232 219.161 281.384 219.314 281.56 219.433C281.951 219.692 282.418 219.811 282.885 219.772C283.358 219.744 283.815 219.587 284.204 219.319C284.565 219.066 284.857 218.726 285.051 218.331C285.233 218.007 285.324 217.639 285.313 217.267C285.302 216.894 285.189 216.532 284.988 216.219C284.701 215.797 284.261 215.502 283.761 215.398C283.571 215.377 283.381 215.367 283.191 215.37Z" fill="#263238"/>
<path d="M298.057 206.799C298.057 206.862 297.078 206.684 295.511 206.828C293.467 207.008 291.507 207.722 289.828 208.898C288.149 210.074 286.811 211.671 285.949 213.527C285.275 214.944 285.114 215.914 285.051 215.903C285.058 215.672 285.095 215.442 285.16 215.22C285.295 214.61 285.488 214.014 285.736 213.44C286.57 211.518 287.923 209.864 289.645 208.663C291.367 207.462 293.39 206.761 295.488 206.639C296.116 206.598 296.747 206.615 297.371 206.69C297.604 206.696 297.834 206.733 298.057 206.799Z" fill="#263238"/>
<path d="M270.559 224.347C270.611 224.175 270.687 224.01 270.783 223.859C271.021 223.434 271.301 223.034 271.618 222.665C272.662 221.418 274.03 220.481 275.572 219.957C277.114 219.433 278.771 219.341 280.362 219.691C280.84 219.795 281.306 219.943 281.756 220.133C281.925 220.195 282.086 220.278 282.234 220.38C282.234 220.438 281.52 220.111 280.322 219.898C278.767 219.615 277.165 219.733 275.669 220.242C274.172 220.75 272.832 221.632 271.774 222.803C270.962 223.698 270.61 224.375 270.559 224.347Z" fill="#263238"/>
<path d="M288.906 226.694C288.545 226.516 288.216 226.279 287.932 225.994C287.208 225.345 286.575 224.602 286.049 223.784C285.521 222.97 285.109 222.087 284.822 221.161C284.675 220.786 284.595 220.387 284.586 219.984C285.045 221.249 285.623 222.468 286.314 223.624C287.083 224.723 287.951 225.751 288.906 226.694Z" fill="#263238"/>
<path d="M315.205 216.167C315.205 216.167 315.251 216.138 315.349 216.11C315.494 216.087 315.642 216.087 315.787 216.11C316.063 216.142 316.328 216.231 316.567 216.372C316.806 216.512 317.013 216.7 317.175 216.925C317.411 217.268 317.548 217.667 317.574 218.082C317.599 218.496 317.511 218.91 317.319 219.278C317.104 219.717 316.786 220.097 316.392 220.386C315.959 220.687 315.451 220.864 314.923 220.897C314.388 220.939 313.854 220.799 313.408 220.501C312.994 220.211 312.713 219.769 312.625 219.273C312.547 218.859 312.571 218.433 312.697 218.032C312.822 217.631 313.045 217.266 313.345 216.971C314.411 216.07 315.349 216.035 315.332 216.121C315.315 216.207 315.28 216.121 315.188 216.15C315.05 216.184 314.915 216.23 314.785 216.288C314.307 216.483 313.869 216.765 313.495 217.12C313.245 217.395 313.062 217.725 312.962 218.082C312.862 218.44 312.847 218.816 312.919 219.181C312.998 219.603 313.243 219.977 313.598 220.22C313.989 220.478 314.456 220.597 314.923 220.558C315.396 220.53 315.853 220.374 316.242 220.105C316.603 219.852 316.895 219.512 317.089 219.118C317.271 218.793 317.362 218.425 317.351 218.053C317.339 217.681 317.227 217.319 317.026 217.005C316.739 216.583 316.299 216.288 315.799 216.184C315.602 216.166 315.403 216.16 315.205 216.167Z" fill="#263238"/>
<path d="M330.049 207.598C330.049 207.661 329.07 207.483 327.503 207.626C325.464 207.806 323.508 208.518 321.831 209.69C320.155 210.861 318.817 212.452 317.953 214.302C317.279 215.72 317.118 216.69 317.055 216.678C317.062 216.447 317.099 216.217 317.164 215.995C317.299 215.385 317.491 214.789 317.74 214.216C318.573 212.295 319.925 210.642 321.644 209.441C323.364 208.24 325.384 207.539 327.48 207.414C328.108 207.373 328.739 207.391 329.364 207.466C329.597 207.479 329.828 207.524 330.049 207.598Z" fill="#263238"/>
<path d="M302.574 225.144C302.627 224.972 302.702 224.808 302.799 224.656C303.039 224.233 303.319 223.833 303.634 223.463C304.68 222.218 306.048 221.283 307.589 220.759C309.131 220.235 310.787 220.142 312.378 220.489C312.857 220.594 313.325 220.742 313.777 220.931C313.947 220.99 314.106 221.076 314.25 221.184C314.25 221.235 313.536 220.908 312.337 220.696C310.783 220.413 309.182 220.531 307.687 221.039C306.191 221.548 304.852 222.429 303.795 223.6C302.977 224.496 302.626 225.173 302.574 225.144Z" fill="#263238"/>
<path d="M320.92 227.492C320.559 227.313 320.23 227.077 319.946 226.792C319.223 226.141 318.59 225.398 318.063 224.582C317.535 223.767 317.122 222.885 316.836 221.959C316.692 221.592 316.612 221.204 316.6 220.811C317.059 222.073 317.638 223.29 318.328 224.444C319.098 225.535 319.966 226.556 320.92 227.492Z" fill="#263238"/>
<path d="M71.7306 246.907C71.5975 246.903 71.4692 246.856 71.3652 246.774C71.2612 246.691 71.1873 246.576 71.1546 246.447L50.6548 168.67C50.6344 168.593 50.6295 168.512 50.6405 168.432C50.6514 168.353 50.678 168.276 50.7186 168.207C50.7593 168.138 50.8132 168.077 50.8774 168.029C50.9415 167.98 51.0147 167.945 51.0926 167.924C51.1705 167.904 51.2517 167.899 51.3314 167.91C51.4112 167.921 51.4881 167.947 51.5576 167.988C51.6272 168.028 51.688 168.082 51.7367 168.146C51.7854 168.21 51.8209 168.283 51.8414 168.361L72.3239 246.138C72.3447 246.215 72.3499 246.296 72.3391 246.376C72.3283 246.455 72.3018 246.532 72.2611 246.602C72.2204 246.671 72.1663 246.732 72.102 246.78C72.0376 246.828 71.9643 246.864 71.8862 246.884C71.8359 246.9 71.7834 246.908 71.7306 246.907Z" fill="#263238"/>
<path d="M66.3147 248.829C66.1824 248.825 66.0546 248.78 65.9507 248.698C65.8468 248.616 65.7724 248.503 65.7387 248.375L45.2447 170.592C45.2242 170.515 45.2194 170.434 45.2303 170.354C45.2412 170.275 45.2678 170.198 45.3085 170.129C45.3491 170.06 45.403 169.999 45.4672 169.95C45.5314 169.902 45.6045 169.866 45.6824 169.846C45.7603 169.826 45.8415 169.821 45.9213 169.832C46.0011 169.843 46.0779 169.869 46.1475 169.91C46.217 169.95 46.2779 170.004 46.3265 170.068C46.3752 170.132 46.4108 170.205 46.4312 170.282L66.9138 248.065C66.9346 248.143 66.9397 248.224 66.929 248.303C66.9182 248.383 66.8917 248.46 66.851 248.529C66.8103 248.599 66.7562 248.659 66.6918 248.708C66.6275 248.756 66.5541 248.791 66.476 248.811C66.423 248.823 66.369 248.829 66.3147 248.829Z" fill="#263238"/>
<path d="M47.7057 167.217L46.7207 166.488L99.3037 95.9668L147.267 105.128L147.037 106.327L99.8279 97.31L47.7057 167.217Z" fill="#263238"/>
<path d="M102.989 98.2044L51.2598 167.818L52.2457 168.546L103.975 98.932L102.989 98.2044Z" fill="#263238"/>
<path d="M97.9959 99.2046C98.2195 99.8463 98.6286 100.408 99.1717 100.818C99.7148 101.229 100.368 101.471 101.048 101.512C101.728 101.554 102.406 101.394 102.996 101.053C103.585 100.712 104.06 100.205 104.361 99.5957C104.663 98.9861 104.776 98.3015 104.687 97.6279C104.599 96.9543 104.313 96.3218 103.864 95.81C103.416 95.2982 102.826 94.93 102.168 94.7517C101.51 94.5733 100.814 94.5928 100.167 94.8077C99.7335 94.9519 99.3326 95.1805 98.988 95.4803C98.6433 95.7801 98.3619 96.1451 98.1599 96.5541C97.9579 96.963 97.8394 97.4079 97.8112 97.8629C97.7831 98.3179 97.8459 98.7739 97.9959 99.2046Z" fill="#01A657"/>
<path d="M145.003 101.186L144.145 96.2033L147.842 95.9277L148.113 100.738L145.003 101.186Z" fill="#01A657"/>
<g opacity="0.3">
<path d="M145.003 101.186L144.145 96.2033L147.842 95.9277L148.113 100.738L145.003 101.186Z" fill="black"/>
</g>
<path d="M141.974 100.841L138.552 119.324L129.912 143.747L178.607 136.75L158.954 115.426L150.746 99.5781L141.974 100.841Z" fill="#01A657"/>
<path d="M44.2949 169.285C44.2949 170.047 44.5216 170.792 44.9463 171.425C45.371 172.058 45.9746 172.552 46.6808 172.843C47.3871 173.135 48.1642 173.211 48.9139 173.063C49.6636 172.914 50.3523 172.547 50.8928 172.009C51.4333 171.47 51.8014 170.784 51.9506 170.037C52.0997 169.289 52.0232 168.515 51.7306 167.811C51.4381 167.107 50.9427 166.506 50.3071 166.083C49.6715 165.659 48.9243 165.434 48.1599 165.434C47.1348 165.434 46.1518 165.839 45.4269 166.562C44.7021 167.284 44.2949 168.264 44.2949 169.285Z" fill="#01A657"/>
<path d="M56.3099 262.468C56.3099 262.209 56.2695 261.957 56.2695 261.693C56.3477 257.659 58.0105 253.817 60.9007 250.992C63.791 248.167 67.678 246.584 71.7265 246.584C75.775 246.584 79.662 248.167 82.5522 250.992C85.4425 253.817 87.1053 257.659 87.1834 261.693C87.1834 261.957 87.1546 262.209 87.1431 262.468H56.3099Z" fill="#01A657"/>
<path d="M140.612 256.699C140.422 256.739 139.61 257.56 140.768 258.863C141.926 260.166 148.907 263.731 150.191 261.601C151.476 259.472 148.377 257.991 148.377 257.991L140.612 256.699Z" fill="#FFBE9D"/>
<path d="M148.279 254.403C148.279 254.403 155.479 253.611 158.417 253.984C161.602 254.392 164.983 252.79 166.988 250.597C168.243 249.143 169.112 247.399 169.516 245.523L174.124 242.332C174.124 242.332 174.62 231.478 167.356 233.228L158.872 233.527C158.872 233.527 142.168 236.282 139.587 238.354C139.587 238.354 136.442 241.402 135.527 242.579C135.181 243.026 134.887 247.498 138.078 249.025C138.078 249.025 136.195 251.418 137.854 252.773L138.631 253.347C138.631 253.347 137.554 255.74 138.568 256.424C139.582 257.107 147.594 259.529 149.869 257.95C152.144 256.372 149.506 254.552 148.302 254.392" fill="#FFBE9D"/>
<path d="M139.306 248.6C139.621 248.614 139.935 248.648 140.245 248.703C140.85 248.778 141.725 248.887 142.814 248.967C143.355 249.001 143.966 249.036 144.588 249.047C145.21 249.059 145.907 249.047 146.639 249.099C147.424 249.121 148.189 249.362 148.845 249.794C149.205 250.034 149.494 250.365 149.684 250.753C149.873 251.141 149.955 251.573 149.922 252.003C149.853 252.451 149.624 252.859 149.277 253.151C148.956 253.421 148.587 253.625 148.188 253.754C147.456 253.981 146.7 254.121 145.936 254.173C144.652 254.27 143.362 254.245 142.082 254.099C140.994 253.984 140.124 253.84 139.525 253.737C139.209 253.701 138.896 253.635 138.592 253.542C138.908 253.546 139.224 253.573 139.536 253.622C140.147 253.691 141.023 253.8 142.105 253.886C143.37 253.996 144.642 253.996 145.907 253.886C146.648 253.829 147.381 253.688 148.09 253.467C148.451 253.348 148.787 253.163 149.081 252.922C149.369 252.676 149.56 252.336 149.622 251.963C149.648 251.586 149.574 251.209 149.407 250.869C149.24 250.53 148.987 250.24 148.672 250.029C148.058 249.629 147.348 249.401 146.615 249.369C145.913 249.306 145.222 249.329 144.582 249.294C143.943 249.26 143.338 249.231 142.791 249.174C141.702 249.07 140.832 248.933 140.228 248.818C139.914 248.777 139.605 248.704 139.306 248.6Z" fill="#EB996E"/>
<path d="M138.717 243.416C139.033 243.426 139.346 243.461 139.656 243.519C140.232 243.6 141.131 243.714 142.208 243.806C143.285 243.898 144.575 243.973 146.01 243.973C146.784 243.911 147.562 244.027 148.285 244.311C148.675 244.506 148.982 244.834 149.149 245.236C149.309 245.644 149.351 246.09 149.27 246.521C149.177 246.935 149 247.326 148.749 247.668C148.498 248.011 148.18 248.299 147.812 248.513C147.148 248.915 146.398 249.157 145.624 249.219C144.344 249.272 143.062 249.213 141.793 249.041L139.236 248.783C138.919 248.764 138.605 248.718 138.297 248.645C138.611 248.621 138.927 248.621 139.242 248.645L141.81 248.812C143.067 248.948 144.332 248.984 145.595 248.921C146.326 248.855 147.032 248.621 147.657 248.238C147.987 248.045 148.274 247.786 148.5 247.478C148.726 247.17 148.886 246.819 148.97 246.447C149.058 246.084 149.025 245.702 148.877 245.36C148.728 245.017 148.472 244.732 148.146 244.547C147.468 244.28 146.737 244.17 146.01 244.225C144.564 244.225 143.274 244.116 142.191 243.996C141.108 243.875 140.238 243.726 139.639 243.611C139.327 243.573 139.018 243.508 138.717 243.416Z" fill="#EB996E"/>
<path d="M142.432 244.048C142.18 243.623 141.963 243.18 141.781 242.722C141.512 242.309 141.28 241.873 141.09 241.419C141.147 241.361 141.666 241.832 142.046 242.567C142.328 243.007 142.464 243.526 142.432 244.048Z" fill="#EB996E"/>
<path d="M164.46 233.665L157.651 232.763C157.651 232.763 138.413 228.854 138.223 229.36C138.033 229.865 137.071 230.043 137.797 232.097C138.522 234.152 149.61 235.972 150.106 236.626C150.601 237.281 150.958 241.086 155.29 242.837C159.621 244.588 162.351 243.985 162.351 243.985" fill="#FFBE9D"/>
<path d="M162.374 243.996L162.23 244.036L161.787 244.099C161.212 244.147 160.634 244.147 160.059 244.099C159.157 244.023 158.265 243.865 157.392 243.629C156.227 243.334 155.103 242.898 154.045 242.331C152.768 241.595 151.727 240.512 151.044 239.209C150.686 238.486 150.378 237.74 150.123 236.976C150.086 236.889 150.044 236.805 149.996 236.723C149.938 236.668 149.869 236.626 149.794 236.597C149.606 236.52 149.414 236.453 149.218 236.396C148.815 236.27 148.4 236.161 147.974 236.052C146.281 235.61 144.489 235.185 142.658 234.651C141.742 234.381 140.815 234.077 139.893 233.716C139.424 233.531 138.972 233.308 138.539 233.05C138.313 232.913 138.104 232.749 137.917 232.562C137.821 232.458 137.741 232.34 137.681 232.212C137.618 232.08 137.6 231.959 137.554 231.839C137.374 231.336 137.342 230.792 137.462 230.272C137.549 230.018 137.691 229.787 137.877 229.594C137.951 229.515 138.015 229.426 138.067 229.33C138.067 229.33 138.067 229.33 138.113 229.256C138.141 229.221 138.179 229.197 138.223 229.187C138.265 229.183 138.307 229.183 138.349 229.187H138.551C139.553 229.25 140.504 229.416 141.431 229.566C143.314 229.876 145.123 230.208 146.845 230.536C150.301 231.184 153.377 231.804 155.975 232.338C156.62 232.464 157.242 232.613 157.824 232.711L159.494 232.941L162.161 233.32L163.849 233.572L164.287 233.647L164.436 233.681C164.385 233.69 164.332 233.69 164.281 233.681L163.843 233.641L162.144 233.44L159.465 233.113L157.789 232.9C157.213 232.809 156.585 232.671 155.935 232.55L146.793 230.828C145.065 230.513 143.263 230.18 141.385 229.876C140.446 229.732 139.478 229.566 138.505 229.502H138.332H138.274C138.274 229.502 138.274 229.456 138.246 229.434C138.47 229.514 138.303 229.434 138.355 229.485C138.297 229.611 138.217 229.726 138.119 229.824C137.96 229.987 137.838 230.183 137.762 230.398C137.663 230.861 137.697 231.342 137.86 231.787C137.903 232.013 138.007 232.223 138.159 232.395C138.333 232.563 138.526 232.71 138.735 232.832C139.154 233.079 139.591 233.294 140.043 233.474C140.947 233.842 141.863 234.135 142.779 234.404C144.599 234.944 146.384 235.369 148.078 235.816C148.504 235.931 148.925 236.046 149.334 236.172C149.542 236.231 149.746 236.304 149.944 236.39C150.066 236.434 150.173 236.509 150.255 236.609C150.319 236.703 150.372 236.805 150.411 236.913C150.661 237.671 150.963 238.411 151.315 239.128C151.964 240.398 152.963 241.458 154.195 242.182C155.232 242.752 156.335 243.195 157.478 243.502C158.339 243.75 159.22 243.921 160.111 244.013C160.673 244.073 161.239 244.092 161.804 244.071C162 244.071 162.15 244.071 162.248 244.071L162.374 243.996Z" fill="#EB996E"/>
<path d="M146.182 254.065C146.418 254.038 146.658 254.05 146.89 254.099C147.531 254.192 148.156 254.375 148.745 254.644C149.153 254.831 149.54 255.062 149.897 255.333C150.121 255.488 150.311 255.685 150.458 255.914C150.604 256.142 150.703 256.398 150.75 256.665C150.763 256.971 150.691 257.276 150.54 257.544C150.389 257.811 150.167 258.032 149.897 258.18C149.338 258.486 148.7 258.618 148.065 258.559C145.946 258.445 143.843 258.136 141.781 257.635C140.992 257.434 140.364 257.227 139.938 257.061C139.711 256.991 139.493 256.897 139.287 256.78C139.521 256.811 139.751 256.866 139.973 256.946C140.41 257.072 141.038 257.245 141.827 257.417C143.886 257.855 145.975 258.133 148.077 258.249C148.652 258.305 149.231 258.191 149.742 257.922C149.968 257.802 150.156 257.623 150.285 257.403C150.414 257.183 150.479 256.931 150.473 256.676C150.39 256.213 150.127 255.801 149.742 255.528C149.402 255.258 149.033 255.027 148.641 254.84C147.858 254.477 147.032 254.217 146.182 254.065Z" fill="#EB996E"/>
<path d="M196.266 214.878C196.266 214.878 204.796 200.884 206.714 191.648C208.633 182.412 218.54 167.758 221.76 163.935C224.979 160.112 237.744 155.658 237.744 155.658L242.455 153.121L278.968 149.924C278.968 149.924 303.258 152.472 310.613 159.159C317.969 165.847 323.712 181.138 323.712 188.778C323.712 196.418 331.136 262.617 331.136 262.617L241.159 262.502L243.175 229.865C243.175 229.865 232.306 222.541 229.432 216.169C226.558 209.798 228.153 212.983 228.153 212.983C228.153 212.983 217.952 234.595 214.439 237.143C210.925 239.692 170.058 252.188 170.058 252.188L164.465 230.818L196.266 214.878Z" fill="#01A657"/>
<path d="M302.498 161.829C301.513 162.133 289.325 193.502 288.467 196.355C287.609 199.208 288.467 217.185 288.467 217.185L292.499 224.607C292.499 224.607 291.347 230.026 292.211 232.597L274.171 236.041C274.171 236.041 269.591 232.901 265.294 236.041L243.982 237.838C243.982 237.838 250.232 237.907 248.372 247.458C246.551 256.814 245.163 258.869 245.163 258.869L319.957 257.147C319.957 257.147 328.269 256.734 327.001 240.811C325.734 224.888 322.169 180.966 322.169 180.966C322.169 180.966 316.72 157.432 302.498 161.829Z" fill="#01A657"/>
<path d="M288.298 214.678C288.223 214.557 288.163 214.428 288.12 214.293L287.665 213.145C287.469 212.657 287.233 212.054 287.002 211.337C286.772 210.619 286.467 209.821 286.225 208.909C285.983 207.996 285.649 207.003 285.424 205.918C285.2 204.833 284.929 203.674 284.698 202.474C284.231 199.8 283.937 197.099 283.817 194.387C283.729 191.673 283.812 188.956 284.065 186.253C284.215 185.013 284.336 183.831 284.537 182.734C284.629 182.16 284.704 181.655 284.808 181.144C284.912 180.634 285.015 180.157 285.113 179.692C285.297 178.768 285.534 177.97 285.724 177.213C285.914 176.455 286.092 175.869 286.259 175.364C286.426 174.859 286.542 174.503 286.634 174.216C286.677 174.08 286.727 173.946 286.784 173.814C286.77 173.957 286.739 174.098 286.691 174.233C286.611 174.526 286.501 174.917 286.369 175.381C286.236 175.846 286.046 176.529 285.885 177.241C285.724 177.953 285.487 178.791 285.309 179.721C285.217 180.186 285.125 180.668 285.027 181.173C284.929 181.678 284.86 182.206 284.773 182.752C284.583 183.848 284.468 185.048 284.33 186.265C283.82 191.649 284.031 197.077 284.958 202.405C285.182 203.634 285.39 204.799 285.655 205.849C285.92 206.9 286.167 207.927 286.415 208.84C286.663 209.753 286.933 210.562 287.152 211.274C287.371 211.985 287.584 212.6 287.763 213.093L288.166 214.241C288.22 214.384 288.264 214.529 288.298 214.678Z" fill="#263238"/>
<path d="M314.324 248.697C314.324 248.697 314.249 248.628 314.128 248.479L313.633 247.819C313.419 247.526 313.154 247.176 312.832 246.786C312.509 246.395 312.158 245.93 311.726 245.454C311.294 244.977 310.839 244.444 310.309 243.91C309.779 243.376 309.203 242.808 308.581 242.228C307.221 240.989 305.782 239.838 304.273 238.784C302.752 237.75 301.167 236.815 299.526 235.983C298.76 235.616 298.04 235.254 297.337 234.973C296.635 234.691 295.99 234.399 295.391 234.198C294.792 233.997 294.239 233.802 293.749 233.624C293.259 233.446 292.845 233.337 292.499 233.245L291.704 233.01C291.608 232.988 291.515 232.954 291.428 232.906C291.525 232.911 291.622 232.926 291.716 232.952L292.528 233.13C292.879 233.21 293.305 233.314 293.801 233.463C294.296 233.612 294.855 233.762 295.46 233.991C296.065 234.221 296.738 234.433 297.435 234.732C298.132 235.03 298.875 235.363 299.647 235.725C301.31 236.546 302.913 237.482 304.445 238.526C305.962 239.587 307.406 240.749 308.765 242.004C309.382 242.578 309.969 243.152 310.493 243.726C311.017 244.3 311.478 244.811 311.893 245.305C312.308 245.798 312.653 246.269 312.97 246.671C313.287 247.073 313.546 247.44 313.73 247.738C313.915 248.037 314.065 248.244 314.185 248.433C314.243 248.515 314.289 248.604 314.324 248.697Z" fill="#263238"/>
<path d="M320.619 244.524C320.573 244.564 319.91 243.812 318.666 242.802C317.937 242.213 317.168 241.676 316.362 241.195C315.368 240.615 314.33 240.114 313.258 239.697C312.178 239.3 311.069 238.989 309.94 238.767C309.016 238.592 308.08 238.483 307.141 238.44C305.533 238.377 304.537 238.497 304.531 238.44C304.758 238.375 304.992 238.337 305.228 238.325C305.501 238.284 305.776 238.259 306.052 238.25C306.374 238.25 306.737 238.21 307.146 238.25C308.1 238.266 309.052 238.356 309.992 238.52C311.14 238.729 312.267 239.038 313.361 239.444C314.453 239.863 315.506 240.378 316.506 240.983C317.317 241.48 318.088 242.041 318.81 242.659C319.127 242.917 319.386 243.181 319.611 243.405C319.815 243.584 320.007 243.776 320.187 243.979C320.35 244.144 320.495 244.327 320.619 244.524Z" fill="#263238"/>
<path d="M313.702 234.027C313.667 234.079 312.786 233.379 311.173 232.586C310.735 232.37 310.285 232.178 309.825 232.012C309.341 231.806 308.8 231.651 308.235 231.473C305.753 230.761 303.148 230.583 300.592 230.95C300.016 231.048 299.44 231.128 298.945 231.266C298.465 231.375 297.992 231.509 297.528 231.668C295.8 232.242 294.855 232.816 294.826 232.747C295.036 232.588 295.262 232.451 295.5 232.34C295.765 232.183 296.04 232.045 296.324 231.926C296.699 231.753 297.084 231.6 297.476 231.467C297.941 231.293 298.416 231.147 298.898 231.031C299.449 230.883 300.006 230.764 300.569 230.675C303.163 230.273 305.814 230.455 308.328 231.209C308.874 231.368 309.411 231.559 309.935 231.783C310.399 231.963 310.851 232.172 311.288 232.408C311.652 232.594 312.006 232.799 312.348 233.023C312.614 233.176 312.868 233.348 313.108 233.539C313.324 233.678 313.523 233.842 313.702 234.027Z" fill="#263238"/>
<path d="M269.959 257.549C270.2 256.497 270.377 255.431 270.489 254.358C270.579 253.19 270.569 252.017 270.46 250.851C270.319 249.424 270.069 248.009 269.711 246.62C269.33 245.248 268.851 243.906 268.277 242.602C267.783 241.537 267.205 240.512 266.549 239.537C265.919 238.657 265.24 237.812 264.516 237.006C264.751 237.179 264.973 237.371 265.178 237.58C265.43 237.816 265.665 238.069 265.881 238.338L266.295 238.825C266.439 239.009 266.572 239.204 266.722 239.399C267.408 240.368 268.005 241.396 268.507 242.47C269.731 245.109 270.479 247.942 270.719 250.839C270.816 252.02 270.805 253.208 270.685 254.387C270.656 254.639 270.627 254.874 270.604 255.104L270.477 255.735C270.423 256.074 270.342 256.408 270.235 256.734C270.165 257.013 270.072 257.285 269.959 257.549Z" fill="#263238"/>
<path d="M257.42 236.007C257.4 235.954 257.389 235.898 257.386 235.841C257.386 235.715 257.339 235.554 257.305 235.353C257.242 234.899 257.149 234.268 257.034 233.465C256.798 231.823 256.493 229.446 256.136 226.496C255.427 220.613 254.58 212.462 253.918 203.439C253.256 194.415 252.91 186.219 252.766 180.301C252.685 177.339 252.645 174.939 252.634 173.281C252.634 172.471 252.634 171.828 252.634 171.375V170.876C252.613 170.871 252.594 170.859 252.581 170.842C252.569 170.825 252.563 170.804 252.565 170.783C252.567 170.761 252.577 170.742 252.593 170.727C252.609 170.713 252.629 170.705 252.651 170.705C252.672 170.705 252.693 170.713 252.709 170.727C252.725 170.742 252.735 170.761 252.737 170.783C252.739 170.804 252.733 170.825 252.72 170.842C252.708 170.859 252.689 170.871 252.668 170.876C252.668 171.008 252.668 171.168 252.668 171.375C252.668 171.828 252.703 172.466 252.731 173.281C252.783 174.957 252.858 177.35 252.95 180.295C253.163 186.219 253.526 194.398 254.2 203.421C254.874 212.445 255.675 220.584 256.331 226.473C256.666 229.401 256.942 231.777 257.132 233.447C257.224 234.257 257.293 234.888 257.345 235.347C257.345 235.548 257.386 235.709 257.397 235.841C257.41 235.896 257.418 235.951 257.42 236.007Z" fill="#263238"/>
<path d="M228.038 213.397C227.886 213.114 227.755 212.821 227.646 212.519C227.415 211.945 227.07 211.124 226.638 210.108C225.774 208.082 224.484 205.321 222.94 202.325C221.396 199.328 220.002 196.671 218.96 194.673C218.459 193.686 218.055 192.888 217.808 192.331C217.657 192.047 217.528 191.751 217.422 191.447C217.61 191.708 217.774 191.984 217.911 192.274L219.161 194.57C220.21 196.51 221.684 199.162 223.228 202.187C224.772 205.212 226.033 207.967 226.851 210.022C227.26 211.049 227.577 211.887 227.773 212.473C227.885 212.773 227.974 213.082 228.038 213.397Z" fill="#263238"/>
<path d="M223.442 202.789C223.263 202.783 223.087 202.751 222.918 202.692C222.59 202.611 222.117 202.474 221.535 202.284C218.515 201.286 215.649 199.872 213.022 198.082C212.521 197.738 212.124 197.445 211.87 197.233C211.725 197.133 211.593 197.016 211.479 196.883C212.055 197.194 212.614 197.535 213.155 197.905C214.18 198.547 215.62 199.391 217.279 200.201C218.938 201.01 220.481 201.647 221.616 202.072C222.236 202.28 222.846 202.52 223.442 202.789Z" fill="#263238"/>
<path d="M215.717 222.391C215.496 222.291 215.287 222.166 215.095 222.018C214.715 221.76 214.15 221.392 213.442 220.967C209.75 218.721 205.662 217.195 201.398 216.473C200.58 216.329 199.917 216.238 199.456 216.18C199.214 216.167 198.975 216.127 198.742 216.06C198.983 216.032 199.227 216.032 199.468 216.06C199.929 216.06 200.62 216.14 201.432 216.255C203.596 216.561 205.721 217.1 207.768 217.862C209.806 218.625 211.756 219.603 213.586 220.778C214.283 221.237 214.83 221.627 215.193 221.926C215.381 222.065 215.556 222.221 215.717 222.391Z" fill="#263238"/>
<path d="M277.994 149.975C277.991 150.13 277.979 150.285 277.96 150.44C277.92 150.772 277.868 151.214 277.804 151.771C277.655 152.919 277.447 154.595 277.096 156.65C276.7 159.06 276.162 161.444 275.483 163.791C274.655 166.673 273.44 169.43 271.872 171.988C270.998 173.359 269.993 174.643 268.871 175.822L268.755 175.948L268.646 175.805C267.206 173.891 265.333 172.343 263.18 171.287C262.26 170.835 261.294 170.481 260.3 170.231C259.441 170.024 258.562 169.907 257.679 169.881C256.414 169.836 255.15 170.013 253.946 170.403C253.111 170.696 252.668 170.914 252.656 170.885C252.757 170.821 252.863 170.765 252.973 170.719C253.277 170.561 253.59 170.423 253.912 170.306C255.121 169.872 256.4 169.664 257.685 169.692C258.584 169.704 259.48 169.812 260.357 170.013C261.371 170.256 262.356 170.606 263.295 171.058C265.498 172.122 267.414 173.697 268.882 175.65H268.658C269.762 174.482 270.753 173.214 271.618 171.861C273.175 169.326 274.389 166.597 275.23 163.745C275.915 161.412 276.472 159.043 276.9 156.65C277.28 154.607 277.516 152.936 277.701 151.788C277.787 151.214 277.862 150.795 277.914 150.468C277.92 150.301 277.947 150.135 277.994 149.975Z" fill="#263238"/>
<path d="M278.484 150.338L272.937 143.008L266.906 143.197L247.311 153.512L278.484 150.338Z" fill="#01A657"/>
<path d="M252.645 170.887C252.54 170.9 252.433 170.9 252.328 170.887C252.024 170.857 251.722 170.807 251.424 170.738C250.332 170.455 249.289 170.01 248.331 169.417C247.684 169.013 246.973 168.72 246.228 168.551C245.37 168.367 244.483 168.367 243.625 168.551C242.644 168.772 241.733 169.233 240.974 169.891C240.215 170.549 239.632 171.384 239.276 172.322L238.965 173.16V172.264C238.965 172.041 238.965 171.805 238.965 171.564C239.034 167.041 239.04 162.954 239.224 159.975C239.31 158.494 239.426 157.295 239.552 156.474C239.604 156.06 239.668 155.745 239.714 155.532C239.731 155.423 239.758 155.316 239.794 155.211C239.823 155.211 239.742 155.664 239.668 156.491C239.593 157.318 239.495 158.506 239.437 159.987C239.305 162.948 239.339 167.041 239.264 171.57C239.264 171.811 239.264 172.052 239.264 172.276L238.976 172.219C239.35 171.236 239.964 170.361 240.763 169.675C241.561 168.988 242.519 168.511 243.55 168.287C244.384 168.12 245.242 168.119 246.076 168.283C246.911 168.448 247.704 168.775 248.411 169.245C249.349 169.844 250.364 170.311 251.429 170.634C252.207 170.829 252.651 170.858 252.645 170.887Z" fill="#263238"/>
<path d="M272.937 107.512V151.537C272.94 154.057 272.048 156.497 270.42 158.425C267.924 161.371 264.92 163.85 261.549 165.744L252.644 170.743L245.272 164.165C244.2 163.209 243.332 162.049 242.72 160.752C242.107 159.455 241.763 158.049 241.706 156.617C241.58 153.414 241.58 150.183 241.58 150.183C241.58 150.183 229.098 149.287 227.923 137.021C227.347 131.246 227.197 119.416 227.168 108.51C227.155 102.512 229.408 96.7289 233.48 92.3116C237.552 87.8943 243.144 85.1669 249.142 84.6721L249.494 84.6434C252.551 84.5698 255.592 85.1073 258.437 86.2242C261.282 87.3412 263.874 89.0149 266.059 91.1465C268.244 93.2782 269.979 95.8246 271.16 98.6353C272.341 101.446 272.946 104.464 272.937 107.512Z" fill="#FFBE9D"/>
<path d="M241.545 149.999C241.545 149.999 249.384 149.999 257.235 144.121C257.235 144.121 254.171 153.271 241.781 153.179L241.545 149.999Z" fill="#EB996E"/>
<path d="M231.315 116.747C231.349 117.205 231.56 117.631 231.905 117.935C232.249 118.239 232.698 118.398 233.158 118.377C233.383 118.377 233.605 118.331 233.812 118.244C234.018 118.157 234.206 118.029 234.362 117.869C234.519 117.708 234.642 117.518 234.724 117.31C234.806 117.102 234.845 116.879 234.84 116.655C234.807 116.199 234.597 115.773 234.254 115.468C233.911 115.163 233.462 115.005 233.003 115.025C232.778 115.025 232.555 115.07 232.347 115.157C232.14 115.244 231.952 115.371 231.795 115.532C231.638 115.692 231.514 115.883 231.432 116.091C231.349 116.3 231.31 116.523 231.315 116.747Z" fill="#263238"/>
<path d="M230.313 113.453C230.549 113.659 231.799 112.569 233.694 112.419C235.589 112.27 237.058 113.097 237.242 112.85C237.334 112.735 237.081 112.345 236.435 111.954C235.565 111.451 234.557 111.233 233.555 111.329C232.57 111.404 231.635 111.792 230.889 112.437C230.359 112.93 230.197 113.355 230.313 113.453Z" fill="#263238"/>
<path d="M249.332 115.984C249.366 116.441 249.578 116.867 249.922 117.171C250.266 117.476 250.716 117.634 251.176 117.614C251.4 117.613 251.623 117.568 251.83 117.48C252.037 117.393 252.225 117.266 252.382 117.105C252.539 116.945 252.662 116.755 252.745 116.547C252.828 116.338 252.868 116.116 252.863 115.892C252.829 115.434 252.618 115.008 252.274 114.704C251.929 114.4 251.48 114.241 251.02 114.262C250.795 114.262 250.573 114.308 250.366 114.395C250.159 114.482 249.971 114.61 249.814 114.77C249.657 114.93 249.533 115.12 249.451 115.329C249.368 115.537 249.328 115.76 249.332 115.984Z" fill="#263238"/>
<path d="M248.958 112.269C249.194 112.476 250.449 111.385 252.339 111.236C254.228 111.087 255.703 111.913 255.887 111.661C255.979 111.551 255.726 111.155 255.081 110.771C254.209 110.268 253.203 110.048 252.201 110.139C251.216 110.217 250.282 110.605 249.534 111.247C249.004 111.741 248.831 112.171 248.958 112.269Z" fill="#263238"/>
<path d="M243.245 126.856C243.245 126.747 242.052 126.638 240.123 126.551C239.639 126.551 239.172 126.488 239.063 126.167C238.981 125.672 239.051 125.163 239.265 124.709C239.627 123.503 240.002 122.246 240.417 120.92C241.966 115.531 243.049 111.117 242.83 111.059C242.611 111.002 241.177 115.318 239.627 120.702C239.253 122.034 238.896 123.297 238.562 124.508C238.304 125.114 238.272 125.792 238.47 126.419C238.553 126.584 238.673 126.728 238.821 126.84C238.969 126.951 239.14 127.027 239.322 127.062C239.596 127.113 239.874 127.128 240.152 127.108C242.058 127.028 243.25 126.936 243.245 126.856Z" fill="#263238"/>
<path d="M248.93 127.675C248.619 127.675 248.786 129.73 247.145 131.331C245.503 132.932 243.303 132.887 243.309 133.174C243.309 133.3 243.833 133.529 244.76 133.478C245.965 133.395 247.101 132.891 247.968 132.054C248.806 131.253 249.296 130.157 249.334 129.001C249.339 128.14 249.069 127.652 248.93 127.675Z" fill="#263238"/>
<path d="M247.853 104.912C248.084 105.411 249.956 105.009 252.196 105.095C254.437 105.181 256.292 105.635 256.545 105.147C256.66 104.917 256.309 104.464 255.543 103.999C254.525 103.471 253.399 103.18 252.251 103.149C251.104 103.118 249.964 103.348 248.919 103.821C248.13 104.24 247.755 104.676 247.853 104.912Z" fill="#263238"/>
<path d="M230.554 107.914C230.923 108.315 232.19 107.764 233.757 107.615C235.324 107.466 236.677 107.661 236.948 107.19C237.063 106.961 236.821 106.547 236.205 106.192C235.388 105.758 234.456 105.587 233.538 105.704C232.618 105.793 231.749 106.168 231.056 106.777C230.537 107.276 230.399 107.736 230.554 107.914Z" fill="#263238"/>
<path d="M258.439 95.1471L258.509 95.193C260.609 96.5701 262.095 98.7027 262.656 101.145L262.708 101.392C263.479 104.836 263.693 108.424 264.499 111.879C265.305 115.335 265.156 117.975 268.629 118.767C269.539 118.966 270.487 118.885 271.35 118.536C272.213 118.186 272.949 117.585 273.462 116.81C273.72 116.303 273.826 115.733 273.767 115.168C273.727 106.662 275.443 103.355 274.688 94.5042C274.595 93.3199 274.219 92.1749 273.592 91.1645C272.964 90.1542 272.104 89.3077 271.083 88.6954C269.113 87.5187 266.728 86.3305 264.747 87.4727C262.765 88.615 260.409 92.6904 258.941 94.4583" fill="#263238"/>
<path d="M269.24 113.406C269.448 113.303 277.5 110.215 277.932 118.635C278.364 127.056 269.787 125.741 269.764 125.523C269.741 125.305 269.24 113.406 269.24 113.406Z" fill="#FFBE9D"/>
<path d="M272.183 122.183C272.217 122.154 272.333 122.281 272.586 122.378C272.943 122.51 273.338 122.498 273.686 122.344C274.562 121.976 275.241 120.524 275.207 119.003C275.192 118.281 275.015 117.57 274.688 116.925C274.597 116.668 274.445 116.436 274.244 116.25C274.044 116.064 273.801 115.929 273.536 115.858C273.365 115.821 273.186 115.845 273.031 115.927C272.876 116.009 272.755 116.143 272.69 116.305C272.586 116.546 272.649 116.707 272.603 116.724C272.557 116.742 272.419 116.592 272.465 116.242C272.503 116.032 272.611 115.84 272.77 115.697C272.997 115.514 273.286 115.424 273.577 115.444C273.927 115.496 274.257 115.636 274.538 115.851C274.818 116.066 275.038 116.349 275.178 116.673C275.571 117.376 275.787 118.164 275.806 118.969C275.84 120.691 275.051 122.298 273.847 122.711C273.624 122.789 273.385 122.816 273.15 122.789C272.915 122.762 272.688 122.682 272.488 122.556C272.206 122.384 272.154 122.2 272.183 122.183Z" fill="#EB996E"/>
<path d="M265.116 88.7412C266.913 85.2111 260.83 80.8544 256.562 79.8901C252.294 78.9258 246.983 81.3997 242.963 83.1102C240.423 84.1893 237.923 85.6071 235.164 85.7162C233.315 85.7965 231.5 85.2742 229.709 84.8035C227.918 84.3328 226.063 83.9081 224.231 84.1893C222.399 84.4706 220.585 85.5956 220.032 87.3578C219.479 89.12 220.666 91.3758 222.515 91.4677C220.078 90.3828 216.841 92.3344 216.686 94.992C216.53 97.6496 219.496 99.9743 222.048 99.1994C220.775 98.3901 219.059 100.037 219.335 101.495C219.612 102.953 221.063 103.952 222.474 104.44C226.12 105.686 230.175 104.859 233.712 103.338C237.249 101.817 240.457 99.6414 243.953 98.0342C247.45 96.427 253.296 93.58 257.017 94.55C259.759 95.2675 261.879 98.3155 263.353 97.4832C264.033 97.0431 264.599 96.4504 265.007 95.7526C265.416 95.0548 265.654 94.2714 265.703 93.4652C265.773 91.8564 265.579 90.2471 265.127 88.701" fill="#263238"/>
<path d="M221.478 91.3185C221.547 91.2726 221.962 91.8925 222.953 92.8109C224.359 94.0672 226.052 94.9636 227.883 95.4226C230.579 96.148 233.451 95.7958 235.89 94.4411C238.649 92.9257 240.889 90.1591 243.51 87.5187C246.131 84.8783 249.299 82.7774 252.605 82.2034C255.912 81.6294 259.045 82.5708 260.888 84.3157C261.618 84.9903 262.204 85.8046 262.611 86.71C263.017 87.6154 263.237 88.5932 263.256 89.5851C263.25 90.1195 263.17 90.6506 263.019 91.1636C262.893 91.5022 262.812 91.6744 262.783 91.6629C262.886 90.979 262.934 90.288 262.927 89.5965C262.775 87.7294 261.904 85.9932 260.496 84.752C258.768 83.2022 255.808 82.3699 252.744 82.9554C249.679 83.5408 246.655 85.5039 244.104 88.1214C241.552 90.7388 239.225 93.5456 236.27 95.1299C234.087 96.2745 231.594 96.6909 229.156 96.3179C226.719 95.9449 224.465 94.8021 222.728 93.0577C222.361 92.6788 222.031 92.2655 221.743 91.8237C221.542 91.5022 221.455 91.3357 221.478 91.3185Z" fill="#455A64"/>
<path d="M271.359 112.865C271.33 112.894 270.973 112.665 270.599 112.022C270.101 111.1 269.869 110.059 269.93 109.014C269.89 106.293 272.05 103.194 272.044 99.4338C272.116 97.6893 271.646 95.9652 270.697 94.4974C269.875 93.3399 268.696 92.4828 267.338 92.0579C266.42 91.7597 265.438 91.7083 264.493 91.9087C263.825 92.0752 263.479 92.2588 263.439 92.1957C263.399 92.1326 263.715 91.8743 264.401 91.6217C265.4 91.2796 266.479 91.2417 267.5 91.5126C269.034 91.9017 270.385 92.8084 271.324 94.0784C272.409 95.6606 272.954 97.5481 272.88 99.4625C272.818 101.328 272.416 103.166 271.693 104.887C271.12 106.223 270.733 107.631 270.541 109.071C270.276 111.545 271.474 112.814 271.359 112.865Z" fill="#455A64"/>
<path d="M276.256 117.911L274.883 116.644C274.383 116.182 273.603 116.212 273.141 116.71L267.992 122.246C267.53 122.744 267.559 123.521 268.059 123.982L269.432 125.25C269.931 125.711 270.711 125.681 271.174 125.184L276.322 119.647C276.785 119.15 276.755 118.373 276.256 117.911Z" fill="#263238"/>
<path d="M323.746 190.666C323.746 190.666 323.746 190.781 323.781 191.005C323.815 191.229 323.821 191.579 323.856 191.992C323.919 192.87 324.005 194.162 324.126 195.838C324.357 199.213 324.702 204.144 325.111 210.394C325.52 216.645 326.016 224.216 326.592 232.867C326.73 235.029 326.876 237.258 327.029 239.554C327.116 240.702 327.162 241.85 327.214 243.055C327.245 243.65 327.245 244.246 327.214 244.84C327.213 245.444 327.18 246.048 327.116 246.648L326.891 248.474C326.759 249.076 326.626 249.685 326.499 250.293C326.373 250.902 326.119 251.487 325.923 252.09C325.728 252.692 325.44 253.266 325.128 253.812C323.919 256.045 322.035 258.134 319.42 258.978H319.386H263.036H245.18H244.984L245.036 258.788C245.583 256.848 246.124 254.931 246.66 253.02C246.933 252.067 247.199 251.11 247.461 250.15C247.753 249.224 247.976 248.278 248.129 247.32C248.405 245.428 248.236 243.498 247.633 241.683C247.353 240.793 246.895 239.969 246.286 239.261C245.697 238.559 244.883 238.082 243.982 237.912L242.801 237.728L243.953 237.631L265.236 235.851H265.173C266.503 234.874 268.129 234.378 269.781 234.445C271.358 234.529 272.887 235.015 274.222 235.857H274.124L292.17 232.47L292.089 232.608C291.885 231.921 291.78 231.207 291.778 230.49C291.757 229.807 291.776 229.122 291.836 228.441C291.938 227.138 292.12 225.842 292.383 224.561V224.63C290.937 221.938 289.612 219.464 288.385 217.202V217.168C288.103 210.549 288 205.332 288.051 201.773C288.051 199.994 288.138 198.627 288.23 197.709C288.256 197.361 288.308 197.016 288.385 196.676C288.437 196.446 288.466 196.331 288.466 196.331C288.466 196.331 288.466 196.452 288.408 196.682C288.341 197.023 288.296 197.368 288.276 197.715C288.195 198.633 288.143 200.011 288.138 201.773C288.138 205.332 288.241 210.549 288.547 217.162V217.127C289.774 219.395 291.11 221.851 292.579 224.538V224.572C292.318 225.853 292.135 227.149 292.032 228.452C291.974 229.128 291.956 229.807 291.98 230.484C291.984 231.18 292.087 231.872 292.285 232.539L292.32 232.654H292.204L274.164 236.098H274.118L274.072 236.069C272.777 235.256 271.293 234.789 269.763 234.715C268.178 234.653 266.619 235.133 265.345 236.075H265.311H265.276L243.999 237.878V237.596C244.971 237.77 245.852 238.278 246.487 239.031C247.121 239.77 247.599 240.629 247.893 241.557C248.512 243.414 248.687 245.389 248.405 247.326C248.253 248.298 248.028 249.257 247.731 250.196C247.466 251.145 247.2 252.101 246.931 253.066C246.393 254.979 245.854 256.892 245.312 258.806L245.168 258.616H263.024L319.374 258.656C320.6 258.239 321.716 257.553 322.64 256.647C323.554 255.76 324.321 254.736 324.915 253.611C325.221 253.037 325.44 252.463 325.699 251.889C325.958 251.315 326.09 250.706 326.275 250.115C326.459 249.524 326.534 248.916 326.666 248.319C326.799 247.722 326.816 247.107 326.891 246.51C326.957 245.916 326.992 245.318 326.995 244.72C327.026 244.129 327.026 243.537 326.995 242.946C326.943 241.769 326.903 240.61 326.816 239.462C326.674 237.166 326.532 234.935 326.39 232.769C325.814 224.119 325.359 216.542 324.961 210.285C324.564 204.029 324.264 199.104 324.051 195.729C323.953 194.053 323.873 192.755 323.821 191.877C323.821 191.447 323.781 191.119 323.769 190.89C323.758 190.66 323.746 190.666 323.746 190.666Z" fill="#263238"/>
<path d="M307.433 159.389C307.104 159.62 306.761 159.832 306.408 160.026C305.477 160.6 304.586 161.236 303.741 161.931C300.977 164.256 298.639 167.041 296.829 170.163C295.036 173.289 293.496 176.552 292.221 179.921L291.023 182.974L290.689 183.807C290.657 183.906 290.613 184 290.557 184.088C290.568 183.984 290.593 183.881 290.632 183.784C290.706 183.56 290.804 183.279 290.914 182.934C291.167 182.199 291.536 181.143 292.025 179.84C293.247 176.432 294.768 173.138 296.57 169.996C298.39 166.846 300.771 164.052 303.597 161.754C304.46 161.069 305.377 160.454 306.339 159.917C306.673 159.716 306.955 159.595 307.134 159.503C307.229 159.454 307.33 159.416 307.433 159.389Z" fill="#263238"/>
<g opacity="0.3">
<path d="M284.889 181.31C282.494 186.706 281.39 192.583 281.664 198.478C281.882 204.31 282.585 210.159 282.009 215.973C281.433 221.788 279.411 227.717 275.063 231.626C274.501 232.053 274.024 232.58 273.657 233.182C273.481 233.487 273.412 233.841 273.461 234.19C273.51 234.538 273.674 234.86 273.928 235.105C274.201 235.257 274.502 235.352 274.813 235.385C275.124 235.417 275.438 235.387 275.736 235.294C279.901 234.571 284.117 234.054 288.288 233.337C289.18 233.182 292.181 232.596 292.181 232.596C291.974 231.461 291.889 230.306 291.928 229.152C292.06 228.114 292.469 224.56 292.469 224.56C292.272 224.032 292.003 223.534 291.669 223.08C290.108 220.311 288.944 217.337 288.213 214.246C286.79 211.347 286.151 208.431 285.488 205.722C283.662 198.197 283.714 190.798 284.878 181.264" fill="black"/>
</g>
<g opacity="0.3">
<path d="M239.229 172.741C239.569 173.602 239.915 174.463 240.254 175.33C240.289 175.465 240.351 175.593 240.436 175.704C240.521 175.815 240.628 175.909 240.75 175.978C241.262 176.173 241.671 175.548 241.902 175.054C242.395 174.087 243.118 173.255 244.009 172.632C244.9 172.008 245.931 171.612 247.011 171.478C248.739 171.277 250.559 171.782 252.281 171.426C250.791 170.462 249.194 169.671 247.523 169.067C245.838 168.459 243.996 168.441 242.299 169.016C241.462 169.316 240.725 169.841 240.169 170.533C239.613 171.225 239.26 172.056 239.148 172.936" fill="black"/>
</g>
<g opacity="0.3">
<path d="M253.469 170.565C255.517 170.534 257.563 170.727 259.569 171.139C261.59 171.547 263.423 172.599 264.793 174.136C266.187 175.829 266.705 178.05 267.27 180.163C267.379 180.57 267.575 181.052 267.99 181.098C268.246 181.097 268.493 181.001 268.681 180.828C272.137 178.303 274.407 174.44 275.651 170.364C276.895 166.289 277.183 161.995 277.252 157.736C275.605 160.669 274.89 164.01 273.796 167.19C272.702 170.37 271.106 173.573 268.284 175.41C268.315 175.048 268.274 174.684 268.164 174.338C268.053 173.992 267.874 173.672 267.639 173.395C267.167 172.843 266.599 172.38 265.962 172.029C264.052 170.895 261.925 170.17 259.717 169.9C257.51 169.63 255.27 169.821 253.141 170.462" fill="black"/>
</g>
<path d="M244.517 238.177H237.461C237.461 238.177 221.546 232.437 218.275 233.011C215.325 233.505 204.537 240.645 202.423 242.063C202.187 242.219 202.008 242.447 201.91 242.712C201.701 243.271 201.719 243.889 201.96 244.436C202.201 244.982 202.646 245.414 203.201 245.639L203.419 245.731L203.327 246.052C203.198 246.468 203.142 246.903 203.16 247.338C203.189 247.664 203.32 247.972 203.536 248.219C203.751 248.465 204.039 248.638 204.358 248.712C204.677 248.786 205.012 248.757 205.314 248.63C205.617 248.503 205.871 248.284 206.04 248.004L205.637 248.727C205.469 249.02 205.391 249.355 205.412 249.691L205.447 250.34C205.467 250.696 205.594 251.038 205.812 251.321C206.029 251.603 206.328 251.814 206.668 251.924C206.992 252.024 207.338 252.029 207.665 251.939C207.992 251.848 208.286 251.666 208.511 251.413C209.882 249.915 212.837 246.913 214.847 246.58C217.014 246.319 219.197 246.21 221.379 246.253C221.824 246.255 222.258 246.39 222.625 246.641C222.991 246.892 223.274 247.247 223.435 247.66C222.249 247.746 213.978 252.045 211.051 253.583C210.598 253.808 210.207 254.139 209.911 254.548C209.615 254.957 209.423 255.431 209.352 255.931C209.243 256.844 209.704 257.796 211.518 257.377C215.406 256.47 222.404 253.268 222.404 253.268C222.404 253.268 226.01 252.24 228.349 253.882C231.638 256.178 233.147 257.044 235.969 256.109C237.687 255.531 239.334 254.761 240.877 253.813L246.441 253.239C246.441 253.239 251.711 240.186 244.517 238.177Z" fill="#FFBE9D"/>
<path d="M223.487 240.852C223.487 240.915 222.335 240.559 220.498 240.439C218.073 240.276 215.644 240.687 213.409 241.638C211.174 242.589 209.195 244.052 207.636 245.909C207.005 246.692 206.415 247.506 205.867 248.348C205.955 248.091 206.073 247.844 206.219 247.614C206.583 246.968 207.001 246.354 207.468 245.777C209.012 243.848 211.012 242.331 213.289 241.364C215.567 240.396 218.049 240.007 220.515 240.232C221.255 240.296 221.989 240.418 222.709 240.599C222.977 240.655 223.238 240.74 223.487 240.852Z" fill="#EB996E"/>
<path d="M221.817 236.999C220.087 236.459 218.256 236.314 216.461 236.574C214.667 236.834 212.954 237.494 211.449 238.503C209.301 239.88 207.345 241.534 205.632 243.422L204.03 245.098C203.847 245.31 203.643 245.502 203.42 245.672C203.577 245.433 203.752 245.207 203.944 244.995C204.295 244.57 204.814 243.967 205.476 243.238C207.167 241.289 209.133 239.593 211.311 238.204C213.527 236.826 216.102 236.131 218.713 236.207C219.496 236.246 220.271 236.389 221.017 236.632C221.213 236.695 221.405 236.769 221.593 236.855L221.817 236.999Z" fill="#EB996E"/>
<path d="M313.703 77.5547C309.398 77.5534 305.175 78.7281 301.493 80.9511C297.811 83.1742 294.812 86.3605 292.82 90.1636C290.828 93.9668 289.921 98.2413 290.197 102.522C290.472 106.803 291.92 110.927 294.384 114.446L291.555 123.199L300.195 120.266C303.227 122.377 306.715 123.746 310.377 124.264C314.039 124.781 317.771 124.432 321.272 123.245C324.774 122.057 327.945 120.065 330.53 117.429C333.114 114.793 335.04 111.588 336.15 108.072C337.261 104.557 337.525 100.83 336.921 97.1938C336.317 93.5577 334.862 90.1144 332.675 87.1427C330.487 84.171 327.628 81.7544 324.329 80.0887C321.03 78.423 317.384 77.5549 313.685 77.5547H313.703Z" fill="white"/>
<path d="M307.493 100.84C307.482 101.241 307.351 101.63 307.118 101.956C306.885 102.283 306.56 102.533 306.184 102.676C305.808 102.818 305.398 102.847 305.006 102.757C304.614 102.667 304.257 102.463 303.981 102.172C303.705 101.88 303.522 101.513 303.456 101.118C303.389 100.722 303.442 100.316 303.607 99.9504C303.772 99.5848 304.042 99.2763 304.383 99.0638C304.725 98.8513 305.121 98.7445 305.524 98.7568C306.062 98.7733 306.572 99.002 306.941 99.3926C307.31 99.7833 307.509 100.304 307.493 100.84Z" fill="#263238"/>
<path d="M315.65 101.088C315.638 101.489 315.507 101.878 315.274 102.204C315.041 102.531 314.716 102.782 314.34 102.924C313.964 103.067 313.554 103.095 313.162 103.005C312.77 102.915 312.413 102.711 312.137 102.42C311.861 102.128 311.679 101.761 311.612 101.366C311.545 100.97 311.598 100.564 311.763 100.198C311.928 99.8328 312.199 99.5243 312.54 99.3118C312.881 99.0994 313.278 98.9925 313.68 99.0049C314.218 99.0214 314.728 99.25 315.097 99.6407C315.467 100.031 315.665 100.552 315.65 101.088Z" fill="#263238"/>
<path d="M323.753 100.319C323.944 100.672 324.025 101.074 323.987 101.473C323.949 101.872 323.792 102.251 323.538 102.562C323.283 102.873 322.942 103.101 322.557 103.218C322.172 103.335 321.761 103.336 321.375 103.22C320.99 103.104 320.648 102.877 320.392 102.567C320.137 102.257 319.979 101.879 319.94 101.48C319.9 101.08 319.98 100.679 320.17 100.325C320.36 99.9712 320.65 99.6816 321.005 99.4927C321.24 99.3669 321.498 99.2886 321.763 99.262C322.028 99.2355 322.296 99.2614 322.551 99.3382C322.806 99.4149 323.044 99.5411 323.25 99.7095C323.456 99.8778 323.627 100.085 323.753 100.319Z" fill="#263238"/>
<path d="M314.428 77.3932C314.563 77.3767 314.701 77.3767 314.837 77.3932L316.046 77.4621C316.311 77.4621 316.622 77.4621 316.933 77.5253L317.993 77.709L319.231 77.9213L320.608 78.3059C322.976 78.9813 325.218 80.038 327.244 81.4342C330.245 83.4629 332.741 86.15 334.538 89.2893C336.335 92.4286 337.387 95.9366 337.612 99.5439C337.683 100.624 337.683 101.707 337.612 102.787C337.554 103.332 337.548 103.889 337.45 104.44C337.352 104.991 337.249 105.542 337.151 106.105C336.645 108.392 335.805 110.593 334.657 112.637C333.443 114.775 331.926 116.728 330.152 118.434C328.264 120.178 326.117 121.62 323.788 122.711C321.377 123.852 318.784 124.561 316.127 124.806C315.452 124.888 314.773 124.924 314.094 124.915C313.411 124.952 312.726 124.952 312.043 124.915C310.666 124.816 309.3 124.603 307.959 124.278C305.066 123.562 302.331 122.316 299.895 120.604L300.143 120.638L291.727 123.715L291.226 123.899L291.382 123.394L294.095 114.606L294.129 114.824C291.962 111.778 290.547 108.266 289.999 104.572C289.732 102.852 289.676 101.106 289.832 99.3717C289.874 98.5386 289.978 97.7097 290.143 96.892L290.368 95.6809C290.454 95.2848 290.587 94.906 290.696 94.5329C292.251 89.1271 295.682 84.4479 300.379 81.3309C302.114 80.1661 304.002 79.2448 305.989 78.5929L307.245 78.1854L308.437 77.9213L309.526 77.6917C309.871 77.6343 310.206 77.6056 310.522 77.5712C311.156 77.508 311.709 77.4162 312.193 77.4105H314.163C314.247 77.3993 314.332 77.3993 314.416 77.4105C314.332 77.4203 314.247 77.4203 314.163 77.4105L313.42 77.4506L312.193 77.4908C311.715 77.4908 311.162 77.6171 310.54 77.6917C306.004 78.3308 301.752 80.2691 298.301 83.2711C294.85 86.2731 292.348 90.2095 291.1 94.6018C291.002 94.9806 290.869 95.3594 290.789 95.7498C290.708 96.1401 290.645 96.5419 290.57 96.938C290.413 97.743 290.315 98.5583 290.276 99.3775C290.134 101.076 290.196 102.785 290.46 104.469C291.012 108.087 292.409 111.526 294.538 114.508L294.613 114.606L294.573 114.726C293.705 117.569 292.808 120.501 291.883 123.52L291.537 123.193L299.953 120.11L300.085 120.059L300.2 120.139C302.581 121.811 305.253 123.026 308.08 123.721C309.39 124.045 310.725 124.254 312.072 124.346C312.739 124.393 313.408 124.403 314.076 124.375C314.738 124.382 315.4 124.346 316.058 124.266C318.655 124.031 321.189 123.341 323.546 122.228C325.827 121.164 327.931 119.757 329.784 118.055C331.523 116.389 333.011 114.481 334.202 112.39C335.323 110.391 336.142 108.239 336.632 106.001C336.736 105.427 336.834 104.911 336.938 104.377C337.041 103.843 337.041 103.286 337.099 102.753C337.183 101.693 337.199 100.629 337.145 99.5669C336.935 96.018 335.917 92.5634 334.168 89.4646C332.42 86.3658 329.987 83.7041 327.054 81.681C325.062 80.2786 322.857 79.2067 320.522 78.5068L319.162 78.105L317.941 77.8639L316.893 77.663C316.57 77.6171 316.271 77.5999 316.012 77.5712L314.814 77.4449C314.684 77.4364 314.555 77.4191 314.428 77.3932Z" fill="#263238"/>
<path d="M145.001 262.784L125.89 214.975C125.502 214.026 125.354 212.997 125.459 211.977C125.564 210.958 125.919 209.98 126.492 209.13C127.066 208.279 127.84 207.582 128.748 207.1C129.655 206.618 130.667 206.366 131.696 206.365H191.231C192.542 206.366 193.819 206.775 194.884 207.536C195.949 208.296 196.748 209.37 197.17 210.607L213.586 258.823L232.761 258.915C234.316 258.915 235.577 261.211 235.577 262.744L214.473 262.502L145.001 262.784Z" fill="#263238"/>
<path d="M399.91 262.501C399.91 262.581 320.733 262.65 223.078 262.65C125.423 262.65 46.2461 262.581 46.2461 262.501C46.2461 262.42 125.406 262.352 223.078 262.352C320.75 262.352 399.91 262.415 399.91 262.501Z" fill="#263238"/>
</svg>
