<svg width="24" height="24" viewBox="0 0 24 24" fill="none" xmlns="http://www.w3.org/2000/svg">
<path opacity="0.4" fill-rule="evenodd" clip-rule="evenodd" d="M19.6274 13.9622C18.7804 12.0992 18.8024 11.3982 18.8414 10.1242C18.8514 9.82317 18.8614 9.49617 18.8614 9.12117C18.8614 6.14417 16.7324 1.95117 12.0004 1.95117C7.26836 1.95117 5.13936 6.14417 5.13936 9.12117C5.13936 9.49517 5.14936 9.82317 5.15936 10.1242C5.19836 11.3982 5.21936 12.0992 4.36336 13.9872C3.99736 14.9312 4.04136 15.7462 4.49636 16.4102C5.58836 18.0082 8.74836 18.2282 12.0004 18.2282C15.2524 18.2282 18.4124 18.0082 19.5044 16.4102C19.9604 15.7462 20.0044 14.9312 19.6274 13.9622Z" fill="#01A657"/>
<path fill-rule="evenodd" clip-rule="evenodd" d="M14.6974 19.2407C13.0664 19.4217 11.2984 19.4207 9.28838 19.2387C8.98738 19.2147 8.68938 19.3737 8.55138 19.6487C8.41238 19.9247 8.45638 20.2557 8.66138 20.4857C9.56138 21.4927 10.7454 22.0487 11.9954 22.0487H11.9974C13.2504 22.0487 14.4374 21.4937 15.3394 20.4857C15.5464 20.2547 15.5894 19.9187 15.4474 19.6417C15.3044 19.3667 15.0104 19.2127 14.6974 19.2407Z" fill="#01A657"/>
</svg>
