<svg width="25" height="24" viewBox="0 0 25 24" fill="none" xmlns="http://www.w3.org/2000/svg">
<path opacity="0.4" fill-rule="evenodd" clip-rule="evenodd" d="M20.6758 12.0039C20.6758 11.4516 20.2281 11.0039 19.6758 11.0039L4.67578 11.0039C4.1235 11.0039 3.67578 11.4516 3.67578 12.0039C3.67578 12.5562 4.1235 13.0039 4.67578 13.0039L19.6758 13.0039C20.2281 13.0039 20.6758 12.5562 20.6758 12.0039Z" fill="url(#paint0_linear_2126_9491)"/>
<path d="M10.2519 5.09788C10.7381 4.83584 11.3446 5.01752 11.6066 5.50368C11.7841 5.83296 11.7579 6.21752 11.5715 6.51285C11.4827 6.65348 11.3576 6.77387 11.2008 6.85842L11.1989 6.85946L11.1885 6.86515L11.1432 6.8901C11.1025 6.91266 11.0413 6.94687 10.9627 6.99184C10.8052 7.08182 10.5782 7.21452 10.305 7.38261C9.75653 7.71996 9.03081 8.1943 8.3101 8.74727C7.58347 9.3048 6.89438 9.91771 6.39604 10.5276C5.87832 11.1612 5.67637 11.6578 5.67637 12.0011C5.67637 12.3452 5.87853 12.8424 6.39621 13.4762C6.89456 14.0864 7.58365 14.6996 8.31027 15.2574C9.03096 15.8106 9.75667 16.2851 10.3051 16.6226C10.5784 16.7907 10.8054 16.9235 10.9628 17.0135C11.0419 17.0587 11.1212 17.1037 11.2013 17.1471C11.6872 17.4093 11.8686 18.0157 11.6066 18.5017C11.3445 18.9879 10.7379 19.1695 10.2518 18.9074C10.1571 18.8562 10.0635 18.8031 9.97002 18.7497C9.79658 18.6505 9.55092 18.5068 9.257 18.326C8.67107 17.9654 7.88428 17.4517 7.09247 16.8439C6.30659 16.2407 5.48318 15.5201 4.84716 14.7413C4.23046 13.9862 3.67637 13.0391 3.67637 12.0011C3.67637 10.9635 4.23067 10.0167 4.84732 9.26209C5.48336 8.48371 6.30677 7.7635 7.09264 7.16053C7.88443 6.553 8.67121 6.03947 9.25714 5.67907C9.55105 5.49828 9.79671 5.35463 9.97015 5.25549C10.0569 5.2059 10.1257 5.16736 10.1737 5.1408L10.2295 5.11003L10.245 5.10159L10.2496 5.09914L10.2519 5.09788Z" fill="url(#paint1_linear_2126_9491)"/>
<defs>
<linearGradient id="paint0_linear_2126_9491" x1="12.1758" y1="13.0039" x2="12.1758" y2="11.0039" gradientUnits="userSpaceOnUse">
<stop stop-color="#7B4794"/>
<stop offset="1" stop-color="#01A657"/>
</linearGradient>
<linearGradient id="paint1_linear_2126_9491" x1="7.70147" y1="19.0273" x2="7.70147" y2="4.97796" gradientUnits="userSpaceOnUse">
<stop stop-color="#7B4794"/>
<stop offset="1" stop-color="#01A657"/>
</linearGradient>
</defs>
</svg>
