<svg width="24" height="16" viewBox="0 0 24 16" fill="none" xmlns="http://www.w3.org/2000/svg">
<path opacity="0.4" fill-rule="evenodd" clip-rule="evenodd" d="M20.5 8C20.5 7.44772 20.0523 7 19.5 7L4.5 7C3.94772 7 3.5 7.44771 3.5 8C3.5 8.55228 3.94772 9 4.5 9L19.5 9C20.0523 9 20.5 8.55228 20.5 8Z" fill="#01A657"/>
<path d="M10.0761 1.09397C10.5623 0.83193 11.1688 1.01361 11.4309 1.49977C11.6083 1.82905 11.5822 2.21362 11.3957 2.50894C11.3069 2.64957 11.1818 2.76996 11.0251 2.85451L11.0231 2.85555L11.0127 2.86124L10.9674 2.88619C10.9267 2.90875 10.8656 2.94297 10.7869 2.98793C10.6295 3.07792 10.4025 3.21061 10.1292 3.3787C9.58075 3.71605 8.85502 4.19039 8.13432 4.74337C7.40769 5.30089 6.7186 5.91381 6.22026 6.52368C5.70254 7.15727 5.50059 7.65391 5.50059 7.99724C5.50059 8.34129 5.70275 8.83845 6.22043 9.47233C6.71878 10.0825 7.40787 10.6957 8.13449 11.2535C8.85518 11.8067 9.58089 12.2812 10.1293 12.6187C10.4026 12.7868 10.6296 12.9196 10.787 13.0096C10.8661 13.0548 10.9454 13.0998 11.0255 13.1432C11.5114 13.4054 11.6928 14.0118 11.4308 14.4978C11.1687 14.984 10.5621 15.1656 10.076 14.9035C9.98129 14.8523 9.88767 14.7992 9.79424 14.7458C9.6208 14.6466 9.37514 14.5029 9.08122 14.3221C8.49529 13.9615 7.7085 13.4478 6.91669 12.84C6.1308 12.2367 5.3074 11.5162 4.67137 10.7374C4.05468 9.98229 3.50059 9.03519 3.50059 7.99724C3.50059 6.95958 4.05489 6.01284 4.67154 5.25818C5.30757 4.47981 6.13098 3.7596 6.91685 3.15662C7.70865 2.54909 8.49543 2.03556 9.08136 1.67516C9.37527 1.49438 9.62093 1.35073 9.79436 1.25159C9.88113 1.20199 9.94997 1.16345 9.99789 1.13689L10.0538 1.10613L10.0693 1.09768L10.0738 1.09523L10.0761 1.09397Z" fill="#01A657"/>
</svg>
