<svg width="21" height="22" viewBox="0 0 21 22" fill="none" xmlns="http://www.w3.org/2000/svg">
<path opacity="0.4" fill-rule="evenodd" clip-rule="evenodd" d="M3.07336 3.57691C5.05436 1.59591 7.69136 0.503906 10.4974 0.503906C13.3034 0.503906 15.9404 1.59591 17.9214 3.57691C21.0234 6.67991 21.8694 11.4419 20.0444 15.3759C20.0114 15.5379 20.1004 16.1969 20.1644 16.6789C20.4064 18.4849 20.5304 19.8109 19.9174 20.4249C19.3054 21.0379 17.9804 20.9139 16.1744 20.6709C15.6924 20.6069 15.0254 20.5209 14.9214 20.5319C13.5154 21.1829 12.0124 21.4979 10.5204 21.4979C7.78236 21.4979 5.08036 20.4359 3.07336 18.4279C-1.01964 14.3329 -1.02064 7.67091 3.07336 3.57691Z" fill="#01A657"/>
<path d="M7.55453 11.418C7.55453 11.971 7.10153 12.418 6.54953 12.418C5.99753 12.418 5.54953 11.971 5.54953 11.418C5.54953 10.865 5.99753 10.418 6.54953 10.418H6.55853C7.11153 10.418 7.55453 10.865 7.55453 11.418Z" fill="#01A657"/>
<path d="M11.5635 11.418C11.5635 11.971 11.1115 12.418 10.5585 12.418C10.0065 12.418 9.55853 11.971 9.55853 11.418C9.55853 10.865 10.0065 10.418 10.5585 10.418H10.5675C11.1195 10.418 11.5635 10.865 11.5635 11.418Z" fill="#01A657"/>
<path d="M15.5715 11.418C15.5715 11.971 15.1195 12.418 14.5675 12.418C14.0155 12.418 13.5675 11.971 13.5675 11.418C13.5675 10.865 14.0155 10.418 14.5675 10.418H14.5765C15.1295 10.418 15.5715 10.865 15.5715 11.418Z" fill="#01A657"/>
</svg>
