<svg width="14" height="13" viewBox="0 0 14 13" fill="none" xmlns="http://www.w3.org/2000/svg">
<path fill-rule="evenodd" clip-rule="evenodd" d="M13.2876 4.9873C13.0296 3.88997 11.8843 3.8333 10.9636 3.7873C10.3843 3.75797 9.78498 3.72864 9.53431 3.4693C9.27898 3.2053 9.07965 2.6993 8.88565 2.20997C8.50765 1.25264 8.07898 0.167969 6.99965 0.167969C5.92098 0.167969 5.49298 1.25264 5.11431 2.20997C4.92098 2.6993 4.72098 3.2053 4.46631 3.4693C4.21498 3.72864 3.61565 3.75797 3.03631 3.7873C2.11565 3.8333 0.970312 3.88997 0.712312 4.9873C0.467645 6.02864 1.23231 6.65864 1.90698 7.21464C2.36831 7.59464 2.80431 7.95464 2.90098 8.39464C2.99498 8.82197 2.85365 9.37397 2.71698 9.90864C2.48231 10.828 2.21565 11.8693 3.10565 12.5406C3.38365 12.7506 3.66565 12.834 3.94431 12.834C4.54765 12.834 5.13565 12.4446 5.63898 12.1113C6.10498 11.8033 6.58698 11.484 6.99965 11.484C7.41231 11.484 7.89498 11.8033 8.36031 12.1113C9.09698 12.5986 10.013 13.204 10.895 12.5406C11.785 11.8693 11.5183 10.8273 11.283 9.9073C11.1463 9.3733 11.0056 8.8213 11.099 8.39464C11.1956 7.95464 11.6316 7.5953 12.093 7.21464C12.7676 6.65864 13.5323 6.02864 13.2876 4.9873Z" fill="#FFE600"/>
</svg>
