<svg width="30" height="32" viewBox="0 0 30 32" fill="none" xmlns="http://www.w3.org/2000/svg">
<path opacity="0.4" fill-rule="evenodd" clip-rule="evenodd" d="M3.97353 6.26294C1.88353 7.21294 0.569365 9.19211 0.252701 11.8363C0.126034 12.8338 0.157698 13.8946 0.300198 14.9554C0.74353 18.1379 2.27937 21.3204 4.32187 22.9196C5.87353 24.1229 7.8527 24.7088 9.86353 24.9779C11.0827 25.1521 12.3177 25.1996 13.4735 25.1996C13.8852 25.1996 14.2969 25.1996 14.6927 25.1838C17.606 25.1046 21.311 24.7721 23.9869 22.8721C27.5804 20.3234 27.1695 14.9097 26.8054 10.1128L26.8052 10.1104C26.8005 10.0502 26.7958 9.99007 26.7912 9.93005C26.6694 8.36522 26.5536 6.87706 26.5994 5.55044C26.536 3.57127 28.5944 3.17544 28.8319 3.14378C29.4652 3.03294 29.9085 2.43127 29.8135 1.78211C29.7027 1.14877 29.101 0.721275 28.4677 0.800442C26.9794 1.02211 24.2085 2.28878 24.2244 5.45544C24.2244 5.53505 24.223 5.61458 24.221 5.69408C24.2134 6.00409 23.9499 6.25149 23.6401 6.23777C20.5897 6.0984 17.5538 5.95969 14.5027 5.85128C12.7927 5.78794 11.0985 5.74044 9.38853 5.70878C9.24603 5.70878 9.10749 5.70482 8.96895 5.70086C8.83041 5.6969 8.69187 5.69294 8.54937 5.69294L8.49129 5.69102C7.06522 5.64388 5.47314 5.59124 3.97353 6.26294Z" fill="#01A657"/>
<path d="M22.6827 27.1113C23.8132 27.1113 24.7331 28.0297 24.7331 29.1602C24.7331 30.2907 23.8132 31.2106 22.6827 31.2106C21.5522 31.2106 20.6338 30.2907 20.6338 29.1602C20.6338 28.0297 21.5522 27.1113 22.6827 27.1113Z" fill="#01A657"/>
<path d="M6.32521 27.1113C7.45571 27.1113 8.37404 28.0297 8.37404 29.1602C8.37404 30.2907 7.45571 31.2106 6.32521 31.2106C5.19471 31.2106 4.27479 30.2907 4.27479 29.1602C4.27479 28.0297 5.19471 27.1113 6.32521 27.1113Z" fill="#01A657"/>
<path d="M13.6003 14.2422H9.21445C8.54945 14.2422 8.02695 13.7039 8.02695 13.0547C8.02695 12.4055 8.54945 11.8672 9.21445 11.8672H13.6003C14.2494 11.8672 14.7878 12.4055 14.7878 13.0547C14.7878 13.7039 14.2494 14.2422 13.6003 14.2422Z" fill="#01A657"/>
</svg>
