<svg width="26" height="32" viewBox="0 0 26 32" fill="none" xmlns="http://www.w3.org/2000/svg">
<path opacity="0.4" d="M17.8503 10.6153C17.7859 10.6059 17.7214 10.5971 17.6568 10.5889C17.4266 10.56 17.1214 10.519 16.7537 10.468C15.6249 10.344 14.3765 10.2852 12.9999 10.2852C3.46186 10.2852 0.0798607 13.0908 0.0798607 21.0059C0.0798607 28.9226 3.46186 31.7282 12.9999 31.7282C22.5379 31.7282 25.9199 28.9226 25.9199 21.0059C25.9199 16.73 24.9279 13.9494 22.5168 12.2944C21.8848 11.906 20.2824 11.1019 18.4665 10.7247C18.2657 10.6855 18.0604 10.649 17.8503 10.6153Z" fill="#01A657"/>
<path d="M19.0345 10.845V8.57765C18.9823 5.29382 16.3682 2.68923 13.0812 2.64648C11.4488 2.60215 9.94302 3.23548 8.78877 4.36123C7.63611 5.48698 6.98853 6.99273 6.96953 8.59032V10.8442C6.08256 11.0503 5.29309 11.3167 4.59452 11.6489V8.57607C4.62302 6.32932 5.52236 4.22823 7.13261 2.66073C8.73969 1.09323 10.8835 0.315818 13.1129 0.271484C17.6903 0.330068 21.3351 3.96223 21.4095 8.56024V11.6588L19.0345 10.845Z" fill="#01A657"/>
<path d="M11.8129 23.0355C11.8129 23.691 12.3449 24.223 13.0004 24.223C13.6559 24.223 14.1879 23.691 14.1879 23.0355V19.5189C14.1879 18.8634 13.6559 18.3314 13.0004 18.3314C12.3449 18.3314 11.8129 18.8634 11.8129 19.5189V23.0355Z" fill="#01A657"/>
</svg>
