<svg width="18" height="18" viewBox="0 0 25 24" fill="none" xmlns="http://www.w3.org/2000/svg">
<g id="Style=Curved, Type=Light, Icon=Hide" >
<g id="Hide" >
<path id="Stroke 1" d="M6.81207 17.7298C4.58356 16.2698 3.14453 14.0698 3.14453 12.1398C3.14453 8.85984 7.28175 4.83984 12.3883 4.83984C14.4769 4.83984 16.4156 5.50984 17.9746 6.54984" stroke="#01A657" stroke-width="1" stroke-linecap="round" stroke-linejoin="round"/>
<path id="Stroke 3" d="M20.2327 8.60938C21.1231 9.73937 21.6418 10.9894 21.6418 12.1394C21.6418 15.4194 17.4946 19.4394 12.388 19.4394C11.4786 19.4394 10.5902 19.3094 9.75977 19.0794" stroke="#01A657" stroke-width="1" stroke-linecap="round" stroke-linejoin="round"/>
<path id="Stroke 5" d="M10.1558 14.3677C9.56124 13.7787 9.22847 12.9757 9.23147 12.1387C9.22747 10.3937 10.6385 8.97567 12.3833 8.97267C13.2228 8.97067 14.0282 9.30367 14.6218 9.89767" stroke="#01A657" stroke-width="1" stroke-linecap="round" stroke-linejoin="round"/>
<path id="Stroke 7" d="M15.4953 12.6992C15.2614 13.9912 14.2511 15.0042 12.96 15.2412" stroke="#01A657" stroke-width="1" stroke-linecap="round" stroke-linejoin="round"/>
<path id="Stroke 9" d="M20.2751 4.25L4.51172 20.024" stroke="#01A657" stroke-width="1" stroke-linecap="round" stroke-linejoin="round"/>
</g>
</g>
</svg>
