<svg width="40" height="28" viewBox="0 0 40 28" fill="none" xmlns="http://www.w3.org/2000/svg">
<path d="M0.564211 27.6715C0.719167 27.6138 0.866664 27.5378 1.00357 27.4452C1.29766 27.2458 1.73227 27.0124 2.20641 26.7319C3.24096 26.102 4.73314 25.1823 6.5707 24.0182C10.2388 21.6948 15.2651 18.4199 20.6986 14.7054C26.1321 10.9909 31.0414 7.46818 34.5291 4.8787C36.2812 3.58859 37.6832 2.53584 38.6418 1.79393C39.0942 1.4361 39.4581 1.15872 39.745 0.933574C39.3791 1.25319 39.9566 0.687913 39.6975 0.863568C39.4384 1.03922 38.9973 1.33831 38.5351 1.65165C37.4918 2.35901 36.0873 3.39298 34.3512 4.63135C30.8208 7.15781 25.9297 10.617 20.494 14.3433C15.0582 18.0695 10.0299 21.3867 6.4278 23.7471C4.66323 24.9435 3.18054 25.8772 2.12297 26.5636C1.64682 26.8864 1.2687 27.1427 0.967605 27.3469C0.825701 27.4455 0.690907 27.554 0.564211 27.6715Z" fill="#263238"/>
</svg>
