<svg width="68" height="69" viewBox="0 0 68 69" fill="none" xmlns="http://www.w3.org/2000/svg">
<path d="M52.9392 13.9617C53.4597 15.2742 53.7102 16.6781 53.6756 18.0896C53.641 19.501 53.3221 20.891 52.7379 22.1764C51.55 24.7456 49.7873 27.0072 47.5858 28.7865C43.4567 32.3412 37.4822 34.253 32.0998 35.1908C31.4615 29.1746 35.4165 23.3696 37.6038 20.552C41.0648 16.1004 50.0249 10.1498 52.9224 13.9923" fill="#01A657"/>
<path d="M29.917 45.3286C30.7416 43.9824 31.9077 42.8782 33.2968 42.1282C34.6859 41.3781 36.2486 41.0088 37.8266 41.0576C39.4017 41.1314 40.9463 41.5189 42.3697 42.1975C43.7931 42.8761 45.0667 43.8321 46.1157 45.0095C47.1076 46.0798 47.9672 47.4544 47.7867 48.8679C47.6509 49.5372 47.3384 50.158 46.8816 50.6656C46.4248 51.1733 45.8403 51.5494 45.189 51.7547C43.8818 52.15 42.4933 52.1917 41.1648 51.8755C36.5827 51.0054 32.3054 49.3218 29.9462 45.3095" fill="#01A657"/>
<path d="M14.3426 53.5203C14.6123 53.2612 14.9039 53.026 15.2143 52.8173C15.8548 52.3383 16.676 51.7269 17.6658 50.9835C20.3172 48.878 23.2911 47.2142 26.4727 46.0564C29.6989 44.9434 33.163 44.7084 36.51 45.3753C37.5139 45.5936 38.4889 45.9288 39.4148 46.374C39.7496 46.5231 39.983 46.682 40.1788 46.7944C40.3746 46.9068 40.4242 46.9528 40.3896 46.99C38.2409 45.9925 35.9149 45.4334 33.5476 45.3452C31.1802 45.257 28.8191 45.6416 26.6021 46.4765C23.4572 47.6283 20.5014 49.242 17.832 51.2646C16.77 51.9988 15.9063 52.5938 15.3104 52.9873C15.0038 53.1926 14.68 53.371 14.3426 53.5203Z" fill="#263238"/>
<path d="M46.5092 19.087C46.4288 19.2314 46.3313 19.3657 46.2189 19.487C45.9773 19.7474 45.6807 20.1416 45.3315 20.5678C44.5521 21.4949 43.4168 22.8304 41.9876 24.4703C39.135 27.7438 35.1361 32.2155 30.6408 37.0231C26.1455 41.8307 21.9193 46.1494 18.8311 49.2042C17.2903 50.7405 16.0371 51.9667 15.1585 52.8017C14.7362 53.1947 14.4069 53.5123 14.1409 53.7617C14.5122 53.4485 13.866 53.9336 14.0789 53.7042C14.2918 53.4747 14.6543 53.084 15.034 52.6747C15.8914 51.7506 17.1263 50.5191 18.6135 48.9909C21.646 45.8842 25.8067 41.574 30.3139 36.766C34.8211 31.9579 38.8622 27.4906 41.7414 24.2879C43.1914 22.7251 44.3391 21.4011 45.1778 20.4598C45.5691 20.0381 45.8798 19.7032 46.1272 19.4365C46.2462 19.3112 46.3739 19.1944 46.5092 19.087Z" fill="#263238"/>
<path d="M21.8991 42.3789C23.7254 39.5981 24.8636 36.4224 25.2196 33.1146C25.5756 29.8068 25.1393 26.4617 23.9466 23.3559C23.3251 21.7868 22.1957 20.0811 20.5068 20.0606C18.818 20.04 17.6297 21.7187 17.0064 23.2985C15.766 26.6063 15.5321 30.2072 16.3341 33.6477C17.1362 37.0882 18.9383 40.2145 21.5135 42.6328" fill="#01A657"/>
<path d="M20.9929 27.6198C21.1672 27.9285 21.3098 28.2541 21.4184 28.5916C21.5776 28.9726 21.7122 29.3635 21.8213 29.7618C21.9969 30.2746 22.1443 30.7967 22.263 31.3256C22.4187 31.9743 22.5373 32.6315 22.618 33.2938C22.7263 34.0492 22.7908 34.8103 22.8111 35.5733C22.8587 37.3263 22.7074 39.0791 22.3602 40.7981C21.9816 42.51 21.407 44.1726 20.6481 45.753C20.316 46.441 19.9432 47.1086 19.5317 47.7523C19.1834 48.3174 18.802 48.8614 18.3894 49.3814C18.0371 49.8854 17.6383 50.2655 17.3289 50.6363C17.0676 50.9587 16.7851 51.2632 16.4831 51.5479C16.2384 51.8019 15.9705 52.0324 15.6828 52.2364C15.6146 52.1731 16.7504 51.1728 18.1866 49.2393C18.5796 48.7124 18.9448 48.1652 19.2805 47.6C19.6593 47.0052 19.9929 46.3223 20.3496 45.6145C21.0764 44.0536 21.6274 42.4167 21.9926 40.7341C22.3369 39.0463 22.4973 37.3263 22.4711 35.604C22.4611 34.8514 22.411 34.1 22.3209 33.3528C22.2587 32.6487 22.1149 32.0076 22.0146 31.4067C21.4951 29.0437 20.9101 27.6468 20.9929 27.6198Z" fill="#263238"/>
</svg>
