<svg width="70" height="66" viewBox="0 0 70 66" fill="none" xmlns="http://www.w3.org/2000/svg">
<path d="M11.5217 48.2499C12.7401 48.9634 14.0898 49.4238 15.4902 49.6035C16.8906 49.7833 18.3129 49.6788 19.672 49.2962C22.3916 48.5115 24.8943 47.112 26.9867 45.2057C31.1263 41.6632 33.9217 36.0475 35.6646 30.8694C29.8146 29.3265 23.4771 32.3559 20.3606 34.0907C15.4357 36.8369 8.19571 44.7914 11.5545 48.2379" fill="#01A657"/>
<path d="M46.0167 30.2485C44.5611 30.8595 43.2929 31.8447 42.3409 33.104C41.3889 34.3634 40.787 35.8521 40.5961 37.4192C40.4302 38.9873 40.5791 40.5728 41.0341 42.0827C41.4891 43.5925 42.241 44.9963 43.2457 46.2117C44.1533 47.3543 45.3817 48.4124 46.8062 48.4482C47.4884 48.4155 48.1493 48.2007 48.7204 47.8261C49.2914 47.4515 49.7518 46.9308 50.0535 46.3181C50.6424 45.086 50.894 43.7198 50.7829 42.3587C50.6175 37.6977 49.6017 33.2146 45.9934 30.2745" fill="#01A657"/>
<path d="M56.4748 16.0966C56.1778 16.3238 55.9011 16.5764 55.6477 16.8515C55.0772 17.4121 54.3484 18.131 53.4635 18.9967C50.9804 21.2983 48.885 23.9856 47.2583 26.9549C45.6692 29.9751 44.9117 33.3636 45.0635 36.773C45.1271 37.7984 45.3106 38.8129 45.6104 39.7956C45.707 40.1492 45.8286 40.404 45.91 40.6145C45.9915 40.8251 46.0294 40.8811 46.0715 40.8526C45.4112 38.5775 45.2111 36.1936 45.4828 33.8402C45.7546 31.4869 46.4927 29.2113 47.654 27.1466C49.2692 24.2126 51.3123 21.5356 53.7162 19.2036C54.6029 18.2652 55.322 17.5017 55.8012 16.9723C56.0506 16.7004 56.276 16.4074 56.4748 16.0966Z" fill="#263238"/>
<path d="M17.5642 42.6715C17.7192 42.6138 17.8667 42.5378 18.0036 42.4452C18.2977 42.2458 18.7323 42.0124 19.2064 41.7319C20.241 41.102 21.7331 40.1823 23.5707 39.0182C27.2388 36.6948 32.2651 33.4199 37.6986 29.7054C43.1321 25.9909 48.0414 22.4682 51.5291 19.8787C53.2812 18.5886 54.6832 17.5358 55.6418 16.7939C56.0942 16.4361 56.4581 16.1587 56.745 15.9336C56.3791 16.2532 56.9566 15.6879 56.6975 15.8636C56.4384 16.0392 55.9973 16.3383 55.5351 16.6516C54.4918 17.359 53.0873 18.393 51.3512 19.6313C47.8208 22.1578 42.9297 25.617 37.494 29.3433C32.0582 33.0695 27.0299 36.3867 23.4278 38.7471C21.6632 39.9435 20.1805 40.8772 19.123 41.5636C18.6468 41.8864 18.2687 42.1427 17.9676 42.3469C17.8257 42.4455 17.6909 42.554 17.5642 42.6715Z" fill="#263238"/>
<path d="M44.316 21.8755C41.2904 23.2591 37.9789 23.9028 34.6554 23.7533C31.3318 23.6037 28.0915 22.6653 25.2024 21.0156C23.7457 20.1635 22.2309 18.7886 22.4666 17.1161C22.7023 15.4436 24.5417 14.5235 26.1977 14.1469C29.6553 13.4223 33.2501 13.737 36.5292 15.0513C39.8084 16.3656 42.6254 18.6208 44.6254 21.5329" fill="#01A657"/>
<path d="M29.8667 18.743C30.1454 18.9621 30.4457 19.1524 30.7628 19.3109C31.1153 19.526 31.4812 19.7183 31.8584 19.8866C32.3387 20.1378 32.8324 20.3627 33.3372 20.5602C33.9548 20.8124 34.5864 21.0292 35.2288 21.2095C35.9591 21.431 36.7017 21.6101 37.4527 21.7459C39.1783 22.0586 40.9338 22.1748 42.6855 22.0922C44.435 21.9774 46.1654 21.6616 47.8427 21.151C48.573 20.927 49.2895 20.6597 49.9881 20.3506C50.5994 20.092 51.1949 19.7974 51.7715 19.4685C52.3231 19.1967 52.7593 18.8601 53.1727 18.6105C53.5309 18.4011 53.8748 18.1679 54.202 17.9126C54.4901 17.7092 54.7585 17.4793 55.0038 17.2259C54.9516 17.1489 53.7906 18.12 51.6618 19.2464C51.0814 19.5551 50.4852 19.833 49.8757 20.0792C49.2303 20.3635 48.5047 20.5897 47.751 20.8349C46.098 21.3167 44.3965 21.6133 42.6779 21.7192C40.9575 21.8036 39.233 21.7015 37.5346 21.4144C36.7922 21.2905 36.0571 21.127 35.3322 20.9247C34.6457 20.7565 34.0337 20.5172 33.455 20.327C31.198 19.4553 29.906 18.6652 29.8667 18.743Z" fill="#263238"/>
</svg>
