<svg width="44" height="53" viewBox="0 0 44 53" fill="none" xmlns="http://www.w3.org/2000/svg">
<path d="M30.169 17.431C30.0605 17.4151 29.9519 17.4003 29.843 17.3866C29.4553 17.3379 28.9413 17.2689 28.322 17.183C26.4209 16.9741 24.3183 16.875 21.9998 16.875C5.93576 16.875 0.239765 21.6003 0.239765 34.931C0.239765 48.2643 5.93576 52.9897 21.9998 52.9897C38.0638 52.9897 43.7598 48.2643 43.7598 34.931C43.7598 27.7295 42.0891 23.0464 38.0282 20.259C36.9639 19.6048 34.2651 18.2506 31.2067 17.6152C30.8686 17.5492 30.5227 17.4878 30.169 17.431Z" fill="#DDFFF8"/>
<path d="M32.1634 17.8178V13.9991C32.0754 8.46843 27.6727 4.08177 22.1367 4.00977C19.3874 3.9351 16.8514 5.00177 14.9074 6.89777C12.9661 8.79377 11.8754 11.3298 11.8434 14.0204V17.8164C10.3496 18.1635 9.01995 18.6122 7.84341 19.1718V13.9964C7.89141 10.2124 9.40608 6.67377 12.1181 4.03377C14.8247 1.39377 18.4354 0.0844323 22.1901 0.00976562C29.8994 0.108432 36.0381 6.22577 36.1634 13.9698V19.1884L32.1634 17.8178Z" fill="#3C005A"/>
<path d="M20.0007 38.3491C20.0007 39.4531 20.8967 40.3491 22.0007 40.3491C23.1047 40.3491 24.0007 39.4531 24.0007 38.3491V32.4264C24.0007 31.3224 23.1047 30.4264 22.0007 30.4264C20.8967 30.4264 20.0007 31.3224 20.0007 32.4264V38.3491Z" fill="#3C005A"/>
</svg>
