<svg width="750" height="500" viewBox="0 0 750 500" fill="none" xmlns="http://www.w3.org/2000/svg">
<g opacity="0.2">
<path d="M666.95 150.271L657.38 196.621L651.22 190.611L640.74 198.091L632.73 188.141L614.77 201.201L599.42 175.531L582.3 185.561L575.51 176.201L553.77 188.451L547.23 174.441L562.47 100.631L644.17 117.501L666.95 150.271Z" fill="#D23D3D"/>
<path d="M644.17 117.5L666.95 150.27L638.61 144.42L644.17 117.5Z" fill="#DBDBDB"/>
<path d="M655.34 205.881L641.31 273.881L531.26 251.161L545.19 183.711L551.73 197.711L573.48 185.461L580.26 194.821L597.39 184.801L612.73 210.471L630.7 197.411L638.7 207.351L649.19 199.881L655.34 205.881Z" fill="#D23D3D"/>
<path d="M497.83 197.91L385.68 204.85L376.77 60.8905L460.05 55.7305L490.62 81.3805L497.83 197.91Z" fill="#D23D3D"/>
<path d="M460.05 55.7305L490.62 81.3805L461.74 83.1705L460.05 55.7305Z" fill="#DBDBDB"/>
<path d="M429 152.6L428.56 149.35C427.43 142.62 429.27 135.09 435.12 127.22C440.4 120.22 443.26 115.22 442.94 109.54C442.58 103.14 438.33 99.1003 430.42 99.4203C425.899 99.6551 421.557 101.259 417.97 104.02L414.52 96.2903C418.52 93.0403 425.52 90.6403 432.17 90.2903C446.6 89.4903 453.62 98.0303 454.17 107.56C454.65 116.09 450.23 122.5 444.61 129.99C439.45 136.82 437.76 142.45 438.49 148.82L438.8 152.08L429 152.6ZM427.22 170.31C426.96 165.67 429.91 162.23 434.3 161.99C438.69 161.75 441.89 164.83 442.15 169.48C442.39 173.87 439.7 177.41 435.06 177.67C430.63 177.92 427.43 174.7 427.18 170.31H427.22Z" fill="#DBDBDB"/>
<path d="M148.48 128.11L137.2 123L135.63 126.45C135.398 126.943 135.036 127.364 134.584 127.667C134.131 127.97 133.604 128.144 133.06 128.17C132.44 128.19 131.822 128.25 131.21 128.35C130.673 128.43 130.124 128.362 129.622 128.154C129.12 127.947 128.684 127.606 128.36 127.17L126.15 124.08L116.08 131.3L118.29 134.39C118.597 134.836 118.778 135.357 118.813 135.897C118.849 136.438 118.737 136.978 118.49 137.46C118.205 138.01 117.948 138.574 117.72 139.15C117.522 139.658 117.189 140.102 116.757 140.435C116.326 140.768 115.812 140.977 115.27 141.04L111.5 141.41L112.71 153.74L116.5 153.36C117.044 153.317 117.589 153.422 118.077 153.665C118.565 153.908 118.977 154.28 119.27 154.74C119.43 155 119.6 155.25 119.78 155.5C119.96 155.75 120.14 155.99 120.33 156.23C120.675 156.65 120.897 157.157 120.971 157.696C121.045 158.234 120.969 158.782 120.75 159.28L119.17 162.76L130.46 167.88L132.03 164.41C132.264 163.917 132.628 163.498 133.082 163.197C133.537 162.895 134.065 162.724 134.61 162.7C135.223 162.675 135.834 162.615 136.44 162.52C136.977 162.44 137.526 162.508 138.028 162.716C138.53 162.923 138.966 163.264 139.29 163.7L141.5 166.79L151.58 159.57L149.37 156.48C149.053 156.038 148.866 155.516 148.831 154.974C148.796 154.431 148.913 153.889 149.17 153.41C149.449 152.863 149.699 152.302 149.92 151.73C150.112 151.218 150.443 150.77 150.876 150.437C151.309 150.103 151.826 149.896 152.37 149.84L156.16 149.46L154.94 137.13L151.15 137.5C150.61 137.547 150.067 137.445 149.582 137.203C149.096 136.961 148.687 136.59 148.4 136.13C148.23 135.87 148.06 135.62 147.88 135.37C147.7 135.12 147.52 134.87 147.33 134.64C146.987 134.215 146.767 133.704 146.693 133.163C146.619 132.622 146.694 132.071 146.91 131.57L148.48 128.11ZM142.08 139.52C143.249 141.152 143.909 143.094 143.974 145.1C144.04 147.107 143.509 149.088 142.449 150.793C141.388 152.498 139.846 153.85 138.018 154.678C136.189 155.506 134.156 155.774 132.175 155.446C130.194 155.119 128.355 154.212 126.89 152.839C125.425 151.466 124.4 149.69 123.944 147.735C123.489 145.779 123.623 143.733 124.331 141.854C125.039 139.976 126.288 138.349 127.92 137.18C130.108 135.613 132.829 134.979 135.485 135.418C138.14 135.857 140.512 137.332 142.08 139.52Z" fill="#D23D3D"/>
<path d="M658.38 291.711L650.86 296.051L652.19 298.351C652.389 298.681 652.488 299.061 652.475 299.446C652.463 299.831 652.339 300.204 652.12 300.521C651.89 300.881 651.67 301.251 651.47 301.641C651.306 301.986 651.046 302.277 650.722 302.479C650.397 302.681 650.022 302.786 649.64 302.781H647V311.471H649.66C650.042 311.466 650.417 311.571 650.742 311.773C651.066 311.975 651.326 312.266 651.49 312.611C651.69 313.001 651.91 313.371 652.14 313.731C652.359 314.048 652.483 314.421 652.495 314.806C652.507 315.191 652.409 315.571 652.21 315.901L650.88 318.201L658.4 322.541L659.74 320.231C659.934 319.903 660.216 319.636 660.553 319.46C660.89 319.283 661.27 319.204 661.65 319.231H662.93C663.31 319.205 663.689 319.285 664.026 319.461C664.363 319.638 664.645 319.904 664.84 320.231L666.18 322.551L673.69 318.211L672.36 315.901C672.171 315.569 672.078 315.191 672.092 314.81C672.106 314.428 672.227 314.058 672.44 313.741C672.67 313.381 672.89 313.001 673.09 312.621C673.254 312.276 673.514 311.985 673.838 311.783C674.163 311.581 674.538 311.476 674.92 311.481H677.58V302.791H674.9C674.518 302.796 674.143 302.691 673.818 302.489C673.494 302.287 673.234 301.996 673.07 301.651C672.87 301.271 672.65 300.891 672.42 300.531C672.207 300.214 672.086 299.844 672.072 299.462C672.058 299.081 672.151 298.703 672.34 298.371L673.67 296.061L666.16 291.721L664.82 294.001C664.626 294.329 664.344 294.596 664.007 294.772C663.67 294.949 663.29 295.028 662.91 295.001H662.27H661.63C661.249 295.027 660.868 294.947 660.53 294.77C660.191 294.594 659.907 294.328 659.71 294.001L658.38 291.711ZM662.27 300.011C663.679 300.009 665.057 300.425 666.229 301.207C667.402 301.988 668.316 303.1 668.856 304.402C669.396 305.703 669.538 307.135 669.264 308.518C668.989 309.9 668.311 311.169 667.315 312.166C666.318 313.162 665.049 313.84 663.667 314.115C662.284 314.389 660.852 314.247 659.551 313.707C658.249 313.167 657.137 312.253 656.356 311.08C655.574 309.908 655.158 308.53 655.16 307.121C655.159 306.186 655.342 305.261 655.698 304.397C656.055 303.533 656.579 302.748 657.239 302.087C657.899 301.426 658.684 300.901 659.547 300.543C660.41 300.185 661.335 300.001 662.27 300.001V300.011Z" fill="#D23D3D"/>
<path d="M171.3 91.1609L164.41 96.4409L166 98.5509C166.237 98.8516 166.383 99.214 166.42 99.5951C166.457 99.9763 166.384 100.36 166.21 100.701C166.019 101.09 165.852 101.491 165.71 101.901C165.587 102.262 165.365 102.582 165.07 102.824C164.775 103.066 164.418 103.221 164.04 103.271L161.4 103.611L162.52 112.221L165.16 111.881C165.544 111.827 165.936 111.883 166.29 112.043C166.643 112.202 166.945 112.458 167.16 112.781C167.401 113.129 167.661 113.463 167.94 113.781C168.198 114.064 168.368 114.416 168.432 114.793C168.496 115.171 168.45 115.559 168.3 115.911L167.3 118.371L175.3 121.701L176.3 119.241C176.449 118.888 176.693 118.584 177.006 118.363C177.319 118.142 177.688 118.013 178.07 117.991L178.71 117.921L179.34 117.821C179.71 117.751 180.092 117.784 180.445 117.916C180.797 118.049 181.107 118.275 181.34 118.571L182.97 120.701L189.86 115.421L188.25 113.311C188.017 113.006 187.875 112.642 187.837 112.261C187.8 111.879 187.87 111.495 188.04 111.151C188.229 110.764 188.396 110.367 188.54 109.961C188.663 109.6 188.885 109.28 189.18 109.038C189.475 108.796 189.832 108.641 190.21 108.591L192.85 108.251L191.73 99.6409L189.09 99.9809C188.707 100.036 188.316 99.981 187.962 99.8236C187.608 99.6662 187.306 99.4122 187.09 99.0909C186.84 98.7309 186.58 98.3909 186.3 98.0909C186.067 97.8015 185.916 97.4548 185.863 97.0871C185.811 96.7193 185.858 96.3442 186 96.0009L187 93.5409L179 90.2109L178 92.6709C177.849 93.0225 177.604 93.3254 177.292 93.546C176.979 93.7667 176.612 93.8965 176.23 93.9209L175.59 93.9809L175 94.0009C174.63 94.0707 174.248 94.0376 173.895 93.9054C173.542 93.7732 173.233 93.5468 173 93.2509L171.3 91.1609ZM176.23 98.8909C177.623 98.7119 179.038 98.9494 180.296 99.5734C181.554 100.198 182.599 101.18 183.299 102.398C184 103.615 184.324 105.013 184.231 106.414C184.138 107.815 183.632 109.158 182.777 110.272C181.922 111.386 180.756 112.222 179.426 112.674C178.096 113.126 176.663 113.175 175.306 112.813C173.949 112.452 172.729 111.696 171.801 110.642C170.872 109.588 170.277 108.283 170.09 106.891C169.965 105.962 170.025 105.018 170.266 104.112C170.508 103.206 170.926 102.357 171.496 101.614C172.067 100.871 172.779 100.247 173.591 99.7799C174.404 99.3125 175.3 99.0104 176.23 98.8909Z" fill="#D23D3D"/>
<path d="M154 267.91C152.736 267.722 151.454 267.678 150.18 267.78C150.03 267.78 150.04 268.04 150.18 268.05C151.44 268.05 152.71 267.99 153.97 268.05C153.984 268.046 153.998 268.039 154.008 268.028C154.018 268.017 154.025 268.004 154.028 267.989C154.031 267.975 154.031 267.96 154.025 267.946C154.02 267.932 154.012 267.919 154 267.91Z" fill="white"/>
<path d="M140.21 292.801C138.183 292.842 136.178 293.242 134.29 293.981C134.29 293.981 134.29 294.081 134.29 294.071C136.29 293.601 138.22 293.411 140.2 293.071C140.226 293.059 140.248 293.041 140.264 293.018C140.28 292.994 140.289 292.967 140.29 292.939C140.291 292.911 140.284 292.883 140.27 292.858C140.256 292.834 140.235 292.814 140.21 292.801Z" fill="white"/>
<path d="M136.07 284.2C135.228 284.193 134.388 284.267 133.56 284.42C133.545 284.425 133.531 284.436 133.522 284.449C133.513 284.462 133.508 284.478 133.508 284.495C133.508 284.511 133.513 284.527 133.522 284.54C133.531 284.554 133.545 284.564 133.56 284.57C134.398 284.618 135.239 284.581 136.07 284.46C136.104 284.46 136.138 284.446 136.162 284.422C136.186 284.397 136.2 284.364 136.2 284.33C136.2 284.295 136.186 284.262 136.162 284.238C136.138 284.213 136.104 284.2 136.07 284.2Z" fill="white"/>
</g>
<path d="M68.96 382.18L144.97 381.94L220.98 381.85L373 381.68L525.02 381.85L601.03 381.94L677.04 382.18L601.03 382.43L525.02 382.51L373 382.68L220.98 382.51L144.97 382.42L68.96 382.18Z" fill="#263238"/>
<path d="M375 456.709C533.362 456.709 661.74 442.642 661.74 425.289C661.74 407.936 533.362 393.869 375 393.869C216.638 393.869 88.2598 407.936 88.2598 425.289C88.2598 442.642 216.638 456.709 375 456.709Z" fill="#EBEBEB"/>
<path d="M308.25 420.091C305.92 420.881 239.11 421.091 236.55 419.511C235.55 418.911 234.98 409.181 234.55 397.401C234.46 394.861 234.39 392.231 234.33 389.571L229 353.931L273.67 353.641L277.88 389.291L277.71 397.131C277.71 397.131 303.33 408.481 305.95 410.541C308.57 412.601 310.58 419.301 308.25 420.091Z" fill="#EB9481"/>
<path d="M308.25 420.091C305.92 420.881 239.11 421.091 236.55 419.511C235.37 418.771 234.73 404.561 234.37 389.571L277.83 389.291L277.66 397.131C277.66 397.131 303.28 408.481 305.9 410.541C308.52 412.601 310.58 419.301 308.25 420.091Z" fill="white"/>
<path d="M308.25 420.091C305.92 420.881 239.11 421.091 236.55 419.511C235.55 418.911 234.98 409.181 234.55 397.401L277.62 397.131C277.62 397.131 303.24 408.481 305.86 410.541C308.48 412.601 310.58 419.301 308.25 420.091Z" fill="#A6A6A6"/>
<path d="M307.28 417.42C296.08 417.18 250.88 417.29 239.79 417.91C239.7 417.91 239.7 417.97 239.79 417.98C250.89 418.45 296.09 417.98 307.28 417.6C307.52 417.59 307.52 417.42 307.28 417.42Z" fill="#263238"/>
<path d="M301.59 408.151C300.345 408.123 299.107 408.354 297.956 408.829C296.804 409.304 295.764 410.013 294.9 410.911C293.327 412.513 292.438 414.665 292.42 416.911C292.42 416.981 292.54 416.981 292.55 416.911C292.922 414.698 294 412.665 295.622 411.115C297.244 409.566 299.323 408.582 301.55 408.311C301.572 408.316 301.594 408.313 301.613 408.301C301.632 408.29 301.645 408.272 301.65 408.251C301.656 408.229 301.652 408.207 301.641 408.188C301.63 408.17 301.612 408.156 301.59 408.151Z" fill="#263238"/>
<path d="M282 398.23C277.52 398.18 272.33 399.78 269.55 403.46C269.45 403.6 269.65 403.75 269.78 403.68C273.695 401.614 277.818 399.971 282.08 398.78C282.146 398.762 282.203 398.72 282.241 398.663C282.278 398.606 282.294 398.537 282.284 398.469C282.274 398.402 282.24 398.34 282.187 398.296C282.135 398.252 282.069 398.228 282 398.23Z" fill="#263238"/>
<path d="M285.48 399.561C280.99 399.561 275.8 401.121 273.03 404.791C272.92 404.941 273.12 405.091 273.26 405.021C277.169 402.947 281.289 401.301 285.55 400.111C285.615 400.093 285.672 400.052 285.709 399.996C285.747 399.94 285.763 399.872 285.754 399.805C285.745 399.738 285.713 399.677 285.663 399.632C285.613 399.587 285.548 399.562 285.48 399.561Z" fill="#263238"/>
<path d="M288.94 400.9C284.46 400.9 279.27 402.45 276.49 406.13C276.39 406.27 276.59 406.42 276.72 406.35C280.635 404.284 284.758 402.642 289.02 401.45C289.086 401.432 289.143 401.391 289.181 401.334C289.218 401.277 289.233 401.208 289.224 401.14C289.214 401.072 289.18 401.011 289.127 400.967C289.075 400.923 289.009 400.899 288.94 400.9Z" fill="#263238"/>
<path d="M292.41 402.241C287.92 402.191 282.73 403.791 279.96 407.471C279.85 407.611 280.06 407.761 280.19 407.691C284.103 405.624 288.227 403.981 292.49 402.791C292.556 402.773 292.613 402.732 292.65 402.675C292.688 402.617 292.703 402.549 292.693 402.481C292.683 402.413 292.649 402.352 292.597 402.308C292.545 402.263 292.478 402.24 292.41 402.241Z" fill="#263238"/>
<path d="M242.61 407.26C237.61 407.26 237.61 415.11 242.61 415.08C247.61 415.05 247.65 407.23 242.61 407.26Z" fill="#263238"/>
<path d="M286.81 386.25C284.54 384.37 281.68 386.25 280.29 388.18C277.976 391.591 276.597 395.55 276.29 399.66C276.29 399.75 276.36 399.79 276.43 399.79C276.448 399.875 276.486 399.954 276.54 400.021C276.595 400.088 276.665 400.141 276.744 400.175C276.824 400.209 276.91 400.224 276.996 400.218C277.083 400.212 277.166 400.185 277.24 400.14C280.42 397.93 284.1 395.95 286.51 392.82C287.88 391 289 388 286.81 386.25ZM281.35 395.79C279.81 396.92 278.22 397.97 276.72 399.16C277.52 396.92 278.21 394.66 279.23 392.5C279.701 391.464 280.243 390.462 280.85 389.5C281.85 388.01 286.21 384.25 286.67 389.12C286.93 391.79 283.18 394.45 281.35 395.79Z" fill="#263238"/>
<path d="M265.13 401.361C269.03 401.941 273.06 400.821 276.89 400.211C276.973 400.189 277.05 400.148 277.115 400.092C277.179 400.035 277.23 399.964 277.262 399.884C277.294 399.804 277.307 399.718 277.299 399.633C277.292 399.547 277.265 399.464 277.22 399.391C277.235 399.38 277.246 399.365 277.254 399.349C277.263 399.332 277.267 399.314 277.267 399.296C277.267 399.278 277.263 399.259 277.254 399.243C277.246 399.226 277.235 399.212 277.22 399.201C274.143 396.456 270.397 394.57 266.36 393.731C264 393.281 260.66 393.931 260.36 396.861C260 399.621 262.85 401.001 265.13 401.361ZM262.41 398.821C259.41 394.981 265.14 394.651 266.86 395.051C267.976 395.33 269.072 395.684 270.14 396.111C272.327 397.018 274.467 398.036 276.55 399.161C274.65 399.351 272.78 399.691 270.89 399.951C268.63 400.251 264.09 400.931 262.41 398.821Z" fill="#263238"/>
<path d="M163.32 189.201C163.32 189.201 215.19 277.441 216.58 283.641C218.71 293.161 230 387.171 230 387.171L284 386.171C284 386.171 274.7 303.281 265.89 275.971C259.55 256.301 213.77 191.061 213.77 191.061L163.32 189.201Z" fill="#37474F"/>
<path d="M279.09 377.931C271.34 377.871 243.87 377.561 233.55 378.521C233.47 378.521 233.48 378.661 233.55 378.671C237.1 379.181 271.33 378.391 279.08 378.141C279.097 378.147 279.114 378.149 279.131 378.147C279.148 378.145 279.165 378.139 279.179 378.129C279.193 378.12 279.205 378.107 279.214 378.092C279.222 378.077 279.227 378.06 279.228 378.043C279.229 378.026 279.225 378.009 279.218 377.993C279.211 377.977 279.201 377.963 279.187 377.953C279.174 377.942 279.158 377.934 279.141 377.93C279.125 377.927 279.107 377.927 279.09 377.931Z" fill="#263238"/>
<path d="M172.17 197.3C175.57 202.63 179.17 207.85 182.63 213.14C186.09 218.43 189.57 223.72 193 229C199.84 239.667 206.507 250.404 213 261.21C216.169 266.22 218.88 271.504 221.1 277C223.127 282.498 224.65 288.168 225.65 293.94C226.71 299.73 227.41 305.58 228.06 311.43C228.727 317.65 229.424 323.874 230.15 330.1C231.57 342.84 232.994 355.58 234.42 368.32C234.59 369.88 234.76 371.44 234.92 373.01C234.92 373.24 234.53 373.28 234.5 373.01C232.91 360.36 231.59 347.66 230.15 335.01C229.43 328.697 228.714 322.387 228 316.08C227.33 310.21 226.69 304.33 225.78 298.5C224.945 292.746 223.675 287.063 221.98 281.5C220.113 275.741 217.611 270.207 214.52 265C208.27 254.21 201.65 243.61 195.03 233C188.41 222.39 181.61 211.69 174.63 201.21C173.77 199.92 172.9 198.63 172 197.36C171.93 197.29 172.11 197.2 172.17 197.3Z" fill="#263238"/>
<path d="M180.32 425.29C177.86 425.14 114.32 399.4 112.56 396.96C112.482 396.817 112.447 396.653 112.46 396.49C112.46 394.3 116.87 386.66 120.55 376.62C120.78 375.98 122.42 373 124.69 368.99C131 358 142 339.07 142 339.07L183.53 355.57L163.65 385.32L160.56 392.52C160.56 392.52 180.05 412.67 181.69 415.52C183.33 418.37 182.77 425.43 180.32 425.29Z" fill="#EB9481"/>
<path d="M180.32 425.29C177.86 425.14 114.32 399.4 112.56 396.96C112.482 396.817 112.447 396.653 112.46 396.49C112.46 394.3 116.87 386.66 120.55 376.62C120.78 375.98 122.42 373 124.69 368.99L163.69 385.32L160.6 392.52C160.6 392.52 180.09 412.67 181.73 415.52C183.37 418.37 182.77 425.43 180.32 425.29Z" fill="white"/>
<path d="M180.32 425.291C177.86 425.141 114.32 399.401 112.56 396.961C111.88 396.031 114.72 387.361 120.56 376.621L160.56 392.531C160.56 392.531 180.05 412.661 181.7 415.531C183.35 418.401 182.77 425.431 180.32 425.291Z" fill="#A6A6A6"/>
<path d="M180.42 422.45C170.13 418.03 128.19 401.17 117.68 397.59C117.59 397.59 117.57 397.59 117.68 397.65C127.79 402.25 169.86 418.77 180.38 422.65C180.58 422.7 180.64 422.54 180.42 422.45Z" fill="#263238"/>
<path d="M178.62 411.721C177.479 411.22 176.247 410.961 175 410.961C173.754 410.961 172.521 411.22 171.38 411.721C169.329 412.619 167.703 414.274 166.84 416.341C166.84 416.401 166.93 416.451 166.96 416.391C168.139 414.474 169.908 412.99 172.001 412.163C174.094 411.335 176.399 411.208 178.57 411.801C178.587 411.796 178.602 411.786 178.611 411.771C178.62 411.756 178.623 411.738 178.62 411.721Z" fill="#263238"/>
<path d="M164.19 395.18C160.06 393.45 154.64 392.99 150.69 395.36C150.54 395.45 150.69 395.66 150.82 395.65C155.223 395.203 159.662 395.227 164.06 395.72C164.128 395.727 164.196 395.71 164.251 395.67C164.307 395.631 164.347 395.573 164.363 395.507C164.379 395.441 164.37 395.371 164.338 395.311C164.306 395.251 164.254 395.204 164.19 395.18Z" fill="#263238"/>
<path d="M166.9 397.721C162.77 395.991 157.35 395.531 153.4 397.901C153.25 397.991 153.4 398.201 153.53 398.191C157.933 397.739 162.372 397.763 166.77 398.261C166.838 398.268 166.906 398.251 166.961 398.211C167.017 398.172 167.057 398.114 167.073 398.048C167.088 397.982 167.08 397.912 167.048 397.852C167.016 397.792 166.964 397.745 166.9 397.721Z" fill="#263238"/>
<path d="M169.62 400.26C165.48 398.53 160.06 398.07 156.12 400.44C155.96 400.53 156.12 400.74 156.24 400.73C160.643 400.278 165.082 400.302 169.48 400.8C169.549 400.811 169.62 400.797 169.679 400.759C169.737 400.72 169.78 400.662 169.797 400.594C169.815 400.526 169.807 400.454 169.774 400.392C169.741 400.331 169.686 400.283 169.62 400.26Z" fill="#263238"/>
<path d="M172.33 402.8C168.19 401.07 162.78 400.61 158.83 402.97C158.67 403.07 158.83 403.28 158.95 403.27C163.353 402.819 167.792 402.842 172.19 403.34C172.259 403.352 172.33 403.337 172.389 403.299C172.447 403.261 172.49 403.202 172.507 403.134C172.525 403.067 172.516 402.995 172.484 402.933C172.451 402.871 172.396 402.824 172.33 402.8Z" fill="#263238"/>
<path d="M124.28 388.771C119.61 386.911 116.71 394.181 121.4 396.041C126.09 397.901 129 390.631 124.28 388.771Z" fill="#263238"/>
<path d="M173.14 385.881C171.73 383.291 168.4 383.931 166.37 385.221C162.951 387.512 160.192 390.66 158.37 394.351C158.362 394.367 158.358 394.385 158.358 394.403C158.358 394.421 158.362 394.439 158.369 394.455C158.377 394.471 158.388 394.486 158.402 394.497C158.416 394.509 158.433 394.517 158.45 394.521C158.45 394.851 158.67 395.241 159.06 395.161C162.85 394.291 167 393.841 170.4 391.841C172.35 390.681 174.47 388.331 173.14 385.881ZM164.49 392.671C162.64 393.141 160.78 393.521 158.95 394.061C160.464 392.237 162.069 390.491 163.76 388.831C164.593 388.038 165.478 387.303 166.41 386.631C167.86 385.631 173.34 383.781 171.94 388.471C171.17 391.061 166.7 392.111 164.49 392.671Z" fill="#263238"/>
<path d="M147.37 391.75C150.77 393.75 154.92 394.22 158.7 395.1C159.09 395.19 159.35 394.8 159.32 394.46C159.339 394.458 159.357 394.451 159.372 394.44C159.387 394.429 159.4 394.415 159.408 394.397C159.416 394.38 159.419 394.362 159.418 394.343C159.417 394.324 159.41 394.306 159.4 394.29C157.581 390.592 154.822 387.436 151.4 385.14C149.4 383.84 146.05 383.19 144.63 385.77C143.21 388.35 145.38 390.58 147.37 391.75ZM145.81 388.37C144.42 383.68 149.89 385.54 151.34 386.55C152.271 387.223 153.153 387.962 153.98 388.76C155.668 390.424 157.27 392.173 158.78 394C156.95 393.46 155.09 393.07 153.24 392.6C151 392 146.57 391 145.81 388.37Z" fill="#263238"/>
<path d="M166.88 383.66L120.39 364.89C120.39 364.89 178.03 280.14 178.45 273.83C178.83 268.25 153.51 219.63 152.52 205.46C151.44 190.16 158.8 178.33 166.9 170.98L214.85 191.37C214.85 191.37 209.79 199.46 201.85 203.97C201.85 203.97 226.44 260.17 225.04 277.45C223.64 294.73 166.88 383.66 166.88 383.66Z" fill="#37474F"/>
<path d="M168.94 374.82C162.22 371.93 164.19 372.66 157.43 369.82C154.13 368.44 132.43 359.41 129.09 358.66C129.02 358.66 128.97 358.76 129.04 358.8C131.93 360.57 153.81 369.22 157.14 370.54C163.95 373.22 162.02 372.38 168.86 374.98C168.87 374.994 168.884 375.005 168.899 375.012C168.915 375.018 168.932 375.021 168.949 375.02C168.966 375.018 168.982 375.012 168.996 375.003C169.01 374.993 169.022 374.98 169.03 374.965C169.037 374.95 169.041 374.933 169.04 374.916C169.039 374.899 169.034 374.882 169.025 374.868C169.016 374.853 169.004 374.841 168.989 374.833C168.974 374.825 168.957 374.82 168.94 374.82Z" fill="#263238"/>
<path d="M209.71 202.94C204.718 204.104 199.834 205.689 195.11 207.68C195.091 207.687 195.074 207.697 195.059 207.71C195.043 207.723 195.031 207.74 195.022 207.758C195.014 207.776 195.008 207.796 195.007 207.816C195.006 207.836 195.009 207.856 195.015 207.875C195.022 207.894 195.032 207.912 195.045 207.927C195.059 207.942 195.075 207.954 195.093 207.963C195.111 207.972 195.131 207.977 195.151 207.978C195.171 207.979 195.191 207.977 195.21 207.97C200.11 206.54 205.09 205.2 209.91 203.51C210.28 203.38 210.09 202.86 209.71 202.94Z" fill="#263238"/>
<path d="M204 201C203.534 201.829 203.123 202.687 202.77 203.57C202.425 204.24 202.211 204.97 202.14 205.72C202.14 205.87 202.34 205.9 202.43 205.81C202.932 205.21 203.337 204.535 203.63 203.81C204.04 203.02 204.46 202.24 204.85 201.43C205.12 200.84 204.31 200.46 204 201Z" fill="#263238"/>
<path d="M204.6 196.46C204.9 195.72 205.19 194.99 205.5 194.25C205.81 193.51 206.2 192.75 206.5 191.97C206.5 191.85 206.74 191.97 206.69 192.06C206.39 192.8 206.2 193.58 205.97 194.34C205.74 195.1 205.48 195.86 205.23 196.62C204.76 198.03 204.23 199.43 203.58 200.8C204.367 200.84 205.153 200.703 205.88 200.4C206.623 199.925 207.194 199.224 207.51 198.4C207.93 197.58 208.32 196.74 208.75 195.92C209.279 195.034 209.725 194.1 210.08 193.13C210.08 193.01 210.32 193.13 210.27 193.22C209.618 195.27 208.764 197.25 207.72 199.13C207.27 199.86 206.92 200.63 206.1 200.91C205.212 201.159 204.283 201.223 203.37 201.1C203.25 201.1 203.11 201.1 203.15 200.92C203.559 199.411 204.043 197.922 204.6 196.46Z" fill="#263238"/>
<path d="M202.56 205.801C204.27 209.411 205.77 213.011 207.36 216.611C208.95 220.211 210.36 223.691 211.79 227.271C214.65 234.491 217.21 241.851 219.46 249.271C220.57 252.951 221.6 256.661 222.52 260.401C223.534 264.129 224.276 267.925 224.74 271.761C225.142 275.59 224.802 279.46 223.74 283.161C222.638 286.819 221.222 290.375 219.51 293.791C218.46 295.951 218.11 295.661 218.61 294.571C220.04 291.471 223.79 282.081 223.52 274.191C223.302 270.413 222.719 266.666 221.78 263.001C220.907 259.221 219.924 255.471 218.83 251.751C216.7 244.411 214.17 237.221 211.57 230.041C210.11 226.041 208.57 222.041 207.07 218.041C205.57 214.041 204.07 210.361 202.39 205.941C202.34 205.761 202.51 205.691 202.56 205.801Z" fill="#263238"/>
<path d="M167.27 193.87C168.1 193.56 169.27 194.07 170.11 194.21C171.198 194.395 172.297 194.505 173.4 194.54C174.492 194.579 175.584 194.542 176.67 194.43C177.764 194.402 178.836 194.118 179.8 193.6C181.382 192.448 182.738 191.014 183.8 189.37C185.066 187.69 186.111 185.856 186.91 183.91C186.91 183.79 187.12 183.91 187.08 183.99C186.73 185.1 186.47 186.22 186.08 187.31C185.649 188.334 185.134 189.321 184.54 190.26C183.578 192.15 182.154 193.767 180.4 194.96C178.47 196.06 175.99 195.96 173.84 195.87C172.593 195.797 171.353 195.634 170.13 195.38C169.25 195.19 167.77 195.05 167.21 194.28C167.184 194.251 167.164 194.216 167.153 194.178C167.142 194.14 167.139 194.1 167.144 194.061C167.15 194.022 167.164 193.985 167.186 193.952C167.208 193.919 167.237 193.891 167.27 193.87Z" fill="#263238"/>
<path d="M133.66 356C141.3 344.427 148.8 332.76 156.16 321C163.52 309.24 170.78 297.39 177.94 285.45C179.65 282.6 181.62 279.76 182.72 276.6C183.92 273.17 183.24 269.84 182.16 266.48C180.121 260.351 177.737 254.341 175.02 248.48C172.34 242.57 169.45 236.76 166.61 230.93C163.77 225.1 160.8 219.34 158.61 213.26C156.61 207.45 155.8 201.43 157.36 195.41C158.92 189.39 162.28 184.07 165.79 179.06C166.71 177.74 167.66 176.43 168.59 175.06C168.66 174.96 168.81 175.06 168.74 175.18C164.87 180.4 161.1 185.93 158.83 192.06C157.67 195.082 157.021 198.276 156.91 201.51C156.891 204.794 157.401 208.059 158.42 211.18C160.3 217.26 163.27 223.01 166.04 228.73C168.81 234.45 171.77 240.37 174.5 246.26C177.317 252.188 179.82 258.26 182 264.45C182.93 267.2 184 270.08 183.92 273.03C183.85 276.26 182.31 279.17 180.71 281.89C173.71 293.74 166.54 305.45 159.24 317.09C151.94 328.73 144.43 340.37 136.83 351.89L133.95 356.24C133.8 356.42 133.54 356.21 133.66 356Z" fill="#263238"/>
<path d="M217.51 137.471C221.84 146.971 243.71 160.061 253.95 161.471C261.31 162.471 283.69 162.831 291.36 161.661C300.36 160.281 293.48 136.031 288.17 136.661C273.57 138.361 261.17 140.261 257.27 140.261C252.51 140.261 226.76 132.001 223.66 130.831C216.06 128.001 215.06 132.081 217.51 137.471Z" fill="#EB9481"/>
<path d="M217.65 140.001C223.13 148.111 241.34 161.371 241.34 161.371L243.87 155.771L252.24 137.251C252.24 137.251 235.51 132.001 224.5 129.601C223.205 129.306 221.887 129.118 220.56 129.041C213.53 128.661 212.92 133.001 217.65 140.001Z" fill="#D23D3D"/>
<path d="M217.65 140.001C223.13 148.111 241.34 161.371 241.34 161.371L243.87 155.771C237.08 147.881 226.59 135.931 220.56 129.061C213.53 128.661 212.92 133.001 217.65 140.001Z" fill="#263238"/>
<path d="M238.06 157.611C239.45 154.201 245.63 140.471 247.17 137.611C247.27 137.411 247.43 137.431 247.34 137.611C244.659 144.439 241.608 151.116 238.2 157.611C238.16 157.731 238 157.691 238.06 157.611Z" fill="#263238"/>
<path d="M285.49 136.91C294.37 135.75 305.36 133.76 314.67 137.71C315.716 138.12 316.593 138.871 317.16 139.84C321.36 141.54 321.82 144.03 321.82 144.03C325.25 146.81 325.37 149.43 325.37 149.43C325.37 149.43 330.29 151.43 329.54 154.65C328.72 158.21 321.98 154.65 317.08 154.94C305.83 155.64 290.08 159.77 286.83 160.29L285.49 136.91Z" fill="#EB9481"/>
<path d="M304.78 147.39C308.07 147.165 311.371 147.165 314.66 147.39C318.242 147.839 321.786 148.558 325.26 149.54C325.283 149.548 325.307 149.547 325.329 149.536C325.351 149.526 325.367 149.507 325.375 149.485C325.383 149.462 325.382 149.438 325.371 149.416C325.361 149.394 325.343 149.378 325.32 149.37C318.793 146.809 311.688 146.09 304.78 147.29C304.62 147.27 304.62 147.4 304.78 147.39Z" fill="#263238"/>
<path d="M302.69 137C308.18 137.28 311.61 138.16 317.13 139.82V139.76C311.05 137.22 308.56 136.98 302.66 136.76C302.47 136.84 302.48 137 302.69 137Z" fill="#263238"/>
<path d="M303.58 156.641C302.15 157.311 302.5 158.061 305.23 158.691C307.96 159.321 319.31 159.511 318.91 163.471C318.51 167.431 302.5 166.931 298.03 165.531C293.56 164.131 286.83 160.291 286.83 160.291C290 159.761 297.44 157.751 303.58 156.641Z" fill="#EB9481"/>
<path d="M229.4 152.61C229.33 154.32 229.17 156.06 228.93 157.79C228.93 157.72 228.93 157.66 229 157.6C229.33 156.7 229.66 155.78 230.06 154.91C230.06 154.91 230.16 154.91 230.15 154.91C229.958 155.863 229.67 156.795 229.29 157.69C229.11 158.12 228.94 158.54 228.75 158.96C228.63 159.73 228.49 160.49 228.34 161.25C228.04 162.68 226.69 168.76 226.34 169.79C226.28 170 226.02 169.95 226.04 169.71C226.11 168.59 227.24 162.26 227.47 160.82C227.917 158.039 228.514 155.285 229.26 152.57C229.31 152.52 229.41 152.56 229.4 152.61Z" fill="#263238"/>
<path d="M219 198.08C216.33 199.45 212.89 201.58 197.39 198.53C196.39 198.33 195.45 198.09 194.47 197.8C179.94 193.44 162.47 176.35 161.52 175.14C161.52 175.14 184.61 137.71 214.14 125.94C217.79 124.49 223.83 127.29 227.14 130.78C228.33 132.03 230.92 141.22 229.93 148.66C228.94 156.1 221.66 196.71 219 198.08Z" fill="#D23D3D"/>
<path d="M216.92 148.32C217.032 149.902 216.81 151.489 216.27 152.98C216.143 151.398 216.365 149.807 216.92 148.32Z" fill="white"/>
<path d="M206.85 173.811C206.914 174.598 206.887 175.39 206.77 176.171C206.674 176.957 206.483 177.73 206.2 178.471C206.131 177.68 206.158 176.884 206.28 176.101C206.383 175.318 206.574 174.55 206.85 173.811Z" fill="white"/>
<path d="M189.74 154.541C189.853 156.126 189.632 157.717 189.09 159.211C188.965 157.626 189.186 156.032 189.74 154.541Z" fill="white"/>
<path d="M223.51 172.51C223.574 173.3 223.547 174.095 223.43 174.88C223.334 175.667 223.143 176.439 222.86 177.18C222.792 176.389 222.818 175.594 222.94 174.81C223.041 174.024 223.233 173.252 223.51 172.51Z" fill="white"/>
<path d="M201.54 151.24C202.327 151.173 203.119 151.197 203.9 151.31C204.687 151.41 205.46 151.605 206.2 151.89C204.618 152.004 203.03 151.782 201.54 151.24Z" fill="white"/>
<path d="M182.12 169.651C183.702 169.54 185.289 169.761 186.78 170.301C185.198 170.428 183.607 170.206 182.12 169.651Z" fill="white"/>
<path d="M205 189.58C206.582 189.466 208.17 189.688 209.66 190.23C208.078 190.355 206.488 190.133 205 189.58Z" fill="white"/>
<path d="M176.13 182.341C177.712 182.229 179.3 182.451 180.79 182.991C179.208 183.115 177.618 182.894 176.13 182.341Z" fill="white"/>
<path d="M216.77 130.401C218.352 130.29 219.939 130.511 221.43 131.051C219.848 131.163 218.261 130.941 216.77 130.401Z" fill="white"/>
<path d="M211.12 136.781C210.615 137.389 210.037 137.933 209.4 138.401C208.781 138.88 208.11 139.29 207.4 139.621C207.903 139.017 208.473 138.474 209.1 138.001C209.726 137.52 210.404 137.111 211.12 136.781Z" fill="white"/>
<path d="M180.33 154.91C179.818 155.513 179.238 156.053 178.6 156.52C177.987 157.008 177.315 157.418 176.6 157.74C177.115 157.14 177.695 156.6 178.33 156.13C178.945 155.644 179.616 155.234 180.33 154.91Z" fill="white"/>
<path d="M218.78 163.09C218.269 163.695 217.688 164.239 217.05 164.71C216.435 165.196 215.764 165.606 215.05 165.93C215.562 165.324 216.142 164.781 216.78 164.31C217.398 163.829 218.069 163.419 218.78 163.09Z" fill="white"/>
<path d="M193.88 178.77C193.369 179.375 192.788 179.919 192.15 180.39C191.535 180.874 190.863 181.284 190.15 181.61C190.662 181.004 191.243 180.46 191.88 179.99C192.499 179.508 193.17 179.099 193.88 178.77Z" fill="white"/>
<path d="M228.32 141.67C227.809 142.276 227.228 142.819 226.59 143.29C225.971 143.769 225.3 144.178 224.59 144.51C225.102 143.904 225.683 143.361 226.32 142.89C226.936 142.405 227.608 141.996 228.32 141.67Z" fill="white"/>
<path d="M227.8 159.841C227.195 159.33 226.651 158.749 226.18 158.111C225.694 157.497 225.284 156.825 224.96 156.111C225.568 156.617 226.112 157.194 226.58 157.831C227.058 158.456 227.467 159.129 227.8 159.841Z" fill="white"/>
<path d="M172.3 172.361C171.695 171.849 171.151 171.269 170.68 170.631C170.199 170.013 169.79 169.342 169.46 168.631C170.066 169.142 170.61 169.723 171.08 170.361C171.565 170.977 171.975 171.648 172.3 172.361Z" fill="white"/>
<path d="M221.05 187.251C220.443 186.746 219.899 186.168 219.43 185.531C218.951 184.912 218.542 184.241 218.21 183.531C218.816 184.043 219.36 184.623 219.83 185.261C220.313 185.875 220.722 186.543 221.05 187.251Z" fill="white"/>
<path d="M196.62 144.8C196.015 144.292 195.471 143.715 195 143.08C194.523 142.459 194.114 141.789 193.78 141.08C194.388 141.586 194.932 142.163 195.4 142.8C195.877 143.421 196.286 144.092 196.62 144.8Z" fill="white"/>
<path d="M197.05 195.73C196.445 195.218 195.901 194.638 195.43 194C194.951 193.381 194.542 192.71 194.21 192C194.818 192.506 195.362 193.083 195.83 193.72C196.312 194.342 196.721 195.016 197.05 195.73Z" fill="white"/>
<path d="M201.2 165.691C200.6 165.177 200.06 164.596 199.59 163.961C199.102 163.348 198.692 162.676 198.37 161.961C198.973 162.473 199.513 163.053 199.98 163.691C200.466 164.306 200.876 164.977 201.2 165.691Z" fill="white"/>
<path d="M221.73 140.75C217.96 140.05 214.42 132.26 213.97 127.02C213.97 126.66 215.73 123.81 217.74 120.24C218.96 118.07 220.25 115.62 221.28 113.3C221.49 112.83 222.72 114.42 222.72 114.42L225.4 116.42L234.25 123.21C232.143 125.739 230.353 128.516 228.92 131.48C228.779 131.801 228.671 132.136 228.6 132.48C228.596 132.536 228.596 132.593 228.6 132.65C228.05 134.63 225.36 141.42 221.73 140.75Z" fill="#EB9481"/>
<path d="M228.6 132.53C228.596 132.586 228.596 132.643 228.6 132.7C228.075 132.546 227.563 132.348 227.07 132.11C217.38 127.57 221.65 114.59 221.65 114.59L225.45 116.47L234.3 123.26C232.193 125.789 230.403 128.566 228.97 131.53C228.812 131.849 228.688 132.184 228.6 132.53Z" fill="#263238"/>
<path d="M244.42 95.5801C244.42 95.5801 248.85 98.3901 248.87 103.39C248.89 108.39 246.87 113.28 246.45 113.46C246.03 113.64 244.42 95.5801 244.42 95.5801Z" fill="#263238"/>
<path d="M222.44 98.18C219.78 103.43 219.92 119.98 223.24 124.24C228.06 130.42 237.34 132.55 242.95 126.44C248.38 120.52 247.82 98.96 243.95 94.94C238.32 89 226.38 90.41 222.44 98.18Z" fill="#EB9481"/>
<path d="M236.56 111.43C236.56 111.43 236.47 111.49 236.48 111.53C236.54 112.66 236.42 113.96 235.41 114.36C235.41 114.36 235.41 114.43 235.41 114.42C236.66 114.22 236.8 112.49 236.56 111.43Z" fill="#263238"/>
<path d="M235.53 110.281C233.71 110.181 233.65 113.821 235.34 113.911C237.03 114.001 237.05 110.361 235.53 110.281Z" fill="#263238"/>
<path d="M242.73 111.391C242.73 111.391 242.82 111.391 242.82 111.491C242.76 112.621 242.89 113.921 243.91 114.311C243.91 114.311 243.91 114.381 243.91 114.371C242.65 114.181 242.5 112.451 242.73 111.391Z" fill="#263238"/>
<path d="M243.76 110.231C245.57 110.121 245.66 113.761 243.98 113.861C242.3 113.961 242.24 110.321 243.76 110.231Z" fill="#263238"/>
<path d="M234.39 107.511C234.868 107.375 235.339 107.214 235.8 107.031C236.326 106.936 236.804 106.668 237.16 106.271C237.247 106.125 237.283 105.955 237.263 105.787C237.243 105.619 237.168 105.462 237.05 105.341C236.78 105.135 236.459 105.005 236.122 104.965C235.784 104.924 235.442 104.975 235.13 105.111C234.455 105.291 233.871 105.715 233.49 106.301C233.414 106.44 233.38 106.598 233.391 106.756C233.402 106.915 233.458 107.067 233.553 107.194C233.647 107.321 233.777 107.419 233.925 107.475C234.074 107.531 234.235 107.543 234.39 107.511Z" fill="#263238"/>
<path d="M245 109.12C244.514 109.011 244.033 108.878 243.56 108.72C243.033 108.65 242.544 108.408 242.17 108.03C242.074 107.891 242.027 107.723 242.038 107.554C242.049 107.386 242.117 107.225 242.23 107.1C242.488 106.879 242.801 106.732 243.135 106.674C243.469 106.616 243.813 106.649 244.13 106.77C244.814 106.912 245.421 107.304 245.83 107.87C245.916 108.004 245.961 108.16 245.959 108.319C245.958 108.478 245.91 108.633 245.823 108.765C245.735 108.898 245.61 109.002 245.464 109.065C245.318 109.128 245.157 109.147 245 109.12Z" fill="#263238"/>
<path d="M234 122.12C234.27 122.39 234.53 122.75 234.94 122.79C235.361 122.79 235.776 122.701 236.16 122.53C236.16 122.53 236.23 122.53 236.16 122.59C235.997 122.81 235.776 122.981 235.522 123.085C235.269 123.189 234.991 123.222 234.72 123.18C234.492 123.118 234.287 122.99 234.13 122.812C233.974 122.634 233.873 122.414 233.84 122.18C233.832 122.159 233.833 122.135 233.843 122.115C233.852 122.094 233.869 122.078 233.89 122.07C233.912 122.062 233.935 122.063 233.956 122.072C233.976 122.081 233.992 122.099 234 122.12Z" fill="#263238"/>
<path d="M240.54 117.3C240.54 117.3 240.59 118.98 240.54 119.77C239.004 119.607 237.452 119.661 235.93 119.93C235.57 120.01 235.61 119.72 236.02 119.53C237.246 118.97 238.611 118.789 239.94 119.01C240.02 118.8 239.81 116.41 239.94 116.42C240.545 116.539 241.131 116.741 241.68 117.02C241.68 113.5 241.12 110.02 241.17 106.5C241.17 106.38 241.36 106.36 241.38 106.5C242.091 110.224 242.426 114.009 242.38 117.8C242.39 118.23 240.84 117.46 240.54 117.3Z" fill="#263238"/>
<path d="M238.29 119.171C237.891 120.22 237.152 121.104 236.19 121.681C234.68 122.291 234.19 120.921 235.71 119.681C236.507 119.278 237.4 119.102 238.29 119.171Z" fill="#263238"/>
<path d="M236.72 121.37C236.561 121.5 236.382 121.604 236.19 121.68C234.8 122.24 234.25 121.13 235.37 120.01C236.13 120.07 237 120.35 236.72 121.37Z" fill="#FF99BA"/>
<path d="M221.68 112.331C223.51 112.891 225.61 107.391 226.21 105.331C226.73 103.471 227.33 97.5605 227.42 97.1505C227.51 96.7405 235.42 102.381 240 101.041C244.58 99.7005 247.69 95.5505 247.76 93.6205C247.83 91.6905 242.1 86.7905 237.15 86.5405C232.2 86.2905 225.49 92.5405 225.49 92.5405C226.301 91.6207 227.036 90.6376 227.69 89.6005C227.61 89.3805 224.41 90.6605 223.82 92.9405C223.82 92.9405 224.46 90.0705 224.22 90.0205C223.98 89.9705 221.49 92.4205 222.05 94.2805C222.05 94.2805 219.17 96.7705 218.91 99.5005C218.65 102.231 219.53 111.671 221.68 112.331Z" fill="#263238"/>
<path d="M243.28 100C241.918 100.739 240.451 101.265 238.93 101.56C237.223 101.712 235.505 101.437 233.93 100.76C232.344 100.147 230.871 99.2754 229.57 98.18C228.42 97.24 227.39 96.09 226.16 95.25C225.85 95.03 225.5 95.48 225.69 95.76C227.742 98.6586 230.674 100.819 234.05 101.92C235.618 102.431 237.292 102.527 238.908 102.197C240.524 101.868 242.027 101.124 243.27 100.04C243.27 100.04 243.3 100 243.28 100Z" fill="#263238"/>
<path d="M223.59 111.84C223.59 111.84 220.75 106.08 218.19 107.01C215.63 107.94 217.19 115.91 219.82 117.37C220.142 117.578 220.503 117.719 220.881 117.785C221.259 117.851 221.647 117.839 222.02 117.751C222.394 117.664 222.746 117.501 223.055 117.274C223.364 117.047 223.624 116.76 223.82 116.43L223.59 111.84Z" fill="#EB9481"/>
<path d="M218.7 109.281C218.7 109.281 218.64 109.281 218.7 109.361C220.52 110.441 221.26 112.361 221.7 114.361C221.617 114.15 221.489 113.958 221.325 113.801C221.161 113.643 220.965 113.523 220.75 113.449C220.535 113.375 220.307 113.348 220.081 113.371C219.854 113.394 219.636 113.466 219.44 113.581C219.38 113.581 219.44 113.691 219.44 113.691C219.798 113.636 220.164 113.692 220.488 113.853C220.812 114.015 221.078 114.272 221.25 114.591C221.536 115.125 221.764 115.688 221.93 116.271C221.99 116.461 222.32 116.411 222.29 116.201C222.72 113.711 221.32 109.941 218.7 109.281Z" fill="#263238"/>
<path d="M204.84 137.56C202.84 148.89 215.12 187.06 222.99 194.19C234.7 204.79 256.35 211.76 264.2 214.03C267.62 215.03 277.08 190.96 273.62 189.37C266.21 186 243.19 178.8 241 177C238.81 175.2 225.61 156.13 219.73 145.15C211.86 130.37 205.83 131.83 204.84 137.56Z" fill="#EB9481"/>
<path d="M267.79 187.25C267.79 187.25 278.01 189.86 284.6 191.87C288.28 193 294.42 195.49 296.75 197.55C300.23 200.64 312.81 215.76 309.21 218.89C305.95 221.73 296.79 207.36 296.79 207.36C296.79 207.36 307.31 221.04 302.79 223.73C298.27 226.42 290 208.81 290 208.81C290 208.81 300.49 223.11 295.36 225.14C291.48 226.67 283.16 211.14 283.16 211.14C283.16 211.14 292.1 223.49 288.16 225.24C283.82 227.18 275.25 213.32 275.25 213.32C264.53 216.09 258.25 213.02 254.12 210.32C253.15 209.66 267.79 187.25 267.79 187.25Z" fill="#EB9481"/>
<path d="M293.45 202.39C294.75 203.95 296.07 205.53 297.22 207.2C298.37 208.87 299.46 210.59 300.45 212.36C301.791 214.649 302.865 217.085 303.65 219.62C301.93 215.22 297.9 209.17 296.75 207.5C295.6 205.83 294.53 204.1 293.39 202.43C293.36 202.39 293.42 202.35 293.45 202.39Z" fill="#263238"/>
<path d="M287.34 206.44C289.56 208.2 294.21 214.74 296 219.13C296.08 219.31 296 219.3 295.87 219.13C294.47 216.96 288.791 208.56 287.291 206.47C287.261 206.44 287.31 206.41 287.34 206.44Z" fill="#263238"/>
<path d="M281.47 209C284.228 211.893 286.408 215.288 287.89 219C287.96 219.18 287.82 219.15 287.71 219C285.64 215.63 284.04 213 281.36 209.09C281.32 209 281.41 208.91 281.47 209Z" fill="#263238"/>
<path d="M216 138.39C206.87 125.48 201.41 130.26 203.24 144.28C204.96 157.39 209.55 173.01 209.55 173.01L232.55 161.85C232.55 161.85 221.81 146.66 216 138.39Z" fill="#D23D3D"/>
<path d="M221.55 143.471C221.853 144.2 222.071 144.962 222.2 145.741C222.341 146.522 222.391 147.318 222.35 148.111C222.05 147.378 221.836 146.613 221.71 145.831C221.561 145.053 221.508 144.261 221.55 143.471Z" fill="white"/>
<path d="M207.92 151.32C209.388 150.723 210.967 150.451 212.55 150.52C211.821 150.82 211.059 151.035 210.28 151.16C209.503 151.309 208.711 151.363 207.92 151.32Z" fill="white"/>
<path d="M208.51 131.24C207.891 132.702 206.967 134.014 205.8 135.09C206.42 133.629 207.343 132.316 208.51 131.24Z" fill="white"/>
<path d="M228 157.35C227.696 158.081 227.311 158.775 226.85 159.42C226.402 160.072 225.878 160.669 225.29 161.2C225.909 159.738 226.833 158.426 228 157.35Z" fill="white"/>
<path d="M212 165.181C211.267 164.881 210.572 164.495 209.93 164.031C209.278 163.583 208.68 163.059 208.15 162.471C209.612 163.09 210.924 164.014 212 165.181Z" fill="white"/>
<path d="M219 142.281C220.23 143.971 221.5 145.621 222.76 147.281C222.44 146.441 222.16 145.591 221.92 144.731H221.98C222.23 145.391 222.52 146.041 222.76 146.731L223.12 147.731C223.151 147.8 223.178 147.87 223.2 147.941C224.2 149.231 225.2 150.521 226.12 151.841C227.25 153.421 228.34 155.021 229.44 156.621C230.54 158.221 231.65 160.211 232.84 161.821C232.95 161.961 230.84 162.821 230.61 162.931C230.38 163.041 230.26 162.851 230.48 162.781C230.7 162.711 232.38 161.681 232.4 161.661C231.3 160.041 230.03 158.551 228.88 156.981C227.73 155.411 226.59 153.841 225.48 152.251C223.23 149.011 221.17 145.651 218.93 142.401L219 142.281Z" fill="#263238"/>
<path d="M203.78 153.56C204.13 154.24 204.51 154.91 204.78 155.61L205.16 156.48C204.63 153.99 204.16 151.48 203.61 148.99C204.67 152.99 205.74 157.08 206.72 161.14C207.65 165.02 208.78 168.94 209.32 172.9C210.018 172.594 210.74 172.35 211.48 172.17C210.738 172.651 209.938 173.037 209.1 173.32C207.895 169.293 206.894 165.208 206.1 161.08C205.85 159.96 205.62 158.84 205.38 157.72C205.12 157.04 204.81 156.39 204.5 155.72C204.19 155.05 203.91 154.3 203.63 153.59C203.69 153.55 203.76 153.51 203.78 153.56Z" fill="#263238"/>
<path d="M209.89 169.151C213.09 167.351 226.46 160.431 229.45 159.151C229.66 159.061 229.77 159.151 229.56 159.291C223.214 162.979 216.671 166.317 209.96 169.291C209.88 169.311 209.8 169.201 209.89 169.151Z" fill="#263238"/>
<path d="M576.32 432.051H271.64L315.69 182.201H620.37L576.32 432.051Z" fill="#D23D3D"/>
<path d="M419.97 156.32H320.26L315.69 182.2H422.4L419.97 156.32Z" fill="#D23D3D"/>
<g opacity="0.1">
<path d="M576.32 432.051H271.64L315.69 182.201H620.37L576.32 432.051Z" fill="black"/>
<path d="M419.97 156.32H320.26L315.69 182.2H422.4L419.97 156.32Z" fill="black"/>
</g>
<path d="M309.5 166.88C308.833 164.018 308.833 161.041 309.5 158.18C310.167 161.041 310.167 164.018 309.5 166.88Z" fill="#263238"/>
<path d="M300.64 169.44C299.622 168.384 298.745 167.201 298.03 165.92C297.281 164.666 296.693 163.322 296.28 161.92C297.301 162.97 298.179 164.15 298.89 165.43C299.638 166.689 300.226 168.036 300.64 169.44Z" fill="#263238"/>
<path d="M294.24 176.09C291.43 175.236 288.854 173.748 286.71 171.74C288.112 172.148 289.456 172.732 290.71 173.48C291.991 174.199 293.177 175.076 294.24 176.09Z" fill="#263238"/>
<path d="M292 185.051C289.139 185.718 286.162 185.718 283.3 185.051C286.162 184.384 289.139 184.384 292 185.051Z" fill="#263238"/>
<path d="M294.6 193.91C293.54 194.923 292.357 195.8 291.08 196.52C289.826 197.268 288.482 197.853 287.08 198.26C288.136 197.242 289.319 196.365 290.6 195.65C291.852 194.899 293.197 194.314 294.6 193.91Z" fill="#263238"/>
<path d="M301.24 200.301C300.389 203.115 298.9 205.695 296.89 207.841C297.297 206.437 297.886 205.092 298.64 203.841C299.353 202.555 300.227 201.366 301.24 200.301Z" fill="#263238"/>
<path d="M310.2 202.51C310.549 203.933 310.717 205.395 310.7 206.86C310.722 208.325 310.553 209.787 310.2 211.21C309.842 209.788 309.673 208.326 309.7 206.86C309.683 205.395 309.851 203.933 310.2 202.51Z" fill="#263238"/>
<path d="M319.06 200C320.078 201.056 320.956 202.239 321.67 203.52C322.421 204.773 323.006 206.117 323.41 207.52C321.4 205.375 319.911 202.795 319.06 199.98V200Z" fill="#263238"/>
<path d="M325.45 193.301C326.853 193.704 328.198 194.289 329.45 195.041C330.731 195.755 331.914 196.633 332.97 197.651C331.567 197.247 330.222 196.662 328.97 195.911C327.689 195.196 326.506 194.319 325.45 193.301Z" fill="#263238"/>
<path d="M327.66 184.34C330.525 183.673 333.505 183.673 336.37 184.34C333.505 185.006 330.525 185.006 327.66 184.34Z" fill="#263238"/>
<path d="M325.1 175.481C326.159 174.469 327.341 173.595 328.62 172.881C329.87 172.122 331.215 171.534 332.62 171.131C330.474 173.141 327.894 174.63 325.08 175.481H325.1Z" fill="#263238"/>
<path d="M318.45 169.09C318.862 167.69 319.446 166.346 320.19 165.09C320.905 163.809 321.782 162.626 322.8 161.57C322.396 162.974 321.812 164.318 321.06 165.57C320.346 166.851 319.468 168.034 318.45 169.09Z" fill="#263238"/>
<path d="M575.87 432.05H270.54L227.18 191.27H532.52L575.87 432.05Z" fill="#D23D3D"/>
<path d="M332.99 338.46C339.999 338.46 345.68 332.779 345.68 325.77C345.68 318.762 339.999 313.08 332.99 313.08C325.982 313.08 320.3 318.762 320.3 325.77C320.3 332.779 325.982 338.46 332.99 338.46Z" fill="#263238"/>
<path d="M433.31 338.46C440.319 338.46 446 332.779 446 325.77C446 318.762 440.319 313.08 433.31 313.08C426.302 313.08 420.62 318.762 420.62 325.77C420.62 332.779 426.302 338.46 433.31 338.46Z" fill="#263238"/>
<path d="M401.38 340.49L400.68 339.16C400.62 339.04 394.06 326.92 380.87 326.92C368.87 326.92 365.87 338.33 365.79 338.82L365.43 340.27L362.52 339.57L362.87 338.11C362.87 337.97 366.45 323.92 380.87 323.92C395.87 323.92 403.04 337.2 403.34 337.77L404.04 339.09L401.38 340.49Z" fill="#263238"/>
<path d="M555.71 324.8L555.5 323.8C556.15 323.66 556.79 323.51 557.43 323.34L557.68 324.34C557 324.51 556.37 324.66 555.71 324.8Z" fill="#D23D3D"/>
<path d="M561.55 323.19L561.23 322.25C562.48 321.82 563.73 321.35 564.94 320.84L565.33 321.76C564.1 322.28 562.83 322.76 561.55 323.19ZM569 320L568.55 319.12C569.72 318.51 570.89 317.85 572 317.12L572.52 317.97C571.38 318.76 570.19 319.43 569 320ZM575.88 315.77L575.29 314.96C576.37 314.17 577.41 313.34 578.39 312.49L579.05 313.24C578 314.15 577 315 575.87 315.81L575.88 315.77ZM581.98 310.45L581.25 309.76C582.17 308.76 583.04 307.76 583.84 306.76L584.63 307.37C583.8 308.47 582.91 309.5 582 310.49L581.98 310.45ZM586.93 304.05L586.08 303.52C586.771 302.403 587.386 301.24 587.92 300.04L588.84 300.45C588.274 301.701 587.633 302.917 586.92 304.09L586.93 304.05ZM590.24 296.63L589.24 296.35C589.605 295.095 589.876 293.815 590.05 292.52L591.05 292.65C590.884 294.01 590.61 295.354 590.23 296.67L590.24 296.63ZM591.35 288.63H590.35V288.34C590.35 287.13 590.28 285.9 590.16 284.69L591.16 284.59C591.291 285.836 591.358 287.087 591.36 288.34L591.35 288.63ZM589.55 280.8C589.281 279.511 588.947 278.236 588.55 276.98L589.55 276.68C589.96 277.98 590.31 279.3 590.55 280.59L589.55 280.8ZM587.18 273.27C586.7 272.09 586.18 270.88 585.54 269.66L586.44 269.21C587.05 270.45 587.61 271.69 588.1 272.89L587.18 273.27ZM583.68 266.14C583.06 265.05 582.38 263.9 581.68 262.72L582.53 262.19C583.26 263.38 583.95 264.54 584.53 265.65L583.68 266.14ZM579.5 259.35C578.77 258.25 578.03 257.14 577.27 256.03L578.1 255.47C578.86 256.58 579.6 257.69 580.33 258.81L579.5 259.35ZM575 252.73C574.25 251.63 573.49 250.52 572.75 249.42L573.58 248.86C574.32 249.96 575.07 251.07 575.82 252.16L575 252.73ZM570.53 246.07C569.8 244.95 569.09 243.81 568.39 242.67L569.24 242.15C569.94 243.29 570.65 244.41 571.37 245.53L570.53 246.07ZM566.36 239.2C565.68 237.99 565.05 236.79 564.48 235.64L565.38 235.19C565.94 236.33 566.57 237.51 567.23 238.71L566.36 239.2ZM562.81 232C562.28 230.75 561.81 229.48 561.37 228.24L562.37 227.92C562.79 229.13 563.26 230.38 563.78 231.61L562.81 232ZM560.21 224.37C559.88 223.07 559.59 221.74 559.37 220.37L560.37 220.21C560.59 221.49 560.86 222.79 561.19 224.07L560.21 224.37ZM558.87 216.37C558.77 215.14 558.72 213.9 558.72 212.66V212.33H559.72V212.65C559.72 213.86 559.72 215.08 559.87 216.28L558.87 216.37ZM559.87 208.37L558.87 208.27C558.87 208 558.92 207.72 558.95 207.43C559.07 206.36 559.22 205.29 559.4 204.27L560.4 204.44C560.23 205.44 560.08 206.49 559.96 207.54C560 207.85 560 208.12 559.92 208.4L559.87 208.37ZM561.26 200.59L560.26 200.32C560.63 199 561.06 197.71 561.54 196.48L562.47 196.84C562.015 198.078 561.628 199.34 561.31 200.62L561.26 200.59ZM611.09 194.76C610.53 194.76 609.95 194.68 609.38 194.6C608.6 194.49 607.82 194.36 607.05 194.21L607.25 193.21C607.99 193.35 608.76 193.48 609.52 193.59C610.06 193.66 610.61 193.71 611.14 193.74L611.09 194.76ZM615.2 194.45L614.99 193.45C616.245 193.191 617.448 192.724 618.55 192.07L619.07 192.92C617.892 193.649 616.601 194.176 615.25 194.48L615.2 194.45ZM564.14 193.26L563.25 192.79C563.887 191.597 564.591 190.442 565.36 189.33L566.18 189.9C565.449 190.989 564.784 192.121 564.19 193.29L564.14 193.26ZM603.14 193.2C601.849 192.79 600.58 192.313 599.34 191.77L599.75 190.85C600.952 191.384 602.184 191.848 603.44 192.24L603.14 193.2ZM622.14 190.08L621.31 189.52C622.022 188.487 622.443 187.281 622.53 186.03L623.53 186.1C623.445 187.534 622.975 188.92 622.17 190.11L622.14 190.08ZM595.74 189.93C594.569 189.25 593.438 188.505 592.35 187.7L592.94 186.9C593.999 187.681 595.1 188.402 596.24 189.06L595.74 189.93ZM568.64 186.81L567.9 186.14C568.805 185.133 569.77 184.181 570.79 183.29L571.45 184.04C570.469 184.918 569.54 185.853 568.67 186.84L568.64 186.81ZM589.23 185.12C588.234 184.202 587.289 183.231 586.4 182.21L587.15 181.55C588.015 182.542 588.933 183.486 589.9 184.38L589.23 185.12ZM621.78 182.41C621.207 181.267 620.415 180.248 619.45 179.41L620.11 178.66C621.172 179.579 622.045 180.696 622.68 181.95L621.78 182.41ZM574.56 181.62L573.99 180.8C575.109 180.036 576.267 179.332 577.46 178.69L577.93 179.57C576.781 180.205 575.666 180.899 574.59 181.65L574.56 181.62ZM583.9 179.02C583.52 178.48 583.15 177.93 582.8 177.36L581.5 177.87L581.12 176.95L582.27 176.49C582.09 176.19 581.91 175.89 581.74 175.59L582.61 175.1C582.81 175.45 583.01 175.8 583.22 176.1C583.78 175.9 584.35 175.71 584.93 175.53L585.22 176.53C584.73 176.68 584.22 176.84 583.76 177.01C584.07 177.5 584.39 178.01 584.76 178.44L583.9 179.02ZM616.23 177.3C615.262 176.818 614.259 176.41 613.23 176.08L612.57 175.87L612.86 174.87L613.54 175.09C614.611 175.431 615.654 175.856 616.66 176.36L616.23 177.3ZM589.05 175.51L588.84 174.51C590.13 174.22 591.47 173.98 592.84 173.79L592.99 174.79C591.67 175 590.36 175.25 589.08 175.54L589.05 175.51ZM608.75 174.97C607.5 174.75 606.18 174.58 604.83 174.46L604.91 173.46C606.3 173.58 607.65 173.75 608.91 173.98L608.75 174.97ZM596.9 174.39L596.83 173.39C598.02 173.32 599.21 173.28 600.39 173.28H600.88V174.28H600.4C599.27 174.31 598.09 174.34 596.93 174.42L596.9 174.39ZM580 172C579.46 170.78 579 169.51 578.55 168.22L579.55 167.91C579.97 169.17 580.44 170.41 580.96 171.6L580 172ZM577.47 164.32C577.17 163.03 576.92 161.69 576.73 160.32L577.73 160.18C577.92 161.5 578.16 162.81 578.45 164.08L577.47 164.32ZM576.35 156.32C576.3 155.42 576.27 154.5 576.27 153.58C576.27 153.15 576.27 152.71 576.27 152.28H577.27C577.27 152.71 577.27 153.13 577.27 153.56C577.27 154.46 577.27 155.37 577.34 156.24L576.35 156.32ZM577.54 148.32L576.54 148.22C576.68 146.9 576.87 145.55 577.1 144.22L578.1 144.39C577.83 145.72 577.64 147 577.51 148.34L577.54 148.32ZM578.91 140.51L577.91 140.27C578.23 138.98 578.6 137.68 579.01 136.38L580.01 136.69C579.56 138 579.19 139.27 578.88 140.53L578.91 140.51ZM581.31 132.94L580.38 132.58C580.87 131.33 581.38 130.08 581.99 128.87L582.89 129.31C582.29 130.51 581.76 131.73 581.28 133L581.31 132.94ZM584.75 125.81L583.88 125.3C584.56 124.15 585.29 123 586.05 121.9L586.87 122.47C586.09 123.57 585.38 124.69 584.72 125.83L584.75 125.81ZM589.26 119.3L588.48 118.67C589.32 117.67 590.22 116.61 591.15 115.67L591.87 116.36C590.93 117.3 590.05 118.3 589.23 119.32L589.26 119.3ZM594.7 113.54L594.03 112.8C595.03 111.91 596.03 111.03 597.1 110.18L597.72 110.97C596.65 111.82 595.63 112.69 594.67 113.56L594.7 113.54ZM600.91 108.6L600.34 107.77C601.43 107.02 602.57 106.28 603.73 105.58L604.24 106.43C603.08 107.14 602 107.87 600.88 108.62L600.91 108.6ZM607.7 104.47L607.23 103.59C608.41 102.96 609.63 102.36 610.85 101.8L611.27 102.71C610 103.28 608.83 103.88 607.67 104.49L607.7 104.47ZM614.93 101.15L614.56 100.21C615.82 99.7198 617.09 99.2098 618.35 98.8398L618.67 99.8398C617.4 100.22 616.14 100.68 614.9 101.17L614.93 101.15Z" fill="#D23D3D"/>
<path d="M622.64 98.6202L622.39 97.6202C623.63 97.3002 624.39 97.1602 624.39 97.1602L624.57 98.1602C624.57 98.1602 623.85 98.3102 622.64 98.6202Z" fill="#D23D3D"/>
<path d="M640.32 92.1601C637.77 84.2601 620.69 87.1001 624.02 97.4301C627.35 107.76 642.87 100.07 640.32 92.1601Z" fill="#D23D3D"/>
<path d="M614.73 88.9996C614.86 85.5296 619.68 82.8596 626.5 84.0896C633.32 85.3196 639.73 89.9196 639.73 89.9196C639.73 89.9196 633 93.9996 626.11 94.7496C619.22 95.4996 614.6 92.4596 614.73 88.9996Z" fill="#EBEBEB"/>
<path d="M639.73 89.8991C636.19 89.8991 632.66 89.7991 629.13 89.6891C625.6 89.5791 622.06 89.3991 618.53 89.1191C622.07 89.1191 625.61 89.2091 629.14 89.3191C632.67 89.4291 636.21 89.6091 639.73 89.8991Z" fill="#D23D3D"/>
<path d="M621.58 85.9102C623.59 86.8716 625.485 88.0557 627.23 89.4402C626.224 88.9682 625.249 88.4338 624.31 87.8401C623.363 87.2505 622.452 86.6061 621.58 85.9102Z" fill="#D23D3D"/>
<path d="M630.85 89.5703C629.041 91.0364 627.08 92.3037 625 93.3503C626.818 91.8824 628.79 90.6151 630.88 89.5703H630.85Z" fill="#D23D3D"/>
<path d="M631.88 87.6191C632.889 88.1037 633.772 88.8157 634.46 89.6991C633.955 89.461 633.482 89.1621 633.05 88.8091C632.616 88.4584 632.223 88.0591 631.88 87.6191Z" fill="#D23D3D"/>
<path d="M621.23 109.55C623.36 112.29 628.83 111.63 633.64 106.65C638.45 101.67 641 94.1797 641 94.1797C641 94.1797 633.12 94.7797 627.11 98.1797C621.1 101.58 619.09 106.8 621.23 109.55Z" fill="#EBEBEB"/>
<path d="M641 94.1797C638.12 96.1797 635.32 98.3997 632.51 100.55C629.7 102.7 626.95 104.92 624.26 107.21C627.14 105.21 629.94 103 632.74 100.85C635.54 98.6997 638.27 96.4797 641 94.1797Z" fill="#D23D3D"/>
<path d="M628.58 108C629.115 107.028 629.592 106.027 630.01 105C630.436 103.97 630.796 102.915 631.09 101.84C630.554 102.81 630.076 103.812 629.66 104.84C629.239 105.871 628.878 106.926 628.58 108Z" fill="#D23D3D"/>
<path d="M634 99.6389C631.66 99.5139 629.314 99.6379 627 100.009C628.166 100.079 629.334 100.079 630.5 100.009C631.673 99.9517 632.841 99.8282 634 99.6389Z" fill="#D23D3D"/>
<path d="M635.93 100.63C636.197 100.136 636.405 99.6125 636.55 99.0699C636.698 98.5314 636.785 97.9779 636.81 97.4199C636.279 98.4099 635.978 99.5072 635.93 100.63Z" fill="#D23D3D"/>
<path d="M640.32 92.16C639.755 92.3434 639.149 92.355 638.577 92.1935C638.006 92.032 637.495 91.7045 637.11 91.2526C636.725 90.8007 636.483 90.2446 636.414 89.6548C636.345 89.0651 636.453 88.4681 636.723 87.9396C636.994 87.411 637.415 86.9746 637.934 86.6857C638.453 86.3968 639.045 86.2683 639.637 86.3166C640.229 86.3648 640.793 86.5876 641.258 86.9567C641.724 87.3258 642.069 87.8246 642.25 88.39C642.493 89.1459 642.426 89.9671 642.064 90.6737C641.702 91.3804 641.075 91.9148 640.32 92.16Z" fill="#D23D3D"/>
<path d="M642.16 97.8699C641.595 98.0526 640.99 98.0638 640.419 97.9021C639.848 97.7404 639.338 97.4131 638.953 96.9616C638.568 96.5101 638.326 95.9547 638.257 95.3655C638.188 94.7763 638.295 94.1798 638.564 93.6514C638.834 93.123 639.255 92.6865 639.772 92.397C640.29 92.1076 640.882 91.9781 641.474 92.025C642.065 92.072 642.629 92.2932 643.095 92.6607C643.561 93.0283 643.907 93.5256 644.09 94.0899C644.212 94.4648 644.258 94.86 644.227 95.253C644.196 95.6459 644.087 96.0288 643.908 96.3798C643.729 96.7309 643.482 97.0432 643.182 97.2988C642.882 97.5545 642.535 97.7486 642.16 97.8699Z" fill="#D23D3D"/>
<path d="M314.31 95.3207C313.831 99.9139 312.084 104.284 309.266 107.942C306.448 111.601 302.669 114.404 298.35 116.04C294.031 117.675 289.343 118.079 284.809 117.205C280.274 116.331 276.071 114.214 272.67 111.091L260.2 112.921L266.44 102.141C265.013 98.6331 264.404 94.8464 264.659 91.0683C264.915 87.2901 266.028 83.6199 267.915 80.3364C269.801 77.0529 272.411 74.2425 275.546 72.1186C278.681 69.9948 282.259 68.6133 286.008 68.0792C289.757 67.5451 293.578 67.8724 297.182 69.0362C300.785 70.2 304.076 72.1698 306.804 74.7959C309.532 77.4219 311.626 80.6352 312.927 84.1916C314.227 87.7481 314.7 91.5542 314.31 95.3207Z" fill="white"/>
<path d="M314.31 95.3204C313.841 99.9112 312.11 104.283 309.31 107.95C307.942 109.805 306.292 111.435 304.42 112.78C302.589 114.176 300.569 115.304 298.42 116.13C296.27 116.977 294.011 117.516 291.71 117.73C290.56 117.834 289.403 117.857 288.25 117.8C287.092 117.771 285.939 117.65 284.8 117.44C280.204 116.595 275.935 114.486 272.47 111.35L272.76 111.44L260.31 113.35L259.4 113.49L259.86 112.69L266.06 101.89V102.32C264.597 98.748 263.975 94.8871 264.242 91.036C264.509 87.1849 265.658 83.4467 267.6 80.1104C269.54 76.7846 272.206 73.9404 275.4 71.7904C278.589 69.669 282.216 68.2971 286.011 67.7775C289.805 67.2579 293.668 67.6042 297.31 68.7904C300.913 70.0162 304.196 72.032 306.92 74.6904C309.637 77.3422 311.715 80.5781 312.996 84.1526C314.276 87.7271 314.726 91.5463 314.31 95.3204ZM314.31 95.3204C314.714 91.5649 314.25 87.7667 312.953 84.2192C311.656 80.6716 309.561 77.4696 306.83 74.8603C304.099 72.251 300.804 70.3042 297.201 69.1703C293.599 68.0363 289.783 67.7456 286.05 68.3204C282.354 68.8674 278.834 70.2565 275.76 72.3804C272.713 74.521 270.167 77.2985 268.3 80.5204C266.461 83.7495 265.378 87.3529 265.13 91.0604C264.886 94.793 265.488 98.5325 266.89 102L266.98 102.22L266.86 102.43L260.58 113.19L260.14 112.53L272.62 110.78H272.79L272.91 110.89C276.246 113.995 280.38 116.111 284.85 117C285.964 117.227 287.094 117.364 288.23 117.41C289.365 117.49 290.505 117.49 291.64 117.41C293.917 117.227 296.157 116.732 298.3 115.94C300.447 115.159 302.469 114.067 304.3 112.7C306.164 111.366 307.816 109.758 309.2 107.93C312.036 104.28 313.805 99.9153 314.31 95.3204Z" fill="#263238"/>
<path d="M277.34 104.35C277.321 104.019 277.37 103.687 277.484 103.376C277.598 103.064 277.775 102.78 278.004 102.54C278.233 102.3 278.509 102.109 278.814 101.98C279.12 101.851 279.448 101.786 279.78 101.79C280.459 101.79 281.11 102.059 281.59 102.539C282.07 103.02 282.34 103.671 282.34 104.35C282.34 105.029 282.07 105.68 281.59 106.16C281.11 106.64 280.459 106.91 279.78 106.91C279.448 106.913 279.12 106.848 278.814 106.719C278.509 106.59 278.233 106.399 278.004 106.159C277.775 105.919 277.598 105.635 277.484 105.323C277.37 105.012 277.321 104.681 277.34 104.35ZM278.34 98.4396L277.76 78.5996H281.76L281.18 98.4396H278.34Z" fill="#D23D3D"/>
<path d="M286.85 104.35C286.831 104.019 286.879 103.689 286.993 103.378C287.107 103.067 287.283 102.783 287.511 102.544C287.738 102.304 288.013 102.113 288.317 101.983C288.621 101.854 288.949 101.788 289.28 101.79C289.959 101.79 290.61 102.059 291.09 102.539C291.57 103.02 291.84 103.671 291.84 104.35C291.84 105.029 291.57 105.68 291.09 106.16C290.61 106.64 289.959 106.91 289.28 106.91C288.949 106.912 288.621 106.846 288.317 106.716C288.013 106.586 287.738 106.396 287.511 106.156C287.283 105.916 287.107 105.632 286.993 105.321C286.879 105.01 286.831 104.68 286.85 104.35ZM287.85 98.4396L287.3 78.5996H291.3L290.72 98.4396H287.85Z" fill="#D23D3D"/>
<path d="M296.35 104.35C296.331 104.019 296.38 103.687 296.494 103.376C296.608 103.064 296.785 102.78 297.014 102.54C297.243 102.3 297.518 102.109 297.824 101.98C298.129 101.851 298.458 101.786 298.79 101.79C299.469 101.79 300.12 102.059 300.6 102.539C301.08 103.02 301.35 103.671 301.35 104.35C301.35 105.029 301.08 105.68 300.6 106.16C300.12 106.64 299.469 106.91 298.79 106.91C298.458 106.913 298.129 106.848 297.824 106.719C297.518 106.59 297.243 106.399 297.014 106.159C296.785 105.919 296.608 105.635 296.494 105.323C296.38 105.012 296.331 104.681 296.35 104.35ZM297.35 98.4396L296.77 78.5996H300.77L300.2 98.4396H297.35Z" fill="#D23D3D"/>
</svg>
