<svg width="25" height="24" viewBox="0 0 25 24" fill="none" xmlns="http://www.w3.org/2000/svg">
<path fill-rule="evenodd" clip-rule="evenodd" d="M10.2832 14.0309C6.17918 14.0309 2.71118 16.2799 2.71118 18.9419C2.71118 21.9779 7.03218 22.3289 10.2832 22.3289C12.1562 22.3289 17.8552 22.3289 17.8552 18.9219C17.8552 16.2699 14.3872 14.0309 10.2832 14.0309Z" fill="#01A657"/>
<path fill-rule="evenodd" clip-rule="evenodd" d="M10.2509 11.7369H10.2829C13.0589 11.7369 15.3159 9.47888 15.3159 6.70388C15.3159 3.92887 13.0589 1.67188 10.2829 1.67188C7.50785 1.67188 5.24985 3.92888 5.24985 6.70188C5.23985 9.46788 7.48185 11.7269 10.2509 11.7369Z" fill="#01A657"/>
<path fill-rule="evenodd" clip-rule="evenodd" d="M21.539 9.40484H20.242V8.14984C20.242 7.73584 19.906 7.39984 19.492 7.39984C19.078 7.39984 18.742 7.73584 18.742 8.14984V9.40484H17.449C17.035 9.40484 16.699 9.74084 16.699 10.1548C16.699 10.5688 17.035 10.9048 17.449 10.9048H18.742V12.1598C18.742 12.5738 19.078 12.9098 19.492 12.9098C19.906 12.9098 20.242 12.5738 20.242 12.1598V10.9048H21.539C21.953 10.9048 22.289 10.5688 22.289 10.1548C22.289 9.74084 21.953 9.40484 21.539 9.40484Z" fill="#01A657"/>
</svg>
