<svg width="120" height="120" viewBox="0 0 120 120" fill="none" xmlns="http://www.w3.org/2000/svg">
<g clip-path="url(#clip0_1564_5464)">
<path fill-rule="evenodd" clip-rule="evenodd" d="M0.175781 0.0878906H43.7598V43.4961H0.175781V0.0878906ZM108.887 108.975H120V119.912H108.887V108.975ZM87.5293 108.955H98.6426V119.375H87.5293H87.5195H76.416V98.0664H87.1777V87.2656H98.125V65.7324H109.238V76.3183H119.824V87.2559H109.238V98.1933H98.291H98.125H87.5293V108.955ZM54.5312 87.0898H65.293V76.1523H54.8828V65.2148H65.293V54.2773H54.707V65.2148H43.584V54.2773H54.5215V21.7969H65.6348V54.2676H76.3965V65.2051H86.9824V54.2676H98.0957V65.2051H87.5293V76.1426H76.416V97.6758H65.6445V119.385H54.5312V87.0898ZM108.701 54.2676H119.814V65.2051H108.701V54.2676ZM21.8848 54.2676H32.998V65.2051H21.8848V54.2676ZM0.175781 54.2676H11.2891V65.2051H0.175781V54.2676ZM54.5312 0.0878906H65.6445V11.0254H54.5312V0.0878906ZM0 76.3183H43.584V119.727H0V76.3183ZM10.5859 86.8652H32.998V109.189H10.5859V86.8652ZM76.2305 0.0878906H119.814V43.4961H76.2305V0.0878906ZM86.8262 10.6348H109.238V32.959H86.8262V10.6348ZM10.7617 10.6348H33.1738V32.959H10.7617V10.6348Z" fill="url(#paint0_linear_1564_5464)"/>
</g>
<defs>
<linearGradient id="paint0_linear_1564_5464" x1="0" y1="60" x2="120" y2="60" gradientUnits="userSpaceOnUse">
<stop stop-color="#7B4794"/>
<stop offset="1" stop-color="#01A657"/>
</linearGradient>
<clipPath id="clip0_1564_5464">
<rect width="120" height="120" fill="white"/>
</clipPath>
</defs>
</svg>
