<svg width="50" height="53" viewBox="0 0 50 53" fill="none" xmlns="http://www.w3.org/2000/svg">
<path fill-rule="evenodd" clip-rule="evenodd" d="M6.42911 10.1006C2.9091 11.7006 0.69577 15.034 0.162437 19.4873C-0.0508957 21.1673 0.00243378 22.954 0.242435 24.7406C0.989098 30.1006 3.57577 35.4606 7.01577 38.154C9.6291 40.1806 12.9624 41.1673 16.3491 41.6206C18.4024 41.914 20.4824 41.994 22.4291 41.994C23.1224 41.994 23.8158 41.994 24.4824 41.9673C29.3891 41.834 35.6291 41.274 40.1358 38.074C46.1881 33.7814 45.496 24.6637 44.8827 16.5847L44.8824 16.5806C44.8746 16.4792 44.8667 16.3779 44.8588 16.2768C44.6537 13.6413 44.4587 11.1349 44.5358 8.90064C44.4291 5.56731 47.8958 4.90064 48.2958 4.84731C49.3624 4.66064 50.1091 3.64731 49.9491 2.55397C49.7624 1.48731 48.7491 0.767308 47.6824 0.900641C45.1758 1.27397 40.5091 3.40731 40.5358 8.74064C40.5358 8.87472 40.5334 9.00866 40.5302 9.14256C40.5174 9.66468 40.0735 10.0814 39.5517 10.0583C34.4142 9.82352 29.3011 9.5899 24.1624 9.40731C21.2824 9.30064 18.4291 9.22064 15.5491 9.16731C15.3091 9.16731 15.0758 9.16064 14.8424 9.15397C14.6091 9.14731 14.3758 9.14064 14.1358 9.14064L14.038 9.13741C11.6362 9.05801 8.95477 8.96936 6.42911 10.1006Z" fill="#DDFFF8"/>
<path d="M37.9392 45.2129C39.8432 45.2129 41.3926 46.7596 41.3926 48.6636C41.3926 50.5676 39.8432 52.1169 37.9392 52.1169C36.0352 52.1169 34.4886 50.5676 34.4886 48.6636C34.4886 46.7596 36.0352 45.2129 37.9392 45.2129Z" fill="#3C005A"/>
<path d="M10.3898 45.2129C12.2938 45.2129 13.8405 46.7596 13.8405 48.6636C13.8405 50.5676 12.2938 52.1169 10.3898 52.1169C8.48582 52.1169 6.93649 50.5676 6.93649 48.6636C6.93649 46.7596 8.48582 45.2129 10.3898 45.2129Z" fill="#3C005A"/>
<path d="M22.6426 23.541H15.2559C14.1359 23.541 13.2559 22.6343 13.2559 21.541C13.2559 20.4477 14.1359 19.541 15.2559 19.541H22.6426C23.7359 19.541 24.6426 20.4477 24.6426 21.541C24.6426 22.6343 23.7359 23.541 22.6426 23.541Z" fill="#3C005A"/>
</svg>
