<svg width="19" height="20" viewBox="0 0 19 20" fill="none" xmlns="http://www.w3.org/2000/svg">
<path fill-rule="evenodd" clip-rule="evenodd" d="M9.5 0.5C9.50016 0.5 9.50031 0.5 9.50047 0.5C11.1169 0.5 11.7592 2.12389 12.3268 3.55888L12.3285 3.563C12.6185 4.297 12.9185 5.056 13.3005 5.452C13.6759 5.83942 14.5692 5.88464 15.4348 5.92846L15.4455 5.929L15.4476 5.92911C16.8282 5.99809 18.5447 6.08385 18.9315 7.729C19.2984 9.29079 18.1518 10.2357 17.1399 11.0697L17.1395 11.07C16.4475 11.64 15.7935 12.18 15.6485 12.84C15.5076 13.4803 15.719 14.3071 15.9238 15.1082L15.9245 15.111L15.9253 15.1143C16.2771 16.4925 16.6754 18.0528 15.3415 19.059C14.9245 19.374 14.5015 19.499 14.0835 19.499C13.1785 19.499 12.2965 18.915 11.5415 18.415L11.5357 18.4112C10.8385 17.9504 10.1178 17.474 9.50047 17.474C9.50031 17.474 9.50016 17.474 9.5 17.474V0.5Z" fill="#01A657"/>
<path opacity="0.4" fill-rule="evenodd" clip-rule="evenodd" d="M9.5 0.5C9.49984 0.5 9.49969 0.5 9.49953 0.5C7.88307 0.5 7.24076 2.12389 6.67316 3.55888L6.67153 3.563C6.38153 4.297 6.08153 5.056 5.69953 5.452C5.32406 5.83942 4.43084 5.88464 3.56515 5.92846L3.55453 5.929L3.5524 5.92911C2.17176 5.99809 0.45533 6.08385 0.0685291 7.729C-0.298421 9.29079 0.848216 10.2357 1.86011 11.0697L1.86053 11.07C2.55253 11.64 3.20653 12.18 3.35153 12.84C3.49237 13.4803 3.28102 14.3071 3.07624 15.1082L3.07553 15.111L3.07468 15.1143C2.72288 16.4925 2.32461 18.0528 3.65853 19.059C4.07553 19.374 4.49853 19.499 4.91653 19.499C5.82153 19.499 6.70353 18.915 7.45853 18.415L7.46433 18.4112C8.16153 17.9504 8.88224 17.474 9.49953 17.474C9.49969 17.474 9.49984 17.474 9.5 17.474V0.5Z" fill="#01A657"/>
</svg>
