<svg width="54" height="49" viewBox="0 0 54 49" fill="none" xmlns="http://www.w3.org/2000/svg">
<path fill-rule="evenodd" clip-rule="evenodd" d="M5.93605 24.4964C5.93605 26.5657 4.70139 28.651 1.94672 28.651C1.21072 28.651 0.613384 29.2457 0.613384 29.9844C0.613384 44.1044 1.81605 48.5684 27.0001 48.5684C52.1841 48.5684 53.3867 44.1044 53.3867 29.9844C53.3867 29.2457 52.7921 28.651 52.0534 28.651C50.7921 28.651 49.7894 28.2297 49.0721 27.3977C48.4321 26.6564 48.0667 25.5977 48.0667 24.4964C48.0667 22.4324 49.2987 20.3444 52.0534 20.3444C52.7921 20.3444 53.3867 19.7497 53.3867 19.011C53.3867 4.89635 52.1841 0.429688 27.0001 0.429688C1.81605 0.429688 0.613384 4.89635 0.613384 19.011C0.613384 19.7497 1.21072 20.3444 1.94672 20.3444C4.70139 20.3444 5.93605 22.4324 5.93605 24.4964Z" fill="#DDFFF8"/>
<path d="M29.6712 17.6129C29.2139 16.6508 28.4853 15.4316 27.0013 15.4316C25.5172 15.4316 24.7886 16.6508 24.3313 17.6129C24.2095 17.869 24.0957 18.1326 23.9882 18.3821L23.9827 18.3948L23.9826 18.395C23.8754 18.6437 23.7743 18.8782 23.6698 19.0994C23.4517 19.5611 23.2513 19.8913 23.0381 20.0941C22.89 20.2336 22.6008 20.3485 22.0869 20.4163C21.7387 20.4623 21.3738 20.4789 20.975 20.4969C20.788 20.5054 20.5935 20.5142 20.3899 20.5266C19.7971 20.5625 19.1312 20.6294 18.5665 20.8593C17.9644 21.1043 17.4424 21.5515 17.2445 22.3194C17.0579 23.049 17.2305 23.6752 17.5733 24.1928C17.895 24.6784 18.3691 25.0742 18.797 25.4056C18.9255 25.5051 19.0497 25.5988 19.1694 25.6891C19.4783 25.9223 19.7577 26.1331 20.0074 26.3651C20.3459 26.6796 20.5297 26.9475 20.5917 27.2043C20.6626 27.5021 20.6359 27.8738 20.5328 28.3473C20.4822 28.5794 20.4174 28.8194 20.3464 29.0741L20.3119 29.1977L20.3118 29.1981C20.2522 29.411 20.1896 29.6347 20.1351 29.8546C20.0068 30.3717 19.8971 30.9627 19.9786 31.535C20.066 32.1477 20.3678 32.7069 20.979 33.13C22.2539 34.0083 23.5517 33.3746 24.4786 32.8379C24.6713 32.7264 24.8492 32.6183 25.02 32.5146L25.0202 32.5145C25.3131 32.3366 25.5854 32.1713 25.8767 32.0219C26.3211 31.794 26.6849 31.6746 27.0013 31.6746C27.3176 31.6746 27.6814 31.794 28.1258 32.0219C28.417 32.1712 28.6893 32.3365 28.9821 32.5144L28.9824 32.5146L28.9836 32.5153C29.154 32.6188 29.3317 32.7266 29.5239 32.8379C30.4508 33.3746 31.7475 34.0092 33.0223 33.1308C33.6328 32.7075 33.9355 32.1471 34.0226 31.5348C34.104 30.9627 33.9944 30.3719 33.8664 29.8548C33.8119 29.635 33.7495 29.4114 33.69 29.1986L33.6554 29.0744C33.5845 28.8197 33.5198 28.5797 33.4694 28.3476C33.3665 27.8741 33.3399 27.5023 33.4109 27.2043C33.4728 26.9475 33.6566 26.6796 33.9951 26.3651C34.2448 26.1331 34.5242 25.9223 34.8332 25.6891L34.8341 25.6884C34.9534 25.5984 35.0775 25.5047 35.2055 25.4056C35.6334 25.0742 36.1076 24.6784 36.4292 24.1928C36.772 23.6752 36.9449 23.0501 36.7583 22.3205C36.5604 21.5526 36.0382 21.1043 35.436 20.8593C34.8713 20.6294 34.2054 20.5625 33.6126 20.5266C33.409 20.5142 33.2145 20.5054 33.0275 20.4969C32.6287 20.4789 32.2638 20.4623 31.9156 20.4163C31.4017 20.3485 31.1125 20.2336 30.9645 20.0941C30.7512 19.8913 30.5508 19.5611 30.3327 19.0994C30.2281 18.878 30.1271 18.6437 30.0199 18.3949L30.0144 18.3821C29.9068 18.1326 29.793 17.869 29.6712 17.6129Z" fill="#3C005A"/>
</svg>
