<svg width="32" height="30" viewBox="0 0 32 30" fill="none" xmlns="http://www.w3.org/2000/svg">
<path opacity="0.4" fill-rule="evenodd" clip-rule="evenodd" d="M3.49328 14.9986C3.49328 16.2272 2.7602 17.4654 1.12461 17.4654C0.687616 17.4654 0.332947 17.8185 0.332947 18.2571C0.332947 26.6408 1.04703 29.2913 16 29.2913C30.953 29.2913 31.6671 26.6408 31.6671 18.2571C31.6671 17.8185 31.314 17.4654 30.8754 17.4654C30.1265 17.4654 29.5312 17.2152 29.1053 16.7212C28.7253 16.2811 28.5084 15.6525 28.5084 14.9986C28.5084 13.7731 29.2399 12.5333 30.8754 12.5333C31.314 12.5333 31.6671 12.1802 31.6671 11.7417C31.6671 3.36107 30.953 0.708984 16 0.708984C1.04703 0.708984 0.332947 3.36107 0.332947 11.7417C0.332947 12.1802 0.687616 12.5333 1.12461 12.5333C2.7602 12.5333 3.49328 13.7731 3.49328 14.9986Z" fill="#01A657"/>
<path d="M17.586 10.9123C17.3145 10.3411 16.8819 9.61719 16.0007 9.61719C15.1196 9.61719 14.6869 10.3411 14.4154 10.9123C14.3431 11.0644 14.2756 11.2209 14.2117 11.369L14.2084 11.3766L14.2084 11.3767C14.1447 11.5243 14.0847 11.6635 14.0227 11.7949C13.8932 12.0691 13.7742 12.2651 13.6476 12.3855C13.5597 12.4684 13.388 12.5366 13.0828 12.5768C12.8761 12.6041 12.6594 12.614 12.4226 12.6247C12.3116 12.6297 12.1961 12.635 12.0752 12.6423C11.7233 12.6637 11.3279 12.7034 10.9926 12.8398C10.6351 12.9853 10.3251 13.2509 10.2077 13.7068C10.0968 14.14 10.1993 14.5118 10.4029 14.8191C10.5939 15.1075 10.8754 15.3425 11.1294 15.5392C11.2057 15.5983 11.2794 15.6539 11.3505 15.7075L11.3505 15.7076C11.5339 15.846 11.6998 15.9712 11.8481 16.1089C12.0491 16.2957 12.1583 16.4547 12.195 16.6072C12.2372 16.784 12.2213 17.0047 12.1601 17.2859C12.13 17.4237 12.0915 17.5662 12.0494 17.7174L12.0289 17.7908L12.0288 17.791C11.9935 17.9174 11.9563 18.0502 11.9239 18.1808C11.8478 18.4879 11.7826 18.8388 11.831 19.1786C11.8829 19.5423 12.0621 19.8744 12.425 20.1256C13.182 20.6471 13.9526 20.2708 14.5029 19.9522C14.6173 19.8859 14.7229 19.8218 14.8243 19.7602L14.8243 19.7602L14.8244 19.7602C14.9984 19.6545 15.16 19.5563 15.333 19.4676C15.5969 19.3323 15.8129 19.2615 16.0007 19.2615C16.1885 19.2615 16.4046 19.3323 16.6684 19.4676C16.8413 19.5563 17.003 19.6545 17.1769 19.7601L17.177 19.7602L17.1777 19.7606C17.2789 19.822 17.3844 19.8861 17.4986 19.9522C18.0489 20.2708 18.8188 20.6476 19.5757 20.1261C19.9382 19.8747 20.1179 19.542 20.1696 19.1784C20.218 18.8388 20.1529 18.488 20.0769 18.1809C20.0446 18.0504 20.0075 17.9177 19.9722 17.7913L19.9516 17.7176C19.9095 17.5663 19.8711 17.4239 19.8412 17.2861C19.7801 17.0049 19.7643 16.7841 19.8064 16.6072C19.8432 16.4547 19.9523 16.2957 20.1533 16.1089C20.3016 15.9712 20.4675 15.846 20.6509 15.7076L20.6514 15.7072C20.7223 15.6537 20.796 15.5981 20.872 15.5392C21.126 15.3425 21.4076 15.1075 21.5986 14.8191C21.8021 14.5118 21.9048 14.1406 21.7939 13.7074C21.6765 13.2515 21.3664 12.9853 21.0089 12.8398C20.6735 12.7034 20.2782 12.6637 19.9262 12.6423C19.8053 12.635 19.6898 12.6297 19.5788 12.6247C19.342 12.614 19.1254 12.6041 18.9186 12.5768C18.6135 12.5366 18.4418 12.4684 18.3539 12.3855C18.2273 12.2651 18.1083 12.0691 17.9788 11.7949C17.9167 11.6635 17.8567 11.5244 17.793 11.3766L17.7897 11.369C17.7259 11.2209 17.6583 11.0644 17.586 10.9123Z" fill="#01A657"/>
</svg>
