<svg width="189" height="189" viewBox="0 0 189 189" fill="none" xmlns="http://www.w3.org/2000/svg">
<path fill-rule="evenodd" clip-rule="evenodd" d="M126.717 79.9864L89.3104 117.361C88.2 118.471 86.7038 119.094 85.1366 119.094C83.5695 119.094 82.0654 118.471 80.955 117.361L62.2834 98.6738C59.976 96.3664 59.976 92.6257 62.2834 90.3184C64.5986 88.011 68.3393 88.0267 70.6388 90.3184L85.1366 104.832L118.361 71.631C120.669 69.3236 124.409 69.3315 126.717 71.631C129.024 73.9384 129.024 77.679 126.717 79.9864ZM94.5 17.7188C37.8158 17.7188 17.7188 37.8158 17.7188 94.5C17.7188 151.184 37.8158 171.281 94.5 171.281C151.184 171.281 171.281 151.184 171.281 94.5C171.281 37.8158 151.184 17.7188 94.5 17.7188Z" fill="#01A657"/>
</svg>
