<svg width="1440" height="353" viewBox="0 0 1440 353" fill="none" xmlns="http://www.w3.org/2000/svg">
<path d="M0 68.4368C80.0018 65.9914 159.998 63.5518 240 47.3937C320.002 31.2356 399.998 1.37057 480 0.0466998C560.002 -1.27717 639.998 25.9401 720 31.6114C800.002 37.2826 879.998 21.402 960 21.0898C1040 20.7776 1120 36.0339 1200 52.6545C1280 69.2751 1360 87.2715 1440 105.262V462.995C1360 462.995 1280 462.995 1200 462.995C1120 462.995 1040 462.995 960 462.995C879.998 462.995 800.002 462.995 720 462.995C639.998 462.995 560.002 462.995 480 462.995C399.998 462.995 320.002 462.995 240 462.995C159.998 462.995 80.0018 462.995 0 462.995V68.4368Z" fill="url(#paint0_linear_1143_5751)" fill-opacity="0.1"/>
<path d="M0 31.6079C80.0018 34.1921 159.998 36.7762 240 57.9118C320.002 79.0474 399.998 118.723 480 136.824C560.002 154.924 639.998 151.438 720 142.084C800.002 132.731 879.998 117.509 960 89.4765C1040 61.4441 1120 20.5892 1200 26.3472C1280 32.1051 1360 84.4643 1440 136.824V462.992C1360 462.992 1280 462.992 1200 462.992C1120 462.992 1040 462.992 960 462.992C879.998 462.992 800.002 462.992 720 462.992C639.998 462.992 560.002 462.992 480 462.992C399.998 462.992 320.002 462.992 240 462.992C159.998 462.992 80.0018 462.992 0 462.992V31.6079Z" fill="url(#paint1_linear_1143_5751)" fill-opacity="0.1"/>
<path d="M0 157.87C80.0018 137.098 159.998 116.327 240 100.001C320.002 83.6755 399.998 71.7954 480 78.9582C560.002 86.1209 639.998 112.332 720 136.827C800.002 161.321 879.998 184.093 960 178.913C1040 173.733 1120 140.608 1200 126.305C1280 112.003 1360 116.524 1440 121.044V462.995C1360 462.995 1280 462.995 1200 462.995C1120 462.995 1040 462.995 960 462.995C879.998 462.995 800.002 462.995 720 462.995C639.998 462.995 560.002 462.995 480 462.995C399.998 462.995 320.002 462.995 240 462.995C159.998 462.995 80.0018 462.995 0 462.995V157.87Z" fill="url(#paint2_linear_1143_5751)" fill-opacity="0.1"/>
<path d="M0 194.694C80.0018 178.455 159.998 162.222 240 157.869C320.002 153.516 399.998 161.048 480 147.347C560.002 133.646 639.998 98.7167 720 110.522C800.002 122.327 879.998 180.877 960 189.433C1040 197.989 1120 156.556 1200 136.826C1280 117.095 1360 119.072 1440 121.043V462.994C1360 462.994 1280 462.994 1200 462.994C1120 462.994 1040 462.994 960 462.994C879.998 462.994 800.002 462.994 720 462.994C639.998 462.994 560.002 462.994 480 462.994C399.998 462.994 320.002 462.994 240 462.994C159.998 462.994 80.0018 462.994 0 462.994V194.694Z" fill="url(#paint3_linear_1143_5751)" fill-opacity="0.1"/>
<path d="M0 178.909C80.0018 211 159.998 243.097 240 236.778C320.002 230.459 399.998 185.731 480 178.909C560.002 172.088 639.998 203.167 720 199.953C800.002 196.738 879.998 159.225 960 163.127C1040 167.029 1120 212.341 1200 215.735C1280 219.128 1360 180.609 1440 142.084V462.991C1360 462.991 1280 462.991 1200 462.991C1120 462.991 1040 462.991 960 462.991C879.998 462.991 800.002 462.991 720 462.991C639.998 462.991 560.002 462.991 480 462.991C399.998 462.991 320.002 462.991 240 462.991C159.998 462.991 80.0018 462.991 0 462.991V178.909Z" fill="url(#paint4_linear_1143_5751)" fill-opacity="0.1"/>
<path d="M0 215.736C80.0018 185.477 159.998 155.219 240 152.606C320.002 149.993 399.998 175.025 480 199.953C560.002 224.881 639.998 249.699 720 242.039C800.002 234.38 879.998 194.247 960 194.692C1040 195.138 1120 236.154 1200 242.039C1280 247.925 1360 218.678 1440 189.432V462.992C1360 462.992 1280 462.992 1200 462.992C1120 462.992 1040 462.992 960 462.992C879.998 462.992 800.002 462.992 720 462.992C639.998 462.992 560.002 462.992 480 462.992C399.998 462.992 320.002 462.992 240 462.992C159.998 462.992 80.0018 462.992 0 462.992V215.736Z" fill="url(#paint5_linear_1143_5751)" fill-opacity="0.1"/>
<path d="M0 226.264C80.0018 214.962 159.998 203.66 240 210.482C320.002 217.304 399.998 242.249 480 236.786C560.002 231.323 639.998 195.457 720 199.96C800.002 204.464 879.998 249.331 960 273.611C1040 297.892 1120 301.592 1200 294.654C1280 287.717 1360 270.143 1440 252.568V462.999C1360 462.999 1280 462.999 1200 462.999C1120 462.999 1040 462.999 960 462.999C879.998 462.999 800.002 462.999 720 462.999C639.998 462.999 560.002 462.999 480 462.999C399.998 462.999 320.002 462.999 240 462.999C159.998 462.999 80.0018 462.999 0 462.999V226.264Z" fill="url(#paint6_linear_1143_5751)" fill-opacity="0.1"/>
<path d="M0 215.744C80.0018 225.427 159.998 235.117 240 257.83C320.002 280.544 399.998 316.294 480 305.177C560.002 294.06 639.998 236.088 720 231.526C800.002 226.965 879.998 275.827 960 299.917C1040 324.006 1120 323.336 1200 320.96C1280 318.584 1360 314.514 1440 310.438V463.001C1360 463.001 1280 463.001 1200 463.001C1120 463.001 1040 463.001 960 463.001C879.998 463.001 800.002 463.001 720 463.001C639.998 463.001 560.002 463.001 480 463.001C399.998 463.001 320.002 463.001 240 463.001C159.998 463.001 80.0018 463.001 0 463.001V215.744Z" fill="url(#paint7_linear_1143_5751)" fill-opacity="0.1"/>
<path d="M0 368.298C80.0018 375.09 159.998 381.883 240 368.298C320.002 354.712 399.998 320.754 480 315.69C560.002 310.626 639.998 334.455 720 336.733C800.002 339.011 879.998 319.742 960 305.168C1040 290.594 1120 280.714 1200 289.386C1280 298.057 1360 325.286 1440 352.515V462.992C1360 462.992 1280 462.992 1200 462.992C1120 462.992 1040 462.992 960 462.992C879.998 462.992 800.002 462.992 720 462.992C639.998 462.992 560.002 462.992 480 462.992C399.998 462.992 320.002 462.992 240 462.992C159.998 462.992 80.0018 462.992 0 462.992V368.298Z" fill="url(#paint8_linear_1143_5751)" fill-opacity="0.1"/>
<path d="M0 299.916C80.0018 304.379 159.998 308.836 240 320.959C320.002 333.082 399.998 352.865 480 363.045C560.002 373.226 639.998 373.798 720 378.828C800.002 383.857 879.998 393.332 960 399.871C1040 406.409 1120 410.005 1200 394.61C1280 379.215 1360 344.823 1440 310.438V463C1360 463 1280 463 1200 463C1120 463 1040 463 960 463C879.998 463 800.002 463 720 463C639.998 463 560.002 463 480 463C399.998 463 320.002 463 240 463C159.998 463 80.0018 463 0 463V299.916Z" fill="url(#paint9_linear_1143_5751)" fill-opacity="0.1"/>
<defs>
<linearGradient id="paint0_linear_1143_5751" x1="0" y1="231.498" x2="1440" y2="231.498" gradientUnits="userSpaceOnUse">
<stop stop-color="#B77ED2"/>
<stop offset="1" stop-color="#01A657"/>
</linearGradient>
<linearGradient id="paint1_linear_1143_5751" x1="0" y1="244.395" x2="1440" y2="244.395" gradientUnits="userSpaceOnUse">
<stop stop-color="#B77ED2"/>
<stop offset="1" stop-color="#01A657"/>
</linearGradient>
<linearGradient id="paint2_linear_1143_5751" x1="0" y1="269.912" x2="1440" y2="269.912" gradientUnits="userSpaceOnUse">
<stop stop-color="#B77ED2"/>
<stop offset="1" stop-color="#01A657"/>
</linearGradient>
<linearGradient id="paint3_linear_1143_5751" x1="0" y1="285.559" x2="1440" y2="285.559" gradientUnits="userSpaceOnUse">
<stop stop-color="#B77ED2"/>
<stop offset="1" stop-color="#01A657"/>
</linearGradient>
<linearGradient id="paint4_linear_1143_5751" x1="0" y1="302.538" x2="1440" y2="302.538" gradientUnits="userSpaceOnUse">
<stop stop-color="#B77ED2"/>
<stop offset="1" stop-color="#01A657"/>
</linearGradient>
<linearGradient id="paint5_linear_1143_5751" x1="0" y1="307.705" x2="1440" y2="307.705" gradientUnits="userSpaceOnUse">
<stop stop-color="#B77ED2"/>
<stop offset="1" stop-color="#01A657"/>
</linearGradient>
<linearGradient id="paint6_linear_1143_5751" x1="0" y1="331.285" x2="1440" y2="331.285" gradientUnits="userSpaceOnUse">
<stop stop-color="#B77ED2"/>
<stop offset="1" stop-color="#01A657"/>
</linearGradient>
<linearGradient id="paint7_linear_1143_5751" x1="0" y1="339.372" x2="1440" y2="339.372" gradientUnits="userSpaceOnUse">
<stop stop-color="#B77ED2"/>
<stop offset="1" stop-color="#01A657"/>
</linearGradient>
<linearGradient id="paint8_linear_1143_5751" x1="0" y1="374.566" x2="1440" y2="374.566" gradientUnits="userSpaceOnUse">
<stop stop-color="#B77ED2"/>
<stop offset="1" stop-color="#01A657"/>
</linearGradient>
<linearGradient id="paint9_linear_1143_5751" x1="0" y1="381.458" x2="1440" y2="381.458" gradientUnits="userSpaceOnUse">
<stop stop-color="#B77ED2"/>
<stop offset="1" stop-color="#01A657"/>
</linearGradient>
</defs>
</svg>
