<svg width="453" height="345" viewBox="0 0 453 345" fill="none" xmlns="http://www.w3.org/2000/svg">
<path d="M434.234 344.614C434.234 344.391 337.021 344.228 217.13 344.228C97.2402 344.228 0 344.391 0 344.614C0 344.837 97.1928 345 217.13 345C337.068 345 434.234 344.822 434.234 344.614Z" fill="#263238"/>
<path d="M203.247 128.533C203.247 128.533 233.009 136.375 242.42 167.753L229.809 173.363C229.809 173.363 226.91 151.532 197.425 142.026C181.468 136.879 160.338 144.136 154.492 150.794L140.289 144.664C149.782 134.216 173.209 120.35 203.247 128.533Z" fill="#01A657"/>
<path d="M250.515 159.844L219.057 170.276L243.199 182.372L250.515 159.844Z" fill="#01A657"/>
<path d="M166.12 344.017L54.8698 343.952C41.4873 343.952 30.6465 332.586 30.6465 318.485L30.7033 25.4512C30.7033 11.3901 41.5685 -0.00811406 54.951 4.33406e-06L166.201 0.0649499C179.584 0.0649499 190.425 11.4794 190.425 25.5323L190.368 318.606C190.368 332.627 179.511 344.025 166.12 344.017Z" fill="#263238"/>
<path d="M166.087 10.4315H144.519C141.62 10.4315 139.274 13.0051 139.274 16.1793V20.2629C139.274 23.4372 136.927 26.0107 134.036 26.0107H91.9963C89.1054 26.0107 86.7586 23.4291 86.7586 20.2548V16.1306C86.7586 12.9563 84.4118 10.3828 81.5209 10.3828H73.9364H55.0563C45.6771 10.3828 38.0764 18.3632 38.0764 28.2433L38.0195 314.262C38.0195 324.11 45.6122 332.123 54.9832 332.123L166.014 332.196C175.385 332.196 182.994 324.216 182.994 314.335L183.051 28.3163C183.051 18.42 175.458 10.4396 166.087 10.4315Z" fill="white"/>
<path d="M61.5293 309.488V317.882C61.5366 318.05 61.4977 318.217 61.4166 318.364C61.3356 318.512 61.2156 318.634 61.0698 318.718C60.9239 318.802 60.7579 318.844 60.5897 318.839C60.4216 318.835 60.2578 318.785 60.1163 318.694L53.5144 314.497C53.3836 314.413 53.276 314.298 53.2015 314.162C53.127 314.025 53.0879 313.873 53.0879 313.717C53.0879 313.562 53.127 313.409 53.2015 313.273C53.276 313.137 53.3836 313.022 53.5144 312.938L60.0919 308.708C60.2314 308.613 60.3946 308.557 60.5636 308.548C60.7325 308.539 60.9007 308.577 61.0494 308.658C61.1982 308.739 61.3217 308.859 61.4064 309.005C61.4911 309.152 61.5336 309.319 61.5293 309.488Z" fill="#E0E0E0"/>
<path d="M115.765 313.605C115.764 314.75 115.423 315.868 114.786 316.819C114.148 317.77 113.244 318.51 112.186 318.947C111.127 319.384 109.964 319.497 108.841 319.273C107.718 319.049 106.687 318.497 105.878 317.687C105.07 316.877 104.519 315.846 104.296 314.723C104.073 313.601 104.189 312.437 104.627 311.38C105.066 310.323 105.808 309.419 106.76 308.784C107.712 308.148 108.831 307.809 109.975 307.809C111.512 307.811 112.984 308.422 114.07 309.509C115.156 310.596 115.765 312.069 115.765 313.605Z" fill="#E0E0E0"/>
<path d="M166.468 308.562H158.827C157.988 308.562 157.309 309.242 157.309 310.081V317.744C157.309 318.583 157.988 319.263 158.827 319.263H166.468C167.307 319.263 167.987 318.583 167.987 317.744V310.081C167.987 309.242 167.307 308.562 166.468 308.562Z" fill="#E0E0E0"/>
<path d="M78.3786 113.722H87.3111L85.5733 112.399C86.8888 116.729 88.207 121.058 89.528 125.388L95.7888 146.009C96.2679 147.633 96.7552 149.175 97.2343 150.758C97.3461 151.134 97.5748 151.465 97.8872 151.703C98.1995 151.941 98.5795 152.074 98.9721 152.081L124.519 152.008H128.181C130.496 152.008 130.504 148.404 128.181 148.412L102.634 148.477H98.9721L100.71 149.792L96.7633 136.803L90.4943 116.19L89.0489 111.433C88.937 111.056 88.7084 110.725 88.396 110.488C88.0836 110.25 87.7037 110.117 87.3111 110.109H78.3786C76.0561 110.109 76.0561 113.714 78.3786 113.714V113.722Z" fill="#263238"/>
<path d="M133.873 118.311C132.19 125.845 130.506 133.379 128.822 140.913C128.587 141.992 128.343 143.08 128.1 144.16L129.407 143.17L118.469 143.064L100.928 142.894L96.9169 142.853L98.2162 143.843C95.8775 136.385 93.5334 128.925 91.1839 121.461L90.1932 118.311L88.8858 120.016H135.172C135.513 119.99 135.831 119.836 136.063 119.585C136.295 119.334 136.424 119.006 136.424 118.664C136.424 118.323 136.295 117.994 136.063 117.743C135.831 117.493 135.513 117.339 135.172 117.312H88.8858C88.6785 117.315 88.4746 117.366 88.2897 117.459C88.1047 117.553 87.9435 117.687 87.8182 117.852C87.693 118.017 87.607 118.209 87.5669 118.412C87.5267 118.615 87.5334 118.825 87.5865 119.025C89.9306 126.484 92.2747 133.944 94.6188 141.408C94.9518 142.455 95.2847 143.511 95.6095 144.558C95.6948 144.841 95.867 145.089 96.1017 145.268C96.3364 145.448 96.6217 145.548 96.9169 145.556L107.855 145.662L125.395 145.832L129.407 145.873C129.701 145.868 129.985 145.769 130.219 145.591C130.453 145.412 130.623 145.164 130.706 144.883L135.749 122.273L136.48 119.025C136.853 117.329 134.255 116.606 133.873 118.311Z" fill="#263238"/>
<path d="M98.0951 119.461C99.5162 127.702 101.343 135.877 102.748 144.117C103.04 145.83 105.647 145.099 105.355 143.402C103.934 135.154 102.107 126.987 100.702 118.739C100.409 117.034 97.8028 117.756 98.0951 119.461Z" fill="#263238"/>
<path d="M112.363 119.107C112.499 127.561 112.642 136.012 112.794 144.461C112.794 146.198 115.522 146.206 115.498 144.461C115.363 136.012 115.219 127.561 115.068 119.107C115.068 117.369 112.339 117.361 112.363 119.107Z" fill="#263238"/>
<path d="M125.542 144.768L128.977 122.247L129.464 119C129.546 118.655 129.495 118.292 129.32 117.983C129.145 117.674 128.86 117.443 128.522 117.336C128.181 117.257 127.823 117.312 127.522 117.489C127.22 117.665 126.997 117.95 126.898 118.286C125.75 125.787 124.608 133.294 123.471 140.806C123.309 141.878 123.138 142.949 122.976 144.053C122.894 144.398 122.945 144.762 123.12 145.07C123.294 145.379 123.58 145.61 123.918 145.718C124.263 145.812 124.632 145.767 124.944 145.59C125.256 145.414 125.486 145.121 125.582 144.776L125.542 144.768Z" fill="#263238"/>
<path d="M91.8333 127.922H132.704C133.044 127.896 133.362 127.742 133.594 127.491C133.826 127.241 133.955 126.912 133.955 126.57C133.955 126.229 133.826 125.9 133.594 125.65C133.362 125.399 133.044 125.245 132.704 125.219H91.8333C91.4928 125.245 91.1748 125.399 90.9429 125.65C90.7109 125.9 90.582 126.229 90.582 126.57C90.582 126.912 90.7109 127.241 90.9429 127.491C91.1748 127.742 91.4928 127.896 91.8333 127.922Z" fill="#263238"/>
<path d="M95.6664 137.402H131.055C131.413 137.402 131.756 137.26 132.009 137.008C132.261 136.755 132.403 136.412 132.403 136.055C132.403 135.697 132.261 135.354 132.009 135.102C131.756 134.849 131.413 134.707 131.055 134.707H95.6664C95.3088 134.707 94.966 134.849 94.7132 135.102C94.4604 135.354 94.3184 135.697 94.3184 136.055C94.3184 136.412 94.4604 136.755 94.7132 137.008C94.966 137.26 95.3088 137.402 95.6664 137.402Z" fill="#263238"/>
<path d="M128.165 163.936C130.82 163.936 132.972 161.785 132.972 159.13C132.972 156.476 130.82 154.324 128.165 154.324C125.51 154.324 123.357 156.476 123.357 159.13C123.357 161.785 125.51 163.936 128.165 163.936Z" fill="#263238"/>
<path d="M101.725 163.936C104.38 163.936 106.533 161.785 106.533 159.13C106.533 156.476 104.38 154.324 101.725 154.324C99.0703 154.324 96.918 156.476 96.918 159.13C96.918 161.785 99.0703 163.936 101.725 163.936Z" fill="#263238"/>
<path d="M92.5081 94.4017C92.5081 94.4017 72.7347 93.736 61.1387 111.329L67.8949 117.117C67.8949 117.117 73.7173 104.209 93.6287 103.795C104.413 103.576 111.819 109.851 114.198 115.031L126.419 114.819C122.481 106.628 112.517 94.9051 92.5081 94.4017Z" fill="#01A657"/>
<path d="M58.5234 105.598L75.9743 117.832L60.1232 121.047L58.5234 105.598Z" fill="#01A657"/>
<path d="M174.071 40.5581C174.073 40.947 173.959 41.3276 173.744 41.6518C173.529 41.976 173.222 42.229 172.863 42.379C172.504 42.5289 172.109 42.569 171.727 42.4941C171.346 42.4192 170.995 42.2327 170.719 41.9583C170.443 41.6839 170.255 41.3338 170.179 40.9525C170.102 40.5712 170.141 40.1757 170.289 39.8163C170.438 39.4568 170.69 39.1495 171.013 38.9332C171.336 38.717 171.717 38.6016 172.106 38.6016C172.626 38.6016 173.124 38.8074 173.492 39.1741C173.861 39.5408 174.069 40.0384 174.071 40.5581Z" fill="#263238"/>
<path d="M172.106 47.8902C173.191 47.8902 174.071 47.0106 174.071 45.9256C174.071 44.8405 173.191 43.9609 172.106 43.9609C171.02 43.9609 170.141 44.8405 170.141 45.9256C170.141 47.0106 171.02 47.8902 172.106 47.8902Z" fill="#263238"/>
<path d="M172.106 53.2574C173.191 53.2574 174.071 52.3778 174.071 51.2928C174.071 50.2077 173.191 49.3281 172.106 49.3281C171.02 49.3281 170.141 50.2077 170.141 51.2928C170.141 52.3778 171.02 53.2574 172.106 53.2574Z" fill="#263238"/>
<path d="M55.0891 39.625L47.0742 45.6326H49.1125V52.8093L53.4325 52.8255V47.4511L56.8431 47.4349V52.8093H61.0171V45.5595L63.0959 45.5352L55.0891 39.625Z" fill="#263238"/>
<path d="M183.563 60.3751C183.563 60.4888 150.861 60.5862 110.535 60.5862C70.2089 60.5862 37.5078 60.4888 37.5078 60.3751C37.5078 60.2615 70.2008 60.1641 110.535 60.1641C150.87 60.1641 183.563 60.2615 183.563 60.3751Z" fill="#E0E0E0"/>
<path d="M108.994 195.531H107.694C103.299 195.531 99.7363 199.093 99.7363 203.487V267.493C99.7363 271.887 103.299 275.449 107.694 275.449H108.994C113.389 275.449 116.952 271.887 116.952 267.493V203.487C116.952 199.093 113.389 195.531 108.994 195.531Z" fill="#E0E0E0"/>
<path d="M141.864 237.389C141.884 242.878 140.274 248.25 137.238 252.823C134.203 257.397 129.878 260.968 124.812 263.084C119.746 265.199 114.166 265.765 108.778 264.709C103.39 263.653 98.4371 261.023 94.5452 257.151C90.6532 253.279 87.9976 248.341 86.9145 242.959C85.8313 237.578 86.3693 231.997 88.4603 226.922C90.5514 221.846 94.1014 217.505 98.6613 214.448C103.221 211.391 108.586 209.754 114.076 209.746C117.716 209.737 121.323 210.444 124.69 211.828C128.056 213.212 131.117 215.246 133.698 217.813C136.278 220.38 138.328 223.43 139.729 226.789C141.13 230.148 141.856 233.75 141.864 237.389Z" fill="#01A657"/>
<path d="M136.025 237.681C136.033 241.854 134.803 245.937 132.491 249.412C130.179 252.887 126.888 255.599 123.035 257.204C119.181 258.81 114.938 259.238 110.842 258.433C106.745 257.628 102.979 255.628 100.02 252.684C97.0607 249.74 95.0408 245.985 94.2155 241.894C93.3902 237.802 93.7967 233.558 95.3835 229.698C96.9704 225.837 99.6664 222.534 103.131 220.205C106.595 217.876 110.672 216.626 114.847 216.613C117.622 216.605 120.371 217.143 122.937 218.198C125.504 219.252 127.837 220.802 129.804 222.758C131.771 224.715 133.333 227.04 134.4 229.6C135.468 232.161 136.02 234.907 136.025 237.681Z" fill="#01A657"/>
<path d="M135.263 237.4C135.237 237.288 135.224 237.174 135.222 237.059C135.222 236.807 135.173 236.474 135.149 236.052C135.149 235.83 135.133 235.587 135.1 235.321C135.1 235.045 135.011 234.753 134.954 234.437C134.859 233.701 134.71 232.974 134.507 232.261C134.003 230.294 133.207 228.414 132.144 226.684C130.602 224.143 128.54 221.957 126.094 220.269C123.648 218.58 120.872 217.427 117.95 216.885C114.27 216.215 110.479 216.534 106.963 217.81C106.027 218.148 105.115 218.549 104.234 219.012C103.796 219.255 103.374 219.531 102.935 219.823C102.494 220.081 102.074 220.371 101.676 220.692C100.841 221.311 100.046 221.984 99.2971 222.705C98.5633 223.472 97.8798 224.286 97.2508 225.141C95.9512 226.886 94.9421 228.83 94.2624 230.897C93.5733 233.027 93.2118 235.25 93.1905 237.489C93.2213 239.729 93.5881 241.951 94.2787 244.081C94.964 246.146 95.9786 248.087 97.2832 249.829C97.9123 250.686 98.5987 251.5 99.3377 252.265C100.087 252.986 100.881 253.659 101.717 254.278C102.533 254.879 103.39 255.422 104.283 255.902C105.165 256.359 106.077 256.758 107.012 257.095C110.532 258.364 114.327 258.675 118.007 257.996C121.211 257.405 124.231 256.07 126.826 254.099C128.972 252.477 130.788 250.46 132.177 248.157C133.233 246.422 134.024 244.539 134.524 242.571C134.725 241.858 134.872 241.131 134.962 240.395C135.011 240.079 135.076 239.787 135.1 239.519C135.125 239.251 135.1 239.007 135.149 238.78C135.181 238.358 135.206 238.025 135.222 237.781C135.224 237.667 135.237 237.552 135.263 237.44C135.274 237.554 135.274 237.668 135.263 237.781V238.788C135.263 239.007 135.263 239.259 135.263 239.527C135.263 239.795 135.19 240.095 135.141 240.42C135.065 241.16 134.93 241.893 134.735 242.612C134.269 244.614 133.494 246.532 132.437 248.295C130.898 250.89 128.827 253.13 126.359 254.867C123.891 256.603 121.083 257.797 118.12 258.37C114.376 259.078 110.509 258.773 106.922 257.485C105.967 257.146 105.036 256.742 104.137 256.275C103.224 255.798 102.348 255.255 101.514 254.651C100.659 254.022 99.8457 253.338 99.0779 252.606C98.327 251.84 97.6272 251.027 96.9828 250.17C95.6461 248.393 94.6067 246.41 93.9051 244.3C92.4275 239.935 92.4275 235.205 93.9051 230.84C94.5982 228.729 95.6293 226.744 96.9584 224.962C97.5985 224.102 98.2986 223.288 99.0535 222.527C99.8193 221.789 100.633 221.103 101.49 220.473C101.895 220.147 102.324 219.851 102.773 219.588C103.219 219.328 103.65 219.044 104.104 218.776C105.004 218.307 105.934 217.9 106.89 217.558C110.475 216.263 114.341 215.949 118.088 216.649C121.337 217.263 124.397 218.631 127.02 220.643C129.193 222.289 131.022 224.343 132.404 226.692C133.469 228.454 134.253 230.371 134.727 232.374C134.918 233.097 135.053 233.832 135.133 234.575C135.181 234.891 135.23 235.192 135.255 235.459V236.206C135.255 236.629 135.255 236.961 135.255 237.213C135.261 237.275 135.263 237.337 135.263 237.4Z" fill="#263238"/>
<g opacity="0.3">
<path d="M135.091 237.618C134.969 237.618 134.88 236.692 134.539 235.077C134.067 232.799 133.245 230.608 132.103 228.582C131.321 227.203 130.39 225.916 129.326 224.742C128.105 223.409 126.719 222.239 125.2 221.259C124.386 220.731 123.534 220.265 122.651 219.863C120.774 219.004 118.778 218.435 116.731 218.174C115.654 218.04 114.568 217.988 113.483 218.02C112.406 218.059 111.333 218.181 110.275 218.385C109.246 218.577 108.233 218.849 107.246 219.197C106.291 219.537 105.365 219.952 104.477 220.439C103.627 220.899 102.812 221.423 102.041 222.006C100.587 223.085 99.2768 224.345 98.143 225.757C97.1602 226.998 96.316 228.343 95.6256 229.767C94.6228 231.859 93.9489 234.094 93.628 236.392C93.3925 238.015 93.36 238.957 93.2382 238.965C93.1164 238.973 92.9621 238.04 93.0027 236.335C93.1049 233.909 93.6555 231.522 94.6268 229.296C96.4796 224.979 99.7011 221.39 103.795 219.083C104.748 218.548 105.742 218.089 106.767 217.711C107.823 217.317 108.909 217.007 110.015 216.786C111.159 216.563 112.318 216.43 113.483 216.388C114.646 216.355 115.811 216.412 116.966 216.559C118.085 216.705 119.19 216.941 120.271 217.265C122.324 217.878 124.271 218.8 126.045 220.001C127.649 221.08 129.1 222.372 130.357 223.841C131.444 225.125 132.379 226.531 133.142 228.03C134.237 230.192 134.928 232.536 135.18 234.947C135.31 236.676 135.189 237.618 135.091 237.618Z" fill="black"/>
</g>
<g opacity="0.3">
<path d="M116.521 250.015L116.578 253.692L113.289 253.749L113.232 250.161C109.984 250.015 106.841 249.049 105.006 247.661L106.752 243.601C108.662 244.885 110.872 245.654 113.167 245.834L113.078 240.346C109.415 239.534 105.323 238.357 105.249 233.656C105.193 230.174 107.686 227.162 112.866 226.472L112.81 222.818L116.098 222.77L116.155 226.35C118.507 226.446 120.803 227.097 122.855 228.249L121.279 232.309C119.717 231.438 117.998 230.886 116.22 230.685L116.31 236.27C119.972 237.082 124 238.227 124.073 242.854C124.13 246.329 121.677 249.325 116.521 250.015ZM113.005 235.532L112.931 230.864C111.194 231.286 110.495 232.252 110.536 233.34C110.576 234.428 111.551 235.118 113.005 235.548V235.532ZM118.786 243.366C118.786 242.221 117.804 241.612 116.35 241.133L116.423 245.672C118.096 245.306 118.803 244.438 118.786 243.382V243.366Z" fill="black"/>
</g>
<path d="M99.1013 198.738H67.0742V270.31H99.1013V198.738Z" fill="white"/>
<path d="M276.859 231.129C278.154 236.849 277.723 242.826 275.619 248.301C273.515 253.776 269.833 258.504 265.04 261.887C260.247 265.269 254.558 267.154 248.693 267.302C242.828 267.451 237.05 265.856 232.092 262.72C227.134 259.584 223.218 255.048 220.84 249.686C218.462 244.325 217.728 238.378 218.732 232.599C219.736 226.82 222.433 221.469 226.481 217.223C230.528 212.977 235.745 210.027 241.47 208.746C245.264 207.892 249.189 207.794 253.021 208.457C256.852 209.119 260.516 210.53 263.802 212.609C267.089 214.687 269.933 217.393 272.173 220.57C274.414 223.748 276.006 227.336 276.859 231.129Z" fill="#01A657"/>
<path d="M270.833 232.788C271.821 237.147 271.493 241.701 269.891 245.874C268.288 250.046 265.484 253.65 261.832 256.228C258.18 258.806 253.846 260.243 249.376 260.357C244.907 260.471 240.505 259.257 236.726 256.868C232.948 254.48 229.963 251.024 228.15 246.938C226.337 242.853 225.777 238.322 226.542 233.918C227.306 229.514 229.36 225.436 232.444 222.2C235.527 218.964 239.502 216.716 243.865 215.739C246.755 215.088 249.746 215.012 252.665 215.517C255.585 216.021 258.377 217.096 260.881 218.679C263.386 220.262 265.553 222.323 267.261 224.744C268.968 227.165 270.182 229.898 270.833 232.788Z" fill="#01A657"/>
<path d="M269.972 232.664C269.921 232.554 269.88 232.44 269.851 232.323L269.542 231.292L269.323 230.537C269.225 230.261 269.096 229.968 268.974 229.652C268.699 228.91 268.374 228.189 267.999 227.492C267.017 225.555 265.75 223.776 264.239 222.215C260.646 218.454 255.858 216.058 250.693 215.436C245.528 214.814 240.307 216.005 235.923 218.805C235.027 219.375 234.169 220.004 233.357 220.689C232.951 221.046 232.545 221.436 232.18 221.801C231.78 222.174 231.408 222.575 231.067 223.003C230.339 223.841 229.668 224.728 229.062 225.657C228.469 226.619 227.943 227.62 227.486 228.653C226.535 230.775 225.934 233.037 225.708 235.351C225.197 240.145 226.276 244.974 228.777 249.095C229.97 251.092 231.479 252.882 233.244 254.397C234.926 255.9 236.847 257.113 238.928 257.985C239.92 258.432 240.943 258.807 241.989 259.105C243.014 259.378 244.056 259.582 245.108 259.714C250.268 260.375 255.498 259.226 259.906 256.462C264.313 253.698 267.624 249.49 269.274 244.557C269.979 242.506 270.368 240.36 270.427 238.192C270.468 237.402 270.455 236.61 270.387 235.822C270.387 235.481 270.387 235.164 270.322 234.872C270.257 234.58 270.24 234.328 270.2 234.06C270.135 233.613 270.086 233.248 270.046 232.996C270.022 232.876 270.009 232.754 270.005 232.631C270.046 232.747 270.076 232.867 270.094 232.988C270.143 233.248 270.208 233.597 270.297 234.044C270.335 234.282 270.384 234.552 270.444 234.856C270.444 235.148 270.492 235.464 270.525 235.814C270.612 236.606 270.639 237.404 270.606 238.2C270.581 240.392 270.217 242.566 269.526 244.646C268.525 247.707 266.886 250.52 264.716 252.899C262.546 255.278 259.895 257.17 256.939 258.448C253.2 260.056 249.097 260.633 245.059 260.12C243.982 259.992 242.916 259.788 241.868 259.511C240.8 259.206 239.755 258.826 238.741 258.375C237.706 257.919 236.703 257.395 235.737 256.808C234.769 256.176 233.847 255.479 232.976 254.721C231.168 253.182 229.626 251.355 228.412 249.314C227.166 247.211 226.246 244.931 225.683 242.552C225.179 240.151 225.04 237.688 225.269 235.245C225.504 232.883 226.121 230.574 227.096 228.41C227.566 227.353 228.109 226.33 228.721 225.349C229.346 224.407 230.032 223.506 230.775 222.654C231.124 222.218 231.504 221.809 231.912 221.428C232.318 221.054 232.724 220.656 233.114 220.299C233.941 219.598 234.817 218.958 235.737 218.383C239.175 216.202 243.133 214.977 247.203 214.836C250.425 214.734 253.632 215.318 256.612 216.549C259.591 217.781 262.274 219.632 264.483 221.98C265.995 223.566 267.252 225.376 268.21 227.346C268.577 228.056 268.891 228.791 269.152 229.546C269.274 229.871 269.396 230.163 269.485 230.439C269.575 230.715 269.623 230.975 269.68 231.251L269.948 232.29C269.968 232.414 269.976 232.539 269.972 232.664Z" fill="#263238"/>
<g opacity="0.3">
<path d="M269.851 232.965C269.721 232.965 269.413 232.048 268.682 230.44C267.655 228.179 266.285 226.09 264.622 224.246C263.485 222.995 262.216 221.871 260.837 220.893C259.254 219.784 257.535 218.884 255.722 218.214C253.729 217.475 251.639 217.035 249.518 216.907C248.403 216.834 247.284 216.85 246.172 216.955C245.036 217.068 243.91 217.264 242.802 217.54C241.694 217.835 240.608 218.209 239.554 218.66C238.526 219.107 237.535 219.634 236.59 220.235C234.795 221.375 233.176 222.77 231.782 224.376C230.517 225.835 229.447 227.454 228.599 229.19C227.861 230.712 227.289 232.31 226.894 233.955C226.339 236.371 226.155 238.856 226.35 241.327C226.488 243.089 226.675 244.063 226.537 244.095C226.399 244.128 226.033 243.202 225.725 241.408C225.245 238.862 225.245 236.249 225.725 233.704C226.431 229.887 228.109 226.316 230.597 223.337C231.308 222.467 232.085 221.653 232.919 220.901C233.787 220.119 234.716 219.408 235.697 218.774C236.71 218.116 237.774 217.54 238.88 217.053C240.022 216.558 241.2 216.15 242.404 215.835C243.609 215.529 244.836 215.317 246.074 215.202C247.277 215.105 248.486 215.105 249.688 215.202C250.853 215.282 252.01 215.456 253.147 215.721C254.238 215.967 255.308 216.298 256.347 216.712C258.268 217.467 260.079 218.478 261.731 219.716C263.161 220.802 264.461 222.049 265.604 223.434C267.251 225.436 268.517 227.722 269.34 230.18C269.859 231.91 269.949 232.916 269.851 232.965Z" fill="black"/>
</g>
<g opacity="0.3">
<path d="M253.357 250.183L254.275 254.015L250.856 254.827L249.963 251.108C246.528 251.709 243.036 251.425 240.803 250.402L241.688 245.791C243.978 246.68 246.46 246.959 248.891 246.603L247.527 240.92C243.515 240.92 238.976 240.652 237.782 235.765C236.921 232.144 238.805 228.409 244.059 226.502L243.15 222.71L246.568 221.898L247.462 225.625C249.937 225.176 252.484 225.32 254.892 226.047L254.194 230.658C252.352 230.108 250.42 229.929 248.509 230.13L249.898 235.943C253.909 235.943 258.376 236.195 259.529 241.009C260.438 244.557 258.571 248.259 253.357 250.183ZM246.333 235.903L245.172 231.032C243.458 231.843 242.979 233.037 243.247 234.157C243.515 235.278 244.717 235.789 246.341 235.903H246.333ZM254.169 242.706C253.885 241.512 252.732 241.082 251.14 240.936L252.269 245.653C253.909 244.89 254.445 243.826 254.169 242.706Z" fill="black"/>
</g>
<path d="M212.845 218.157C210.998 222.063 208.401 225.567 205.2 228.469C201.999 231.371 198.257 233.615 194.189 235.071C190.121 236.527 185.806 237.169 181.49 236.958C177.174 236.747 172.942 235.688 169.035 233.842C167.284 233.017 165.607 232.042 164.025 230.928C158.931 227.301 154.978 222.298 152.628 216.505C150.279 210.711 149.63 204.369 150.759 198.22C151.887 192.071 154.746 186.372 159 181.79C163.254 177.208 168.727 173.934 174.776 172.352C180.825 170.769 187.2 170.944 193.154 172.856C199.107 174.768 204.392 178.337 208.388 183.145C212.384 187.954 214.926 193.801 215.715 200.003C216.505 206.204 215.509 212.502 212.845 218.157Z" fill="#01A657"/>
<path d="M206.431 215.511C204.323 220.007 200.929 223.777 196.678 226.344C192.426 228.911 187.509 230.159 182.548 229.931C177.587 229.703 172.805 228.008 168.807 225.062C164.81 222.115 161.776 218.05 160.091 213.379C158.406 208.709 158.144 203.643 159.339 198.824C160.535 194.005 163.133 189.648 166.806 186.306C170.479 182.964 175.061 180.786 179.972 180.048C184.883 179.31 189.903 180.046 194.396 182.161C197.377 183.56 200.054 185.533 202.272 187.966C204.491 190.399 206.208 193.246 207.325 196.343C208.443 199.44 208.939 202.727 208.786 206.016C208.632 209.305 207.832 212.532 206.431 215.511Z" fill="#01A657"/>
<path d="M205.756 214.811C205.793 214.682 205.836 214.554 205.886 214.43C205.992 214.154 206.138 213.788 206.317 213.317L206.642 212.506C206.739 212.205 206.828 211.856 206.934 211.491C207.203 210.655 207.409 209.8 207.551 208.934C208.016 206.568 208.117 204.145 207.852 201.749C207.267 195.996 204.7 190.626 200.591 186.557C196.481 182.489 191.085 179.975 185.325 179.448C184.149 179.333 182.966 179.301 181.785 179.35C181.192 179.35 180.599 179.472 179.998 179.529C179.394 179.581 178.794 179.679 178.204 179.821C175.746 180.266 173.38 181.12 171.204 182.346C168.921 183.557 166.851 185.131 165.073 187.006C161.357 190.867 159.012 195.841 158.398 201.164C158.084 203.729 158.189 206.329 158.706 208.86C159.148 211.316 159.996 213.682 161.216 215.859C161.781 216.927 162.424 217.953 163.14 218.927C163.854 219.866 164.63 220.756 165.463 221.59C168.603 224.744 172.527 227.005 176.831 228.142C180.246 229.032 183.81 229.192 187.29 228.61C190.77 228.028 194.088 226.718 197.027 224.764C199.045 223.441 200.852 221.821 202.386 219.958C202.961 219.293 203.488 218.588 203.962 217.848C204.181 217.531 204.392 217.247 204.555 216.979L204.985 216.208L205.57 215.168C205.63 215.046 205.701 214.93 205.781 214.819C205.737 214.948 205.683 215.073 205.618 215.193C205.48 215.453 205.302 215.81 205.074 216.256L204.668 217.068C204.506 217.344 204.303 217.636 204.092 217.961C203.629 218.716 203.11 219.435 202.541 220.113C201.023 222.017 199.221 223.677 197.197 225.032C194.231 227.043 190.871 228.4 187.34 229.013C183.809 229.626 180.188 229.481 176.718 228.588C173.337 227.732 170.174 226.177 167.43 224.026C164.686 221.874 162.423 219.172 160.785 216.094C160.188 214.985 159.664 213.838 159.218 212.66C158.798 211.448 158.461 210.208 158.211 208.95C157.682 206.367 157.575 203.716 157.894 201.099C158.526 195.661 160.921 190.58 164.716 186.632C166.532 184.721 168.646 183.117 170.976 181.883C172.104 181.261 173.273 180.718 174.476 180.259C175.67 179.857 176.888 179.532 178.123 179.285C178.724 179.144 179.334 179.046 179.95 178.993C180.567 178.936 181.176 178.847 181.777 178.822C187.525 178.587 193.187 180.279 197.863 183.629C200.762 185.735 203.179 188.433 204.954 191.545C206.729 194.656 207.822 198.11 208.16 201.676C208.406 204.101 208.274 206.549 207.77 208.934C207.614 209.804 207.391 210.662 207.104 211.499C206.983 211.864 206.893 212.205 206.78 212.514C206.666 212.822 206.536 213.082 206.43 213.326L205.951 214.422C205.905 214.56 205.839 214.691 205.756 214.811Z" fill="#263238"/>
<g opacity="0.3">
<path d="M205.447 214.969C205.309 214.912 205.683 213.873 206.138 211.965C206.786 209.289 207.017 206.528 206.82 203.782C206.678 201.907 206.332 200.053 205.789 198.253C205.158 196.201 204.265 194.239 203.133 192.416C202.524 191.433 201.843 190.497 201.095 189.615C200.321 188.696 199.479 187.836 198.578 187.041C197.645 186.217 196.648 185.468 195.597 184.801C193.433 183.426 191.065 182.401 188.581 181.765C185.077 180.873 181.417 180.776 177.87 181.48C175.764 181.904 173.72 182.594 171.788 183.534C170.102 184.369 168.512 185.384 167.046 186.562C164.908 188.3 163.051 190.356 161.54 192.659C160.46 194.283 159.957 195.282 159.819 195.217C159.681 195.152 159.989 194.088 160.899 192.278C162.231 189.725 164.02 187.439 166.177 185.531C167.661 184.207 169.297 183.063 171.049 182.122C173.08 181.046 175.246 180.249 177.489 179.751C178.7 179.482 179.929 179.306 181.167 179.223C183.805 179.043 186.454 179.275 189.02 179.914C191.705 180.578 194.264 181.675 196.596 183.161C197.725 183.884 198.792 184.699 199.788 185.596C201.678 187.292 203.299 189.266 204.595 191.45C206.799 195.139 208.018 199.332 208.135 203.627C208.222 206.504 207.776 209.372 206.82 212.087C206.178 214.076 205.569 215.017 205.447 214.969Z" fill="black"/>
</g>
<g opacity="0.3">
<path d="M179.234 218.872L177.423 222.85L173.874 221.227L175.629 217.354C172.21 215.544 169.327 212.905 168.068 210.494L171.991 207.044C173.382 209.404 175.363 211.363 177.74 212.727L180.436 206.792C176.928 204.04 173.127 200.728 175.417 195.637C177.131 191.87 181.337 189.881 187.241 191.789L189.035 187.844L192.592 189.467L190.83 193.316C193.313 194.606 195.451 196.471 197.067 198.755L193.307 202.319C192.074 200.59 190.509 199.124 188.702 198.008L185.958 204.048C189.49 206.76 193.226 210.048 190.952 215.057C189.279 218.759 185.146 220.731 179.234 218.872ZM182.807 201.548L185.097 196.498C183.018 196.068 181.808 196.766 181.272 197.935C180.736 199.104 181.467 200.338 182.807 201.548ZM185.04 212.913C185.6 211.671 184.878 210.527 183.587 209.301L181.362 214.172C183.319 214.594 184.52 214.026 185.04 212.889V212.913Z" fill="black"/>
</g>
<path d="M346.898 245.812H220.479C216.949 245.812 214.088 248.673 214.088 252.202V338.33C214.088 341.858 216.949 344.719 220.479 344.719H346.898C350.428 344.719 353.289 341.858 353.289 338.33V252.202C353.289 248.673 350.428 245.812 346.898 245.812Z" fill="#455A64"/>
<path d="M351.234 286.184H315.203C309.225 286.184 304.379 291.029 304.379 297.005V298.783C304.379 304.76 309.225 309.605 315.203 309.605H351.234C357.212 309.605 362.059 304.76 362.059 298.783V297.005C362.059 291.029 357.212 286.184 351.234 286.184Z" fill="#455A64"/>
<path d="M351.242 310.011H315.211C312.232 310.006 309.376 308.821 307.269 306.715C305.162 304.609 303.977 301.754 303.973 298.775V297.005C303.977 294.027 305.163 291.173 307.27 289.068C309.377 286.963 312.233 285.779 315.211 285.777H351.242C354.219 285.782 357.073 286.966 359.178 289.071C361.284 291.175 362.468 294.029 362.472 297.005V298.775C362.468 301.752 361.284 304.606 359.179 306.712C357.074 308.818 354.22 310.004 351.242 310.011ZM315.211 286.589C312.448 286.591 309.799 287.689 307.844 289.642C305.889 291.594 304.789 294.243 304.785 297.005V298.775C304.787 301.539 305.886 304.189 307.841 306.143C309.796 308.098 312.447 309.197 315.211 309.199H351.242C354.005 309.195 356.654 308.095 358.607 306.141C360.56 304.186 361.658 301.537 361.66 298.775V297.005C361.656 294.244 360.557 291.597 358.604 289.645C356.651 287.692 354.004 286.593 351.242 286.589H315.211Z" fill="#263238"/>
<path d="M324.116 302.643C326.76 298.884 325.856 293.693 322.096 291.049C318.336 288.405 313.144 289.309 310.499 293.069C307.855 296.828 308.759 302.018 312.519 304.662C316.279 307.306 321.471 306.402 324.116 302.643Z" fill="#263238"/>
<path d="M307.172 66.8008C307.074 71.0842 307.886 75.3396 309.555 79.286C311.223 83.2325 313.71 86.7801 316.852 89.6946C318.286 85.5164 319.729 81.3381 321.18 77.1598" fill="#263238"/>
<path d="M339.792 41.8686C336.073 39.839 331.591 39.5468 327.441 40.383C323.308 41.3408 319.361 42.9699 315.756 45.2053C313.639 46.2992 311.744 47.7776 310.169 49.5649C307.473 52.9583 304.809 58.4951 304.549 62.8547C304.338 66.3537 305.678 75.1053 307.156 78.2796C308.512 81.1941 314.862 83.4104 317.997 84.133L346.743 50.6933C346.227 48.8356 345.346 47.0989 344.153 45.5841C342.96 44.0692 341.477 42.8063 339.792 41.8686Z" fill="#263238"/>
<path d="M344.746 46.3824L337.852 45.1484C341.619 54.0787 342.643 74.6426 344.803 84.1167C347.344 80.4228 353.248 69.1951 352.923 64.73C352.598 60.2649 352.939 45.6193 344.746 46.3824Z" fill="#263238"/>
<path d="M348.692 61.011C348.246 54.1266 343.658 45.6835 336.796 46.3979L320.92 50.4571C318.476 51.0781 316.295 52.4668 314.699 54.4193C313.102 56.3717 312.175 58.7846 312.053 61.3033C312.053 61.5631 312.053 61.2465 312.053 61.4413L315.601 102.553L327.522 126.202L338.079 106.255C338.079 102.902 338.079 95.3762 338.079 95.3924C338.079 95.4087 346.881 93.9149 348.635 82.403C349.496 76.7364 349.18 68.6586 348.692 61.011Z" fill="#FFBF9D"/>
<path d="M343.772 70.4284C343.778 70.8127 343.634 71.1843 343.37 71.4635C343.106 71.7427 342.743 71.9074 342.359 71.9222C342.171 71.9366 341.983 71.9136 341.805 71.8547C341.626 71.7958 341.461 71.7021 341.319 71.5791C341.177 71.456 341.061 71.306 340.977 71.1378C340.894 70.9695 340.844 70.7864 340.832 70.5989C340.83 70.2145 340.976 69.8441 341.241 69.5655C341.506 69.2869 341.869 69.1219 342.253 69.1051C342.44 69.0919 342.627 69.1156 342.805 69.1751C342.982 69.2345 343.146 69.3283 343.287 69.4513C343.429 69.5743 343.544 69.7239 343.627 69.8916C343.71 70.0593 343.759 70.2417 343.772 70.4284Z" fill="#263238"/>
<path d="M346.972 65.508C346.785 65.7029 345.673 64.8748 344.081 64.8829C342.489 64.891 341.336 65.6947 341.166 65.4918C340.995 65.2888 341.271 65.0615 341.775 64.6799C342.457 64.2001 343.271 63.9447 344.105 63.9493C344.93 63.9462 345.735 64.2049 346.403 64.6881C346.891 65.0777 347.061 65.4187 346.972 65.508Z" fill="#263238"/>
<path d="M330.502 70.4296C330.509 70.8139 330.365 71.1855 330.1 71.4647C329.836 71.7439 329.473 71.9086 329.089 71.9234C328.902 71.9378 328.713 71.9148 328.535 71.8559C328.357 71.797 328.192 71.7034 328.05 71.5803C327.908 71.4572 327.791 71.3072 327.708 71.139C327.624 70.9707 327.575 70.7876 327.563 70.6001C327.56 70.2157 327.707 69.8453 327.972 69.5667C328.237 69.2882 328.599 69.1231 328.984 69.1063C329.171 69.0909 329.359 69.1131 329.538 69.1716C329.716 69.2302 329.881 69.3239 330.022 69.4473C330.164 69.5707 330.279 69.7212 330.362 69.8899C330.444 70.0586 330.492 70.2422 330.502 70.4296Z" fill="#263238"/>
<path d="M331.916 65.5081C331.737 65.7029 330.616 64.8748 329.033 64.8829C327.449 64.8911 326.288 65.6948 326.118 65.4918C325.947 65.2889 326.215 65.0615 326.727 64.68C327.408 64.1987 328.223 63.9431 329.057 63.9493C329.882 63.9463 330.687 64.2049 331.355 64.6881C331.843 65.0778 332.005 65.4188 331.916 65.5081Z" fill="#263238"/>
<path d="M336.87 77.9553C337.704 77.6896 338.569 77.5314 339.444 77.4844C339.85 77.4844 340.256 77.3627 340.256 77.0866C340.292 76.6682 340.198 76.2488 339.988 75.8851C339.606 74.9109 339.176 73.8799 338.786 72.8082C337.113 68.4243 335.903 64.8197 336.082 64.7548C336.261 64.6899 337.812 68.1645 339.436 72.5728C339.834 73.6526 340.248 74.6836 340.589 75.6659C340.851 76.1647 340.925 76.7405 340.8 77.2896C340.741 77.4322 340.65 77.5596 340.535 77.6622C340.42 77.7649 340.283 77.8401 340.134 77.8822C339.911 77.942 339.682 77.9747 339.452 77.9797C338.594 78.0787 337.726 78.0705 336.87 77.9553Z" fill="#263238"/>
<path d="M322.781 91.3242C322.781 91.3242 326.517 99.2072 338.007 98.1112V95.4078C332.651 95.4865 327.379 94.0725 322.781 91.3242Z" fill="#FF9A6C"/>
<path d="M331.42 59.7848C331.266 60.2151 329.683 60.0121 327.823 60.2394C325.963 60.4667 324.461 60.9782 324.217 60.5966C324.104 60.4099 324.364 60.004 324.973 59.5899C325.775 59.0651 326.691 58.7394 327.644 58.6401C328.596 58.5278 329.561 58.639 330.462 58.9648C331.144 59.2327 331.485 59.5818 331.42 59.7848Z" fill="#263238"/>
<path d="M346.452 60.6635C346.176 61.0289 345.08 60.6635 343.773 60.6635C342.465 60.6635 341.336 60.9071 341.085 60.5336C340.979 60.355 341.15 59.9897 341.637 59.6487C342.289 59.2407 343.047 59.0346 343.815 59.0562C344.584 59.0779 345.329 59.3264 345.957 59.7705C346.42 60.1196 346.574 60.4849 346.452 60.6635Z" fill="#263238"/>
<path d="M345.574 50.5297C345.167 49.6859 344.535 48.9714 343.746 48.4655C342.958 47.9596 342.045 47.6821 341.108 47.6639C339.231 47.6664 337.395 48.2044 335.813 49.2145C328.976 53.16 325.46 62.7072 318.703 66.7989C317.039 67.8056 314.879 66.8801 313.466 68.2115C312.053 69.5429 311.135 71.6781 311.915 73.456C310.948 72.2511 310.157 70.9143 309.568 69.4861C309.281 68.7695 309.149 67.9998 309.183 67.2285C309.216 66.4571 309.414 65.7018 309.763 65.0129C310.348 63.9981 311.387 63.2268 311.663 62.0902C311.915 61.0917 311.517 60.0525 311.557 59.0215C311.675 57.9755 312.037 56.9717 312.613 56.0907C315.26 51.4146 318.898 47.1605 323.592 44.5464C326.653 42.7804 330.136 41.8796 333.67 41.9404C337.216 42.0255 340.615 43.3761 343.252 45.7479C344.77 47.1605 346.354 48.6137 345.574 50.5297Z" fill="#263238"/>
<path d="M313.628 69.6431C313.506 69.3103 307.521 67.1508 307.44 73.5156C307.359 79.6937 313.604 78.484 313.62 78.3054C313.636 78.1268 313.628 69.6431 313.628 69.6431Z" fill="#FFBF9D"/>
<path d="M311.729 75.9416C311.729 75.9416 311.623 76.0147 311.436 76.0958C311.308 76.1503 311.17 76.1784 311.03 76.1784C310.891 76.1784 310.753 76.1503 310.624 76.0958C309.975 75.8523 309.431 74.8131 309.414 73.6603C309.405 73.1317 309.513 72.6077 309.731 72.126C309.791 71.9353 309.896 71.7619 310.038 71.6206C310.179 71.4793 310.352 71.3741 310.543 71.3141C310.667 71.2815 310.799 71.2937 310.915 71.3487C311.031 71.4037 311.123 71.4978 311.176 71.6145C311.258 71.785 311.176 71.9068 311.25 71.923C311.323 71.9392 311.379 71.8174 311.331 71.5658C311.303 71.4112 311.219 71.2723 311.095 71.1761C310.927 71.0464 310.714 70.9881 310.502 71.0137C310.248 71.0596 310.009 71.1704 309.81 71.3353C309.611 71.5003 309.458 71.7139 309.366 71.9555C309.094 72.4878 308.96 73.0794 308.976 73.6766C308.976 74.9268 309.634 76.1121 310.519 76.3638C310.685 76.4137 310.86 76.4257 311.032 76.399C311.203 76.3723 311.366 76.3076 311.509 76.2095C311.721 76.0877 311.753 75.9497 311.729 75.9416Z" fill="#FF9A6C"/>
<path d="M311.168 66.4607C311.299 66.4032 311.425 66.3325 311.542 66.2496C311.777 66.1035 312.142 65.9005 312.581 65.592C313.797 64.6996 314.915 63.6819 315.918 62.5557C317.371 60.8665 318.726 59.0965 319.979 57.2544C321.5 54.9964 323.209 52.87 325.086 50.8977C326.072 49.9145 327.161 49.0408 328.335 48.2917C329.451 47.6093 330.645 47.0641 331.891 46.668C334.005 45.9843 336.229 45.7088 338.445 45.8562C339.938 45.934 341.415 46.2069 342.838 46.668C343.341 46.8223 343.723 47.0009 343.983 47.0983C344.114 47.1558 344.25 47.202 344.389 47.2363L344.007 47.0415C343.637 46.8639 343.258 46.7067 342.87 46.5706C341.453 46.046 339.968 45.7235 338.461 45.6126C336.219 45.4362 333.964 45.6926 331.818 46.3677C330.548 46.7553 329.331 47.3008 328.197 47.9913C326.988 48.749 325.864 49.6335 324.843 50.6298C322.954 52.6114 321.242 54.7547 319.727 57.0352C318.479 58.8777 317.137 60.6552 315.707 62.3609C314.726 63.4883 313.638 64.5186 312.459 65.4378C312.037 65.7625 311.647 65.9736 311.452 66.1359C311.35 66.2375 311.255 66.346 311.168 66.4607Z" fill="#455A64"/>
<path d="M312.727 68.2138C312.629 69.9024 312.548 71.6803 313.328 73.1822C314.107 74.6841 316.081 75.7071 317.55 74.8628C318.744 74.1808 319.102 72.6464 319.305 71.2825C319.897 67.3451 320.165 63.359 320.782 59.4297L312.727 68.2138Z" fill="#263238"/>
<path d="M344.048 47.5831C344.048 47.5831 343.503 47.4857 342.513 47.4532C341.123 47.4274 339.742 47.6814 338.453 48.2001C337.553 48.5457 336.692 48.9866 335.886 49.5153C334.964 50.1354 334.08 50.8104 333.239 51.5368C331.298 53.1858 329.562 55.0609 328.066 57.1223C327.254 58.2264 326.589 59.3548 325.833 60.3696C325.12 61.3921 324.289 62.3267 323.357 63.1542C321.75 64.5121 319.995 65.6857 318.127 66.6532C316.503 67.4651 315.22 68.074 314.31 68.4799L313.255 68.9264C313.132 68.9839 313.004 69.0301 312.873 69.0644C312.873 69.0644 312.987 68.9832 313.222 68.8614L314.254 68.35C315.147 67.9116 316.454 67.2946 318.013 66.434C319.847 65.4491 321.568 64.2677 323.145 62.9107C324.065 62.0971 324.883 61.1758 325.582 60.1666C326.321 59.1275 327.019 57.9909 327.815 56.9193C329.324 54.832 331.089 52.942 333.069 51.2932C333.922 50.5641 334.823 49.8916 335.765 49.2799C336.591 48.7468 337.473 48.3058 338.396 47.9647C339.732 47.4609 341.159 47.2397 342.586 47.3152C342.971 47.3363 343.355 47.3906 343.731 47.4776C343.839 47.5027 343.946 47.5381 344.048 47.5831Z" fill="#455A64"/>
<path d="M312.557 64.3887C312.386 64.5314 312.201 64.6565 312.005 64.7621L310.438 65.6795L309.91 65.9799C309.703 66.1011 309.474 66.1785 309.236 66.2072C309.091 66.2221 308.945 66.1878 308.822 66.1098C308.757 66.067 308.701 66.0109 308.659 65.9451C308.617 65.8794 308.59 65.8054 308.578 65.7282C308.585 65.433 308.687 65.148 308.871 64.9164L310.69 62.0019L310.933 62.2373C310.333 62.6818 309.66 63.0171 308.944 63.2278C308.228 63.4407 307.481 63.5285 306.735 63.4876C306.544 63.4829 306.356 63.4501 306.175 63.3901C306.068 63.3612 305.969 63.308 305.886 63.2348C305.803 63.1616 305.738 63.0703 305.695 62.968C305.659 62.8638 305.649 62.7523 305.666 62.6433C305.683 62.5343 305.727 62.4311 305.793 62.3429C305.9 62.2046 306.019 62.0768 306.15 61.9613C306.963 61.1708 307.67 60.2785 308.253 59.3066C308.766 58.3891 309.214 57.4369 309.593 56.457C309.561 56.7345 309.496 57.007 309.398 57.2689C309.16 58.0129 308.847 58.7309 308.465 59.4121C307.899 60.4257 307.194 61.3549 306.369 62.1724C306.142 62.3916 305.915 62.6432 306.004 62.8381C306.093 63.0329 306.426 63.1304 306.751 63.1304C308.174 63.2032 309.579 62.7847 310.73 61.9451L311.469 61.4011L310.974 62.213L309.122 65.1031C308.978 65.2731 308.887 65.4822 308.862 65.7039C308.862 65.8825 309.017 65.9799 309.212 65.9637C309.609 65.8861 309.987 65.7316 310.324 65.509L311.948 64.6972C312.136 64.567 312.341 64.4632 312.557 64.3887Z" fill="#455A64"/>
<path d="M331.576 78.5079C331.827 78.5079 331.876 80.1316 333.33 81.2195C334.783 82.3073 336.578 82.1044 336.578 82.3317C336.578 82.4291 336.196 82.6564 335.449 82.697C334.486 82.7489 333.535 82.4617 332.761 81.8852C332.022 81.334 331.529 80.5148 331.389 79.6039C331.316 78.9057 331.462 78.4998 331.576 78.5079Z" fill="#263238"/>
<path d="M354.644 188.391L361.295 203.41L329.016 215.482L321.797 199.334L354.644 188.391Z" fill="#263238"/>
<path d="M419.869 279.777L428.696 298.831C428.696 298.831 450.743 295.909 452.716 299.278L416.678 318.056L401.695 288.935L419.869 279.777Z" fill="#455A64"/>
<path d="M416.937 302.9C416.641 303.188 416.46 303.574 416.43 303.986C416.4 304.398 416.523 304.806 416.775 305.133C417.051 305.438 417.433 305.627 417.843 305.662C418.253 305.696 418.66 305.574 418.984 305.32C419.298 305.016 419.488 304.606 419.518 304.17C419.548 303.733 419.416 303.302 419.146 302.957C418.826 302.666 418.406 302.509 417.973 302.52C417.541 302.531 417.129 302.708 416.824 303.014" fill="#E0E0E0"/>
<path d="M416.67 318.055L415.484 315.774L450.833 298.246C451.255 298.283 451.665 298.405 452.038 298.606C452.411 298.807 452.739 299.083 453.001 299.415L416.67 318.055Z" fill="#263238"/>
<path d="M429.093 298.782C429.174 298.96 428.321 299.496 427.737 300.511C427.152 301.526 427.063 302.524 426.86 302.54C426.657 302.557 426.397 301.379 427.136 300.162C427.875 298.944 429.044 298.595 429.093 298.782Z" fill="#263238"/>
<path d="M433.73 298.418C433.86 298.573 433.243 299.271 433.023 300.334C432.804 301.398 433.023 302.283 432.845 302.364C432.666 302.445 432.033 301.495 432.341 300.18C432.65 298.865 433.632 298.248 433.73 298.418Z" fill="#263238"/>
<path d="M438.246 301.911C438.108 302.024 437.434 301.261 437.361 300.051C437.288 298.842 437.962 298.022 438.116 298.136C438.27 298.249 438.019 299.029 438.059 300.027C438.1 301.026 438.417 301.797 438.246 301.911Z" fill="#263238"/>
<path d="M426.577 294.668C426.577 294.863 425.643 295.034 424.668 295.618C423.694 296.203 423.044 296.917 422.89 296.811C422.736 296.706 423.158 295.683 424.311 295.017C425.464 294.352 426.593 294.449 426.577 294.668Z" fill="#263238"/>
<path d="M425.179 290.268C425.179 290.341 424.57 290.812 423.344 291.193C422.624 291.412 421.879 291.54 421.127 291.575C420.684 291.607 420.239 291.607 419.796 291.575C419.519 291.568 419.245 291.518 418.984 291.429C418.801 291.362 418.645 291.237 418.542 291.072C418.439 290.907 418.394 290.713 418.415 290.519C418.441 290.348 418.506 290.186 418.607 290.045C418.707 289.904 418.839 289.788 418.992 289.708C419.221 289.588 419.468 289.503 419.722 289.456C420.163 289.356 420.611 289.294 421.062 289.269C421.823 289.235 422.585 289.32 423.32 289.521C424.562 289.878 425.196 290.398 425.147 290.463C425.098 290.527 424.4 290.211 423.206 290C422.512 289.881 421.805 289.851 421.103 289.91C420.695 289.947 420.29 290.018 419.893 290.122C419.446 290.211 419.081 290.381 419.081 290.601C419.081 290.69 419.081 290.714 419.227 290.787C419.411 290.849 419.602 290.885 419.796 290.893C420.211 290.938 420.628 290.96 421.046 290.958C421.755 290.948 422.462 290.874 423.157 290.739C423.819 290.533 424.495 290.376 425.179 290.268Z" fill="#263238"/>
<path d="M385.576 310.394L384.455 331.364C384.455 331.364 405.301 339.101 405.471 342.998L364.828 342.73L365.226 309.988L385.576 310.394Z" fill="#455A64"/>
<path d="M372.16 329.461C371.762 329.572 371.419 329.827 371.198 330.177C370.977 330.527 370.895 330.946 370.967 331.353C371.069 331.752 371.318 332.096 371.665 332.318C372.012 332.539 372.43 332.621 372.834 332.546C373.255 332.425 373.615 332.152 373.846 331.78C374.077 331.408 374.162 330.964 374.085 330.533C373.939 330.126 373.641 329.792 373.253 329.601C372.865 329.41 372.417 329.377 372.006 329.51" fill="#E0E0E0"/>
<path d="M364.828 342.727V340.121L404.269 341.168C404.625 341.398 404.931 341.698 405.167 342.05C405.403 342.401 405.564 342.798 405.642 343.214L364.828 342.727Z" fill="#263238"/>
<path d="M384.821 331.499C384.821 331.702 383.814 331.775 382.815 332.4C381.817 333.025 381.281 333.861 381.094 333.78C380.907 333.699 381.232 332.546 382.45 331.807C383.668 331.068 384.911 331.32 384.821 331.499Z" fill="#263238"/>
<path d="M389.099 333.35C389.14 333.553 388.287 333.878 387.573 334.714C386.858 335.55 386.663 336.435 386.46 336.427C386.257 336.419 386.16 335.283 387.037 334.26C387.914 333.237 389.099 333.164 389.099 333.35Z" fill="#263238"/>
<path d="M391.455 338.547C391.268 338.588 391.008 337.581 391.544 336.493C392.08 335.405 393.022 334.983 393.103 335.154C393.184 335.324 392.591 335.901 392.169 336.777C391.747 337.654 391.649 338.507 391.455 338.547Z" fill="#263238"/>
<path d="M384.544 326.66C384.455 326.839 383.545 326.546 382.408 326.603C381.271 326.66 380.386 327.001 380.289 326.83C380.191 326.66 381.044 325.954 382.384 325.905C383.724 325.856 384.649 326.506 384.544 326.66Z" fill="#263238"/>
<path d="M385.356 322.155C384.679 322.321 383.97 322.304 383.301 322.107C382.561 321.961 381.841 321.727 381.158 321.409C380.754 321.219 380.363 321.002 379.988 320.759C379.76 320.628 379.554 320.461 379.379 320.264C379.251 320.12 379.173 319.937 379.16 319.745C379.147 319.552 379.198 319.361 379.306 319.2C379.409 319.063 379.543 318.951 379.697 318.874C379.85 318.797 380.019 318.755 380.191 318.754C380.453 318.761 380.712 318.802 380.963 318.876C382.138 319.197 383.215 319.805 384.097 320.645C385.031 321.547 385.348 322.269 385.275 322.334C385.202 322.399 384.731 321.766 383.772 321.019C383.216 320.589 382.608 320.232 381.961 319.955C381.581 319.794 381.187 319.667 380.784 319.574C380.354 319.452 379.972 319.444 379.866 319.631C379.761 319.817 379.818 319.736 379.907 319.866C380.043 320.004 380.196 320.124 380.362 320.223C380.707 320.456 381.065 320.67 381.434 320.865C382.066 321.193 382.727 321.465 383.407 321.677C384.067 321.788 384.719 321.948 385.356 322.155Z" fill="#263238"/>
<path d="M292.621 209.724C292.621 209.724 374.061 199.527 378.86 199.527C390.124 199.527 397.197 208.108 398.877 214.733C400.12 219.604 425.188 290.437 425.188 290.437L406.697 300.017L379.502 251.704L365.64 227.601L294.18 238.634L292.621 209.724Z" fill="#263238"/>
<path d="M369.002 225.378C369.002 225.378 380.167 225.378 386.193 234.309C389.733 239.561 388.491 248.922 388.564 256.009C388.661 265.646 386.331 324.358 386.331 324.358L363.504 324.739L358.721 263.551L358.997 252.242L313.45 248.524C313.45 248.524 309.3 234.723 319.508 223.812C320.758 222.415 369.002 225.378 369.002 225.378Z" fill="#263238"/>
<path d="M299.581 190.039C299.581 190.039 281.577 217.739 292.621 238.555C297.883 248.467 313.629 248.459 313.629 248.459L329.781 228.244V194.813L299.581 190.039Z" fill="#263238"/>
<path d="M313.629 248.456C313.727 248.393 313.83 248.338 313.937 248.293L314.847 247.871L318.355 246.247L331.348 240.475L350.585 231.975L361.954 226.966C362.953 226.552 363.911 226.057 364.967 225.7C366.024 225.335 367.11 225.064 368.215 224.888C370.469 224.552 372.76 224.533 375.02 224.831C377.288 225.1 379.499 225.725 381.573 226.682C382.591 227.162 383.537 227.782 384.383 228.525C385.205 229.274 385.904 230.148 386.453 231.115C387.528 232.983 388.18 235.064 388.362 237.212C388.451 238.267 388.362 239.282 388.362 240.297C388.362 241.311 388.362 242.31 388.362 243.3C388.264 251.216 388.183 258.336 388.118 264.327C388.053 270.319 387.964 275.133 387.915 278.502C387.915 280.126 387.858 281.449 387.842 282.358C387.842 282.78 387.842 283.113 387.842 283.357C387.851 283.47 387.851 283.584 387.842 283.698C387.835 283.584 387.835 283.47 387.842 283.357C387.842 283.113 387.842 282.78 387.842 282.358C387.842 281.449 387.842 280.158 387.842 278.502C387.842 275.133 387.842 270.294 387.899 264.327C387.956 258.36 387.988 251.208 388.045 243.3C388.045 242.31 388.045 241.311 388.045 240.297C388.045 239.282 388.094 238.251 388.004 237.244C387.828 235.164 387.193 233.148 386.145 231.342C385.62 230.414 384.951 229.576 384.163 228.858C383.349 228.144 382.435 227.55 381.451 227.096C379.424 226.159 377.262 225.545 375.044 225.278C372.827 224.988 370.581 225.007 368.369 225.334C367.292 225.513 366.232 225.785 365.202 226.146C364.187 226.495 363.204 226.958 362.214 227.405L350.845 232.389L331.575 240.8L318.582 246.434L315.034 247.944L314.108 248.326C313.956 248.395 313.795 248.438 313.629 248.456Z" fill="#455A64"/>
<path d="M377.253 199.529C377.253 199.642 360.16 201.566 339.047 203.823C317.933 206.08 300.807 207.818 300.791 207.704C300.775 207.59 317.885 205.666 338.998 203.409C360.111 201.152 377.237 199.415 377.253 199.529Z" fill="#455A64"/>
<path d="M357.121 159.17C358.445 154.957 363.073 139.451 362.034 131.276C361.222 124.781 355.351 116.386 353.605 111.921C352.793 109.819 346.207 107.651 342.285 106.49L338.387 101.887L338.062 104.136C336.913 105.449 335.474 106.477 333.859 107.138C332.244 107.799 330.497 108.075 328.756 107.943C322.966 107.424 318.2 105.061 315.057 101.57C300.018 106.157 300.067 107.18 297.192 108.325C293.473 109.802 304.598 145.434 304.598 145.434C304.598 145.434 308.585 167.816 304.833 175.358C302.722 179.604 300.278 184.451 298.483 188.397C298.483 188.397 293.481 197.928 294.553 197.684C296.802 197.164 312.418 200.931 327.092 201.743C354.222 203.172 359.411 199.153 359.411 199.153C357.99 192.212 355.611 167.881 355.619 163.156C355.603 162.336 356.886 159.901 357.121 159.17Z" fill="#01A657"/>
<path d="M338.867 103C338.867 103 356.545 107.554 358.275 109.909C362.977 116.298 391.301 160.015 377.399 173.054C368.288 181.594 355.474 163.571 355.474 163.571L338.867 103Z" fill="#01A657"/>
<path d="M375.702 154.485C375.282 154.449 374.867 154.378 374.459 154.274L371.073 153.576C368.19 152.992 364.154 152.164 359.526 151.498L359.769 151.36L358.381 154.786L355.084 162.831V162.628L360.2 168.766L361.621 170.519C361.798 170.721 361.955 170.938 362.092 171.169C362.092 171.169 363.399 171.77 361.523 170.6L360.005 168.92L354.759 162.888L354.678 162.791L354.726 162.685L357.975 154.615C358.454 153.446 358.925 152.302 359.371 151.198L359.436 151.035H359.623C364.276 151.725 368.304 152.602 371.17 153.268C372.608 153.601 373.745 153.885 374.532 154.08C374.931 154.186 375.322 154.322 375.702 154.485Z" fill="#263238"/>
<path d="M358.697 152.435C358.699 151.953 358.742 151.472 358.827 150.998C358.957 150.007 359.119 148.692 359.322 147.109C359.928 142.856 360.073 138.55 359.752 134.266C359.312 129.979 358.072 125.813 356.098 121.982C355.359 120.505 354.685 119.336 354.214 118.532C353.949 118.127 353.713 117.704 353.508 117.266C353.508 117.266 353.605 117.363 353.751 117.558C353.898 117.753 354.109 118.053 354.369 118.443C354.888 119.255 355.603 120.367 356.391 121.844C358.47 125.678 359.768 129.886 360.207 134.225C360.533 138.54 360.342 142.879 359.639 147.149C359.403 148.773 359.168 150.113 359.005 151.022C358.94 151.5 358.837 151.973 358.697 152.435Z" fill="#263238"/>
<g opacity="0.3">
<path d="M300.791 185.068L334.255 169.643L331.99 163.026L337.138 161.061L345.527 162.157C347.601 162.431 349.711 162.223 351.693 161.55C353.674 160.878 355.474 159.757 356.952 158.277L336.107 153.008L312.33 158.074L306.289 140.562L304.794 145.693L306.037 156.71L306.849 168.612L300.791 185.068Z" fill="black"/>
</g>
<path d="M297.599 108.148C295.537 109.051 293.701 110.399 292.221 112.094C290.741 113.79 289.655 115.791 289.04 117.955C287.89 120.518 287.019 123.196 286.441 125.944C283.623 138.365 277.509 161.665 277.281 167.884C276.843 179.071 285.743 182.245 290.55 183.219C295.357 184.193 328.716 166.934 328.716 166.934L321.781 148.091L301.391 156.526C301.391 156.526 306.044 142.156 307.392 136.279C308.74 130.401 297.599 108.148 297.599 108.148Z" fill="#01A657"/>
<path d="M359.648 149.283C359.242 147.438 359.178 145.534 359.461 143.665C359.696 142.544 359.737 141.391 359.583 140.256C359.371 139.143 358.332 137.966 357.203 138.056L355.498 146.247L359.648 149.283Z" fill="#FFBF9D"/>
<path d="M358.859 130.058L352.858 159.009L338.623 158.148L342.838 129.506C342.892 129.141 343.077 128.808 343.357 128.568C343.637 128.328 343.995 128.197 344.364 128.199H357.357C357.586 128.199 357.813 128.25 358.02 128.349C358.227 128.447 358.409 128.591 358.553 128.769C358.697 128.948 358.8 129.156 358.852 129.379C358.905 129.602 358.908 129.834 358.859 130.058Z" fill="#263238"/>
<path d="M342.854 137.583C342.951 137.32 343.024 137.048 343.073 136.771C343.195 136.162 343.357 135.375 343.552 134.425L344.226 130.95C344.226 130.788 344.283 130.609 344.323 130.479C344.377 130.339 344.463 130.214 344.575 130.114C344.687 130.006 344.828 129.933 344.981 129.903C345.149 129.89 345.317 129.89 345.485 129.903H347.734C350.812 129.903 353.605 129.854 355.619 129.822L358.055 129.757C358.349 129.767 358.643 129.745 358.932 129.692C358.641 129.656 358.348 129.639 358.055 129.643H355.619C353.605 129.643 350.812 129.643 347.734 129.643H345.485C345.296 129.624 345.105 129.624 344.916 129.643C344.72 129.686 344.538 129.778 344.388 129.911C344.242 130.045 344.131 130.212 344.063 130.398C344.016 130.569 343.979 130.743 343.95 130.918C343.722 132.217 343.519 133.394 343.341 134.409L342.959 136.763C342.902 137.033 342.867 137.307 342.854 137.583Z" fill="#455A64"/>
<path d="M350.463 131.269C350.525 131.113 350.641 130.984 350.791 130.907C350.94 130.829 351.112 130.808 351.275 130.847C351.405 130.882 351.521 130.953 351.61 131.053C351.7 131.152 351.758 131.275 351.779 131.407C351.784 131.552 351.751 131.695 351.682 131.822C351.614 131.949 351.512 132.055 351.389 132.13C351.262 132.201 351.117 132.232 350.972 132.219C350.827 132.206 350.689 132.149 350.577 132.057C350.475 131.956 350.408 131.825 350.388 131.682C350.367 131.54 350.394 131.395 350.463 131.269Z" fill="#FAFAFA"/>
<path d="M350.853 140.005C351.185 140.086 358.713 143.975 358.713 143.975L362.643 148.115C362.643 148.115 364.065 150.551 362.911 154.253C361.758 157.955 359.882 159.31 355.554 160.382L347.377 159.091L343.236 155.698C342.84 155.37 342.551 154.931 342.407 154.438C342.262 153.944 342.268 153.419 342.423 152.929L342.48 152.759L342.009 151.947C341.866 151.706 341.796 151.429 341.809 151.149C341.822 150.869 341.917 150.599 342.082 150.372C342.306 150.069 342.641 149.866 343.014 149.808C343.386 149.75 343.767 149.842 344.072 150.064L348.733 153.473L351.941 153.895L352.42 152.848L347.718 150.413L341.741 145.785C341.553 145.64 341.396 145.459 341.28 145.252C341.164 145.045 341.091 144.816 341.066 144.58C341.041 144.344 341.065 144.105 341.134 143.879C341.204 143.652 341.32 143.441 341.473 143.26C341.741 142.944 342.113 142.734 342.522 142.665C342.93 142.597 343.35 142.675 343.707 142.887L349.261 146.134L355.059 148.692L354.141 146.386L347.328 141.344C347.328 141.344 346.744 138.966 350.853 140.005Z" fill="#FFBF9D"/>
<path d="M350.171 136.033C350.171 136.033 348.604 135.132 345.997 136.212C343.39 137.291 340.061 138.923 340.061 138.923L335.067 140.344L335.66 139.11C335.66 139.11 340.589 139.613 340.353 136.025L337.381 136.155L334.832 134.848L329.805 139.719L327.913 146.627L322.383 149.501L326.727 161.322L334.531 156.995L344.276 156.808L347.857 153.91L348.255 150.232L351.763 146.66C351.763 146.66 352.201 144.874 350.585 144.703C348.969 144.533 345.08 148.397 345.08 148.397L341.174 148.487C341.174 148.487 340.508 147.878 341.052 147.529C341.596 147.179 353.103 141.529 353.614 140.263C354.126 138.996 354.654 138.168 353.509 137.827C352.485 137.674 351.439 137.774 350.463 138.119C350.463 138.119 351.04 136.309 350.171 136.033Z" fill="#FFBF9D"/>
<path d="M340.629 143.098C342.378 142.376 344.088 141.563 345.753 140.663C347.463 139.866 349.13 138.98 350.747 138.008C348.998 138.715 347.288 139.515 345.623 140.403C343.911 141.21 342.244 142.11 340.629 143.098Z" fill="#FF9A6C"/>
<path d="M338.307 152.278C338.493 152.366 338.689 152.429 338.891 152.465C339.273 152.563 339.833 152.709 340.515 152.83C341.337 152.981 342.174 153.038 343.008 153.001C344.041 152.945 345.049 152.668 345.964 152.189C347.591 151.28 349.004 150.031 350.106 148.528C350.536 147.968 350.869 147.505 351.088 147.18C351.217 147.018 351.326 146.84 351.413 146.652C350.888 147.206 350.395 147.789 349.935 148.398C348.813 149.832 347.419 151.032 345.834 151.929C344.953 152.392 343.985 152.669 342.992 152.741C342.179 152.792 341.362 152.756 340.556 152.636C339.176 152.416 338.315 152.23 338.307 152.278Z" fill="#FF9A6C"/>
<path d="M322.383 149.501L322.732 149.298L323.788 148.722L327.848 146.563L327.799 146.619L329.651 139.694L334.653 134.823L334.734 134.742L334.832 134.799L337.389 136.098H337.308L340.28 135.96H340.459V136.13C340.506 136.691 340.397 137.253 340.142 137.754C339.85 138.206 339.437 138.567 338.949 138.793C337.896 139.25 336.744 139.429 335.603 139.313L335.79 139.207L335.205 140.449L334.978 140.182L339.972 138.745L344.844 136.528C346.403 135.716 348.409 135.002 350.317 135.846C350.431 135.888 350.536 135.953 350.624 136.037C350.712 136.12 350.782 136.221 350.829 136.333C350.913 136.534 350.954 136.749 350.951 136.967C350.954 137.379 350.897 137.789 350.78 138.184L350.512 137.925C351.091 137.739 351.687 137.611 352.291 137.543C352.947 137.425 353.624 137.546 354.199 137.884C354.363 138.009 354.473 138.192 354.507 138.395C354.541 138.575 354.541 138.76 354.507 138.939C354.419 139.247 354.31 139.548 354.183 139.841L354.004 140.271C353.967 140.355 353.923 140.436 353.874 140.514C353.819 140.586 353.759 140.653 353.695 140.717C353.457 140.937 353.205 141.14 352.94 141.326C350.876 142.656 348.746 143.881 346.557 144.996L343.382 146.619C342.863 146.895 342.343 147.155 341.823 147.431C341.588 147.561 341.239 147.707 341.206 147.813C341.174 147.918 341.295 148.178 341.466 148.34L341.32 148.284L345.226 148.194L345.088 148.251C346.233 147.111 347.49 146.088 348.839 145.199C349.178 144.982 349.537 144.8 349.911 144.655C350.309 144.494 350.751 144.474 351.162 144.598C351.373 144.662 351.566 144.777 351.723 144.933C351.88 145.088 351.997 145.28 352.063 145.491C352.165 145.891 352.165 146.309 352.063 146.709V146.757L348.368 150.354L348.417 150.248C348.279 151.515 348.141 152.741 348.011 153.934V153.999L347.962 154.04L344.365 156.922H344.324H344.308L334.523 157.076H334.58L328.774 160.234L327.247 161.046L326.857 161.249C326.768 161.297 326.719 161.314 326.719 161.306L326.841 161.224L327.223 160.997L328.717 160.137L334.474 156.889H334.523L344.267 156.662H344.178L347.751 153.755L347.686 153.869C347.816 152.684 347.946 151.458 348.076 150.191V150.159L348.117 150.118L351.617 146.538L351.568 146.628C351.714 145.97 351.568 145.142 350.886 145.004C350.53 144.953 350.168 144.978 349.823 145.076C349.477 145.174 349.156 145.343 348.88 145.572C347.558 146.447 346.328 147.453 345.209 148.576L345.153 148.633H345.12L341.222 148.738H341.133L341.076 148.681C340.953 148.566 340.849 148.432 340.768 148.284C340.717 148.194 340.686 148.095 340.678 147.993C340.669 147.89 340.683 147.787 340.719 147.691C340.811 147.521 340.956 147.387 341.133 147.309L341.523 147.107L343.082 146.295L346.249 144.671C348.421 143.561 350.535 142.342 352.583 141.018C352.817 140.834 353.036 140.633 353.241 140.417C353.288 140.372 353.332 140.323 353.371 140.271C353.406 140.221 353.433 140.166 353.452 140.108L353.638 139.678C353.85 139.142 354.174 138.46 353.809 138.217C353.313 137.947 352.739 137.858 352.185 137.965C351.611 138.025 351.045 138.145 350.496 138.322L350.122 138.444L350.228 138.063C350.331 137.709 350.383 137.343 350.382 136.975C350.382 136.618 350.26 136.309 350.033 136.244C349.212 135.908 348.309 135.829 347.443 136.017C346.568 136.211 345.724 136.522 344.933 136.942L340.118 139.134L335.116 140.555L334.71 140.669L334.896 140.287L335.489 139.053L335.538 138.939H335.676C336.747 139.05 337.828 138.888 338.819 138.469C339.27 138.25 339.646 137.903 339.899 137.47C340.116 137.032 340.211 136.544 340.175 136.057L340.362 136.22L337.389 136.342H337.341L334.791 135.018H334.978L329.943 139.889V139.832C329.188 142.528 328.538 144.858 328.01 146.733V146.774L323.885 148.86L322.813 149.388L322.383 149.501Z" fill="#FF9A6C"/>
<path d="M301.399 179.962C301.562 179.857 301.733 179.764 301.911 179.686L303.413 178.939L309.098 176.227L328.676 166.973L328.57 167.224C327.304 163.766 325.939 160.023 324.51 156.151C323.52 153.407 322.545 150.736 321.611 148.154L321.887 148.276L301.935 156.654H301.895C300.26 156.795 298.651 157.156 297.112 157.726C295.955 158.152 294.899 158.812 294.01 159.666C293.448 160.207 293 160.856 292.694 161.574C292.597 161.817 292.54 162.012 292.499 162.142C292.489 162.212 292.47 162.28 292.442 162.345C292.428 162.275 292.428 162.204 292.442 162.134C292.482 161.933 292.536 161.734 292.605 161.541C292.886 160.798 293.317 160.121 293.872 159.552C294.765 158.662 295.832 157.965 297.006 157.506C298.569 156.901 300.209 156.516 301.878 156.362H301.83L321.725 147.878L321.928 147.797L322.001 148C322.943 150.581 323.917 153.252 324.908 155.988C326.321 159.861 327.677 163.612 328.968 167.07L329.033 167.249L328.863 167.33L309.227 176.439L303.543 179.053L302.008 179.735C301.81 179.823 301.607 179.899 301.399 179.962Z" fill="#263238"/>
<path d="M308.205 128.239C307.722 127.467 307.281 126.67 306.881 125.852C306.069 124.366 304.916 122.361 303.479 120.234C302.042 118.107 300.604 116.289 299.524 114.99C298.912 114.318 298.338 113.613 297.803 112.879C297.803 112.879 298.022 113.025 298.363 113.358C298.704 113.691 299.175 114.17 299.752 114.795C302.709 118.076 305.199 121.751 307.149 125.714C307.515 126.469 307.799 127.094 307.961 127.541C308.078 127.76 308.16 127.995 308.205 128.239Z" fill="#263238"/>
<path d="M309.008 132.219C308.975 132.57 308.898 132.917 308.781 133.25C308.602 133.899 308.334 134.873 307.968 135.986C307.278 138.299 306.296 141.482 305.175 144.981C304.054 148.48 302.983 151.638 302.179 153.911C301.773 155.04 301.44 155.957 301.188 156.59C301.084 156.925 300.943 157.246 300.766 157.548C300.823 157.202 300.913 156.863 301.034 156.533C301.261 155.811 301.553 154.91 301.894 153.814C302.658 151.435 303.657 148.309 304.769 144.883C305.882 141.457 306.913 138.308 307.684 135.953L308.602 133.258C308.701 132.898 308.837 132.55 309.008 132.219Z" fill="#263238"/>
</svg>
