<svg width="18" height="18" viewBox="0 0 18 18" fill="none" xmlns="http://www.w3.org/2000/svg">
<path opacity="0.4" fill-rule="evenodd" clip-rule="evenodd" d="M14.7658 3.61944C14.3113 3.16419 11.8153 1.55469 8.99977 1.55469C6.18277 1.55469 3.68827 3.16419 3.23377 3.61944C2.79802 4.05594 2.80477 4.39569 2.83777 6.28119C2.85202 7.04619 2.87077 8.08719 2.87077 9.52569C2.87077 14.4157 6.86227 16.4459 8.99977 16.4459C11.1365 16.4459 15.1288 14.4157 15.1288 9.52569C15.1288 8.08644 15.1475 7.04469 15.1618 6.28044C15.1955 4.39494 15.2015 4.05594 14.7658 3.61944Z" fill="#01A657"/>
<path d="M8.86775 10.5899L11.7913 7.66564C12.011 7.44589 12.011 7.08964 11.7913 6.86989C11.5715 6.65014 11.2153 6.65014 10.9955 6.86989L8.47025 9.39664L7.44875 8.37364C7.229 8.15389 6.87275 8.15389 6.65375 8.37364C6.43325 8.59264 6.43325 8.94964 6.653 9.16939L8.072 10.5899C8.17775 10.6956 8.321 10.7549 8.47025 10.7549C8.6195 10.7549 8.762 10.6956 8.86775 10.5899Z" fill="#01A657"/>
</svg>
