<svg width="24" height="24" viewBox="0 0 24 24" fill="none" xmlns="http://www.w3.org/2000/svg">
<path opacity="0.4" fill-rule="evenodd" clip-rule="evenodd" d="M12 2.25C4.802 2.25 2.25 4.802 2.25 12C2.25 19.198 4.802 21.75 12 21.75C19.198 21.75 21.75 19.198 21.75 12C21.75 4.802 19.198 2.25 12 2.25Z" fill="#01A657"/>
<path d="M11.3412 14.9014L16.0912 10.1554C16.3842 9.86237 16.3842 9.38738 16.0912 9.09438C15.7982 8.80238 15.3232 8.80138 15.0302 9.09438L10.8112 13.3104L8.9702 11.4674C8.6782 11.1764 8.2032 11.1744 7.9092 11.4674C7.6162 11.7604 7.6162 12.2354 7.9092 12.5284L10.2802 14.9014C10.4212 15.0424 10.6122 15.1214 10.8112 15.1214C11.0102 15.1214 11.2002 15.0424 11.3412 14.9014Z" fill="#01A657"/>
</svg>
