<svg width="24" height="25" viewBox="0 0 24 25" fill="none" xmlns="http://www.w3.org/2000/svg">
<path fill-rule="evenodd" clip-rule="evenodd" d="M2.75 12.5C2.75 19.437 5.063 21.75 12 21.75C18.937 21.75 21.25 19.437 21.25 12.5C21.25 5.563 18.937 3.25 12 3.25C5.063 3.25 2.75 5.563 2.75 12.5Z" stroke="#7B4794" stroke-width="1.5" stroke-linecap="round" stroke-linejoin="round"/>
<path fill-rule="evenodd" clip-rule="evenodd" d="M10.5982 9.28444C10.5982 10.2574 9.81017 11.0454 8.83717 11.0454C7.86517 11.0454 7.07617 10.2574 7.07617 9.28444C7.07617 8.31144 7.86517 7.52344 8.83717 7.52344C9.81017 7.52344 10.5982 8.31144 10.5982 9.28444Z" stroke="#7B4794" stroke-width="1.5" stroke-linecap="round" stroke-linejoin="round"/>
<path d="M21.1198 15.1667C20.2388 14.2607 18.9928 12.4297 16.7038 12.4297C14.4148 12.4297 14.3648 16.4677 12.0288 16.4677C9.69182 16.4677 8.75082 15.0967 7.22782 15.8127C5.70582 16.5277 4.46582 19.3737 4.46582 19.3737" stroke="#7B4794" stroke-width="1.5" stroke-linecap="round" stroke-linejoin="round"/>
</svg>
