<svg width="24" height="24" viewBox="0 0 24 24" fill="none" xmlns="http://www.w3.org/2000/svg">
<path opacity="0.4" fill-rule="evenodd" clip-rule="evenodd" d="M21.6196 10.1484H2.38059C2.27859 10.9684 2.22559 11.8614 2.22559 12.8504C2.22559 20.0654 4.78359 22.6234 11.9996 22.6234C19.2166 22.6234 21.7746 20.0654 21.7746 12.8504C21.7746 11.8614 21.7216 10.9684 21.6196 10.1484Z" fill="#7B4794"/>
<path d="M15.6586 13.3359C15.6586 13.7499 15.9986 14.0859 16.4126 14.0859C16.8266 14.0859 17.1626 13.7499 17.1626 13.3359C17.1626 12.9219 16.8266 12.5859 16.4126 12.5859H16.4036C15.9896 12.5859 15.6586 12.9219 15.6586 13.3359Z" fill="#7B4794"/>
<path d="M15.6586 17.1889C15.6586 17.6029 15.9986 17.9389 16.4126 17.9389C16.8266 17.9389 17.1626 17.6029 17.1626 17.1889C17.1626 16.7739 16.8266 16.4389 16.4126 16.4389H16.4036C15.9896 16.4389 15.6586 16.7739 15.6586 17.1889Z" fill="#7B4794"/>
<path d="M11.2586 13.3359C11.2586 13.7499 11.5996 14.0859 12.0136 14.0859C12.4276 14.0859 12.7636 13.7499 12.7636 13.3359C12.7636 12.9219 12.4276 12.5859 12.0136 12.5859H12.0046C11.5906 12.5859 11.2586 12.9219 11.2586 13.3359Z" fill="#7B4794"/>
<path d="M11.2586 17.1889C11.2586 17.6029 11.5996 17.9389 12.0136 17.9389C12.4276 17.9389 12.7636 17.6029 12.7636 17.1889C12.7636 16.7739 12.4276 16.4389 12.0136 16.4389H12.0046C11.5906 16.4389 11.2586 16.7739 11.2586 17.1889Z" fill="#7B4794"/>
<path d="M6.85059 13.3359C6.85059 13.7499 7.19159 14.0859 7.60559 14.0859C8.01959 14.0859 8.35559 13.7499 8.35559 13.3359C8.35559 12.9219 8.01959 12.5859 7.60559 12.5859H7.59659C7.18259 12.5859 6.85059 12.9219 6.85059 13.3359Z" fill="#7B4794"/>
<path d="M6.85059 17.1889C6.85059 17.6029 7.19159 17.9389 7.60559 17.9389C8.01959 17.9389 8.35559 17.6029 8.35559 17.1889C8.35559 16.7739 8.01959 16.4389 7.60559 16.4389H7.59659C7.18259 16.4389 6.85059 16.7739 6.85059 17.1889Z" fill="#7B4794"/>
<path fill-rule="evenodd" clip-rule="evenodd" d="M16.9533 3.728V2.125C16.9533 1.711 16.6173 1.375 16.2033 1.375C15.7893 1.375 15.4533 1.711 15.4533 2.125V5.388C15.4533 5.648 15.5943 5.867 15.7963 6.001C15.6773 6.081 15.5423 6.138 15.3883 6.138C14.9743 6.138 14.6383 5.802 14.6383 5.388V3.222C13.8363 3.126 12.9623 3.077 11.9993 3.077C10.8653 3.077 9.85434 3.145 8.94534 3.282V2.125C8.94534 1.711 8.60934 1.375 8.19534 1.375C7.78134 1.375 7.44534 1.711 7.44534 2.125V5.388C7.44534 5.648 7.58634 5.867 7.78834 6.001C7.66934 6.081 7.53434 6.138 7.38034 6.138C6.96634 6.138 6.63034 5.802 6.63034 5.388V3.858C4.49634 4.681 3.24434 6.212 2.65234 8.65H21.3473C20.7193 6.064 19.3313 4.512 16.9533 3.728Z" fill="#7B4794"/>
</svg>
