<svg width="24" height="24" viewBox="0 0 24 24" fill="none" xmlns="http://www.w3.org/2000/svg">
<path opacity="0.4" fill-rule="evenodd" clip-rule="evenodd" d="M12 2.25C4.802 2.25 2.25 4.802 2.25 12C2.25 19.198 4.802 21.75 12 21.75C19.199 21.75 21.75 19.198 21.75 12C21.75 4.802 19.199 2.25 12 2.25Z" fill="#FFCC00"/>
<path d="M14.4004 15.1435C14.5924 15.1435 14.7844 15.0695 14.9304 14.9235C15.2234 14.6305 15.2234 14.1555 14.9304 13.8625L13.0564 11.9895L14.9194 10.1255C15.2124 9.8325 15.2124 9.3585 14.9194 9.0655C14.6264 8.7725 14.1524 8.7725 13.8594 9.0655L11.9954 10.9295L10.1294 9.0635C9.83636 8.7705 9.36236 8.7705 9.06936 9.0635C8.77636 9.3565 8.77636 9.8305 9.06936 10.1235L10.9354 11.9895L9.06936 13.8575C8.77636 14.1505 8.77636 14.6245 9.06936 14.9175C9.21536 15.0645 9.40836 15.1375 9.59936 15.1375C9.79136 15.1375 9.98336 15.0645 10.1294 14.9175L11.9964 13.0505L13.8694 14.9235C14.0164 15.0695 14.2074 15.1435 14.4004 15.1435Z" fill="#FFCC00"/>
</svg>
