<svg width="24" height="25" viewBox="0 0 24 25" fill="none" xmlns="http://www.w3.org/2000/svg">
<path d="M20.9948 7.1477C20.9948 9.15904 19.3643 10.7895 17.3529 10.7895C15.3416 10.7895 13.7111 9.15904 13.7111 7.1477C13.7111 5.13637 15.3416 3.50586 17.3529 3.50586C19.3643 3.50586 20.9948 5.13637 20.9948 7.1477Z" fill="#7B4794"/>
<path d="M10.2886 7.1477C10.2886 9.15904 8.65806 10.7895 6.64673 10.7895C4.63539 10.7895 3.00488 9.15904 3.00488 7.1477C3.00488 5.13637 4.63539 3.50586 6.64673 3.50586C8.65806 3.50586 10.2886 5.13637 10.2886 7.1477Z" fill="#7B4794"/>
<path d="M20.9948 17.8539C20.9948 19.8653 19.3643 21.4958 17.3529 21.4958C15.3416 21.4958 13.7111 19.8653 13.7111 17.8539C13.7111 15.8426 15.3416 14.2121 17.3529 14.2121C19.3643 14.2121 20.9948 15.8426 20.9948 17.8539Z" fill="#7B4794"/>
<path d="M10.2886 17.8539C10.2886 19.8653 8.65806 21.4958 6.64673 21.4958C4.63539 21.4958 3.00488 19.8653 3.00488 17.8539C3.00488 15.8426 4.63539 14.2121 6.64673 14.2121C8.65806 14.2121 10.2886 15.8426 10.2886 17.8539Z" fill="#7B4794"/>
</svg>
