<svg width="24" height="24" viewBox="0 0 24 24" fill="none" xmlns="http://www.w3.org/2000/svg">
<path fill-rule="evenodd" clip-rule="evenodd" d="M14.6331 7.73692C14.5336 7.60465 14.3459 7.57789 14.2134 7.6771L9.03347 11.5575C8.90077 11.6569 8.87388 11.8451 8.97342 11.9777L13.7931 18.3976C14.9531 19.9476 16.7031 20.2576 17.9131 20.2576C18.6631 20.2576 19.2031 20.1376 19.2631 20.1276C19.3931 20.0976 19.5131 20.0076 19.5831 19.8876C19.6531 19.7576 21.3731 16.6976 19.4531 14.1476L14.6331 7.73692Z" fill="#7B4794"/>
<path opacity="0.4" fill-rule="evenodd" clip-rule="evenodd" d="M7.043 9.40828L7.71302 10.299C7.81248 10.4312 8.00021 10.458 8.13263 10.3588L13.3134 6.47774C13.4458 6.37856 13.473 6.19093 13.3741 6.05832L12.703 5.15828C12.013 4.22828 10.943 3.73828 9.863 3.73828C9.123 3.73828 8.383 3.96828 7.743 4.44828C6.993 5.01828 6.503 5.84828 6.363 6.77828C6.233 7.71828 6.473 8.64828 7.043 9.40828Z" fill="#7B4794"/>
<path opacity="0.4" fill-rule="evenodd" clip-rule="evenodd" d="M4.39155 18.7461H10.7686C11.1826 18.7461 11.5186 19.0821 11.5186 19.4961C11.5186 19.9101 11.1826 20.2461 10.7686 20.2461H4.39155C3.97755 20.2461 3.64156 19.9101 3.64156 19.4961C3.64156 19.0821 3.97755 18.7461 4.39155 18.7461Z" fill="#7B4794"/>
</svg>
