<svg width="16" height="19" viewBox="0 0 16 19" fill="none" xmlns="http://www.w3.org/2000/svg">
<path fill-rule="evenodd" clip-rule="evenodd" d="M6.24461 6.30464C6.3109 6.20544 6.43608 6.18537 6.52437 6.25978L9.97768 9.17008C10.0662 9.24464 10.0841 9.3858 10.0177 9.48524L6.80459 14.3001C6.03125 15.4626 4.86459 15.6951 4.05792 15.6951C3.55792 15.6951 3.19792 15.6051 3.15792 15.5976C3.07125 15.5751 2.99125 15.5076 2.94459 15.4176C2.89792 15.3201 1.75125 13.0251 3.03125 11.1126L6.24461 6.30464Z" fill="#01A657"/>
<path opacity="0.4" fill-rule="evenodd" clip-rule="evenodd" d="M11.3043 7.55719L10.8577 8.22523C10.7914 8.3244 10.6662 8.34445 10.5779 8.27006L7.12405 5.35928C7.03579 5.2849 7.0177 5.14418 7.08362 5.04471L7.53101 4.36969C7.99101 3.67219 8.70434 3.30469 9.42434 3.30469C9.91767 3.30469 10.411 3.47719 10.8377 3.83719C11.3377 4.26469 11.6643 4.88719 11.7577 5.58469C11.8443 6.28969 11.6843 6.98719 11.3043 7.55719Z" fill="#01A657"/>
<path opacity="0.4" fill-rule="evenodd" clip-rule="evenodd" d="M13.0726 14.5605H8.82129C8.54529 14.5605 8.32129 14.8125 8.32129 15.123C8.32129 15.4335 8.54529 15.6855 8.82129 15.6855H13.0726C13.3486 15.6855 13.5726 15.4335 13.5726 15.123C13.5726 14.8125 13.3486 14.5605 13.0726 14.5605Z" fill="#01A657"/>
</svg>
