<svg width="18" height="18" viewBox="0 0 18 18" fill="none" xmlns="http://www.w3.org/2000/svg">
<path opacity="0.4" fill-rule="evenodd" clip-rule="evenodd" d="M14.4368 4.6185C14.1645 4.3785 13.8548 4.107 13.4858 3.76575C13.3185 3.63075 13.1355 3.47625 12.9413 3.31275C11.8463 2.3895 10.3463 1.125 8.97905 1.125C7.62755 1.125 6.2243 2.319 5.09705 3.27825C4.88855 3.45525 4.69355 3.62175 4.4948 3.783C4.1453 4.107 3.83555 4.37925 3.56255 4.62C1.7723 6.19575 1.43555 6.609 1.43555 10.2847C1.43555 16.875 3.3413 16.875 9.00005 16.875C14.658 16.875 16.5645 16.875 16.5645 10.2847C16.5645 6.60825 16.2278 6.195 14.4368 4.6185Z" fill="#01A657"/>
<path d="M6.82031 12.6641H11.1816C11.4921 12.6641 11.7441 12.4121 11.7441 12.1016C11.7441 11.7911 11.4921 11.5391 11.1816 11.5391H6.82031C6.50981 11.5391 6.25781 11.7911 6.25781 12.1016C6.25781 12.4121 6.50981 12.6641 6.82031 12.6641Z" fill="#01A657"/>
</svg>
