<svg width="18" height="18" viewBox="0 0 18 18" fill="none" xmlns="http://www.w3.org/2000/svg">
<path opacity="0.4" fill-rule="evenodd" clip-rule="evenodd" d="M13.1809 2.46388C11.8909 2.05138 10.1051 2.22238 8.9906 3.48688C7.81985 2.23138 6.09485 2.04913 4.81385 2.46463C1.8776 3.40963 0.961851 6.81163 1.79735 9.42088V9.42163C3.11585 13.5249 7.4996 15.7381 9.0011 15.7381C10.3414 15.7381 14.8991 13.5661 16.2026 9.42088C17.0381 6.81238 16.1201 3.41038 13.1809 2.46388Z" fill="#01A657"/>
<path d="M13.2244 8.02372H13.2431C13.5446 8.02372 13.7944 7.78447 13.8049 7.47997C13.8491 6.17047 13.0684 5.20822 11.8624 5.08522C11.5549 5.05222 11.2774 5.27947 11.2451 5.58772C11.2136 5.89672 11.4386 6.17272 11.7476 6.20422C12.3559 6.26647 12.7046 6.72922 12.6806 7.44247C12.6701 7.75297 12.9139 8.01247 13.2244 8.02372Z" fill="#01A657"/>
</svg>
