<svg width="24" height="24" viewBox="0 0 24 24" fill="none" xmlns="http://www.w3.org/2000/svg">
<path opacity="0.4" fill-rule="evenodd" clip-rule="evenodd" d="M11.9999 2.25C5.43489 2.25 3.10889 4.802 3.10889 12.001C3.10889 19.199 5.43489 21.751 11.9999 21.751C18.5639 21.751 20.8909 19.199 20.8909 12.001C20.8909 4.802 18.5639 2.25 11.9999 2.25Z" fill="#7B4794"/>
<path d="M8.375 12.6868H15.595C16.009 12.6868 16.345 12.3508 16.345 11.9368C16.345 11.5228 16.009 11.1868 15.595 11.1868H8.375C7.961 11.1868 7.625 11.5228 7.625 11.9368C7.625 12.3508 7.961 12.6868 8.375 12.6868Z" fill="#7B4794"/>
<path d="M8.375 16.4458H15.595C16.009 16.4458 16.345 16.1098 16.345 15.6958C16.345 15.2818 16.009 14.9458 15.595 14.9458H8.375C7.961 14.9458 7.625 15.2818 7.625 15.6958C7.625 16.1098 7.961 16.4458 8.375 16.4458Z" fill="#7B4794"/>
<path d="M11.13 7.42578H8.375C7.961 7.42578 7.625 7.76178 7.625 8.17578C7.625 8.58978 7.961 8.92578 8.375 8.92578H11.13C11.544 8.92578 11.88 8.58978 11.88 8.17578C11.88 7.76178 11.544 7.42578 11.13 7.42578Z" fill="#7B4794"/>
</svg>
