<svg width="24" height="25" viewBox="0 0 24 25" fill="none" xmlns="http://www.w3.org/2000/svg">
<path fill-rule="evenodd" clip-rule="evenodd" d="M9.92259 22.3058C6.10859 22.3058 2.85059 21.7288 2.85059 19.4188C2.85059 17.1088 6.08759 15.0078 9.92259 15.0078C13.7366 15.0078 16.9946 17.0888 16.9946 19.3978C16.9946 21.7068 13.7576 22.3058 9.92259 22.3058Z" stroke="#7B4794" stroke-width="1.5" stroke-linecap="round" stroke-linejoin="round"/>
<path fill-rule="evenodd" clip-rule="evenodd" d="M9.92268 11.7144C12.4257 11.7144 14.4557 9.68444 14.4557 7.18144C14.4557 4.67744 12.4257 2.64844 9.92268 2.64844C7.41968 2.64844 5.38968 4.67744 5.38968 7.18144C5.38068 9.67544 7.39668 11.7054 9.89068 11.7144H9.92268Z" stroke="#7B4794" stroke-width="1.5" stroke-linecap="round" stroke-linejoin="round"/>
<path d="M19.1318 8.62891V12.6389" stroke="#7B4794" stroke-width="1.5" stroke-linecap="round" stroke-linejoin="round"/>
<path d="M21.1779 10.6328H17.0879" stroke="#7B4794" stroke-width="1.5" stroke-linecap="round" stroke-linejoin="round"/>
</svg>
