<svg width="22" height="22" viewBox="0 0 22 22" fill="none" xmlns="http://www.w3.org/2000/svg">
<path opacity="0.4" fill-rule="evenodd" clip-rule="evenodd" d="M15.8317 13.9083C14.1569 13.9083 12.7948 12.5461 12.7948 10.8723C12.7948 9.19751 14.1569 7.83443 15.8317 7.83443H19.6909C18.886 4.11826 16.3258 2.71484 11.0009 2.71484C4.36785 2.71484 2.0166 4.88368 2.0166 11.0006C2.0166 17.1184 4.36785 19.2863 11.0009 19.2863C16.4477 19.2863 19.0034 17.8197 19.744 13.9083H15.8317Z" fill="#01A657"/>
<path fill-rule="evenodd" clip-rule="evenodd" d="M10.6811 7.92188H6.95947C6.57997 7.92188 6.27197 7.61388 6.27197 7.23438C6.27197 6.85487 6.57997 6.54688 6.95947 6.54688H10.6811C11.0606 6.54688 11.3686 6.85487 11.3686 7.23438C11.3686 7.61388 11.0606 7.92188 10.6811 7.92188Z" fill="#01A657"/>
<path fill-rule="evenodd" clip-rule="evenodd" d="M15.8314 12.5348C14.9156 12.5348 14.1694 11.7895 14.1694 10.8738C14.1694 9.9571 14.9156 9.21094 15.8314 9.21094H19.8977C19.9518 9.76919 19.9839 10.3586 19.9839 11.0021C19.9839 11.5475 19.9582 12.0508 19.9197 12.5348H15.8314ZM16.6473 10.8187C16.6473 11.1982 16.3393 11.5062 15.9598 11.5062C15.5803 11.5062 15.2723 11.1982 15.2723 10.8187C15.2723 10.4392 15.5803 10.1312 15.9598 10.1312C16.3393 10.1312 16.6473 10.4392 16.6473 10.8187Z" fill="#01A657"/>
</svg>
