<svg width="20" height="18" viewBox="0 0 20 18" fill="none" xmlns="http://www.w3.org/2000/svg">
<path fill-rule="evenodd" clip-rule="evenodd" d="M14.833 8.1516H14.848C16.4455 8.1516 17.7505 6.8466 17.7505 5.2566C17.7505 3.6591 16.4455 2.3541 14.848 2.3541C14.533 2.3541 14.233 2.4066 13.948 2.4966C14.4655 3.2616 14.7655 4.1841 14.7655 5.1816C14.773 6.1941 14.458 7.1691 13.8655 7.9791C14.173 8.0916 14.4955 8.1516 14.833 8.1516Z" fill="#01A657"/>
<path fill-rule="evenodd" clip-rule="evenodd" d="M5.14305 8.1516H5.16555C5.50305 8.1516 5.82555 8.0916 6.13305 7.9791C5.56305 7.1991 5.22555 6.2316 5.22555 5.1816C5.22555 4.1841 5.52555 3.2616 6.04305 2.4966C5.75805 2.4066 5.45805 2.3541 5.14305 2.3541C3.54555 2.3541 2.24805 3.6591 2.24805 5.2566C2.24805 6.8466 3.54555 8.1516 5.14305 8.1516Z" fill="#01A657"/>
<path fill-rule="evenodd" clip-rule="evenodd" d="M9.99599 8.83116H10.0207C10.992 8.82816 11.904 8.44641 12.588 7.75716C13.2727 7.06791 13.6477 6.15366 13.644 5.18391C13.644 3.17166 12.0082 1.53516 9.99599 1.53516C7.98449 1.53516 6.34874 3.17166 6.34874 5.18391C6.34874 7.19466 7.98449 8.83116 9.99599 8.83116Z" fill="#01A657"/>
<g opacity="0.4">
<path fill-rule="evenodd" clip-rule="evenodd" d="M14.8554 9.23047C14.0004 9.23047 13.1979 9.40297 12.5229 9.69547C14.8854 10.378 16.5579 12.013 16.6029 13.9255C17.8329 13.768 19.1604 13.303 19.1604 12.0355C19.1604 10.513 17.1879 9.23047 14.8554 9.23047Z" fill="#01A657"/>
<path fill-rule="evenodd" clip-rule="evenodd" d="M7.46789 9.68797C6.79289 9.40297 5.99039 9.23047 5.14289 9.23047C2.81039 9.23047 0.837891 10.513 0.837891 12.0355C0.837891 13.303 2.15789 13.7605 3.38789 13.9255C3.42539 12.013 5.09789 10.378 7.46789 9.68797Z" fill="#01A657"/>
<path fill-rule="evenodd" clip-rule="evenodd" d="M9.9951 10.4582C7.02435 10.4582 4.5141 12.0752 4.5141 13.9892C4.5141 16.4642 8.6391 16.4642 9.9951 16.4642C12.3486 16.4642 15.4776 16.2092 15.4776 14.005C15.4776 12.082 12.9666 10.4582 9.9951 10.4582Z" fill="#01A657"/>
</g>
</svg>
