<svg width="22" height="22" viewBox="0 0 22 22" fill="none" xmlns="http://www.w3.org/2000/svg">
<path fill-rule="evenodd" clip-rule="evenodd" d="M8.93792 10.7575H8.96725C11.5119 10.7575 13.5808 8.68767 13.5808 6.14392C13.5808 3.60017 11.5119 1.53125 8.96725 1.53125C6.4235 1.53125 4.35367 3.60017 4.35367 6.14208C4.3445 8.67758 6.39967 10.7483 8.93792 10.7575Z" fill="#01A657"/>
<path fill-rule="evenodd" clip-rule="evenodd" d="M19.2854 8.6198H18.0964V7.46939C18.0964 7.08989 17.7884 6.78189 17.4089 6.78189C17.0294 6.78189 16.7214 7.08989 16.7214 7.46939V8.6198H15.5362C15.1567 8.6198 14.8487 8.9278 14.8487 9.3073C14.8487 9.6868 15.1567 9.9948 15.5362 9.9948H16.7214V11.1452C16.7214 11.5247 17.0294 11.8327 17.4089 11.8327C17.7884 11.8327 18.0964 11.5247 18.0964 11.1452V9.9948H19.2854C19.6649 9.9948 19.9729 9.6868 19.9729 9.3073C19.9729 8.9278 19.6649 8.6198 19.2854 8.6198Z" fill="#01A657"/>
<path opacity="0.4" fill-rule="evenodd" clip-rule="evenodd" d="M8.9681 12.8594C5.2061 12.8594 2.0271 14.921 2.0271 17.3611C2.0271 20.1441 5.98802 20.4659 8.9681 20.4659C10.685 20.4659 15.9091 20.4659 15.9091 17.3428C15.9091 14.9118 12.7301 12.8594 8.9681 12.8594Z" fill="#01A657"/>
</svg>
