<svg width="18" height="18" viewBox="0 0 18 18" fill="none" xmlns="http://www.w3.org/2000/svg">
<path opacity="0.4" fill-rule="evenodd" clip-rule="evenodd" d="M9 1.6875C3.6015 1.6875 1.6875 3.6015 1.6875 9C1.6875 14.3985 3.6015 16.3125 9 16.3125C14.3985 16.3125 16.3125 14.3985 16.3125 9C16.3125 3.6015 14.3985 1.6875 9 1.6875Z" fill="#01A657"/>
<path d="M8.99609 6.9375H9.00284C9.31334 6.9375 9.56234 6.6855 9.56234 6.375C9.56234 6.0645 9.30659 5.8125 8.99609 5.8125C8.68559 5.8125 8.43359 6.0645 8.43359 6.375C8.43359 6.6855 8.68559 6.9375 8.99609 6.9375Z" fill="#01A657"/>
<path d="M8.99909 12.4838C9.30959 12.4838 9.56159 12.2318 9.56159 11.9213V9C9.56159 8.6895 9.30959 8.4375 8.99909 8.4375C8.68859 8.4375 8.43659 8.6895 8.43659 9V11.9213C8.43659 12.2318 8.68859 12.4838 8.99909 12.4838Z" fill="#01A657"/>
</svg>
