<svg width="24" height="25" viewBox="0 0 24 25" fill="none" xmlns="http://www.w3.org/2000/svg">
<path fill-rule="evenodd" clip-rule="evenodd" d="M12 10C13.3809 10 14.5 11.1191 14.5 12.5C14.5 13.8809 13.3809 15 12 15C10.6191 15 9.5 13.8809 9.5 12.5C9.5 11.1191 10.6191 10 12 10Z" stroke="#7B4794" stroke-width="1.5" stroke-linecap="round" stroke-linejoin="round"/>
<path fill-rule="evenodd" clip-rule="evenodd" d="M20.168 7.75025V7.75025C19.4845 6.55799 17.9712 6.15004 16.7885 6.83852C15.7598 7.43613 14.4741 6.68838 14.4741 5.49218C14.4741 4.11619 13.3659 3 11.9998 3V3C10.6337 3 9.52546 4.11619 9.52546 5.49218C9.52546 6.68838 8.23977 7.43613 7.21199 6.83852C6.02829 6.15004 4.51507 6.55799 3.83153 7.75025C3.14896 8.9425 3.55399 10.4666 4.73769 11.1541C5.76546 11.7527 5.76546 13.2473 4.73769 13.8459C3.55399 14.5343 3.14896 16.0585 3.83153 17.2498C4.51507 18.442 6.02829 18.85 7.21101 18.1625H7.21199C8.23977 17.5639 9.52546 18.3116 9.52546 19.5078V19.5078C9.52546 20.8838 10.6337 22 11.9998 22V22C13.3659 22 14.4741 20.8838 14.4741 19.5078V19.5078C14.4741 18.3116 15.7598 17.5639 16.7885 18.1625C17.9712 18.85 19.4845 18.442 20.168 17.2498C20.8515 16.0585 20.4455 14.5343 19.2628 13.8459H19.2618C18.2341 13.2473 18.2341 11.7527 19.2628 11.1541C20.4455 10.4666 20.8515 8.9425 20.168 7.75025Z" stroke="#7B4794" stroke-width="1.5" stroke-linecap="round" stroke-linejoin="round"/>
</svg>
