<svg width="24" height="24" viewBox="0 0 24 24" fill="none" xmlns="http://www.w3.org/2000/svg">
<path fill-rule="evenodd" clip-rule="evenodd" d="M3.9252 5.77481H8.0662C8.1072 5.12081 8.2882 4.19881 8.9392 3.45081C9.6272 2.65981 10.6572 2.25781 12.0012 2.25781C13.3442 2.25781 14.3742 2.65981 15.0622 3.45081C15.7132 4.19881 15.8952 5.12081 15.9362 5.77481H20.0752C20.4892 5.77481 20.8252 6.11081 20.8252 6.52481C20.8252 6.93881 20.4892 7.27481 20.0752 7.27481H3.9252C3.5112 7.27481 3.1752 6.93881 3.1752 6.52481C3.1752 6.11081 3.5112 5.77481 3.9252 5.77481Z" fill="#D23D3D"/>
<path opacity="0.4" fill-rule="evenodd" clip-rule="evenodd" d="M4.90201 9.59766C4.90201 9.32166 5.12601 9.09766 5.40201 9.09766H18.598C18.875 9.09766 19.098 9.32166 19.098 9.59766C19.098 10.5947 19.116 11.5237 19.133 12.3847C19.207 16.1337 19.256 18.6107 17.741 20.1557C16.665 21.2527 14.898 21.7427 12.011 21.7427C9.12101 21.7427 7.35101 21.2517 6.27201 20.1527C4.75001 18.6007 4.79801 16.1117 4.86901 12.3417C4.88501 11.4927 4.90201 10.5777 4.90201 9.59766Z" fill="#D23D3D"/>
</svg>
