<svg width="46" height="46" viewBox="0 0 46 46" fill="none" xmlns="http://www.w3.org/2000/svg">
<path opacity="0.4" fill-rule="evenodd" clip-rule="evenodd" d="M13.3976 16.6252C16.5524 16.6252 19.1284 14.0683 19.1284 10.9135V6.99967L9.00458 16.6252H13.3976ZM6.3155 16.9625C6.3155 16.8858 6.3155 16.8283 6.33466 16.7517C6.39216 16.4067 6.44967 16.0617 6.50716 15.7358C6.5455 15.525 6.64133 15.3525 6.79466 15.1992L17.6622 4.84917C17.7963 4.715 17.988 4.61917 18.1797 4.6C18.5055 4.56167 18.8505 4.52333 19.1955 4.485C19.253 4.46583 19.3297 4.46583 19.3872 4.46583C20.4988 4.37 21.7255 4.3125 23.0097 4.3125C35.583 4.3125 40.0488 9.2 40.0488 23C40.0488 36.7808 35.583 41.6875 23.0097 41.6875C10.4172 41.6875 5.95133 36.7808 5.95133 23C5.95133 20.7 6.06633 18.7067 6.3155 16.9625Z" fill="#01A657"/>
<path d="M22.9377 26.4947H19.6813C18.8878 26.4947 18.2438 25.8526 18.2438 25.0572C18.2438 24.2637 18.8878 23.6197 19.6813 23.6197H22.9377V20.3613C22.9377 19.5678 23.5817 18.9238 24.3752 18.9238C25.1687 18.9238 25.8127 19.5678 25.8127 20.3613V23.6197H29.071C29.8665 23.6197 30.5085 24.2637 30.5085 25.0572C30.5085 25.8526 29.8665 26.4947 29.071 26.4947H25.8127V29.753C25.8127 30.5465 25.1687 31.1905 24.3752 31.1905C23.5817 31.1905 22.9377 30.5465 22.9377 29.753V26.4947Z" fill="#01A657"/>
</svg>
