<svg width="366" height="271" viewBox="0 0 366 271" fill="none" xmlns="http://www.w3.org/2000/svg">
<path d="M274.27 213.91V253.34H313.7V213.91H274.27ZM277.27 250.36V216.89H310.73V250.36H277.27Z" fill="#EBEBEB"/>
<path d="M292.36 145H177V260.36H292.36V145Z" fill="#455A64"/>
<path d="M199.23 260.361H263.41C263.68 257.911 253.85 205.761 242.31 188.991C241 187.091 229.77 185.701 225.65 190.431C203.83 215.501 198.71 259.761 199.23 260.361Z" fill="#263238"/>
<path d="M243.83 193.32C245.65 198.04 252.52 214.58 256.26 226.46C258.76 234.46 259.72 241.11 260.26 242.87C260.26 242.87 241.26 236.79 237.04 236.78C230.47 236.78 219.93 250.48 222.51 252.2C226.58 254.91 245.95 264.1 261.43 266.99C269.84 268.56 285.68 257.87 284.43 249.37C282.68 237.44 261.12 206 252.92 197.08C248.67 192.45 241.6 187.57 243.83 193.32Z" fill="#EB9481"/>
<path d="M285.601 251.891C285.201 260.481 274.451 267.721 268.221 268.101C257.471 268.751 225.221 259.361 225.221 259.361L237.751 235.201C237.751 235.201 259.751 242.651 260.261 242.861C260.071 242.221 254.661 221.861 252.261 215.171C252.131 214.801 251.981 214.421 251.841 214.021C251.141 212.151 250.191 209.691 249.131 207.021C248.551 205.541 247.931 204.021 247.321 202.481C244.671 195.901 242.091 189.631 242.091 189.631C245.781 190.241 249.431 192.181 255.421 198.471C261.411 204.761 286.251 237.721 285.601 251.891Z" fill="#263238"/>
<path d="M233.6 254.129C234.5 252.419 235.41 250.719 236.3 249.009C237.19 247.299 238.08 245.669 238.98 244.009C239.951 242.308 240.835 240.559 241.63 238.769C240.53 240.287 239.528 241.874 238.63 243.519C237.67 245.186 236.73 246.873 235.81 248.579C234.89 250.286 234.007 251.953 233.16 253.579C232.23 255.308 231.421 257.099 230.74 258.939C230.74 259.019 230.81 259.089 230.86 259.019C231.863 257.441 232.777 255.808 233.6 254.129Z" fill="#37474F"/>
<path d="M266.971 246.429L260.271 242.869C260.081 242.229 254.671 221.869 252.271 215.179C252.141 214.809 251.991 214.429 251.851 214.029C251.151 212.159 250.201 209.699 249.141 207.029L266.971 246.429Z" fill="#37474F"/>
<path d="M272.511 249.38C270.633 247.997 268.669 246.734 266.631 245.6C265.631 245.03 264.631 244.5 263.531 244.03C262.431 243.56 261.211 243.16 260.091 242.65C260.001 242.65 259.941 242.75 260.031 242.78C261.031 243.26 262.031 243.92 263.081 244.47C264.131 245.02 265.181 245.6 266.241 246.15C268.331 247.22 270.381 248.36 272.461 249.46C272.511 249.49 272.601 249.41 272.511 249.38Z" fill="#37474F"/>
<path d="M267.601 244.17C265.911 244.17 255.761 241.48 254.281 242.88C245.281 251.37 242.421 249.66 240.501 250.77C225.651 259.31 205.811 269.35 198.731 269.41C188.001 269.5 183.731 260.49 185.511 251.98C189.041 235.15 211.731 202.34 222.001 193.62C227.451 189 227.001 195.97 224.761 203.53C223.441 207.97 221.131 214.53 218.761 221.04C216.671 226.81 211.141 241.55 211.041 241.9C211.041 241.9 211.041 241.9 211.151 241.9C211.631 241.81 224.331 235.83 237.101 232.54C241.601 231.38 250.971 229.73 254.331 231.23C256.331 232.12 256.331 233.32 256.331 233.32C257.546 233.312 258.722 233.754 259.631 234.56C260.32 235.149 260.827 235.923 261.091 236.79C262.087 236.932 263.018 237.371 263.761 238.05C264.401 238.739 264.813 239.609 264.941 240.54C267.391 241.25 267.601 244.17 267.601 244.17Z" fill="#EB9481"/>
<path d="M252.601 233.081C251.257 233.121 249.919 233.271 248.601 233.531C248.511 233.531 248.511 233.681 248.601 233.671C249.901 233.531 251.231 233.501 252.541 233.461C253.851 233.421 255.171 233.391 256.481 233.411C255.2 233.181 253.901 233.071 252.601 233.081Z" fill="#263238"/>
<path d="M261.13 236.78C258.843 236.048 256.421 235.833 254.04 236.15C254.025 236.155 254.012 236.165 254.003 236.179C253.993 236.192 253.988 236.208 253.988 236.225C253.988 236.241 253.993 236.257 254.003 236.27C254.012 236.284 254.025 236.294 254.04 236.3C256.417 236.171 258.8 236.35 261.13 236.83C261.13 236.83 261.16 236.79 261.13 236.78Z" fill="#263238"/>
<path d="M265 240.539C262.878 239.638 260.585 239.208 258.28 239.279C258.19 239.279 258.16 239.409 258.28 239.419C260.545 239.63 262.787 240.038 264.98 240.639C265.02 240.649 265.05 240.559 265 240.539Z" fill="#263238"/>
<path d="M236.531 232.76C235.41 232.942 234.302 233.189 233.211 233.5C232.041 233.79 230.881 234.1 229.751 234.5C227.476 235.258 225.246 236.143 223.071 237.15C223.06 237.146 223.048 237.145 223.037 237.146C223.026 237.147 223.015 237.151 223.005 237.157C222.996 237.164 222.988 237.172 222.983 237.183C222.977 237.193 222.975 237.204 222.975 237.215C222.975 237.227 222.977 237.238 222.983 237.248C222.988 237.258 222.996 237.267 223.005 237.273C223.015 237.28 223.026 237.284 223.037 237.285C223.048 237.286 223.06 237.285 223.071 237.28C225.291 236.5 227.541 235.77 229.791 235.07L233.091 233.99C234.221 233.62 235.401 233.34 236.511 232.92C236.601 232.87 236.601 232.75 236.531 232.76Z" fill="#263238"/>
<path d="M227.6 235.171C228.696 234.741 229.848 234.472 231.02 234.371L244.38 256.931C244.38 256.931 207.57 270.181 200.02 270.931C197.974 271.099 195.914 270.847 193.968 270.19C192.022 269.534 190.231 268.486 188.705 267.113C187.178 265.739 185.949 264.068 185.092 262.201C184.235 260.335 183.768 258.314 183.72 256.261C183.51 242.931 205.26 210.911 216.2 198.521C221.2 192.851 227.05 188.731 228.54 189.661C230.3 190.761 227.11 197.891 225.42 203.211C222.31 213.041 211.16 241.941 211.16 241.941C211.16 241.941 224.84 236.081 227.6 235.171Z" fill="#263238"/>
<path d="M230.941 234.349C228.861 234.469 219.941 237.589 215.501 239.479C211.114 241.341 206.912 243.611 202.951 246.259C200.721 247.769 198.591 249.409 196.501 251.109C196.493 251.114 196.486 251.121 196.481 251.129C196.476 251.137 196.472 251.146 196.47 251.155C196.468 251.164 196.468 251.174 196.47 251.183C196.472 251.192 196.476 251.201 196.481 251.209C196.486 251.217 196.493 251.224 196.501 251.229C196.509 251.234 196.517 251.238 196.527 251.24C196.536 251.242 196.546 251.242 196.555 251.24C196.564 251.238 196.573 251.234 196.581 251.229C204.405 245.819 212.786 241.263 221.581 237.639C224.091 236.639 228.411 235.199 230.861 234.559C231.521 234.379 231.001 234.339 230.941 234.349Z" fill="#37474F"/>
<path d="M222.111 214.619C221.551 215.519 220.981 216.419 220.501 217.369L220.441 217.509C221.151 215.339 221.831 213.169 222.441 210.979C222.441 210.849 222.261 210.779 222.211 210.909C219.051 218.909 216.111 227.019 213.261 235.149C212.471 237.429 211.771 239.719 211.051 242.019C211.051 242.099 211.151 242.139 211.181 242.019C212.051 240.019 212.931 238.099 213.721 236.089C214.511 234.079 215.261 232.089 216.001 230.089C217.334 226.562 218.587 223.012 219.761 219.439C220.131 218.819 220.511 218.189 220.871 217.559C221.381 216.629 221.811 215.659 222.241 214.689C222.321 214.589 222.171 214.519 222.111 214.619Z" fill="#37474F"/>
<path d="M235.461 252.01C234.461 250.35 233.521 248.68 232.541 247.01C231.561 245.34 230.651 243.74 229.711 242.1C228.78 240.382 227.762 238.713 226.661 237.1C226.661 237.1 226.591 237.1 226.601 237.1C227.311 238.818 228.133 240.488 229.061 242.1C229.971 243.8 230.911 245.49 231.861 247.17C232.811 248.85 233.751 250.45 234.721 252.07C235.702 253.775 236.798 255.412 238.001 256.97C238.051 257.03 238.161 256.97 238.131 256.9C237.332 255.221 236.441 253.589 235.461 252.01Z" fill="#37474F"/>
<path d="M244.949 256.98C243.839 254.79 242.119 252.65 240.839 250.57C240.839 250.49 240.679 250.57 240.719 250.65C241.879 252.6 242.939 254.7 244.049 256.65C238.999 258.74 233.629 260.6 228.469 262.43C223.309 264.26 217.859 266.08 212.469 267.64C209.469 268.51 206.469 269.45 203.399 270.25C203.209 270.25 203.259 270.45 203.449 270.41C208.915 269.326 214.308 267.906 219.599 266.16C224.989 264.45 230.319 262.54 235.599 260.56C238.539 259.44 245.039 257.15 244.949 256.98Z" fill="#37474F"/>
<path d="M236.191 232.771C229.908 234.471 223.722 236.51 217.66 238.881L217.39 238.981C214.23 240.221 212.281 241.141 211.811 241.221L211.71 241.161C211.405 240.934 211.068 240.752 210.71 240.621C209.82 240.301 201.271 239.231 201.491 236.621C201.711 234.011 205.181 234.171 205.691 234.201C205.141 234.081 200.5 232.991 202.01 230.681C203.08 229.031 207.67 229.271 208.14 229.291C207.67 229.141 203.401 227.751 204.871 225.381C205.921 223.691 211.05 223.911 211.64 224.011C211.16 223.831 207.36 223.191 209.14 221.151C210.37 219.731 220.03 221.151 224.33 223.321C230.73 226.461 236.191 232.771 236.191 232.771Z" fill="#EB9481"/>
<path d="M217.659 238.88L217.389 238.98C213.912 236.657 210 235.061 205.889 234.29C205.609 234.29 205.589 234.1 205.889 234.11C210.206 234.467 214.312 236.131 217.659 238.88Z" fill="#263238"/>
<path d="M208.37 229.42C214.45 230.62 217.2 231.97 222.44 235.29C222.51 235.34 222.59 235.23 222.52 235.18C217.64 231.53 214.61 229.72 208.42 229.26C208.14 229.24 208.09 229.36 208.37 229.42Z" fill="#263238"/>
<path d="M211.85 224.081C217.69 225.641 220.77 226.981 225.47 230.791C225.58 230.881 225.72 230.791 225.61 230.641C221.998 226.829 217.136 224.444 211.91 223.921C211.53 223.881 211.48 223.991 211.85 224.081Z" fill="#263238"/>
<path d="M241.09 200.671C237.63 201.911 230.91 197.181 228 193.051C227.81 192.761 227.91 189.531 227.85 185.601C227.85 183.211 227.69 180.601 227.41 178.141L242.99 180.141C242.471 183.262 242.334 186.436 242.58 189.591C242.624 189.93 242.698 190.264 242.8 190.591C242.8 190.591 242.8 190.691 242.8 190.751C243.36 192.541 244.43 199.471 241.09 200.671Z" fill="#EB9481"/>
<path d="M242.84 190.691C242.875 190.802 242.902 190.916 242.92 191.031C233.6 190.631 230.05 186.531 227.75 182.601C227.68 181.101 227.58 179.601 227.41 178.141L242.99 180.141C242.466 183.262 242.328 186.436 242.58 189.591C242.619 189.931 242.693 190.266 242.8 190.591C242.8 190.591 242.82 190.631 242.84 190.691Z" fill="#263238"/>
<path d="M221.029 161.799C220.179 167.389 225.289 182.429 229.599 185.319C235.859 189.509 244.959 188.649 248.229 181.389C251.399 174.389 244.399 154.869 239.689 152.389C232.749 148.669 222.279 153.529 221.029 161.799Z" fill="#EB9481"/>
<path d="M235.43 168.561C235.43 168.561 235.37 168.641 235.43 168.681C235.8 169.681 236.05 170.901 235.25 171.541C235.25 171.541 235.25 171.611 235.25 171.591C236.3 171.081 235.95 169.461 235.43 168.561Z" fill="#263238"/>
<path d="M234.169 167.811C232.499 168.231 233.459 171.541 235.019 171.151C236.579 170.761 235.599 167.451 234.169 167.811Z" fill="#263238"/>
<path d="M241.68 166.68C241.68 166.68 241.78 166.68 241.79 166.75C242.06 167.75 242.54 168.93 243.56 169C243.56 169 243.56 169.05 243.56 169.06C242.39 169.23 241.77 167.71 241.68 166.68Z" fill="#263238"/>
<path d="M242.29 165.341C243.91 164.741 245 168.011 243.5 168.571C242 169.131 240.94 165.851 242.29 165.341Z" fill="#263238"/>
<path d="M232.42 166.67C232.823 166.417 233.211 166.14 233.58 165.84C234.01 165.52 234.4 165.31 234.58 164.78C234.618 164.622 234.603 164.457 234.538 164.309C234.473 164.161 234.362 164.038 234.22 163.96C233.918 163.852 233.592 163.826 233.276 163.884C232.96 163.941 232.665 164.082 232.42 164.29C231.858 164.642 231.448 165.191 231.27 165.83C231.234 165.978 231.242 166.134 231.295 166.277C231.347 166.42 231.441 166.545 231.564 166.635C231.687 166.725 231.834 166.776 231.987 166.782C232.139 166.789 232.29 166.749 232.42 166.67Z" fill="#263238"/>
<path d="M243.09 163.3C242.617 163.324 242.143 163.324 241.67 163.3C241.171 163.381 240.66 163.301 240.21 163.07C240.087 162.966 240 162.825 239.964 162.668C239.928 162.511 239.944 162.347 240.01 162.2C240.182 161.927 240.424 161.707 240.711 161.561C240.998 161.415 241.319 161.349 241.64 161.37C242.3 161.306 242.96 161.492 243.49 161.89C243.62 161.983 243.717 162.115 243.77 162.266C243.822 162.417 243.827 162.581 243.783 162.735C243.74 162.888 243.65 163.025 243.526 163.126C243.402 163.227 243.25 163.288 243.09 163.3Z" fill="#263238"/>
<path d="M238 174.7C238.379 175.029 238.821 175.276 239.299 175.428C239.777 175.579 240.281 175.631 240.78 175.58C241.219 175.538 241.65 175.433 242.06 175.27L242.29 175.17L242.51 175.07C242.561 175.042 242.601 175 242.626 174.948C242.651 174.896 242.66 174.837 242.65 174.781C242.654 174.747 242.654 174.714 242.65 174.681V174.591C242.44 173.801 242.02 172.591 242.02 172.591C242.35 172.661 244.02 172.89 243.87 172.48C242.742 168.941 241.254 165.527 239.43 162.29C239.43 162.18 239.21 162.291 239.25 162.371C240.25 165.651 241.87 168.721 242.96 172.001C242.363 171.916 241.757 171.916 241.16 172.001C241.06 172.061 242.02 174.26 242.09 174.63C241.463 174.886 240.79 175.012 240.113 175C239.436 174.988 238.768 174.838 238.15 174.561C237.97 174.541 237.91 174.64 238 174.7Z" fill="#263238"/>
<path opacity="0.2" d="M222.67 172.401C223.55 171.671 224.67 167.971 225.19 166.401C225.71 164.831 224.13 158.401 223.61 156.461C222.258 157.961 221.365 159.818 221.04 161.811C220.66 164.181 221.39 168.311 222.67 172.401Z" fill="#263238"/>
<path d="M237.4 158.349C237.044 159.148 236.49 159.843 235.79 160.368C235.09 160.893 234.267 161.231 233.4 161.349C232.512 161.465 231.608 161.352 230.775 161.021C229.942 160.69 229.208 160.153 228.64 159.459C228.64 159.409 228.55 159.459 228.58 159.509C229.109 160.292 229.841 160.915 230.697 161.313C231.553 161.712 232.501 161.869 233.44 161.769C234.36 161.622 235.224 161.236 235.947 160.65C236.67 160.064 237.227 159.298 237.56 158.429C237.54 158.329 237.43 158.279 237.4 158.349Z" fill="#263238"/>
<path d="M228.76 147.609C227.455 147.986 226.266 148.685 225.303 149.643C224.34 150.601 223.634 151.786 223.25 153.089C222.98 154.369 223.157 155.703 223.75 156.869C223.75 156.869 223.87 156.869 223.85 156.869C223.478 155.794 223.402 154.638 223.629 153.523C223.856 152.408 224.377 151.374 225.14 150.529C225.963 149.571 226.998 148.816 228.162 148.325C229.327 147.834 230.589 147.62 231.85 147.699C233.073 147.756 234.238 148.241 235.14 149.069C235.23 149.159 235.42 149.069 235.34 148.939C234.05 147.329 231.34 146.799 228.76 147.609Z" fill="#263238"/>
<path d="M247.21 149.079C246.336 147.796 245.036 146.864 243.54 146.449C241.47 145.869 239.54 146.599 237.6 147.369C237.6 147.369 237.6 147.469 237.6 147.449C239.18 146.673 240.951 146.371 242.7 146.579C244.163 146.866 245.485 147.642 246.45 148.779C247.205 149.708 247.676 150.834 247.807 152.024C247.938 153.214 247.723 154.416 247.188 155.486C246.652 156.556 245.82 157.45 244.79 158.059C243.759 158.668 242.575 158.967 241.38 158.919C241.32 158.919 241.3 159.029 241.38 159.029C242.58 159.112 243.78 158.857 244.843 158.293C245.907 157.728 246.79 156.877 247.394 155.836C247.998 154.795 248.298 153.605 248.26 152.402C248.222 151.199 247.848 150.031 247.18 149.029L247.21 149.079Z" fill="#263238"/>
<path d="M220.989 165.001C220.989 165.001 216.809 160.631 218.249 157.001C219.069 154.951 223.419 154.001 223.419 154.001C223.745 152.997 224.266 152.067 224.952 151.266C225.639 150.464 226.477 149.807 227.419 149.331C230.769 147.491 235.629 148.331 235.629 148.331C235.629 148.331 238.489 145.421 242.199 146.331C247.369 147.621 248.729 154.561 244.859 158.001C242.149 160.421 237.089 158.841 237.089 158.841C236.689 159.021 233.199 162.741 228.959 159.841C228.959 159.841 227.029 162.841 224.249 161.921C224.091 162.708 223.693 163.428 223.109 163.979C222.525 164.531 221.784 164.888 220.989 165.001Z" fill="#263238"/>
<path d="M226.19 173.91C226.19 173.91 221.87 169.51 219.82 171.13C217.77 172.75 221.6 179.54 224.42 180.08C224.776 180.176 225.148 180.199 225.513 180.147C225.879 180.096 226.23 179.97 226.545 179.778C226.86 179.586 227.133 179.333 227.347 179.032C227.561 178.731 227.712 178.39 227.79 178.03L226.19 173.91Z" fill="#EB9481"/>
<path d="M220.961 173.08V173.15C222.961 173.6 224.221 175.15 225.211 176.83C225.068 176.665 224.892 176.532 224.693 176.441C224.495 176.351 224.279 176.304 224.061 176.304C223.843 176.304 223.627 176.351 223.429 176.441C223.23 176.532 223.054 176.665 222.911 176.83C222.911 176.83 222.911 176.94 222.971 176.92C223.282 176.761 223.633 176.702 223.978 176.751C224.324 176.799 224.646 176.952 224.901 177.19C225.325 177.592 225.7 178.041 226.021 178.53C226.141 178.68 226.421 178.53 226.331 178.36C225.951 175.87 223.601 172.86 220.961 173.08Z" fill="#263238"/>
<path d="M242.791 190.36L239.481 199.53L227.881 188.58L224.881 192.35C224.881 192.35 236.491 210 236.521 209.18L239.931 201.29L245.481 206.48L244.481 192.97L242.791 190.36Z" fill="#EBEBEB"/>
<path d="M245.369 199.769C245.139 197.549 244.969 195.299 244.629 193.089C244.629 193.009 244.499 192.979 244.479 193.089C244.119 195.259 245.049 203.769 245.119 205.809C244.889 205.589 239.989 201.259 239.939 201.329C239.189 202.589 236.679 208.329 236.519 208.859C234.679 206.049 227.659 195.859 225.519 193.239C225.506 193.228 225.49 193.221 225.473 193.22C225.456 193.219 225.439 193.223 225.425 193.232C225.41 193.24 225.399 193.254 225.393 193.27C225.386 193.285 225.385 193.303 225.389 193.319C227.029 196.319 236.319 210.009 236.449 209.959C237.782 207.248 238.971 204.467 240.009 201.629C240.849 202.579 245.819 207.479 245.829 207.149C245.802 204.683 245.649 202.22 245.369 199.769Z" fill="#263238"/>
<path d="M44 10.0703V49.4503H83.43V10.0703H44ZM47 46.5103V13.0403H80.45V46.5103H47Z" fill="#EBEBEB"/>
<path d="M205.79 0H72.0195V123.19H205.79V0Z" fill="#37474F"/>
<path d="M162.799 61.0906C179.099 77.6106 199.599 112.361 195.799 119.411C191.539 127.261 168.849 104.101 168.929 102.741C168.999 101.741 161.019 80.6106 154.929 65.2606C148.839 49.9106 158.769 57.0006 162.799 61.0906Z" fill="#F7A9A0"/>
<path d="M168.759 102.77C168.069 100.51 157.199 72.6798 154.099 63.8698C150.999 55.0598 153.869 52.3498 162.739 60.4098C171.609 68.4698 191.049 95.4098 195.489 109.7C199.759 123.45 192.669 123.45 183.349 117.12C175.659 111.93 168.759 102.77 168.759 102.77Z" fill="#01A657"/>
<path opacity="0.1" d="M161.201 61.3203C160.989 62.5554 160.458 63.7136 159.661 64.6803C159.762 64.0646 159.947 63.4657 160.211 62.9003C160.47 62.3323 160.803 61.801 161.201 61.3203ZM188.081 99.6003C187.81 100.163 187.624 100.763 187.531 101.38C187.938 100.904 188.275 100.372 188.531 99.8003C188.795 99.235 188.98 98.6361 189.081 98.0203C188.67 98.4939 188.333 99.0265 188.081 99.6003ZM178.471 84.9703C178.201 85.5369 178.016 86.14 177.921 86.7603C178.326 86.2791 178.663 85.744 178.921 85.1703C179.188 84.606 179.373 84.0067 179.471 83.3903C179.066 83.868 178.729 84.3997 178.471 84.9703ZM168.471 81.3003C167.908 81.0291 167.308 80.8437 166.691 80.7503C167.658 81.5477 168.816 82.0785 170.051 82.2903C169.58 81.8882 169.055 81.5548 168.491 81.3003H168.471ZM177.471 96.0903C176.904 95.8205 176.301 95.6352 175.681 95.5403C176.162 95.9456 176.697 96.2821 177.271 96.5403C177.835 96.807 178.434 96.9922 179.051 97.0903C178.579 96.6868 178.054 96.3502 177.491 96.0903H177.471ZM170.151 70.7603C169.588 70.4891 168.988 70.3037 168.371 70.2103C168.847 70.6176 169.379 70.9544 169.951 71.2103C170.514 71.4802 171.114 71.6655 171.731 71.7603C171.261 71.3546 170.736 71.0179 170.171 70.7603H170.151ZM164.571 90.5103C164.783 91.0981 165.075 91.6535 165.441 92.1603C165.319 90.9114 164.874 89.7157 164.151 88.6903C164.215 89.314 164.363 89.9261 164.591 90.5103H164.571ZM183.401 108.13C183.611 108.719 183.904 109.275 184.271 109.78C184.149 108.531 183.704 107.336 182.981 106.31C183.039 106.935 183.187 107.548 183.421 108.13H183.401ZM170.721 105.13L171.051 105.52C171.596 105.319 172.111 105.043 172.581 104.7C171.948 104.763 171.328 104.918 170.741 105.16L170.721 105.13ZM193.031 115.65C193.62 115.441 194.175 115.148 194.681 114.78C194.057 114.832 193.444 114.974 192.861 115.2C192.27 115.406 191.714 115.699 191.211 116.07C191.839 116.025 192.458 115.894 193.051 115.68L193.031 115.65ZM159.561 74.8603C159.153 75.011 158.758 75.195 158.381 75.4103L158.471 75.6603C158.898 75.585 159.317 75.4677 159.721 75.3103C160.315 75.1048 160.874 74.8116 161.381 74.4403C160.763 74.5075 160.158 74.6589 159.581 74.8903L159.561 74.8603Z" fill="black"/>
<path d="M166.811 123.22H104.811C104.811 123.22 114.661 74.6196 138.421 53.5796C141.361 50.9796 147.981 51.5796 152.311 53.7196C153.851 54.4896 159.391 62.2396 160.971 69.5696C162.551 76.8996 166.991 123 166.811 123.22Z" fill="#01A657"/>
<path d="M161.55 72.5991C162.04 74.2391 162.44 75.9291 162.77 77.5991C162.765 77.5325 162.765 77.4656 162.77 77.3991C162.77 76.3991 162.77 75.4691 162.9 74.5091C162.9 74.5091 162.99 74.4491 162.99 74.5091C163.117 75.4737 163.144 76.4489 163.07 77.4191C163.07 77.8691 163.02 78.3291 162.98 78.7891C163.11 79.5491 163.23 80.3191 163.32 81.0791C163.51 82.5191 163.99 87.9091 164.03 88.9791C164.03 89.1991 163.78 89.2391 163.72 88.9791C163.43 87.8991 162.66 82.3391 162.41 80.9091C161.927 78.1391 161.593 75.345 161.41 72.5391C161.44 72.5391 161.53 72.5391 161.55 72.5991Z" fill="#263238"/>
<path opacity="0.1" d="M142.35 66.2697C142.249 66.8866 142.06 67.4859 141.79 68.0497C141.538 68.6235 141.201 69.1561 140.79 69.6297C140.893 69.0132 141.081 68.4141 141.35 67.8497C141.605 67.2771 141.941 66.7448 142.35 66.2697ZM133.95 90.9497C133.679 91.5122 133.493 92.1122 133.4 92.7297C134.197 91.763 134.728 90.6048 134.94 89.3697C134.536 89.8464 134.203 90.3784 133.95 90.9497ZM113.82 99.7797C113.55 100.346 113.365 100.949 113.27 101.57C113.675 101.092 114.012 100.56 114.27 99.9897C114.54 99.4231 114.725 98.82 114.82 98.1997C114.415 98.6773 114.078 99.2091 113.82 99.7797ZM128.62 115.61C128.349 116.172 128.163 116.772 128.07 117.39C128.472 116.91 128.808 116.378 129.07 115.81C129.331 115.24 129.516 114.638 129.62 114.02C129.211 114.498 128.874 115.034 128.62 115.61ZM154.45 85.0297C154.185 85.598 153.999 86.2004 153.9 86.8197C154.309 86.3411 154.646 85.8054 154.9 85.2297C155.171 84.6672 155.357 84.0672 155.45 83.4497C155.048 83.9298 154.712 84.4611 154.45 85.0297ZM162.59 101.82C162.32 102.386 162.135 102.989 162.04 103.61C162.445 103.132 162.782 102.6 163.04 102.03C163.31 101.463 163.495 100.86 163.59 100.24C163.187 100.719 162.851 101.251 162.59 101.82ZM142.89 113.92C142.629 114.49 142.444 115.092 142.34 115.71C142.749 115.231 143.086 114.695 143.34 114.12C143.61 113.556 143.799 112.957 143.9 112.34C143.492 112.817 143.152 113.349 142.89 113.92ZM124.02 81.1897C123.751 81.7541 123.563 82.3532 123.46 82.9697C123.871 82.4962 124.208 81.9635 124.46 81.3897C124.73 80.8259 124.919 80.2266 125.02 79.6097C124.611 80.0848 124.275 80.6171 124.02 81.1897ZM147.44 75.6697C146.877 75.3985 146.277 75.2131 145.66 75.1197C146.136 75.527 146.668 75.8638 147.24 76.1197C147.805 76.385 148.404 76.5702 149.02 76.6697C148.544 76.2624 148.012 75.9256 147.44 75.6697ZM151.35 95.6097C150.787 95.3385 150.187 95.1531 149.57 95.0597C150.049 95.4636 150.58 95.8 151.15 96.0597C151.714 96.3264 152.314 96.5116 152.93 96.6097C152.456 96.199 151.924 95.8619 151.35 95.6097ZM114.91 116.74C114.346 116.47 113.747 116.281 113.13 116.18C113.603 116.59 114.136 116.927 114.71 117.18C115.275 117.447 115.874 117.635 116.49 117.74C116.016 117.329 115.484 116.992 114.91 116.74ZM151.99 120.74C151.425 120.474 150.826 120.289 150.21 120.19C150.686 120.597 151.218 120.934 151.79 121.19L152.17 121.36C152.5 121.36 152.82 121.36 153.17 121.42C152.798 121.167 152.403 120.949 151.99 120.77V120.74ZM128.84 100.56C128.276 100.293 127.676 100.108 127.06 100.01C127.533 100.42 128.066 100.757 128.64 101.01C129.204 101.278 129.803 101.463 130.42 101.56C129.94 101.166 129.408 100.84 128.84 100.59V100.56ZM147.44 57.9897C146.876 57.7197 146.277 57.5311 145.66 57.4297C146.136 57.8365 146.668 58.1733 147.24 58.4297C147.807 58.6905 148.405 58.8754 149.02 58.9797C148.544 58.5831 148.011 58.2596 147.44 58.0197V57.9897ZM151.44 67.2397C151.648 67.8293 151.941 68.3852 152.31 68.8897C152.254 68.2666 152.113 67.6542 151.89 67.0697C151.678 66.4818 151.386 65.9264 151.02 65.4197C151.077 66.0543 151.225 66.6775 151.46 67.2697L151.44 67.2397ZM161.35 113.39C161.556 113.98 161.849 114.536 162.22 115.04C162.098 113.791 161.653 112.595 160.93 111.57C160.982 112.193 161.123 112.806 161.35 113.39ZM134.76 78.8597C134.974 79.4467 135.266 80.0018 135.63 80.5097C135.581 79.8865 135.443 79.2735 135.22 78.6897C135.006 78.1027 134.714 77.5476 134.35 77.0397C134.387 77.6598 134.508 78.2721 134.71 78.8597H134.76ZM142.42 99.1597C142.627 99.7494 142.921 100.305 143.29 100.81C143.237 100.186 143.095 99.5734 142.87 98.9897C142.658 98.4019 142.365 97.8465 142 97.3397C142.028 97.9601 142.146 98.5731 142.35 99.1597H142.42ZM106.91 122.97C106.905 123.053 106.905 123.136 106.91 123.22H107.07L106.91 122.97ZM124.35 122.89C124.141 122.298 123.848 121.739 123.48 121.23C123.531 121.854 123.672 122.467 123.9 123.05L123.96 123.22H124.46C124.35 123.11 124.35 123 124.35 122.89ZM120.79 108.58C121.002 109.168 121.295 109.723 121.66 110.23C121.609 109.606 121.468 108.993 121.24 108.41C121.033 107.82 120.739 107.264 120.37 106.76C120.407 107.381 120.532 107.993 120.74 108.58H120.79ZM135.79 60.7997C135.993 61.3912 136.287 61.9477 136.66 62.4497C136.607 61.8262 136.465 61.2134 136.24 60.6297C136.028 60.0419 135.735 59.4865 135.37 58.9797C135.408 59.6015 135.536 60.2146 135.75 60.7997H135.79ZM152.35 107.63C152.938 107.418 153.493 107.125 154 106.76C153.377 106.808 152.764 106.946 152.18 107.17C151.593 107.383 151.038 107.676 150.53 108.04C151.153 107.991 151.766 107.853 152.35 107.63ZM136.11 122.55C136.699 122.34 137.254 122.047 137.76 121.68C136.511 121.802 135.315 122.246 134.29 122.97C134.914 122.918 135.527 122.776 136.11 122.55ZM108.52 109.04C108.52 109.18 108.43 109.32 108.39 109.46C108.689 109.313 108.973 109.139 109.24 108.94C108.998 108.957 108.757 108.99 108.52 109.04ZM122.66 91.8497C123.252 91.6403 123.811 91.3473 124.32 90.9797C123.696 91.0305 123.083 91.172 122.5 91.3997C121.908 91.6091 121.349 91.9021 120.84 92.2697C121.463 92.214 122.075 92.0726 122.66 91.8497ZM135.66 108.27C136.26 108.079 136.829 107.803 137.35 107.45C136.101 107.572 134.905 108.016 133.88 108.74C134.496 108.669 135.099 108.511 135.67 108.27H135.66ZM143.35 84.7197C143.94 84.5061 144.499 84.2134 145.01 83.8497C144.387 83.8971 143.773 84.0353 143.19 84.2597C142.602 84.4712 142.047 84.7641 141.54 85.1297C142.16 85.0811 142.77 84.943 143.35 84.7197ZM159.7 75.3397C160.294 75.1342 160.853 74.841 161.36 74.4697C160.736 74.5205 160.123 74.662 159.54 74.8897C158.95 75.0972 158.394 75.3903 157.89 75.7597C158.524 75.7115 159.147 75.57 159.74 75.3397H159.7ZM130.47 69.8597C131.059 69.65 131.614 69.357 132.12 68.9897C130.871 69.1117 129.675 69.5562 128.65 70.2797C129.287 70.2316 129.914 70.0901 130.51 69.8597H130.47Z" fill="black"/>
<path d="M84.8008 34.4508C84.6708 31.4508 85.2708 17.7808 86.2908 14.0108C87.3108 10.2408 91.0308 -0.409185 94.0008 0.0808148C96.9708 0.570815 96.1308 3.77082 96.1308 3.77082C96.1308 3.77082 98.4108 -0.479181 101.361 0.280819C104.311 1.04082 102.831 5.99082 102.831 5.99082C102.831 5.99082 105.491 1.80082 108.381 2.77082C111.271 3.74082 108.951 8.46082 108.951 8.46082C108.951 8.46082 111.201 4.52082 113.241 6.32082C115.691 8.48082 110.711 15.3208 109.901 19.5308C109.711 20.5308 107.541 39.3608 107.541 39.3608L84.8008 34.4508Z" fill="#F7A9A0"/>
<path d="M109.139 8.07958C105.479 13.0796 104.749 15.9196 104.349 22.0096C104.349 22.1296 104.159 22.1396 104.159 22.0096C104.009 16.0096 104.419 12.3296 108.899 7.87958C109.119 7.67958 109.349 7.84958 109.139 8.07958Z" fill="#263238"/>
<path d="M103.13 5.63084C99.7902 11.1608 98.9702 14.2208 98.0702 20.5608C98.0702 20.6508 97.9102 20.6408 97.9102 20.5608C98.2702 14.2608 98.7602 10.5608 102.82 5.56084C103.01 5.27084 103.28 5.37084 103.13 5.63084Z" fill="#263238"/>
<path d="M96.0904 4.11962C93.2504 9.70962 92.2104 13.0296 92.0904 19.2996C92.083 19.3244 92.0679 19.3461 92.0471 19.3616C92.0264 19.377 92.0013 19.3853 91.9754 19.3853C91.9496 19.3853 91.9244 19.377 91.9037 19.3616C91.883 19.3461 91.8678 19.3244 91.8604 19.2996C91.3204 12.8996 92.5904 8.74962 95.8604 4.03962C96.1404 3.72962 96.2704 3.76962 96.0904 4.11962Z" fill="#263238"/>
<path d="M107.351 43.2893C107.351 43.2893 113.001 37.9593 114.971 35.0793C116.941 32.1993 120.321 18.7293 117.451 17.8293C113.751 16.6793 110.271 24.0593 109.041 27.8993C109.041 27.8993 100.481 25.2193 96.8408 29.9793C93.2008 34.7393 107.351 43.2893 107.351 43.2893Z" fill="#F7A9A0"/>
<path d="M116.351 17.8502C112.221 19.2302 110.931 24.3702 109.451 28.0102C109.432 28.0652 109.4 28.1148 109.358 28.1548C109.315 28.1947 109.264 28.2238 109.208 28.2395C109.152 28.2553 109.093 28.2572 109.036 28.2451C108.979 28.233 108.926 28.2073 108.881 28.1702C105.221 27.2802 99.8009 27.1002 96.8809 29.7402C96.865 29.7587 96.8424 29.7702 96.818 29.7721C96.7936 29.774 96.7695 29.7661 96.7509 29.7502C96.7324 29.7343 96.7209 29.7116 96.719 29.6873C96.7171 29.6629 96.7251 29.6387 96.741 29.6202C99.551 26.3502 104.891 26.1002 108.841 27.3202C110.291 23.5702 111.841 18.4602 116.391 17.8102C116.351 17.8002 116.351 17.8402 116.351 17.8502Z" fill="#263238"/>
<path d="M141.88 60.8295C138.16 67.2695 116.66 87.1195 97.8798 90.5595C95.3398 91.0195 85.6598 88.9795 83.6298 82.5595C80.0198 71.1195 82.9098 47.4995 84.7498 33.2795C85.1098 30.5095 110.89 36.2095 110.22 40.4495C109.48 45.1495 106.72 62.3995 107.15 62.5995C108.69 63.3095 125.15 56.1895 135.98 53.8595C143.68 52.1995 144.75 55.8695 141.88 60.8295Z" fill="#F7A9A0"/>
<path d="M81.1402 40.3008L110.52 46.6608C110.52 46.6608 107.85 61.6608 108.37 61.5908C108.89 61.5208 129.51 53.9808 137.46 53.1908C145.41 52.4008 145.4 55.9008 141.37 62.4608C137.34 69.0208 110.94 90.9808 97.9302 90.9808C91.3102 90.9808 85.1502 86.7408 83.9302 84.7108C80.2202 78.4508 81.1402 40.3008 81.1402 40.3008Z" fill="#455A64"/>
<path d="M81.1402 40.3008L110.52 46.6608C110.52 46.6608 107.85 61.6608 108.37 61.5908C108.89 61.5208 129.51 53.9808 137.46 53.1908C145.41 52.4008 145.4 55.9008 141.37 62.4608C137.34 69.0208 110.94 90.9808 97.9302 90.9808C91.3102 90.9808 85.1502 86.7408 83.9302 84.7108C80.2202 78.4508 81.1402 40.3008 81.1402 40.3008Z" fill="#01A657"/>
<path opacity="0.1" d="M123.239 61.2191C122.972 61.7834 122.787 62.3828 122.689 62.9991C123.1 62.5256 123.437 61.993 123.689 61.4191C123.959 60.8561 124.144 60.2563 124.239 59.6391C123.835 60.1177 123.499 60.6493 123.239 61.2191ZM99.899 87.4491C99.6278 88.0117 99.4424 88.6117 99.3491 89.2291C100.146 88.2625 100.677 87.1042 100.889 85.8691C100.487 86.3474 100.154 86.8792 99.899 87.4491ZM82.5991 69.4491C82.3247 70.0112 82.1359 70.6112 82.0391 71.2291C82.4459 70.7528 82.7826 70.2207 83.0391 69.6491C83.3009 69.083 83.4858 68.4843 83.5891 67.8691C83.184 68.3449 82.8505 68.8772 82.5991 69.4491ZM108.169 69.5191C107.904 70.0875 107.719 70.6899 107.619 71.3091C108.03 70.8321 108.367 70.2961 108.619 69.7191C108.889 69.1553 109.078 68.556 109.179 67.9391C108.769 68.4186 108.429 68.954 108.169 69.5291V69.5191ZM95.3491 76.9391C95.085 77.5045 94.9 78.1034 94.7991 78.7191C95.2097 78.2456 95.5469 77.713 95.7991 77.1391C96.0691 76.5753 96.2576 75.976 96.3591 75.3591C95.9487 75.8349 95.6086 76.367 95.3491 76.9391ZM96.4891 58.8791C96.2207 59.4428 96.0354 60.0424 95.9391 60.6591C96.7364 59.6925 97.2673 58.5342 97.4791 57.2991C97.0577 57.7726 96.7073 58.3049 96.4391 58.8791H96.4891ZM83.3491 45.4491C83.079 46.013 82.8905 46.6123 82.7891 47.2291C83.2029 46.758 83.5403 46.2248 83.7891 45.6491C84.0576 45.0847 84.2461 44.4856 84.3491 43.8691C83.9418 44.3452 83.605 44.8773 83.3491 45.4491ZM136.179 60.6191C135.969 60.0304 135.676 59.4748 135.309 58.9691C135.36 59.593 135.501 60.2061 135.729 60.7891C135.933 61.3784 136.223 61.9344 136.589 62.4391C136.546 61.8203 136.415 61.2108 136.199 60.6291L136.179 60.6191ZM118.779 72.6191C118.568 72.0312 118.275 71.4758 117.909 70.9691C117.961 71.5928 118.102 72.2058 118.329 72.7891C118.535 73.3797 118.828 73.9359 119.199 74.4391C119.148 73.8238 119.013 73.2182 118.799 72.6391L118.779 72.6191ZM105.709 59.0891C105.499 58.5004 105.206 57.9448 104.839 57.4391C104.961 58.6881 105.406 59.8838 106.129 60.9091C106.082 60.2932 105.947 59.6872 105.729 59.1091L105.709 59.0891ZM104.019 78.6691C103.809 78.0804 103.516 77.5248 103.149 77.0191C103.201 77.6428 103.342 78.2558 103.569 78.8391C103.777 79.4289 104.07 79.9848 104.439 80.4891C104.392 79.8732 104.257 79.2672 104.039 78.6891L104.019 78.6691ZM87.2591 76.5591C87.0516 75.9694 86.7585 75.4135 86.3891 74.9091C86.4471 75.5319 86.5884 76.144 86.8091 76.7291C87.0187 77.3179 87.3117 77.8735 87.679 78.3791C87.6327 77.7631 87.498 77.1569 87.2791 76.5791L87.2591 76.5591ZM92.5491 48.8791C92.3396 48.2872 92.0466 47.7282 91.679 47.2191C91.7276 47.8456 91.8657 48.4619 92.0891 49.0491C92.3049 49.6352 92.5974 50.19 92.959 50.6991C92.9161 50.0835 92.7848 49.4773 92.5691 48.8991L92.5491 48.8791ZM90.5491 64.5791C90.3375 63.9912 90.0447 63.4358 89.679 62.9291C89.731 63.5528 89.8724 64.1658 90.0991 64.7491C90.3065 65.3389 90.5997 65.8948 90.9691 66.3991C90.9292 65.784 90.8012 65.1779 90.5891 64.5991L90.5491 64.5791ZM130.349 69.4491C129.76 69.6588 129.205 69.9518 128.699 70.3191C129.323 70.266 129.935 70.1246 130.519 69.8991C131.108 69.6895 131.663 69.3965 132.169 69.0291C131.545 69.0811 130.932 69.2225 130.349 69.4491ZM99.2691 68.7291C98.6831 68.945 98.1282 69.2375 97.619 69.5991C98.2429 69.5483 98.856 69.4068 99.4391 69.1791C100.029 68.9717 100.585 68.6785 101.089 68.3091C100.464 68.3473 99.8476 68.4753 99.2591 68.6891L99.2691 68.7291ZM102.209 50.2691C101.621 50.4807 101.066 50.7735 100.559 51.1391C101.179 51.0871 101.789 50.9456 102.369 50.7191C102.961 50.5157 103.517 50.2223 104.019 49.8491C103.397 49.8874 102.784 50.0154 102.199 50.2291L102.209 50.2691ZM85.5291 56.0591C84.9411 56.2707 84.3857 56.5635 83.8791 56.9291C85.1285 56.8165 86.3258 56.3749 87.3491 55.6491C86.7249 55.6877 86.1092 55.8123 85.5191 56.0191L85.5291 56.0591ZM113.259 81.0591C112.672 81.2728 112.117 81.5655 111.609 81.9291C112.859 81.8165 114.056 81.3749 115.079 80.6491C114.452 80.6968 113.836 80.8349 113.249 81.0591H113.259ZM90.929 85.9491C90.3403 86.1588 89.7847 86.4518 89.2791 86.8191C89.9029 86.7683 90.516 86.6268 91.0991 86.3991C91.6888 86.1917 92.2447 85.8985 92.7491 85.5291C92.122 85.5801 91.5056 85.7216 90.9191 85.9491H90.929ZM114.999 61.0891C114.411 61.3007 113.856 61.5935 113.349 61.9591C113.971 61.9043 114.583 61.7664 115.169 61.5491C115.755 61.3333 116.31 61.0407 116.819 60.6791C116.192 60.7256 115.576 60.8638 114.989 61.0891H114.999Z" fill="black"/>
<path d="M108.6 61.7207C108.376 63.9602 107.985 66.1797 107.43 68.3607C106.94 70.5807 106.24 72.7307 105.59 74.9007H105.51C106.08 72.7207 106.51 70.4907 106.97 68.2807C107.43 66.0707 107.78 63.8607 108.35 61.6807C108.35 61.5207 108.61 61.5707 108.6 61.7207Z" fill="#263238"/>
<path d="M108.79 52.2002C105.39 51.3602 101.95 50.6902 98.4999 50.0402C95.0499 49.3902 91.5999 48.7202 88.1399 48.1502C86.1399 47.8302 84.2199 47.5002 82.2499 47.2402C82.2499 47.2402 82.1799 47.3202 82.2499 47.3302C85.6399 48.1802 89.0899 48.8602 92.5299 49.5402C95.9699 50.2202 99.4299 50.8602 102.88 51.4702C104.88 51.8102 106.8 52.1202 108.77 52.3702C108.84 52.3902 108.89 52.2302 108.79 52.2002Z" fill="#263238"/>
<path d="M118.491 82.21C119.031 81.73 119.631 81.32 120.201 80.88C120.771 80.44 121.301 80.01 121.861 79.59L125.261 76.98C127.521 75.23 129.741 73.42 131.981 71.64C133.261 70.64 134.521 69.64 135.781 68.56C135.786 68.5554 135.792 68.5519 135.799 68.5497C135.805 68.5474 135.812 68.5465 135.819 68.547C135.826 68.5475 135.833 68.5493 135.839 68.5524C135.845 68.5555 135.851 68.5598 135.856 68.565C135.86 68.5703 135.864 68.5764 135.866 68.583C135.868 68.5896 135.869 68.5966 135.869 68.6036C135.868 68.6105 135.866 68.6173 135.863 68.6236C135.86 68.6298 135.856 68.6354 135.851 68.64C134.311 70.09 132.751 71.52 131.151 72.9L131.751 72.61C132.371 72.3 132.971 71.97 133.571 71.61C133.571 71.61 133.661 71.66 133.571 71.69C133.008 72.0875 132.42 72.4483 131.811 72.77C131.511 72.93 131.211 73.09 130.901 73.23L130.451 73.42C130.091 73.73 129.731 74.04 129.361 74.34C127.141 76.1534 124.874 77.8967 122.561 79.57C121.894 80.03 121.244 80.48 120.611 80.92C119.921 81.37 119.251 81.87 118.521 82.28C118.508 82.2736 118.499 82.2632 118.493 82.2504C118.488 82.2376 118.487 82.2234 118.491 82.21Z" fill="#263238"/>
<path d="M147.65 68.4192L151.08 63.1992L154.31 67.5892L152.99 71.4692L149.33 71.5492L147.65 68.4192Z" fill="#263238"/>
<path d="M149.33 71.5507L143.25 111.981L149.42 126.231L154.99 111.541L152.99 71.4707L149.33 71.5507Z" fill="#263238"/>
<path d="M152.35 62.8295C148.78 63.6895 142.61 58.2695 140.16 53.8295C139.99 53.5295 140.44 50.3295 140.79 46.4095C141 44.0295 141.17 41.4095 141.16 38.9395L156.44 42.5495C155.588 45.5964 155.114 48.7367 155.03 51.8994C155.029 52.2358 155.066 52.5713 155.14 52.8994C155.14 52.9494 155.14 52.9994 155.14 53.0694C155.44 54.9794 155.76 61.9795 152.35 62.8295Z" fill="#F7A9A0"/>
<path d="M142.189 39.2207C142.659 42.4407 144.839 53.0407 153.549 53.2207C154.074 53.2336 154.599 53.2034 155.119 53.1307C155.116 53.0741 155.116 53.0173 155.119 52.9607C155.047 52.6321 155.007 52.2971 154.999 51.9607C155.091 48.7979 155.568 45.6581 156.419 42.6107L142.189 39.2207Z" fill="#263238"/>
<path d="M137.6 21.9098C136.43 27.4398 140.66 42.7598 144.8 45.9098C150.8 50.4498 159.94 50.1198 163.62 43.0598C167.19 36.2198 161.33 16.3598 156.77 13.5898C150.05 9.44982 139.35 13.7298 137.6 21.9098Z" fill="#F7A9A0"/>
<path d="M151.24 30.9902C151.24 30.9902 151.17 31.0602 151.18 31.1002C151.49 32.1002 151.68 33.3502 150.84 33.9502C150.84 33.9502 150.84 34.0202 150.84 34.0002C151.96 33.5302 151.7 31.9102 151.24 30.9902Z" fill="#263238"/>
<path d="M150.02 30.16C148.33 30.48 149.1 33.85 150.67 33.55C152.24 33.25 151.44 29.89 150.02 30.16Z" fill="#263238"/>
<path d="M157.461 29.4499C157.461 29.3999 157.551 29.4499 157.561 29.5199C157.761 30.5699 158.181 31.7399 159.201 31.8699V31.9299C158.021 32.0199 157.481 30.4499 157.461 29.4499Z" fill="#263238"/>
<path d="M158.14 28.1309C159.79 27.6209 160.69 30.9609 159.14 31.4309C157.59 31.9009 156.76 28.5609 158.14 28.1309Z" fill="#263238"/>
<path d="M148.349 28.9292C148.779 28.7092 149.139 28.4292 149.549 28.1692C149.959 27.9092 150.399 27.6792 150.619 27.1692C150.667 27.0161 150.663 26.8512 150.607 26.7008C150.551 26.5505 150.446 26.4231 150.309 26.3392C150.014 26.2084 149.689 26.1598 149.369 26.1985C149.048 26.2372 148.744 26.3618 148.489 26.5592C147.908 26.8789 147.466 27.4026 147.249 28.0292C147.21 28.1741 147.214 28.3271 147.26 28.4698C147.306 28.6126 147.393 28.739 147.509 28.834C147.625 28.9289 147.766 28.9884 147.915 29.0053C148.064 29.0222 148.215 28.9958 148.349 28.9292Z" fill="#A6A6A6"/>
<path d="M159.049 26.1404C158.576 26.1653 158.102 26.1653 157.629 26.1404C157.13 26.1987 156.626 26.0859 156.199 25.8204C156.079 25.7122 155.998 25.5671 155.969 25.4078C155.94 25.2485 155.965 25.0841 156.039 24.9404C156.229 24.6803 156.485 24.4755 156.78 24.3472C157.076 24.2189 157.4 24.1717 157.719 24.2104C158.38 24.1873 159.026 24.412 159.529 24.8404C159.626 24.9461 159.691 25.0762 159.719 25.2166C159.746 25.3571 159.735 25.5023 159.685 25.6365C159.635 25.7707 159.55 25.8887 159.438 25.9776C159.326 26.0665 159.191 26.1228 159.049 26.1404Z" fill="#A6A6A6"/>
<path d="M153.199 37.2395C153.562 37.5866 153.993 37.8547 154.465 38.0268C154.936 38.199 155.438 38.2714 155.939 38.2395C156.378 38.2271 156.813 38.1496 157.229 38.0095L157.459 37.9295L157.689 37.8395C157.741 37.8147 157.783 37.7742 157.81 37.7239C157.837 37.6736 157.847 37.6161 157.839 37.5595C157.844 37.523 157.844 37.4861 157.839 37.4495V37.3595C157.679 36.5495 157.319 35.3595 157.319 35.3595C157.649 35.4395 159.319 35.7695 159.179 35.3595C158.254 31.7623 156.968 28.2679 155.339 24.9295C155.33 24.9043 155.311 24.8839 155.287 24.8726C155.263 24.8614 155.235 24.8602 155.209 24.8695C155.184 24.8788 155.164 24.8977 155.153 24.9221C155.141 24.9465 155.14 24.9743 155.149 24.9995C155.989 28.3295 157.399 31.4895 158.289 34.8195C157.702 34.6932 157.099 34.6528 156.499 34.6995C156.389 34.7595 157.229 37.0095 157.279 37.3795C156.637 37.5998 155.956 37.6868 155.279 37.6352C154.601 37.5837 153.941 37.3946 153.339 37.0795C153.189 37.0795 153.119 37.1695 153.199 37.2395Z" fill="#263238"/>
<path d="M156.671 37.8694C156.328 38.5324 155.822 39.0969 155.201 39.5094C154.857 39.7147 154.46 39.8122 154.061 39.7894C153.171 39.7194 153.061 38.9495 153.061 38.2695C153.078 37.9029 153.142 37.5399 153.251 37.1895C154.29 37.773 155.487 38.0111 156.671 37.8694Z" fill="#263238"/>
<path d="M155.201 39.51C154.857 39.7152 154.46 39.8128 154.061 39.79C153.171 39.72 153.061 38.95 153.061 38.27C153.505 38.2067 153.957 38.2946 154.345 38.5195C154.733 38.7444 155.035 39.0932 155.201 39.51Z" fill="#FF9CBD"/>
<g opacity="0.2">
<path d="M152.85 23.8093C153.404 23.761 153.956 23.6775 154.5 23.5593C155.05 23.4193 155.56 23.1692 156.11 23.0392C157.165 22.8541 158.244 22.8541 159.3 23.0392C159.39 23.0392 159.39 23.1093 159.3 23.0993C158.183 22.948 157.047 23.0401 155.97 23.3692C155.111 23.7098 154.209 23.9285 153.29 24.0193C151.181 24.0318 149.13 24.7108 147.43 25.9592C148.981 24.7169 150.869 23.968 152.85 23.8093Z" fill="black"/>
<path d="M152.49 22.3497C153.018 22.313 153.543 22.2361 154.06 22.1197C154.58 21.9897 155.06 21.7497 155.59 21.6297C156.582 21.4568 157.597 21.4568 158.59 21.6297C158.68 21.6297 158.68 21.6997 158.59 21.6897C157.53 21.5547 156.453 21.6433 155.43 21.9497C154.616 22.2723 153.761 22.4777 152.89 22.5597C150.891 22.5758 148.949 23.2233 147.34 24.4097C148.814 23.2265 150.607 22.5093 152.49 22.3497Z" fill="black"/>
</g>
<path d="M139.119 35.1098C139.119 35.1098 133.759 26.2798 134.259 21.1698C134.479 18.8598 137.619 17.3098 137.619 17.3098C137.378 16.3679 137.405 15.3773 137.696 14.4497C137.988 13.5221 138.533 12.6944 139.269 12.0598C141.999 9.48979 148.609 10.0598 148.609 10.0598C148.609 10.0598 152.889 3.86979 158.949 6.31979C165.009 8.76979 161.069 15.6398 161.069 15.6398C161.069 15.6398 163.289 18.7998 157.859 21.2698C152.429 23.7398 141.759 21.3198 141.759 21.3198C142.266 25.0401 142.212 28.8155 141.599 32.5198C141.464 33.1378 141.161 33.7065 140.724 34.1635C140.286 34.6204 139.731 34.9479 139.119 35.1098Z" fill="#A6A6A6"/>
<path d="M149.649 10.1395C148.298 9.59027 146.847 9.32804 145.389 9.36948C144.085 9.348 142.786 9.55096 141.549 9.96948C140.437 10.285 139.431 10.8976 138.64 11.7415C137.849 12.5853 137.302 13.6287 137.059 14.7595C136.971 15.3463 137.001 15.9449 137.147 16.5202C137.293 17.0954 137.552 17.6357 137.909 18.1095C137.909 18.1095 137.999 18.1095 137.969 18.1095C136.569 16.3695 137.299 13.6695 138.749 12.2195C140.521 10.6794 142.792 9.83691 145.139 9.84948C146.643 9.83042 148.143 9.98817 149.609 10.3195C149.699 10.2895 149.729 10.1795 149.649 10.1395Z" fill="#A6A6A6"/>
<path d="M142.051 34.2999C142.051 34.2999 137.991 29.6599 135.841 31.1599C133.691 32.6599 137.141 39.6599 139.921 40.3599C140.272 40.4763 140.643 40.5203 141.011 40.489C141.38 40.4577 141.738 40.3519 142.064 40.178C142.391 40.004 142.678 39.7656 142.91 39.4771C143.141 39.1887 143.312 38.8562 143.411 38.4999L142.051 34.2999Z" fill="#F7A9A0"/>
<path d="M136.881 33.139V33.209C138.881 33.769 140.021 35.399 140.881 37.129C140.75 36.9542 140.583 36.8095 140.391 36.7046C140.199 36.5998 139.987 36.5372 139.77 36.5211C139.552 36.5049 139.333 36.5357 139.128 36.6112C138.923 36.6868 138.736 36.8054 138.581 36.959C138.568 36.9683 138.559 36.9825 138.556 36.9984C138.553 37.0144 138.557 37.0308 138.566 37.044C138.575 37.0573 138.589 37.0663 138.605 37.0691C138.621 37.072 138.638 37.0683 138.651 37.059C138.968 36.917 139.321 36.8772 139.662 36.9453C140.002 37.0134 140.313 37.186 140.551 37.4391C140.934 37.8684 141.269 38.3378 141.551 38.839C141.651 38.999 141.951 38.8391 141.861 38.6891C141.701 36.2491 139.471 33.099 136.881 33.139Z" fill="#263238"/>
<path d="M150.941 36.4507C150.065 36.5684 149.174 36.4379 148.369 36.0742C147.563 35.7104 146.876 35.128 146.386 34.3931C145.895 33.6582 145.621 32.8004 145.594 31.9173C145.567 31.0341 145.788 30.1612 146.233 29.3976C146.677 28.6341 147.327 28.0107 148.109 27.5983C148.89 27.186 149.772 27.0012 150.653 27.0651C151.534 27.129 152.38 27.4389 153.094 27.9596C153.807 28.4804 154.361 29.191 154.691 30.0107C154.922 30.5859 155.037 31.201 155.031 31.8208C155.024 32.4407 154.896 33.0532 154.652 33.6234C154.409 34.1935 154.056 34.7102 153.613 35.1438C153.17 35.5775 152.646 35.9196 152.071 36.1507C151.707 36.2937 151.327 36.3943 150.941 36.4507ZM149.781 27.7107C149.438 27.7589 149.103 27.8462 148.781 27.9707C147.818 28.3567 147.038 29.0949 146.6 30.0353C146.162 30.9756 146.099 32.0474 146.423 33.0327C146.748 34.018 147.435 34.8429 148.345 35.3395C149.256 35.8362 150.322 35.9673 151.326 35.7063C152.33 35.4453 153.196 34.8117 153.75 33.9344C154.303 33.0571 154.502 32.002 154.305 30.9835C154.108 29.9651 153.531 29.0598 152.69 28.4519C151.85 27.8439 150.809 27.5789 149.781 27.7107Z" fill="#455A64"/>
<path d="M161.42 33.7098C159.63 33.9498 157.76 32.3298 157.15 29.9498C156.844 28.8111 156.899 27.6052 157.31 26.4998C157.457 26.0158 157.726 25.5779 158.091 25.2288C158.457 24.8796 158.907 24.631 159.397 24.5072C159.888 24.3834 160.401 24.3885 160.889 24.5221C161.377 24.6558 161.822 24.9134 162.18 25.2698C163.085 26.0492 163.71 27.1026 163.96 28.2698C164.6 30.7898 163.6 33.2698 161.72 33.6998C161.621 33.7126 161.52 33.7159 161.42 33.7098ZM159.79 25.0798H159.55C159.165 25.1986 158.813 25.4075 158.525 25.6892C158.236 25.971 158.018 26.3174 157.89 26.6998C157.534 27.6788 157.489 28.744 157.76 29.7498C158.32 31.9398 160.02 33.3998 161.56 32.9998C163.1 32.5998 163.91 30.5198 163.35 28.3298C163.113 27.3141 162.564 26.398 161.78 25.7098C161.511 25.4709 161.195 25.2913 160.852 25.1828C160.51 25.0742 160.148 25.0391 159.79 25.0798Z" fill="#455A64"/>
<path d="M154.68 30.5699L154.16 30.1999C154.71 29.4399 156.11 28.2499 157.53 29.1999L157.19 29.7299C155.92 28.8799 154.73 30.4999 154.68 30.5699Z" fill="#455A64"/>
<path d="M134.6 36.92L133.99 36.78C134.05 36.49 134.67 33.97 135.99 33.4C137.31 32.83 145.61 31.55 145.99 31.5L146.09 32.12C143.68 32.5 137.22 33.56 136.27 33.98C135.32 34.4 134.76 36.23 134.6 36.92Z" fill="#455A64"/>
<path d="M155.111 52.7592L150.841 61.5192L140.471 49.4492L137.061 52.8792C137.061 52.8792 146.731 71.6592 146.851 70.8792L151.081 63.3992L156.081 69.1492L156.571 55.6092L155.111 52.7592Z" fill="#EBEBEB"/>
<path d="M156.671 62.3897C156.671 60.1497 156.751 57.8997 156.671 55.6597C156.671 55.5897 156.541 55.5397 156.521 55.6597C155.931 57.7797 155.941 66.3397 155.791 68.3797C155.591 68.1397 151.171 63.3097 151.121 63.3797C150.231 64.5497 147.121 69.9997 146.911 70.4997C145.391 67.4997 139.491 56.6497 137.641 53.7997C137.629 53.7854 137.613 53.7754 137.595 53.7714C137.577 53.7675 137.559 53.7698 137.542 53.778C137.526 53.7862 137.513 53.7998 137.505 53.8165C137.498 53.8332 137.496 53.852 137.501 53.8697C138.811 56.9997 146.601 71.6197 146.731 71.5897C148.344 69.0317 149.822 66.3915 151.161 63.6797C151.891 64.6797 156.311 70.1197 156.351 69.7897C156.584 67.3302 156.691 64.8602 156.671 62.3897Z" fill="#263238"/>
<path d="M195.78 119.45C192.11 124.69 182.12 125.7 157.22 130.57C153.77 131.25 142.46 108.21 146.1 107.3C150.69 106.15 168.75 102.7 170.1 102.61C181.51 101.85 198.27 115.85 195.78 119.45Z" fill="#F7A9A0"/>
<path d="M151.091 106.119C151.091 106.119 140.531 107.719 135.251 110.269C129.825 113.065 125.159 117.134 121.651 122.129C117.851 127.509 112.371 143.129 116.601 145.509C120.431 147.649 125.221 131.389 125.221 131.389C125.221 131.389 117.601 147.159 122.681 148.889C127.761 150.619 132.251 131.449 132.251 131.449C132.251 131.449 124.781 147.839 130.301 148.789C134.481 149.509 139.521 132.349 139.521 132.349C139.521 132.349 133.201 146.479 137.461 147.409C142.171 148.409 147.821 132.879 147.821 132.879C159.041 133.409 164.601 129.069 168.191 125.509C169.061 124.619 151.091 106.119 151.091 106.119Z" fill="#F7A9A0"/>
<path d="M127.499 125.76C126.499 127.58 125.549 129.42 124.759 131.32C123.969 133.22 123.229 135.15 122.609 137.11C121.757 139.665 121.197 142.308 120.939 144.99C121.739 140.27 124.489 133.42 125.289 131.52C126.089 129.62 126.779 127.68 127.579 125.79C127.599 125.74 127.529 125.72 127.499 125.76Z" fill="#263238"/>
<path d="M134.42 128.51C133.29 130.89 132.08 133.21 131.06 135.64C130.04 138.07 129.29 140.44 128.44 142.92C128.37 143.11 128.5 143.08 128.57 142.92C129.52 140.48 130.57 138.29 131.57 135.86C132.57 133.43 133.43 130.95 134.49 128.56C134.49 128.5 134.43 128.45 134.42 128.51Z" fill="#263238"/>
<path d="M140.78 129.809C138.958 133.413 137.517 137.197 136.48 141.099C136.42 141.289 136.58 141.239 136.64 141.039C138 137.259 139.04 134.289 140.9 129.869C140.93 129.809 140.82 129.729 140.78 129.809Z" fill="#263238"/>
<path d="M148.891 106.12L170.711 130.45C170.711 130.45 192.781 125.39 196.031 119.73C198.171 116 181.551 100.91 169.031 102.67L148.891 106.12Z" fill="#01A657"/>
<path opacity="0.1" d="M168.259 121.29C168.163 121.907 167.978 122.506 167.709 123.07C167.457 123.644 167.12 124.176 166.709 124.65C166.807 124.033 166.993 123.434 167.259 122.87C167.519 122.3 167.855 121.768 168.259 121.29ZM183.419 119.92C183.154 120.488 182.969 121.09 182.869 121.71C183.278 121.231 183.615 120.696 183.869 120.12C184.139 119.556 184.328 118.957 184.429 118.34C184.021 118.817 183.681 119.349 183.419 119.92ZM172.609 114.82C172.047 114.549 171.447 114.363 170.829 114.27C171.796 115.067 172.954 115.598 174.189 115.81C173.713 115.406 173.181 115.073 172.609 114.82ZM183.419 108.13C183.629 108.719 183.922 109.274 184.289 109.78C184.167 108.531 183.723 107.335 182.999 106.31C183.051 106.933 183.193 107.546 183.419 108.13ZM161.349 113.39C161.555 113.98 161.848 114.537 162.219 115.04C162.097 113.791 161.653 112.595 160.929 111.57C160.981 112.193 161.123 112.806 161.349 113.39ZM152.349 107.63C152.937 107.418 153.493 107.125 153.999 106.76C153.376 106.808 152.763 106.946 152.179 107.17C151.592 107.383 151.037 107.676 150.529 108.04C151.153 107.991 151.765 107.853 152.349 107.63ZM170.929 105.63C171.517 105.418 172.073 105.125 172.579 104.76C171.956 104.809 171.343 104.947 170.759 105.17C170.173 105.386 169.618 105.678 169.109 106.04C169.726 105.982 170.331 105.841 170.909 105.62L170.929 105.63ZM177.809 126.99C178.398 126.78 178.954 126.487 179.459 126.12C178.835 126.171 178.222 126.312 177.639 126.54C177.05 126.747 176.494 127.04 175.989 127.41C176.607 127.352 177.212 127.207 177.789 126.98L177.809 126.99ZM194.209 114.87C193.762 114.953 193.324 115.077 192.899 115.24C192.311 115.449 191.755 115.742 191.249 116.11C191.872 116.053 192.484 115.912 193.069 115.69C193.522 115.529 193.954 115.317 194.359 115.06L194.209 114.87Z" fill="black"/>
<path d="M183.971 106.589C179.633 103.455 174.293 102.031 168.971 102.589C168.911 102.589 168.911 102.699 168.971 102.699C174.451 102.549 181.841 105.409 183.911 106.649C183.981 106.719 184.031 106.629 183.971 106.589Z" fill="#263238"/>
<path d="M176.681 126.351C174.421 123.551 172.021 120.881 169.601 118.211C167.181 115.541 164.781 112.861 162.301 110.211C160.901 108.741 159.511 107.211 158.061 105.831C158.053 105.82 158.041 105.813 158.028 105.811C158.015 105.809 158.001 105.813 157.991 105.821C157.98 105.828 157.973 105.84 157.971 105.853C157.969 105.867 157.973 105.88 157.981 105.891C160.241 108.681 162.631 111.371 164.981 114.051C167.331 116.731 169.801 119.411 172.251 122.051C173.631 123.541 175.041 125.051 176.491 126.441C176.611 126.541 176.741 126.451 176.681 126.351Z" fill="#263238"/>
<path d="M148.85 105.811C150.19 105.402 151.557 105.088 152.94 104.871C154.31 104.621 155.7 104.381 157.08 104.161C159.83 103.721 165.61 102.471 170.69 102.481C170.75 102.481 170.46 102.761 170.4 102.751C167.98 102.621 150.65 106.071 149.23 106.171C149.28 106.271 149.34 106.361 149.38 106.461C149.395 106.476 149.403 106.498 149.402 106.519C149.401 106.541 149.391 106.561 149.375 106.576C149.36 106.59 149.338 106.598 149.317 106.597C149.295 106.596 149.275 106.586 149.26 106.571C149.08 106.451 148.96 106.301 148.79 106.171C148.758 106.149 148.733 106.119 148.718 106.084C148.702 106.048 148.698 106.009 148.704 105.971C148.71 105.933 148.727 105.898 148.753 105.869C148.779 105.841 148.813 105.82 148.85 105.811Z" fill="#263238"/>
<path d="M94.6994 201.766C93.8001 205.044 93.2086 208.4 92.9326 211.788C93.0222 211.959 93.0059 212.603 92.9326 212.407C92.9326 212.953 92.1184 212.855 92.1184 212.318C92.1184 211.959 92.1184 211.609 92.1184 211.259C90.1643 208.817 87.3228 207.294 85.0186 205.177C83.1699 203.519 81.8242 201.375 81.1348 198.989C79.2296 192.419 81.0127 185.465 78.6922 178.911C76.7219 173.26 73.1801 168.326 70.1757 163.238C67.0084 157.823 64.6798 152.14 64.4763 145.797C64.289 140.912 64.8671 134.48 68.5473 130.841C72.4636 126.981 77.3244 129.872 80.3288 133.283C89.0245 143.265 93.0466 155.885 94.675 168.782C95.5706 175.923 96.507 183.104 96.3034 190.31C96.1518 194.172 95.6145 198.01 94.6994 201.766Z" fill="#01A657"/>
<path d="M92.9656 214.411C93.4449 207.674 93.3659 200.91 92.7295 194.186C92.7295 194.186 92.7295 194.145 92.7295 194.113C92.8354 188.641 93.275 183.194 93.0552 177.723C92.7802 171.801 91.9626 165.917 90.6126 160.144C90.6126 160.079 90.4904 160.095 90.5067 160.144C91.5699 165.818 92.204 171.563 92.4038 177.332C92.5178 180.426 92.4934 183.512 92.3305 186.606C92.2817 187.607 92.184 188.617 92.1189 189.626C89.8402 174.276 84.2866 159.595 75.8348 146.58C75.7208 146.401 75.4033 146.58 75.5173 146.775C81.5458 156.67 86.0113 167.435 88.7562 178.692C84.5712 170.941 78.253 164.574 73.5713 157.124C73.5713 157.124 73.4736 157.124 73.4981 157.164C77.7808 165.469 84.7585 172.007 89.1796 180.214C89.9504 183.547 90.5746 186.904 91.0523 190.286C91.6772 194.923 92.0144 199.595 92.0619 204.274C89.5134 199.511 86.8673 194.96 84.7829 189.92C84.7259 189.781 84.5305 189.879 84.5793 190.009C86.3543 195.244 88.7399 200.879 92.07 205.341C92.07 208.654 91.9967 211.968 91.8013 215.274C91.2802 224.108 89.7658 232.82 89.0737 241.621C89.0772 241.669 89.0973 241.714 89.1307 241.749C89.164 241.783 89.2084 241.805 89.2561 241.809C89.3038 241.814 89.3516 241.802 89.3912 241.775C89.4309 241.748 89.4597 241.708 89.4727 241.662C91.2566 232.669 92.4236 223.564 92.9656 214.411Z" fill="#263238"/>
<path d="M83.5856 146.301C83.5856 146.244 83.4716 146.301 83.4879 146.35C85.1163 150.812 86.0119 155.306 87.1844 159.898C87.1898 159.947 87.2143 159.991 87.2524 160.022C87.2906 160.052 87.3394 160.067 87.3879 160.061C87.4365 160.056 87.481 160.031 87.5115 159.993C87.5421 159.955 87.5562 159.906 87.5508 159.858C87.0378 155.209 85.385 150.584 83.5856 146.301Z" fill="#263238"/>
<path d="M124.548 164.996C123.476 167.614 122.235 170.159 120.835 172.617C117.937 177.893 114.908 182.73 114.322 188.901C114.078 191.645 113.988 194.397 113.158 197.043C112.391 199.314 111.294 201.46 109.901 203.41C106.758 208.002 102.817 211.951 99.9023 216.706C96.868 221.669 94.6265 227.076 93.2584 232.73C93.1851 233.039 92.7048 232.958 92.7699 232.648C92.7745 232.624 92.7745 232.599 92.7699 232.575C92.7649 232.565 92.7623 232.554 92.7623 232.542C92.7623 232.531 92.7649 232.52 92.7699 232.51C92.3058 219.344 93.3561 206.073 97.3783 193.428C99.1532 187.868 101.285 182.429 103.762 177.144C105.911 172.568 108.59 168.188 112.368 164.752C114.81 162.546 120.135 158.361 123.628 160.575C125.33 161.674 125.208 163.36 124.548 164.996Z" fill="#01A657"/>
<path d="M111.316 194.87C108.993 198.69 106.437 202.363 103.663 205.869C102.384 207.539 101.09 209.183 99.8196 210.852C99.2171 211.667 98.5413 212.424 97.9877 213.295C98.3378 211.911 98.6798 210.527 99.0299 209.143C100.732 202.491 102.36 195.773 104.892 189.374C107.485 183.181 110.542 177.194 114.036 171.461C114.125 171.307 113.881 171.201 113.791 171.347C111.007 175.923 108.181 180.491 105.845 185.319C104.549 188.009 103.423 190.777 102.474 193.608C103.547 187.603 105.047 181.682 106.96 175.891C106.96 175.842 106.903 175.801 106.879 175.891C104.37 181.723 102.793 187.913 102.205 194.235C101.635 195.944 101.114 197.67 100.626 199.413C98.5495 206.781 96.7257 214.223 95.0403 221.698C95.0068 216.783 95.432 211.877 96.3104 207.042C96.3047 207.024 96.2934 207.008 96.278 206.996C96.2626 206.985 96.244 206.979 96.2249 206.979C96.2059 206.979 96.1873 206.985 96.1719 206.996C96.1565 207.008 96.1451 207.024 96.1395 207.042C94.8454 212.09 94.4133 217.32 94.8612 222.512C94.2261 225.356 93.6046 228.198 92.9966 231.036C91.7021 237.11 90.1144 243.29 89.3572 249.454C89.3518 249.486 89.3594 249.519 89.3785 249.546C89.3976 249.573 89.4265 249.591 89.4589 249.596C89.4913 249.602 89.5245 249.594 89.5513 249.575C89.578 249.556 89.596 249.527 89.6014 249.494C90.5052 246.172 91.0507 242.728 91.7835 239.366C92.5163 236.003 93.2897 232.616 94.0795 229.253C95.2194 224.368 96.4163 219.483 97.6376 214.598C98.4518 212.806 100.031 211.219 101.212 209.713C102.507 208.084 103.809 206.456 105.071 204.746C107.433 201.658 109.551 198.392 111.406 194.975C111.471 194.87 111.357 194.78 111.316 194.87Z" fill="#263238"/>
<path d="M111.879 189.218C108.981 192.918 106.471 196.907 104.389 201.121C104.389 201.17 104.446 201.227 104.478 201.178C106.994 197.229 109.477 193.248 111.993 189.291C112.034 189.226 111.92 189.169 111.879 189.218Z" fill="#263238"/>
<path d="M55.7973 177.486C57.5071 180.425 59.4531 183.95 58.7203 187.484C58.2562 189.715 56.6196 191.555 56.3265 193.81C55.667 198.842 60.6825 202.164 64.3057 204.541C73.3515 210.477 85.7518 215.761 87.3964 227.876C87.4534 228.308 88.2107 228.202 88.1455 227.779C88.1486 227.752 88.1486 227.724 88.1455 227.697C88.1455 227.697 88.1455 227.697 88.1455 227.632C89.335 221.515 89.2768 215.22 87.9745 209.125C86.6311 202.881 83.9035 197.271 80.6874 191.783C75.2486 182.501 69.484 172.991 61.2524 165.875C59.0541 163.929 54.348 160.371 52.5405 164.817C50.7737 169.132 53.7292 173.903 55.7973 177.486Z" fill="#01A657"/>
<path d="M64.095 197.166C70.0876 203.68 79.6218 207.295 84.7839 214.565C81.8982 203.501 76.4511 193.271 68.8825 184.701C68.8501 184.655 68.8351 184.599 68.8402 184.543C68.8453 184.487 68.8702 184.434 68.9105 184.395C68.9507 184.356 69.0036 184.332 69.0596 184.329C69.1157 184.325 69.1713 184.341 69.2164 184.375C74.7479 189.734 79.1739 196.127 82.2436 203.191C80.8176 198.26 78.9453 193.469 76.65 188.877C76.6399 188.86 76.6333 188.84 76.6306 188.82C76.628 188.8 76.6294 188.779 76.6347 188.76C76.64 188.74 76.6491 188.722 76.6615 188.706C76.6739 188.689 76.6894 188.676 76.707 188.666C76.7246 188.656 76.7441 188.649 76.7643 188.646C76.7845 188.644 76.805 188.645 76.8247 188.65C76.8443 188.656 76.8627 188.665 76.8789 188.677C76.895 188.69 76.9085 188.705 76.9187 188.723C79.7642 193.734 81.7978 199.164 82.9438 204.811C89.7424 221.274 90.3775 240.579 88.9526 257.93C88.9526 258.174 88.5536 258.182 88.5618 257.93C88.9526 244.259 88.7328 230.345 85.4515 216.992C85.3864 216.707 85.305 216.438 85.2398 216.178C79.6219 208.345 70.1364 204.722 64.0706 197.288C63.9403 197.199 64.0299 197.101 64.095 197.166Z" fill="#263238"/>
<path d="M62.7024 191.612C65.8534 194.495 68.9474 197.45 72.0983 200.34C72.0983 200.34 72.0983 200.422 72.0983 200.397C68.5302 197.993 65.3179 195.099 62.5559 191.8C62.4093 191.653 62.5722 191.474 62.7024 191.612Z" fill="#263238"/>
<path d="M62.2058 179.083C64.9869 183.651 68.1376 187.983 71.6261 192.037C71.6261 192.094 71.6261 192.167 71.5446 192.118C67.6322 188.404 64.4121 184.023 62.0348 179.18C61.9859 179.075 62.1406 178.977 62.2058 179.083Z" fill="#263238"/>
<path d="M76.3711 270.167H103.94L100.227 233.08H80.6212L76.3711 270.167Z" fill="#455A64"/>
<path d="M79.9316 239.105H100.832L100.23 233.08H80.6237L79.9316 239.105Z" fill="#263238"/>
<path d="M77.2432 234.887H103.086V228.967H77.2432V234.887Z" fill="#455A64"/>
</svg>
