<svg width="244" height="244" viewBox="0 0 244 244" fill="none" xmlns="http://www.w3.org/2000/svg">
<path d="M66.8556 22.0781L67.0654 22.4295C67.2974 22.8215 67.6358 23.1397 68.0414 23.3469L68.4074 23.5275L68.0561 23.7373C67.6653 23.9693 67.3488 24.3079 67.1435 24.7133L66.9581 25.0842L66.7482 24.7328C66.5163 24.3408 66.1779 24.0227 65.7722 23.8154L65.4062 23.6348L65.7576 23.4201C66.15 23.1886 66.4682 22.8501 66.6751 22.4441L66.8556 22.0781Z" fill="#E0E0E0"/>
<path d="M118.623 49.0391L118.833 49.3904C119.065 49.7825 119.403 50.1006 119.809 50.3079L120.175 50.4884L119.824 50.6983C119.433 50.9316 119.115 51.2697 118.906 51.6743L118.726 52.0403L118.516 51.6938C118.284 51.3017 117.945 50.9836 117.54 50.7763L117.174 50.5958L117.525 50.3811C117.917 50.1508 118.234 49.8118 118.438 49.4051L118.623 49.0391Z" fill="#E0E0E0"/>
<path d="M29.5871 123.953L29.7969 124.304C30.0303 124.695 30.3683 125.013 30.7729 125.222L31.1438 125.402L30.7924 125.612C30.4015 125.846 30.0837 126.184 29.875 126.588L29.6944 126.959L29.4797 126.608C29.2482 126.215 28.9096 125.897 28.5037 125.69L28.1328 125.51L28.4842 125.295C28.8766 125.064 29.1948 124.725 29.4016 124.319L29.5871 123.953Z" fill="#E0E0E0"/>
<path d="M169.17 218.264L169.385 218.615C169.616 219.007 169.955 219.326 170.361 219.532L170.732 219.713L170.38 219.928C169.988 220.159 169.67 220.498 169.463 220.904L169.282 221.275L169.072 220.923C168.839 220.532 168.501 220.215 168.096 220.006L167.73 219.825L168.082 219.611C168.471 219.376 168.787 219.038 168.994 218.635L169.17 218.264Z" fill="#E0E0E0"/>
<path d="M208.908 113.65L209.396 114.417C209.914 115.278 210.668 115.974 211.568 116.422L212.373 116.818L211.607 117.306C210.745 117.824 210.049 118.577 209.601 119.477L209.206 120.282L208.742 119.516C208.226 118.653 207.472 117.957 206.571 117.51L205.766 117.115L206.537 116.652C207.397 116.133 208.091 115.38 208.537 114.48L208.908 113.65Z" fill="#E0E0E0"/>
<path d="M164.72 15.6172L165.183 16.3882C165.7 17.2497 166.454 17.9442 167.355 18.389L168.16 18.7843L167.389 19.2723C166.529 19.7907 165.835 20.5442 165.388 21.4439L164.993 22.2491L164.505 21.4829C163.987 20.6199 163.231 19.9238 162.329 19.4773L161.553 19.0332L162.319 18.5696C163.182 18.0527 163.878 17.299 164.325 16.398L164.72 15.6172Z" fill="#E0E0E0"/>
<path d="M70.1066 206.59L70.5653 207.361C71.0842 208.223 71.8396 208.917 72.7418 209.362L73.5421 209.757L72.7759 210.221C71.9133 210.738 71.2185 211.494 70.7751 212.397L70.375 213.197L69.9163 212.431C69.3976 211.569 68.6421 210.875 67.7398 210.43L66.9395 210.03L67.7056 209.572C68.5662 209.051 69.2603 208.296 69.7064 207.395L70.1066 206.59Z" fill="#E0E0E0"/>
<path d="M195.756 80.4922C195.756 80.4922 191.818 82.4442 186.669 85.4844C180.394 89.2128 167.476 96.5376 159.219 90.75L151.66 75.9099C151.66 75.9099 156.511 78.1352 163.894 77.1738C170.482 76.3198 175.753 72.8501 178.124 71.2544C179.1 70.6053 180.35 69.7318 181.34 69.1364C183 68.1604 184.991 66.6964 187.889 65.2715L195.756 80.4922Z" fill="#EBEBEB"/>
<path d="M175.649 88.7422C178.943 88.1649 181.17 85.1617 180.622 82.0345C180.074 78.9072 176.959 76.8402 173.664 77.4175C170.37 77.9949 168.143 80.998 168.692 84.1252C169.24 87.2525 172.355 89.3196 175.649 88.7422Z" fill="#F5F5F5"/>
<path d="M172.689 80.7396L172.201 79.9881L172.801 79.5977L173.289 80.3345C173.844 80.0072 174.487 79.8589 175.129 79.91L175.329 80.9445C174.825 80.8941 174.317 80.9889 173.865 81.2178L174.592 82.3402C175.373 82.0913 176.276 81.8522 176.895 82.8282C177.359 83.5407 177.291 84.4533 176.407 85.1853L176.895 85.9319L176.295 86.3174L175.807 85.5854C175.359 85.8337 174.855 85.9615 174.343 85.9563L174.109 84.9364C174.503 84.9413 174.893 84.8579 175.251 84.6924L174.514 83.5505C173.738 83.8042 172.845 84.0385 172.235 83.0625C171.776 82.3744 171.83 81.496 172.689 80.7396ZM173.128 82.3695C173.279 82.6086 173.533 82.6233 173.86 82.5549L173.26 81.6277C173.151 81.7137 173.077 81.8367 173.053 81.9735C173.028 82.1103 173.055 82.2512 173.128 82.3695ZM175.202 83.3455L175.817 84.3215C175.93 84.2295 176.005 84.0991 176.029 83.9552C176.052 83.8113 176.022 83.6638 175.944 83.5407C175.793 83.2625 175.529 83.2528 175.192 83.326L175.202 83.3455Z" fill="#EBEBEB"/>
<path d="M160.065 90.8276L160.163 90.8862C160.407 91.0326 166.297 94.3851 176.799 89.6076C180.722 87.8199 184.494 85.7162 188.076 83.3173C190.351 81.8533 191.98 80.7748 193.796 80.2966L194.284 80.1697L187.486 66.2031L187.1 66.4764C186.988 66.5545 175.906 74.26 170.967 76.2803C167.063 77.8858 159.631 80.1843 154.038 77.6223L152.965 77.1343L160.065 90.8276ZM171.26 77.0318C174.827 75.5678 181.313 71.3564 184.924 68.9213C185.259 69.438 185.768 69.8173 186.359 69.99C187.014 70.1717 187.714 70.0912 188.311 69.7655L192.034 77.4125C191.735 77.5364 191.469 77.727 191.255 77.9697C191.041 78.2125 190.885 78.5009 190.799 78.813C190.646 79.4156 190.68 80.0505 190.897 80.6333C189.921 81.1701 188.862 81.8435 187.637 82.639C184.091 85.0195 180.355 87.1038 176.467 88.8707C171.192 91.2717 167.151 91.501 164.691 91.2717C164.049 91.213 163.412 91.1103 162.783 90.9642C162.597 90.2462 162.197 89.602 161.635 89.1173C161.074 88.6325 160.378 88.3304 159.641 88.251L155.673 80.6089C156.078 80.5747 156.61 80.3307 156.713 79.3059C161.954 80.2966 167.873 78.4129 171.236 77.0318H171.26Z" fill="#F5F5F5"/>
<path d="M61.8535 29.9541C61.8535 29.9541 57.9153 31.9061 52.7669 34.9464C46.4912 38.6698 33.5739 45.9996 25.3169 40.2119L17.7578 25.3767C17.7578 25.3767 22.6085 27.5971 29.992 26.6406C36.58 25.7866 41.8504 22.3169 44.2221 20.7163C45.1981 20.0721 46.4473 19.1937 47.438 18.5984C49.0972 17.6224 51.0882 16.1584 53.9869 14.7383L61.8535 29.9541Z" fill="#EBEBEB"/>
<path d="M41.7486 38.1953C45.0431 37.618 47.2695 34.6148 46.7215 31.4876C46.1734 28.3604 43.0585 26.2933 39.764 26.8706C36.4695 27.448 34.2431 30.4511 34.7911 33.5784C35.3392 36.7056 38.4542 38.7727 41.7486 38.1953Z" fill="#F5F5F5"/>
<path d="M38.787 30.2025L38.299 29.4461L38.8992 29.0605L39.3872 29.7974C39.9413 29.468 40.5845 29.3196 41.227 29.3729L41.427 30.4074C40.9235 30.3576 40.4161 30.4506 39.963 30.6758L40.6902 31.8031C41.471 31.5542 42.3738 31.3151 42.9935 32.2911C43.2382 32.6684 43.3243 33.1271 43.2329 33.5675C43.1415 34.0079 42.8802 34.3944 42.5055 34.6433L42.9935 35.3899L42.3933 35.7803L41.9053 35.0434C41.458 35.2932 40.9536 35.4226 40.4413 35.4192L40.207 34.3993C40.6009 34.4019 40.9906 34.3187 41.349 34.1553L40.6121 33.0133C39.8362 33.2671 38.9431 33.5013 38.3331 32.5253C37.8598 31.8373 37.9281 30.9345 38.787 30.2025ZM39.2262 31.8324C39.3774 32.0666 39.6312 32.0861 39.9582 32.0178L39.3579 31.0906C39.2488 31.1766 39.175 31.2996 39.1507 31.4364C39.1264 31.5732 39.1533 31.7141 39.2262 31.8324ZM41.3002 32.8084L41.915 33.7844C42.0276 33.6909 42.1025 33.5598 42.1258 33.4153C42.1491 33.2709 42.1193 33.1229 42.0419 32.9987C41.8906 32.7254 41.6271 32.6961 41.3002 32.7889V32.8084Z" fill="#EBEBEB"/>
<path d="M26.1385 40.2905L26.2361 40.3491C26.4801 40.4955 32.3702 43.848 42.872 39.0705C46.8012 37.2819 50.5793 35.1782 54.1692 32.7802C56.4433 31.3162 58.0732 30.2377 59.8886 29.7595L60.3766 29.6326L53.5446 15.666L53.159 15.9393C53.0468 16.0174 41.9692 23.718 37.0258 25.7432C33.1218 27.3487 25.6895 29.6472 20.097 27.0852L19.0234 26.5972L26.1385 40.2905ZM37.3332 26.4947C40.9005 25.0307 47.386 20.8193 50.9972 18.3842C51.3454 18.9273 51.8877 19.317 52.5134 19.4739C53.1392 19.6308 53.8012 19.543 54.3644 19.2284L58.0878 26.8754C57.7885 26.9987 57.5215 27.1891 57.3074 27.4319C57.0934 27.6747 56.938 27.9635 56.8532 28.2759C56.6998 28.8768 56.7339 29.5103 56.9508 30.0913C55.9748 30.633 54.9158 31.3064 53.691 32.1019C50.1497 34.4817 46.4185 36.566 42.5353 38.3336C37.26 40.7346 33.2194 40.9639 30.7452 40.7297C30.103 40.6724 29.4655 40.5713 28.8371 40.4271C28.6518 39.7082 28.2518 39.0629 27.6903 38.5773C27.1287 38.0916 26.4325 37.7887 25.6944 37.709L21.7416 30.0669C22.1466 30.0376 22.6786 29.7936 22.781 28.7639C28.0514 29.7692 33.9562 27.8758 37.3332 26.4947Z" fill="#F5F5F5"/>
<path d="M201.969 198.201C201.969 198.201 198.031 200.153 192.882 203.193C186.611 206.912 173.689 214.232 165.432 208.459L157.873 193.619C157.873 193.619 162.724 195.844 170.107 194.888C176.695 194.029 181.966 190.559 184.337 188.963C185.313 188.314 186.563 187.441 187.553 186.845C189.212 185.869 191.203 184.405 194.102 182.98L201.969 198.201Z" fill="#EBEBEB"/>
<path d="M174.905 201.833C174.358 198.705 176.584 195.704 179.878 195.123C183.172 194.542 186.285 196.616 186.832 199.744C187.378 202.872 185.153 205.874 181.859 206.449C178.565 207.025 175.451 204.961 174.905 201.833Z" fill="#F5F5F5"/>
<path d="M178.901 198.452L178.413 197.7L179.013 197.314L179.501 198.046C180.056 197.719 180.699 197.571 181.341 197.622L181.541 198.656C181.037 198.609 180.53 198.703 180.077 198.93L180.804 200.052C181.585 199.803 182.493 199.564 183.113 200.54C183.571 201.258 183.503 202.165 182.625 202.897L183.113 203.644L182.512 204.029L182.024 203.297C181.576 203.545 181.072 203.673 180.56 203.668L180.326 202.648C180.72 202.653 181.11 202.572 181.468 202.409L180.731 201.262C179.955 201.516 179.062 201.75 178.452 200.774C177.974 200.081 178.042 199.188 178.901 198.452ZM179.34 200.086C179.492 200.321 179.75 200.335 180.072 200.272L179.472 199.34C179.366 199.427 179.294 199.55 179.27 199.686C179.245 199.822 179.271 199.962 179.34 200.081V200.086ZM181.414 201.062L182.034 202.014C182.146 201.921 182.219 201.79 182.242 201.646C182.264 201.503 182.234 201.356 182.156 201.233C182.024 200.979 181.741 200.965 181.414 201.057V201.062Z" fill="#EBEBEB"/>
<path d="M166.253 208.538L166.35 208.596C166.599 208.743 172.485 212.095 182.986 207.322C186.91 205.533 190.681 203.427 194.264 201.027C196.538 199.563 198.168 198.485 199.983 198.007L200.471 197.88L193.673 183.918L193.283 184.186C193.171 184.264 182.093 191.97 177.15 193.99C173.246 195.596 165.814 197.894 160.221 195.332L159.152 194.844L166.253 208.538ZM177.447 194.742C181.015 193.278 187.5 189.066 191.111 186.631C191.46 187.174 192.002 187.564 192.628 187.721C193.253 187.878 193.915 187.79 194.479 187.475L198.202 195.122C197.904 195.247 197.638 195.438 197.424 195.681C197.21 195.923 197.054 196.211 196.967 196.523C196.816 197.126 196.851 197.761 197.07 198.343C196.094 198.885 195.03 199.558 193.81 200.349C190.261 202.728 186.523 204.814 182.635 206.586C177.36 208.982 173.319 209.211 170.859 208.982C170.219 208.923 169.583 208.82 168.956 208.674C168.769 207.957 168.368 207.313 167.807 206.829C167.246 206.344 166.551 206.042 165.814 205.961L161.846 198.319C162.251 198.29 162.778 198.046 162.881 197.016C168.171 198.007 174.07 196.128 177.447 194.742Z" fill="#F5F5F5"/>
<path d="M54.8857 152.354C54.8857 152.354 50.9524 154.306 45.804 157.346C39.5284 161.069 26.611 168.399 18.354 162.611L10.7949 147.771C10.7949 147.771 15.6456 149.996 23.0291 149.035C29.6122 148.181 34.8875 144.711 37.2592 143.111C38.2352 142.467 39.4796 141.588 40.4751 140.998C42.1343 140.022 44.1204 138.558 47.024 137.133L54.8857 152.354Z" fill="#EBEBEB"/>
<path d="M27.8169 155.984C27.2704 152.856 29.4956 149.85 32.7896 149.274C36.0836 148.698 39.1971 150.762 39.7485 153.891C40.3 157.019 38.0649 160.025 34.7807 160.601C31.4964 161.176 28.3732 159.112 27.8169 155.984Z" fill="#F5F5F5"/>
<path d="M31.8184 152.603L31.3304 151.846L31.9306 151.461L32.4186 152.198C32.9736 151.87 33.6161 151.722 34.2584 151.773L34.4536 152.808C33.9501 152.757 33.4425 152.851 32.9896 153.076L33.6972 154.208C34.4829 153.959 35.3857 153.72 36.0054 154.696C36.4642 155.409 36.3958 156.321 35.5174 157.053L36.0054 157.8L35.4052 158.186L34.9172 157.449C34.4705 157.7 33.9657 157.829 33.4532 157.824L33.2238 156.805C33.6177 156.807 34.0074 156.724 34.3658 156.561L33.6289 155.419C32.8481 155.672 31.9599 155.907 31.345 154.931C30.8961 154.238 30.9595 153.335 31.8184 152.603ZM32.2576 154.233C32.4138 154.467 32.6675 154.487 32.9896 154.418L32.3942 153.491C32.2852 153.577 32.2112 153.7 32.186 153.836C32.1609 153.973 32.1863 154.114 32.2576 154.233ZM34.3365 155.209L34.9514 156.185C35.065 156.092 35.1402 155.96 35.1627 155.815C35.1853 155.67 35.1534 155.522 35.0734 155.399C34.9221 155.126 34.6488 155.116 34.3365 155.184V155.209Z" fill="#EBEBEB"/>
<path d="M19.1688 162.691L19.2712 162.749C19.5152 162.896 25.4054 166.248 35.9072 161.471C39.8305 159.685 43.6021 157.583 47.1848 155.185C49.4589 153.721 51.0888 152.643 52.9042 152.165L53.3922 152.038L46.5797 138.066L46.1942 138.34C46.082 138.418 34.9995 146.118 30.0609 148.144C26.1569 149.749 18.7247 152.048 13.1322 149.486L12.0586 148.998L19.1688 162.691ZM30.3684 148.895C33.9356 147.431 40.4212 143.22 44.0324 140.785C44.3814 141.328 44.9246 141.718 45.5511 141.875C46.1777 142.032 46.8405 141.944 47.4044 141.629L51.123 149.276C50.8244 149.399 50.5582 149.59 50.3449 149.833C50.1317 150.076 49.9771 150.364 49.8932 150.676C49.7376 151.279 49.7716 151.914 49.9908 152.497C49.0148 153.033 47.9559 153.707 46.731 154.502C43.1851 156.883 39.449 158.967 35.5607 160.734C30.2854 163.135 26.2448 163.364 23.7804 163.135C23.1397 163.076 22.5038 162.973 21.8772 162.828C21.6906 162.109 21.2902 161.465 20.7289 160.979C20.1676 160.494 19.4721 160.19 18.7344 160.109L14.767 152.467C15.172 152.438 15.6991 152.194 15.8064 151.164C21.0866 152.16 26.9865 150.276 30.3684 148.895Z" fill="#F5F5F5"/>
<path d="M176.33 154.79C176.33 154.79 183.87 145.952 198.69 151.642C199.252 151.862 199.834 152.026 200.428 152.13C202.116 152.464 203.864 152.339 205.488 151.769C208.372 150.607 212.481 148.914 212.481 148.914L225.169 156.429C225.169 156.429 219.845 160.333 214.692 160.636C209.538 160.938 203.468 156.732 197.534 158.196C194.529 158.847 191.8 160.416 189.726 162.685L176.33 154.79Z" fill="#EBEBEB"/>
<path d="M206.913 156.736C206.342 157.224 202.906 156.775 199.237 155.686C195.567 154.598 193.049 153.3 193.62 152.788C194.191 152.275 197.631 152.744 201.301 153.837C204.971 154.93 207.503 156.223 206.913 156.736Z" fill="#F5F5F5"/>
<path d="M201.813 155.741L202.047 155.99L201.276 155.819L201.047 155.58C200.34 155.419 199.643 155.219 198.958 154.98L199.129 154.804C199.668 154.997 200.217 155.16 200.774 155.292L200.427 154.926C199.515 154.677 198.475 154.384 198.182 154.067C197.958 153.838 198.363 153.765 199.544 153.994L199.314 153.75L200.085 153.921L200.315 154.16C200.905 154.301 201.51 154.467 202.008 154.648L201.876 154.833C201.423 154.682 200.988 154.56 200.588 154.462L200.944 154.833C201.852 155.082 202.896 155.37 203.17 155.678C203.384 155.897 203.009 155.966 201.813 155.741ZM200.12 154.599L199.822 154.287C199.441 154.223 199.334 154.253 199.407 154.326C199.626 154.459 199.868 154.551 200.12 154.599ZM201.95 155.424C201.735 155.292 201.499 155.199 201.252 155.151L201.54 155.453C201.901 155.512 202.033 155.492 201.95 155.424Z" fill="#EBEBEB"/>
<path d="M212.309 149.816L212.173 149.885C209.789 151.057 207.305 152.014 204.75 152.744C202.979 153.193 202.149 153.052 200.636 152.788C200.344 152.74 200.026 152.681 199.66 152.627C198.777 152.443 197.906 152.2 197.054 151.9C195.137 151.28 192.75 150.514 190.364 150.436H190.32C190.252 150.436 183.678 149.875 178.349 154.164L178.027 154.418L189.437 161.323L189.593 161.182C189.656 161.123 195.776 155.594 204.048 157.678C205.024 157.922 205.936 158.166 206.79 158.391C213.495 160.162 216.858 161.05 223.592 157.005L224.007 156.756L212.309 149.816ZM206.941 157.815C206.087 157.585 205.175 157.327 204.194 157.097C198.567 155.682 193.907 157.663 191.345 159.21C190.776 158.859 190.109 158.703 189.443 158.764C188.778 158.826 188.15 159.102 187.656 159.552L180.985 155.511C182.273 154.389 181.521 153.418 181.082 153.018C183.92 151.543 187.096 150.841 190.291 150.983C192.633 151.051 195 151.807 196.898 152.417C197.778 152.729 198.678 152.979 199.592 153.164L200.568 153.325C202.105 153.594 203.032 153.755 204.921 153.276C206.827 152.751 208.692 152.084 210.499 151.28C210.987 151.695 212.231 152.476 214.1 151.539L220.908 155.565C220.42 155.809 219.634 156.434 220.849 157.805C215.838 160.172 212.607 159.323 206.912 157.824L206.941 157.815Z" fill="#F5F5F5"/>
<path d="M61.4883 91.6912C61.4883 91.6912 61.3663 80.0719 76.2796 74.6112C76.8492 74.4102 77.397 74.1518 77.9144 73.8402C79.4074 72.9948 80.6448 71.7624 81.4963 70.2729C82.9115 67.501 84.9123 63.5287 84.9123 63.5287L99.4205 60.8496C99.4205 60.8496 97.9566 67.2766 94.2868 70.9073C90.617 74.538 83.2433 75.353 79.7395 80.3257C77.9056 82.7927 76.8826 85.7681 76.8115 88.8413L61.4883 91.6912Z" fill="#EBEBEB"/>
<path d="M85.8495 73.0489C85.7568 73.8102 82.8532 75.7134 79.3689 77.3043C75.8845 78.8951 73.142 79.5686 73.2347 78.8073C73.3274 78.046 76.231 76.1379 79.7153 74.5519C83.1997 72.9659 85.9422 72.2876 85.8495 73.0489Z" fill="#F5F5F5"/>
<path d="M81.3358 75.6645L81.6774 75.6986L80.9844 76.0744L80.6526 76.0451C80.018 76.3856 79.3665 76.6934 78.7006 76.9674V76.7234C79.2317 76.5116 79.7513 76.2722 80.2573 76.0061L79.7693 75.9573C78.9153 76.3721 77.9442 76.8308 77.5148 76.7869C77.1927 76.7576 77.4513 76.4404 78.4908 75.8353L78.154 75.806L78.847 75.4254L79.174 75.4546C79.7156 75.1716 80.2817 74.9032 80.7697 74.7031V74.9276C80.3256 75.113 79.9157 75.3082 79.5497 75.4937L80.0621 75.5425C80.9112 75.1326 81.8677 74.6787 82.2972 74.7178C82.6241 74.7519 82.3704 75.0642 81.3358 75.6645ZM79.3106 75.9134L78.8812 75.8743C78.5493 76.0793 78.4908 76.1671 78.5932 76.1769C78.8457 76.1309 79.0884 76.0417 79.3106 75.9134ZM81.2284 75.3326C80.9799 75.3764 80.7406 75.4622 80.5208 75.5864L80.9405 75.6254C81.2528 75.4351 81.326 75.3424 81.2284 75.3326Z" fill="#EBEBEB"/>
<path d="M85.3657 64.3101L85.3072 64.4516C84.2729 66.8951 83.0236 69.2418 81.574 71.4642C80.5345 72.9672 79.8123 73.4162 78.4996 74.2019L77.6651 74.6899C76.8789 75.1316 76.0637 75.5196 75.2251 75.8513C73.3707 76.6467 71.0722 77.6374 69.2227 79.1502L69.1788 79.1843C69.1251 79.2234 63.8108 83.1225 62.6005 89.8569L62.5273 90.2619L75.6399 87.9976L75.6643 87.7829C75.6643 87.6999 76.6403 79.5113 84.258 75.6463C85.1608 75.1876 86.005 74.7728 86.7956 74.3824C93.0322 71.3129 96.1359 69.7855 98.5759 62.2995L98.7272 61.8457L85.3657 64.3101ZM86.5613 73.87C85.7708 74.2604 84.9217 74.6801 84.0237 75.1388C78.8509 77.7691 76.6354 82.3222 75.7277 85.1721C75.0682 85.2801 74.4619 85.6 74.0005 86.0834C73.5391 86.5668 73.2478 87.1874 73.1706 87.8512L65.4846 89.1883C65.7189 87.4999 64.5086 87.2607 63.923 87.2363C65.091 84.2598 67.0234 81.644 69.5253 79.6528C71.3357 78.1644 73.6147 77.1787 75.4496 76.393C76.3175 76.0502 77.1605 75.6474 77.9725 75.1876C78.2751 74.9973 78.5484 74.8314 78.8021 74.6996C80.1344 73.8895 80.9396 73.4015 82.0473 71.8009C83.1526 70.148 84.1314 68.4139 84.9753 66.6135C85.6049 66.6135 87.0689 66.3743 87.8594 64.4419L95.6479 62.9974C95.4234 63.4854 95.2575 64.4614 97.0729 64.7249C94.8183 69.7855 91.8269 71.2739 86.5613 73.87Z" fill="#F5F5F5"/>
<path d="M169.527 41.1626C169.527 41.1626 176.657 31.9736 191.717 36.9512C192.288 37.144 192.876 37.2813 193.473 37.3611C195.176 37.6164 196.915 37.4091 198.51 36.7609C201.335 35.4628 205.342 33.5742 205.342 33.5742L218.386 40.4745C218.386 40.4745 213.252 44.603 208.138 45.1789C203.024 45.7547 196.719 41.8165 190.887 43.5392C187.913 44.3398 185.261 46.0451 183.299 48.4192L169.527 41.1626Z" fill="#EBEBEB"/>
<path d="M200.192 41.6415C199.646 42.1783 196.186 41.8758 192.467 40.9632C188.749 40.0507 186.177 38.8746 186.724 38.3378C187.27 37.801 190.725 38.1035 194.444 39.0161C198.162 39.9287 200.739 41.1047 200.192 41.6415Z" fill="#F5F5F5"/>
<path d="M195.031 40.8954L195.275 41.1296L194.499 40.993L194.259 40.7636C193.545 40.6423 192.837 40.4793 192.142 40.2756L192.303 40.0951C192.791 40.2366 193.396 40.3879 193.972 40.5001L193.606 40.1488C192.683 39.9438 191.654 39.7047 191.322 39.4021C191.087 39.1825 191.488 39.0898 192.683 39.2655L192.439 39.0312L193.215 39.163L193.454 39.3924C194.055 39.5046 194.665 39.6412 195.172 39.7876L195.05 39.9828C194.591 39.8511 194.147 39.7486 193.747 39.6705L194.118 40.0268C195.04 40.2268 196.07 40.466 196.377 40.7636C196.607 40.993 196.211 41.0662 195.031 40.8954ZM193.283 39.8364L192.971 39.5388C192.586 39.4948 192.483 39.5388 192.556 39.5973C192.784 39.7173 193.029 39.7981 193.283 39.8364ZM195.153 40.5684C194.93 40.4494 194.689 40.3686 194.44 40.3293L194.743 40.6172C195.109 40.6612 195.201 40.6368 195.153 40.5684Z" fill="#EBEBEB"/>
<path d="M205.229 34.4883L205.098 34.5615C202.771 35.8358 200.336 36.9021 197.822 37.7481C196.07 38.28 195.235 38.1776 193.713 37.9872L192.737 37.8701C191.844 37.7302 190.962 37.5297 190.097 37.2699C188.145 36.7428 185.729 36.0938 183.343 36.1328H183.284C183.216 36.1328 176.628 35.8888 171.504 40.4272L171.201 40.6956L182.913 47.0396L183.064 46.8884C183.123 46.8298 188.974 41.0324 197.334 42.6964C198.31 42.8965 199.247 43.0917 200.11 43.2772C206.889 44.7412 210.29 45.4536 216.824 41.0909L217.224 40.8225L205.229 34.4883ZM200.242 42.7306C199.378 42.5452 198.456 42.3451 197.465 42.145C191.785 40.9933 187.212 43.204 184.729 44.8973C184.146 44.5674 183.471 44.4366 182.807 44.5246C182.143 44.6127 181.526 44.9149 181.049 45.3853L174.217 41.6668C175.447 40.4858 174.646 39.5537 174.193 39.1731C176.957 37.5646 180.096 36.7113 183.294 36.6989C185.636 36.655 188.032 37.2943 189.96 37.8164C190.854 38.0848 191.765 38.2918 192.688 38.4362L193.664 38.5484C195.11 38.8349 196.605 38.7458 198.007 38.2898C199.892 37.6787 201.727 36.925 203.497 36.0352C203.985 36.4208 205.288 37.143 207.108 36.1231L214.096 39.8172C213.608 40.0808 212.871 40.7444 214.145 42.0572C209.246 44.6533 205.986 43.9555 200.242 42.7306Z" fill="#F5F5F5"/>
<path d="M226.823 233.644C226.823 233.713 180.76 233.771 123.957 233.771C67.1541 233.771 21.082 233.713 21.082 233.644C21.082 233.576 67.1346 233.518 123.957 233.518C180.78 233.518 226.823 233.576 226.823 233.644Z" fill="#263238"/>
<path d="M217.281 129.529L217.588 130.042C217.938 130.619 218.446 131.083 219.052 131.379L219.589 131.642L219.077 131.95C218.5 132.299 218.036 132.808 217.74 133.414L217.476 133.951L217.169 133.463C216.819 132.886 216.311 132.421 215.705 132.125L215.168 131.862L215.68 131.554C216.257 131.205 216.722 130.697 217.017 130.09L217.281 129.529Z" fill="#01A657"/>
<path d="M68.5438 224.914L68.8414 225.402C69.1767 225.96 69.6643 226.41 70.2469 226.7L70.769 226.954L70.281 227.252C69.7244 227.589 69.2757 228.078 68.9878 228.662L68.7292 229.179L68.4315 228.691C68.0955 228.135 67.608 227.687 67.0261 227.398L66.5039 227.139L66.9919 226.842C67.5479 226.504 67.9978 226.017 68.29 225.436L68.5438 224.914Z" fill="#01A657"/>
<path d="M38.6151 62.4043L39.1519 63.2973C39.7549 64.2988 40.6321 65.1065 41.6797 65.6251L42.6118 66.1131L41.7236 66.6499C40.7201 67.2503 39.9117 68.1282 39.3959 69.1777L38.9079 70.1098L38.3711 69.2168C37.781 68.2051 36.9118 67.3851 35.8676 66.8549L34.9355 66.3669L35.8286 65.8301C36.8286 65.2275 37.6361 64.3523 38.1563 63.3071L38.6151 62.4043Z" fill="#01A657"/>
<path d="M146.399 31.168L146.936 32.061C147.538 33.0635 148.415 33.8716 149.464 34.3888L150.396 34.8768L149.503 35.4136C148.5 36.0153 147.692 36.8928 147.175 37.9414L146.716 38.8735L146.18 37.9805C145.58 36.9692 144.702 36.1512 143.652 35.6234L142.715 35.1354L143.608 34.5986C144.61 33.9969 145.418 33.1194 145.936 32.0708L146.399 31.168Z" fill="#01A657"/>
<path d="M227.895 109.521L228.105 109.868C228.336 110.26 228.675 110.578 229.081 110.785L229.447 110.966L229.095 111.181C228.703 111.412 228.385 111.751 228.178 112.157L227.997 112.528L227.787 112.176C227.555 111.784 227.217 111.466 226.811 111.259L226.445 111.078L226.797 110.868C227.188 110.635 227.505 110.297 227.714 109.892L227.895 109.521Z" fill="#01A657"/>
<path d="M48.1613 107.49L48.3808 107.851C48.623 108.26 48.9792 108.589 49.4056 108.798L49.7863 108.984L49.4203 109.203C49.0149 109.448 48.6881 109.803 48.4784 110.228L48.2881 110.609L48.0734 110.243C47.8288 109.837 47.4731 109.51 47.0486 109.301L46.668 109.115L47.0291 108.896C47.4377 108.653 47.7667 108.297 47.9758 107.871L48.1613 107.49Z" fill="#01A657"/>
<path d="M85.3566 44.0469L85.5762 44.408C85.822 44.8136 86.1772 45.1417 86.601 45.3547L86.9767 45.5402L86.6156 45.7598C86.2102 46.0044 85.8834 46.36 85.6738 46.7846L85.4834 47.1603L85.2687 46.7992C85.0202 46.3989 84.6631 46.0774 84.239 45.872L83.8633 45.6817L84.2244 45.467C84.6343 45.2113 84.9628 44.8439 85.1711 44.408L85.3566 44.0469Z" fill="#01A657"/>
<path d="M170.014 156.808C170.014 157.331 173.162 171.224 173.162 171.224C173.162 171.224 179.716 166.769 182.205 164.67C184.694 162.572 196.752 151.436 196.752 151.436L203.984 158.111C203.984 158.111 180.072 190.637 171.605 192.593C167.257 193.594 162.436 190.31 161.499 187.987C159.386 182.804 156.16 160.717 156.16 160.717L160.85 158.643L170.014 156.808Z" fill="#F8C5B7"/>
<path d="M173.44 171.253C172.932 171.335 172.434 171.466 171.951 171.643C170.822 172.156 169.874 172.996 169.228 174.054C168.602 175.13 168.127 176.288 167.818 177.495C167.701 178.003 167.548 178.502 167.359 178.988C167.402 178.466 167.495 177.95 167.638 177.446C167.899 176.202 168.361 175.009 169.004 173.913C169.675 172.81 170.685 171.954 171.883 171.473C172.246 171.337 172.628 171.256 173.015 171.234C173.157 171.214 173.301 171.221 173.44 171.253Z" fill="#875149"/>
<path d="M194.84 153.201C194.84 153.201 201.428 145.823 204.087 146.033C206.747 146.242 210.568 146.818 211.632 146.638C212.976 146.544 214.324 146.544 215.668 146.638C215.668 146.638 222.573 142.9 223.847 143.192C223.847 143.192 225.032 143.129 225.442 143.802C225.442 143.802 228.068 142.138 229.961 143.173L223.08 148.907L225.179 148.643C225.179 148.643 231.362 145.374 233.319 147.623L228.648 150.132C228.648 150.132 232.528 150.073 233.114 151.649L224.422 153.045C224.422 153.045 207.908 154.426 207.035 154.807C206.161 155.187 202.667 159.687 202.667 159.687L194.84 153.201Z" fill="#F8C5B7"/>
<path d="M225.535 143.838C225.414 143.99 225.275 144.126 225.12 144.243C224.842 144.487 224.432 144.833 223.905 145.219C222.537 146.279 221.1 147.249 219.606 148.123C218.771 148.611 217.981 149.055 217.21 149.411C216.522 149.778 215.725 149.885 214.965 149.713L215.087 149.645C214.993 149.935 214.834 150.199 214.62 150.416C214.407 150.632 214.145 150.796 213.857 150.894C213.7 150.948 213.535 150.977 213.369 150.982C213.257 150.982 213.203 150.982 213.203 150.982C213.408 150.938 213.61 150.881 213.808 150.811C214.065 150.703 214.295 150.539 214.481 150.331C214.668 150.124 214.806 149.878 214.887 149.611L214.916 149.513L215.009 149.543C215.723 149.679 216.462 149.56 217.097 149.206C217.839 148.85 218.639 148.391 219.459 147.913C221.201 146.898 222.709 145.863 223.783 145.087L225.047 144.16C225.197 144.034 225.36 143.926 225.535 143.838Z" fill="#875149"/>
<path d="M223.079 149.039C222.817 149.332 222.505 149.575 222.156 149.756C221.349 150.248 220.46 150.592 219.531 150.771C218.984 150.879 218.457 150.898 218.004 150.981C217.603 151.059 217.216 151.198 216.857 151.391C216.523 151.608 216.132 151.72 215.734 151.713C216.09 151.574 216.435 151.411 216.769 151.225C217.136 150.997 217.538 150.832 217.96 150.737C218.448 150.635 218.936 150.61 219.477 150.503C220.749 150.212 221.965 149.718 223.079 149.039Z" fill="#875149"/>
<path d="M229.008 149.641C228.734 149.927 228.418 150.171 228.071 150.363C226.444 151.377 224.576 151.941 222.659 151.998C222.264 152.03 221.866 152.002 221.479 151.915C222.797 151.835 224.105 151.624 225.383 151.285C227.505 150.661 228.96 149.563 229.008 149.641Z" fill="#875149"/>
<path d="M96.0488 196.176C88.9191 207.273 80.6426 221.157 75.6016 233.664H161.49L151.242 196.176H96.0488Z" fill="#263238"/>
<path d="M42.8652 155.578C42.8652 155.578 48.9311 164.474 50.9904 166.802C53.0498 169.13 61.7264 181.574 66.2404 186.556C70.7544 191.539 75.6784 194.281 78.865 194.281C82.1346 194.281 85.4432 193.164 88.0394 187.069C91.7872 178.285 94.9446 152.421 94.9446 152.421L80.3046 147.053L74.9854 173.834C73.5556 172.409 50.9953 151.386 50.9953 151.386L45.8225 153.533L42.8652 155.578Z" fill="#F8C5B7"/>
<path d="M24.0486 144.618C24.0486 144.618 24.3951 143.999 26.3227 144.277C28.2503 144.555 31.6322 146.551 32.3886 146.551C33.145 146.551 41.6215 146.824 43.2758 147.239C44.9302 147.654 47.5019 147.903 49.0147 149.484L51.4547 151.66L43.271 156.16C42.9651 155.752 42.5709 155.418 42.1179 155.184C41.665 154.95 41.165 154.821 40.6553 154.808C38.796 154.696 30.256 154.266 30.256 154.266L23.6387 152.744L15.2305 148.679C15.4216 148.221 15.7681 147.845 16.2091 147.617C16.65 147.39 17.1572 147.325 17.6412 147.434C19.3638 147.849 22.6041 149.02 22.6041 149.02L25.4297 149.884L17.9877 146.331C18.4694 145.839 19.0812 145.494 19.7516 145.336C20.422 145.178 21.1236 145.213 21.7745 145.438C24.1169 146.195 28.1185 147.986 28.1185 147.986L28.67 147.781L24.0486 144.618Z" fill="#F8C5B7"/>
<path d="M33.3508 149.514C32.4907 149.58 31.6273 149.44 30.8327 149.104C30.0086 148.844 29.2589 148.391 28.6465 147.781C28.6904 147.718 29.6225 148.396 30.9157 148.87C32.2089 149.343 33.3557 149.441 33.3508 149.514Z" fill="#875149"/>
<path d="M31.7928 151.646C31.4339 151.734 31.0629 151.762 30.6948 151.729C28.9046 151.685 27.1614 151.146 25.6587 150.172C25.337 149.989 25.0456 149.757 24.7949 149.484C25.8517 150.127 26.9739 150.655 28.1426 151.061C29.335 151.385 30.5587 151.582 31.7928 151.646Z" fill="#875149"/>
<path d="M17.0419 149.572C16.7505 149.712 16.5063 149.933 16.3397 150.21C16.1732 150.487 16.0915 150.806 16.1049 151.129C18.8997 152.043 21.7709 152.705 24.684 153.105" fill="#875149"/>
<path d="M80.1493 185.133C80.0956 185.133 80.1981 184.391 80.12 183.181C80.0744 182.487 79.9715 181.799 79.8126 181.122C79.6098 180.296 79.3321 179.491 78.983 178.716C78.623 177.945 78.1917 177.21 77.6947 176.52C77.2849 175.958 76.8296 175.431 76.3331 174.944C75.4791 174.114 74.8691 173.709 74.8691 173.67C75.0314 173.737 75.1841 173.826 75.323 173.933C75.4949 174.041 75.6581 174.162 75.811 174.295C75.9964 174.446 76.2209 174.607 76.4356 174.817C76.9575 175.294 77.4345 175.819 77.8606 176.383C78.9085 177.773 79.6442 179.373 80.0175 181.073C80.1677 181.765 80.2543 182.469 80.2762 183.176C80.291 183.446 80.291 183.716 80.2762 183.986C80.2737 184.191 80.2558 184.395 80.2225 184.596C80.2204 184.778 80.1958 184.958 80.1493 185.133Z" fill="#875149"/>
<path d="M94.1449 121.115C92.1197 122.365 87.4398 126.157 82.5988 136.405C76.1524 150.034 74.4785 158.54 74.4785 158.54L91.6122 164.66L96.8045 119.832C96.8045 119.832 94.8135 120.706 94.1449 121.115Z" fill="#455A64"/>
<path d="M90.4258 135.394C90.4258 135.394 90.8308 149.859 90.8308 153.787C90.8308 157.716 92.5876 187.259 92.5876 187.259C92.5876 187.259 92.5876 196.98 98.6242 196.829C104.661 196.677 114.982 197.849 119.067 197.849C122.077 197.849 139.192 198.049 148.2 197.244C152.47 196.863 154.115 194.779 155.432 191.388C155.608 190.929 155.501 191.197 155.608 190.929C158.189 184.585 156.194 157.437 156.194 157.437L152.997 132.896L145.716 118.417L104.475 118.285C91.2554 119.193 91.2554 124.619 90.4258 135.394Z" fill="#455A64"/>
<path d="M162.958 130.296C156.165 119.023 145.717 118.438 145.717 118.438L151.885 169.272L156.765 167.916C157.126 167.794 175.065 160.64 175.065 160.64C175.065 160.64 167.135 137.216 162.958 130.296Z" fill="#455A64"/>
<path d="M150.855 133.926C150.855 133.926 150.88 133.955 150.919 134.023C150.958 134.092 151.012 134.204 151.07 134.326C151.197 134.589 151.402 134.98 151.631 135.497C152.119 136.522 152.725 138.04 153.374 139.953C155.014 144.96 156.071 150.139 156.526 155.388C156.979 160.629 157.142 165.891 157.014 171.15C156.98 173.166 156.931 174.796 156.892 175.923C156.892 176.47 156.853 176.899 156.843 177.221C156.843 177.358 156.843 177.47 156.843 177.563C156.848 177.6 156.848 177.638 156.843 177.675C156.839 177.636 156.839 177.597 156.843 177.558V177.221C156.843 176.904 156.843 176.47 156.843 175.923C156.843 174.771 156.843 173.146 156.882 171.146C156.962 165.895 156.778 160.644 156.331 155.412C155.875 150.18 154.846 145.014 153.261 140.006C152.637 138.093 152.041 136.59 151.597 135.536C151.387 135.014 151.197 134.619 151.109 134.345L150.977 134.033C150.933 134.002 150.892 133.966 150.855 133.926Z" fill="#263238"/>
<g opacity="0.3">
<path d="M120.857 167.5C123.027 165.327 125.674 163.689 128.587 162.718C132.443 161.473 143.862 159.092 146.892 157.979C150.234 156.747 153.278 154.824 155.828 152.338L169.233 163.347C166.905 165.435 164.348 167.252 161.61 168.764C157.296 171.082 146.663 171.092 140.939 174.527C137.23 176.753 132.428 183.267 132.428 183.267L120.857 167.5Z" fill="black"/>
</g>
<g opacity="0.3">
<path d="M139.31 227.075C136.248 226.829 133.286 225.874 130.658 224.284C127.208 222.156 117.999 215.012 115.188 213.416C112.033 211.648 108.627 210.373 105.087 209.634L104.799 192.92C107.897 193.339 110.937 194.109 113.861 195.214C118.424 197 125.319 205.091 131.649 207.228C135.743 208.609 143.819 208.043 143.819 208.043L139.31 227.075Z" fill="black"/>
</g>
<g opacity="0.3">
<path d="M79.373 143.258C82.789 144.409 87.1127 142.452 89.3039 139.588C91.495 136.723 93.6373 133.054 94.1594 129.486C91.656 129.486 88.2547 129.672 85.7512 129.667L79.373 143.258Z" fill="black"/>
</g>
<path d="M91.2568 147.189C91.2792 147.322 91.289 147.456 91.2861 147.59L91.33 148.741C91.3593 149.766 91.3983 151.211 91.4471 152.982C91.5447 156.579 91.6765 161.512 91.818 166.963C91.9595 172.414 92.1499 177.362 92.306 180.94C92.3939 182.711 92.4622 184.151 92.511 185.175C92.511 185.663 92.55 186.039 92.5647 186.327C92.5722 186.46 92.5722 186.594 92.5647 186.727C92.5335 186.596 92.5155 186.462 92.511 186.327C92.4817 186.044 92.4475 185.658 92.4085 185.18C92.3158 184.204 92.2279 182.74 92.1206 180.949C91.9156 177.372 91.7155 172.429 91.5545 166.968C91.3935 161.507 91.3056 156.564 91.2568 152.982C91.2568 151.211 91.2324 149.771 91.2227 148.741C91.2227 148.253 91.2227 147.878 91.2227 147.59C91.2223 147.455 91.2338 147.322 91.2568 147.189Z" fill="#263238"/>
<g opacity="0.3">
<path d="M91.7058 177.437C87.2454 167.384 87.9091 156.16 91.2568 145.668C91.7448 155.892 91.9693 167.203 91.7204 177.437" fill="black"/>
</g>
<path d="M144.936 70.1203C144.371 68.2984 143.449 66.607 142.224 65.1444C140.999 63.6817 139.496 62.4769 137.802 61.5998C134.078 59.7015 129.638 59.5404 125.563 60.4774C121.488 61.4143 117.726 63.381 114.168 65.577C112.172 66.8067 110.186 68.1536 108.8 70.0324C106.233 73.4484 103.759 79.036 103.622 83.3158C103.515 86.7757 105.086 95.384 106.633 98.4779C107.185 99.5808 108.478 100.552 110.049 101.372C111.715 104.437 113.915 107.18 116.545 109.473C117.277 107.13 118.01 104.788 118.746 102.445L144.936 70.1203Z" fill="#263238"/>
<path d="M142.799 65.9193L135.967 64.8945C139.939 73.6493 141.53 93.8866 143.926 103.198C146.332 99.484 151.841 88.2307 151.402 83.8289C150.963 79.4272 150.865 64.9336 142.799 65.9193Z" fill="#263238"/>
<path d="M110.946 81.5885C111.166 76.4011 114.396 72.0579 119.389 70.6329L134.951 66.1873C141.705 65.2601 146.463 73.4682 147.102 80.2514C147.81 87.791 148.342 95.7552 147.619 101.421C146.155 112.811 137.528 114.524 137.528 114.524C137.528 114.524 137.679 119.892 137.767 123.225L128.534 142.496L114.191 119.404L110.927 81.7301C110.897 81.5349 110.936 81.8472 110.946 81.5885Z" fill="#F8C5B7"/>
<path d="M142.765 88.5769C142.779 88.9556 142.645 89.3249 142.392 89.607C142.139 89.8891 141.786 90.0622 141.408 90.0897C141.224 90.1099 141.037 90.0931 140.859 90.0402C140.681 89.9873 140.515 89.8994 140.372 89.7817C140.228 89.664 140.109 89.5189 140.023 89.3547C139.936 89.1906 139.883 89.0107 139.866 88.8258C139.853 88.4471 139.986 88.0778 140.239 87.7957C140.492 87.5136 140.845 87.3405 141.223 87.313C141.407 87.2928 141.594 87.3096 141.772 87.3625C141.95 87.4154 142.116 87.5032 142.259 87.6209C142.403 87.7386 142.522 87.8838 142.609 88.048C142.695 88.2121 142.748 88.3919 142.765 88.5769Z" fill="#263238"/>
<path d="M145.527 84.7409C145.356 84.9361 144.229 84.1553 142.663 84.2089C141.096 84.2626 139.979 85.0776 139.803 84.8921C139.715 84.8092 139.891 84.4627 140.379 84.0821C141.041 83.5918 141.839 83.319 142.663 83.3013C143.475 83.2722 144.276 83.5048 144.946 83.9649C145.425 84.3163 145.615 84.653 145.527 84.7409Z" fill="#263238"/>
<path d="M129.257 88.5817C129.269 88.9596 129.135 89.3276 128.882 89.6087C128.629 89.8898 128.278 90.0621 127.9 90.0897C127.716 90.1099 127.529 90.093 127.351 90.0401C127.173 89.9873 127.007 89.8994 126.864 89.7817C126.72 89.664 126.602 89.5188 126.515 89.3547C126.428 89.1905 126.375 89.0107 126.358 88.8257C126.345 88.447 126.478 88.0778 126.732 87.7956C126.985 87.5135 127.337 87.3405 127.715 87.3129C127.9 87.2927 128.087 87.3097 128.265 87.3629C128.444 87.4161 128.61 87.5044 128.753 87.6226C128.897 87.7408 129.016 87.8866 129.102 88.0513C129.189 88.216 129.241 88.3963 129.257 88.5817Z" fill="#263238"/>
<path d="M130.671 85.1646C130.495 85.3598 129.368 84.5789 127.807 84.6326C126.245 84.6863 125.118 85.5013 124.942 85.3158C124.859 85.2329 125.03 84.8864 125.518 84.5058C126.18 84.0163 126.978 83.7436 127.802 83.725C128.615 83.6968 129.416 83.9275 130.09 84.3838C130.583 84.74 130.754 85.0767 130.671 85.1646Z" fill="#263238"/>
<path d="M135.912 97.3119C135.912 97.224 136.888 97.0288 138.44 96.7751C138.835 96.7214 139.211 96.6336 139.269 96.3603C139.293 95.9463 139.187 95.5353 138.967 95.1842L137.693 92.1781C135.922 87.8983 134.624 84.3701 134.794 84.3018C134.965 84.2335 136.546 87.6446 138.318 91.9243L139.548 94.95C139.811 95.4252 139.901 95.9773 139.801 96.5116C139.748 96.6543 139.662 96.783 139.551 96.8878C139.441 96.9926 139.307 97.0709 139.162 97.1167C138.944 97.185 138.717 97.2227 138.489 97.2289C136.903 97.3656 135.922 97.4046 135.912 97.3119Z" fill="#263238"/>
<path d="M122.375 110.918C122.375 110.918 126.279 118.599 137.601 117.189L137.527 114.524C132.24 114.748 126.995 113.5 122.375 110.918Z" fill="#875149"/>
<path d="M130.018 79.544C129.876 79.9735 128.31 79.8173 126.48 80.0955C124.65 80.3736 123.186 80.9202 122.927 80.5444C122.815 80.3687 123.059 79.9588 123.644 79.5294C124.428 79.001 125.321 78.6575 126.257 78.5247C127.193 78.392 128.147 78.4736 129.046 78.7632C129.73 79.0023 130.076 79.3244 130.018 79.544Z" fill="#263238"/>
<path d="M144.883 79.9739C144.62 80.3351 143.527 80.0032 142.233 80.0227C140.94 80.0423 139.847 80.3351 139.584 79.9739C139.466 79.7934 139.628 79.4323 140.096 79.0809C140.725 78.6512 141.471 78.4247 142.233 78.4319C142.995 78.4236 143.74 78.6521 144.366 79.0858C144.834 79.4323 145 79.7934 144.883 79.9739Z" fill="#263238"/>
<path d="M143.726 69.9877C142.984 68.2992 141.086 67.3281 139.246 67.289C137.406 67.25 135.625 67.9966 134.059 68.9629C127.417 73.0572 124.216 82.583 117.662 86.809C116.051 87.8485 113.889 86.9994 112.528 88.356C111.166 89.7126 110.327 91.8403 111.147 93.5727C110.155 92.4119 109.333 91.1154 108.707 89.7224C108.403 89.0232 108.251 88.2673 108.262 87.5049C108.273 86.7426 108.446 85.9913 108.77 85.3011C109.317 84.2861 110.317 83.4906 110.561 82.3731C110.781 81.3971 110.361 80.3626 110.376 79.3426C110.465 78.3032 110.8 77.2997 111.352 76.4146C113.831 71.7152 117.31 67.4354 121.863 64.7026C124.841 62.8687 128.263 61.8817 131.76 61.8478C135.263 61.8305 138.658 63.0663 141.33 65.3322C142.862 66.6839 144.472 68.0747 143.77 69.9877" fill="#263238"/>
<path d="M112.728 89.7579C112.601 89.4359 106.628 87.4692 106.726 93.7595C106.823 99.8693 112.953 98.4883 112.958 98.3126C112.962 98.1369 112.728 89.7579 112.728 89.7579Z" fill="#F8C5B7"/>
<path d="M111.035 96.0334C111.011 96.0334 110.933 96.1115 110.752 96.1994C110.501 96.3107 110.216 96.3212 109.957 96.2286C109.308 96.0042 108.746 94.9891 108.693 93.8911C108.669 93.3685 108.761 92.847 108.961 92.3637C109.015 92.1714 109.114 91.9951 109.251 91.8497C109.388 91.7044 109.558 91.5944 109.747 91.5292C109.868 91.4951 109.998 91.5042 110.114 91.5549C110.229 91.6057 110.324 91.6948 110.381 91.8074C110.464 91.9782 110.43 92.1002 110.464 92.1099C110.498 92.1197 110.591 92.0074 110.537 91.7537C110.5 91.6036 110.412 91.4709 110.289 91.3779C110.119 91.2528 109.906 91.2001 109.698 91.2315C109.447 91.287 109.215 91.4058 109.024 91.5767C108.833 91.7476 108.688 91.9648 108.605 92.2075C108.354 92.7406 108.239 93.3272 108.268 93.9155C108.332 95.1453 108.986 96.2872 109.874 96.5214C110.039 96.5693 110.214 96.5779 110.383 96.5466C110.552 96.5152 110.712 96.4448 110.85 96.3409C111.025 96.1847 111.06 96.0481 111.035 96.0334Z" fill="#875149"/>
<path d="M110.215 86.6883C110.343 86.6304 110.464 86.5584 110.576 86.4736C110.805 86.3174 111.162 86.1076 111.581 85.7953C112.759 84.8796 113.835 83.8408 114.792 82.6965C116.195 80.9832 117.499 79.1909 118.696 77.3285C120.138 75.0537 121.771 72.9053 123.576 70.9064C124.535 69.9069 125.601 69.0151 126.753 68.2468C127.834 67.5428 128.998 66.9741 130.218 66.5534C132.286 65.8252 134.473 65.4941 136.664 65.5774C138.143 65.6249 139.608 65.8695 141.022 66.3046C141.51 66.4412 141.906 66.6022 142.164 66.6901C142.295 66.7448 142.431 66.7889 142.569 66.8218C142.449 66.7484 142.322 66.6878 142.189 66.6413C141.821 66.4703 141.443 66.3236 141.056 66.2021C139.639 65.7219 138.16 65.4459 136.664 65.3822C134.445 65.2677 132.224 65.5842 130.125 66.3143C128.883 66.7344 127.697 67.3082 126.597 68.0223C125.423 68.8006 124.338 69.7056 123.362 70.721C121.552 72.7322 119.92 74.8955 118.482 77.187C117.302 79.0417 116.027 80.8335 114.661 82.555C113.725 83.7007 112.679 84.7517 111.537 85.6928C111.127 86.0198 110.786 86.2442 110.561 86.4102C110.438 86.4933 110.323 86.5864 110.215 86.6883Z" fill="#455A64"/>
<path d="M110.371 97.1356C110.069 97.0883 109.761 97.1578 109.508 97.3299C109.256 97.502 109.079 97.7638 109.013 98.062C108.947 98.3601 108.997 98.6723 109.153 98.9348C109.309 99.1974 109.559 99.3906 109.852 99.4751C110.146 99.5597 110.461 99.5292 110.732 99.3899C111.004 99.2506 111.213 99.013 111.315 98.7254C111.418 98.4378 111.407 98.1219 111.285 97.8419C111.163 97.562 110.939 97.339 110.659 97.2185" fill="white"/>
<path d="M110.66 97.218C110.929 97.4191 111.131 97.6986 111.236 98.0183C111.285 98.1859 111.291 98.3633 111.254 98.5339C111.216 98.7046 111.136 98.863 111.021 98.9943C110.89 99.1603 110.713 99.2836 110.512 99.3486C110.311 99.4136 110.095 99.4172 109.892 99.3591C109.689 99.301 109.508 99.1838 109.372 99.0224C109.236 98.8609 109.15 98.6626 109.127 98.4526C109.101 98.2819 109.118 98.1074 109.176 97.9448C109.234 97.7821 109.331 97.6363 109.459 97.5205C109.717 97.3029 110.036 97.1714 110.372 97.1448C110.372 97.1448 110.279 97.0813 110.084 97.0862C109.911 97.094 109.741 97.1369 109.585 97.2125C109.429 97.2881 109.29 97.3947 109.177 97.5258C109.064 97.657 108.979 97.8098 108.926 97.975C108.874 98.1402 108.856 98.3144 108.874 98.4868C108.898 98.7491 109 98.998 109.168 99.2009C109.336 99.4039 109.562 99.5514 109.815 99.6242C110.068 99.697 110.337 99.6916 110.587 99.6088C110.837 99.526 111.056 99.3697 111.216 99.1602C111.352 98.9981 111.442 98.803 111.478 98.5948C111.514 98.3866 111.494 98.1726 111.421 97.9744C111.335 97.7112 111.163 97.4844 110.933 97.3302C110.777 97.2131 110.665 97.2033 110.66 97.218Z" fill="#263238"/>
<path d="M111.8 88.3718C111.751 90.0457 111.722 91.7878 112.537 93.2518C113.352 94.7158 115.323 95.6625 116.748 94.7939C117.91 94.0863 118.212 92.5589 118.383 91.2071C118.871 87.3031 119.008 83.3601 119.505 79.4609L111.8 88.3718Z" fill="#263238"/>
<path d="M142.139 67.1248C142.139 67.1638 141.597 67.0418 140.621 67.037C139.237 67.0512 137.87 67.3416 136.6 67.891C135.722 68.2582 134.885 68.7196 134.106 69.2671C133.214 69.9061 132.36 70.597 131.549 71.3362C129.677 73.0159 128.014 74.9148 126.596 76.9922C125.849 78.1048 125.195 79.2418 124.478 80.3008C123.804 81.3333 123.01 82.2818 122.111 83.1263C120.566 84.5133 118.869 85.7199 117.051 86.7229C115.509 87.5915 114.22 88.1869 113.332 88.6358L112.303 89.1238C112.185 89.1865 112.06 89.2356 111.932 89.2702C112.034 89.1862 112.148 89.1157 112.268 89.0604L113.274 88.5285C114.142 88.0698 115.411 87.4207 116.929 86.5277C118.712 85.5057 120.378 84.2915 121.897 82.9067C122.77 82.074 123.543 81.1421 124.2 80.13C124.903 79.0808 125.557 77.9389 126.308 76.8165C127.742 74.715 129.432 72.8003 131.339 71.1166C132.163 70.3716 133.033 69.6805 133.945 69.0475C134.746 68.4988 135.605 68.0406 136.507 67.6811C137.81 67.1403 139.212 66.8808 140.621 66.9198C141.001 66.9298 141.38 66.9706 141.753 67.0418C141.884 67.0552 142.014 67.083 142.139 67.1248Z" fill="#455A64"/>
<path d="M111.522 84.6039C111.363 84.752 111.186 84.8799 110.995 84.9846L109.472 85.9362L108.96 86.2534C108.758 86.3785 108.532 86.46 108.296 86.4925C108.152 86.5125 108.005 86.4814 107.881 86.4046C107.814 86.3618 107.757 86.3038 107.715 86.2352C107.674 86.1666 107.649 86.0893 107.642 86.0094C107.648 85.7275 107.742 85.4545 107.911 85.2286C108.433 84.3306 109.009 83.3498 109.624 82.3006L109.873 82.5202C109.286 82.9743 108.626 83.3242 107.921 83.5547C107.219 83.7864 106.482 83.8937 105.744 83.8719C105.556 83.8745 105.368 83.8481 105.188 83.7939C105.083 83.7656 104.985 83.7153 104.901 83.6464C104.816 83.5774 104.748 83.4912 104.7 83.3937C104.661 83.2913 104.649 83.1809 104.665 83.0726C104.68 82.9644 104.722 82.8616 104.788 82.7739C104.886 82.6325 104.999 82.5017 105.124 82.3835C105.905 81.5794 106.577 80.6771 107.125 79.6995C107.61 78.7815 108.026 77.829 108.369 76.8496C108.349 77.1324 108.292 77.4114 108.199 77.6792C107.986 78.4192 107.698 79.1354 107.34 79.8167C106.808 80.8333 106.138 81.7711 105.349 82.6031C105.129 82.8227 104.91 83.0911 105.002 83.2668C105.095 83.4425 105.432 83.545 105.754 83.5352C107.164 83.569 108.543 83.1157 109.658 82.2518L110.37 81.7003L109.882 82.4714L108.13 85.3994C107.995 85.5744 107.912 85.7843 107.891 86.0045C107.891 86.1753 108.052 86.2729 108.247 86.2534C108.636 86.1602 109.004 85.9946 109.331 85.7654L110.902 84.8967C111.097 84.7762 111.305 84.678 111.522 84.6039Z" fill="#455A64"/>
<path d="M130.043 100.367C130.146 99.8998 130.409 99.4831 130.787 99.189C131.165 98.895 131.633 98.7421 132.112 98.7568C132.461 98.7931 132.797 98.9143 133.088 99.11C133.38 99.3056 133.62 99.5697 133.786 99.8792C133.945 100.192 134.041 100.534 134.067 100.884C134.093 101.234 134.049 101.586 133.937 101.919L133.908 102.065C133.593 102.426 133.173 102.681 132.707 102.793C132.241 102.906 131.752 102.872 131.307 102.695C130.869 102.501 130.507 102.167 130.279 101.746C130.05 101.325 129.967 100.84 130.043 100.367Z" fill="#875149"/>
<path d="M132.736 102.587C132.736 102.587 132.672 102.752 132.423 102.899C132.06 103.103 131.635 103.168 131.228 103.079C130.923 103.008 130.639 102.869 130.396 102.673C130.153 102.477 129.957 102.229 129.822 101.947C129.59 101.417 129.524 100.83 129.633 100.262C129.742 99.6936 130.021 99.172 130.432 98.7655C130.582 98.6289 130.761 98.5287 130.956 98.4728C131.15 98.4169 131.355 98.4069 131.555 98.4434C132.127 98.6152 132.653 98.9119 133.097 99.3121C133.863 99.8928 134.317 100.288 134.278 100.337C134.239 100.386 133.712 100.112 132.892 99.6097C132.469 99.2906 131.991 99.0524 131.481 98.907C131.352 98.8863 131.22 98.8963 131.095 98.9362C130.971 98.976 130.857 99.0446 130.764 99.1364C130.549 99.3658 130.383 99.6364 130.276 99.9318C130.153 100.218 130.089 100.526 130.089 100.837C130.089 101.148 130.153 101.456 130.276 101.742C130.374 101.972 130.52 102.178 130.705 102.346C130.889 102.515 131.107 102.641 131.345 102.718C131.68 102.823 132.039 102.823 132.374 102.718C132.579 102.645 132.706 102.557 132.736 102.587Z" fill="#263238"/>
<path d="M170.223 91.0957C173.153 92.331 175.755 94.2325 177.822 96.6491C180.52 99.8651 187.25 109.893 189.499 112.368C191.983 115.093 195.013 117.267 198.391 118.746L193.052 135.894C190.143 134.474 187.404 132.729 184.888 130.692C180.984 127.457 176.831 117.257 171.302 113.1C167.725 110.411 159.59 108.342 159.59 108.342L170.223 91.0957Z" fill="#01A657"/>
<g opacity="0.2">
<path d="M197.352 119.258C197.304 119.224 191.984 116.213 189.73 113.71C188.134 111.948 185.675 108.6 183.293 105.36C181.492 102.92 179.789 100.587 178.506 99.016C174.407 93.9896 171.142 92.9745 171.005 92.9355L170.688 92.8379L161.416 107.312L161.997 107.468C162.055 107.468 168.043 109.103 170.869 111.167C174.631 113.915 176.803 117.57 178.906 121.103C180.409 123.631 181.834 126.017 183.786 128.106C185.522 129.964 187.464 131.62 189.574 133.039C190.415 133.612 191.293 134.127 192.204 134.581L192.663 134.791L197.352 119.258ZM171.366 110.474C169.683 109.244 167.038 108.195 165.022 107.507C165.361 107.081 165.534 106.548 165.51 106.004C165.276 105.121 164.534 104.94 163.768 105.297L169.81 95.8976L169.858 95.9708C170.791 97.2787 172.616 96.1514 172.738 94.8045C172.768 94.8285 172.801 94.8497 172.835 94.868C174.721 96.1738 176.401 97.7527 177.823 99.5528C179.091 101.109 180.79 103.418 182.585 105.867C182.795 106.146 183 106.429 183.205 106.707C181.829 106.072 180.014 106.375 178.301 108.776C176.72 111.001 176.495 114.002 176.91 116.296C175.406 114.05 173.531 112.074 171.366 110.455V110.474ZM184.401 127.52C182.512 125.5 181.117 123.152 179.638 120.688L179.218 119.98C180.21 120.278 181.273 120.242 182.242 119.878C183.212 119.514 184.035 118.842 184.586 117.965C185.728 116.047 186.821 113.3 186.05 110.538C187.212 112.065 188.276 113.412 189.11 114.339C190.706 116.096 193.453 118.185 195.103 119.38C194.976 119.416 194.857 119.477 194.755 119.559C194.652 119.642 194.567 119.744 194.505 119.861C194.443 119.977 194.405 120.105 194.394 120.236C194.382 120.367 194.398 120.499 194.439 120.625C194.546 121.166 195.054 121.835 195.669 121.703L195.752 121.669L192.58 132.107C192.092 130.643 190.476 131.326 190.73 132.766C188.406 131.286 186.279 129.517 184.401 127.501V127.52Z" fill="white"/>
</g>
<path d="M180.248 116.594L179.687 117.487L178.974 117.043L179.521 116.169C178.892 115.742 178.411 115.129 178.145 114.417L179.145 113.685C179.347 114.25 179.704 114.748 180.175 115.12L181.009 113.783C180.355 113.075 179.657 112.226 180.37 111.079C180.902 110.23 181.907 109.845 183.122 110.406L183.678 109.518L184.391 109.962L183.844 110.835C184.342 111.192 184.737 111.673 184.991 112.231L184.015 112.992C183.824 112.568 183.54 112.191 183.186 111.889L182.336 113.251C182.995 113.958 183.683 114.798 182.976 115.925C182.458 116.76 181.463 117.121 180.248 116.594ZM181.77 115.305C181.946 115.022 181.834 114.744 181.6 114.432L180.911 115.535C181.058 115.607 181.226 115.624 181.384 115.582C181.542 115.54 181.68 115.441 181.77 115.305ZM181.746 112.607L182.458 111.47C182.302 111.397 182.125 111.383 181.96 111.432C181.794 111.48 181.652 111.587 181.561 111.733C181.385 112.011 181.502 112.299 181.746 112.607Z" fill="#01A657"/>
<path d="M121.512 160.229C123.759 157.98 126.499 156.286 129.515 155.281C133.507 153.988 145.331 151.523 148.469 150.372C151.937 149.093 155.096 147.098 157.741 144.516L171.62 155.915C169.205 158.078 166.553 159.961 163.714 161.527C159.244 163.928 148.235 163.938 142.305 167.496C138.465 169.799 133.492 176.548 133.492 176.548L121.512 160.229Z" fill="#01A657"/>
<g opacity="0.2">
<path d="M157.809 145.688C157.76 145.722 152.973 149.504 149.796 150.665C147.566 151.48 143.54 152.5 139.641 153.486C136.713 154.232 133.897 154.95 131.96 155.535C125.762 157.443 123.591 160.083 123.503 160.196L123.293 160.45L133.224 174.514L133.585 174.026C133.624 173.972 137.377 169.033 140.353 167.194C144.311 164.754 148.513 164.105 152.578 163.485C155.506 163.041 158.229 162.621 160.903 161.601C163.279 160.69 165.543 159.511 167.652 158.088C168.509 157.528 169.324 156.909 170.092 156.233L170.463 155.887L157.809 145.688ZM139.875 166.457C138.104 167.55 136.137 169.609 134.737 171.22C134.462 170.757 134.028 170.41 133.517 170.244C132.614 170.127 132.165 170.732 132.209 171.591L125.772 162.455H125.86C127.421 162.079 127.065 159.966 125.86 159.347L125.953 159.278C127.885 158.014 129.995 157.046 132.214 156.404C134.131 155.813 136.913 155.111 139.856 154.364L140.866 154.11C139.763 155.145 139.358 156.946 140.939 159.434C142.403 161.733 145.102 163.07 147.386 163.548C144.736 164.086 142.196 165.07 139.875 166.457ZM160.552 160.786C157.97 161.762 155.272 162.187 152.412 162.626L151.602 162.748C152.244 161.941 152.606 160.946 152.633 159.915C152.659 158.884 152.349 157.872 151.748 157.034C150.396 155.257 148.264 153.208 145.404 152.9C147.264 152.412 148.908 151.924 150.079 151.49C152.309 150.675 155.276 148.918 157.009 147.835C156.994 147.966 157.006 148.098 157.044 148.224C157.082 148.351 157.145 148.468 157.229 148.569C157.313 148.67 157.417 148.754 157.535 148.813C157.652 148.873 157.78 148.909 157.912 148.918C158.453 149.025 159.259 148.806 159.376 148.186C159.378 148.157 159.378 148.127 159.376 148.098L167.872 154.96C166.325 154.881 166.354 156.614 167.784 156.912C165.549 158.507 163.118 159.81 160.552 160.786Z" fill="white"/>
</g>
<path d="M148.913 160.551L149.533 161.405L148.855 161.893L148.25 161.059C147.616 161.479 146.868 161.695 146.107 161.678L145.81 160.473C146.408 160.499 147.002 160.355 147.523 160.058L146.6 158.78C145.693 159.121 144.648 159.453 143.853 158.36C143.267 157.545 143.287 156.471 144.263 155.554L143.648 154.705L144.331 154.217L144.936 155.051C145.452 154.725 146.044 154.54 146.654 154.514L146.995 155.7C146.531 155.721 146.076 155.843 145.663 156.057L146.605 157.36C147.508 157.008 148.557 156.691 149.323 157.769C149.899 158.599 149.88 159.648 148.913 160.551ZM145.785 157.662L145 156.574C144.873 156.691 144.794 156.851 144.777 157.022C144.76 157.194 144.806 157.366 144.907 157.506C145.097 157.794 145.424 157.789 145.785 157.682V157.662ZM148.294 158.638C148.098 158.37 147.806 158.365 147.42 158.462L148.181 159.521C148.294 159.415 148.367 159.273 148.388 159.119C148.408 158.965 148.375 158.809 148.294 158.677V158.638Z" fill="#01A657"/>
<path d="M122.78 19.6227L106.188 17.3926L104.431 17.5683C101.425 17.9782 99.0244 18.7053 95.4473 22.4922C91.9679 26.1766 90.5039 35.5901 90.5039 35.5901C90.5039 35.5901 94.6324 33.4673 100.991 33.6088C107.35 33.7503 109.663 34.863 109.663 34.863C109.663 34.863 109.707 28.519 112.425 25.3372C115.821 21.3893 122.78 19.6227 122.78 19.6227Z" fill="#01A657"/>
<g opacity="0.2">
<path d="M122.78 19.6227L106.188 17.3926L104.431 17.5683C101.425 17.9782 99.0244 18.7053 95.4473 22.4922C91.9679 26.1766 90.5039 35.5901 90.5039 35.5901C90.5039 35.5901 94.6324 33.4673 100.991 33.6088C107.35 33.7503 109.663 34.863 109.663 34.863C109.663 34.863 109.707 28.519 112.425 25.3372C115.821 21.3893 122.78 19.6227 122.78 19.6227Z" fill="black"/>
</g>
<path d="M104.432 17.5685C104.432 17.5685 108.336 17.017 114.514 22.3265C118.467 25.7132 125.25 36.1027 125.25 36.1027C126.66 34.1697 128.446 32.5414 130.501 31.3154C136.01 28.0507 139.167 27.226 139.167 27.226C139.167 27.226 135.664 21.9605 130.398 19.8865C117.691 14.8552 104.432 17.5685 104.432 17.5685Z" fill="#01A657"/>
<g opacity="0.2">
<path d="M109.586 16.9336C110.45 17.3923 115.549 19.1979 119.078 18.8856C122.606 18.5733 123.47 18.0023 122.045 17.6314C120.065 17.1158 118.03 16.8405 115.984 16.8116C113.851 16.7223 111.714 16.7631 109.586 16.9336Z" fill="white"/>
</g>
<g opacity="0.2">
<path d="M137.324 26.107C134.972 23.6297 132.277 21.5031 129.32 19.7923C128.696 19.4507 128.032 19.1237 127.368 18.8163C125.099 18.1272 122.779 17.6181 120.429 17.2937C122.654 17.7817 125.538 18.016 129.247 20.5633C131.105 21.8566 132.876 23.2716 134.547 24.7992C133.966 25.1359 133.956 26.2973 134.371 26.7512C132.845 27.3393 131.381 28.0799 130.004 28.9618C128.737 29.799 127.517 30.7048 126.348 31.6751C126.451 31.4576 126.491 31.2162 126.466 30.9773C126.329 30.2062 125.241 29.7036 124.514 29.9183C124.367 29.9436 124.231 30.009 124.12 30.1072C124.009 30.2055 123.927 30.3327 123.884 30.4746C121.795 27.4344 118.326 22.5983 116.325 20.9196C114.306 19.281 112.061 17.9431 109.659 16.9473H109.605C108.746 17.0009 108.068 17.0937 107.395 17.1669C110.409 18.1692 113.219 19.7048 115.691 21.7004C118.516 24.0721 124.728 33.5149 124.792 33.6125L125.114 34.1005L125.543 33.7101C127.131 32.2999 128.81 30.9958 130.57 29.8061C132.583 28.515 134.786 27.5468 137.099 26.9366L137.943 26.7463L137.324 26.107Z" fill="white"/>
</g>
<path d="M62.332 137.45L77.3478 140.012L78.924 139.905C81.6666 139.632 83.8675 139.051 87.22 135.728C90.4994 132.492 92.1293 124.016 92.1293 124.016C92.1293 124.016 88.3131 125.811 82.545 125.48C76.7768 125.148 74.7126 124.06 74.7126 124.06C74.7126 124.06 74.4686 129.833 71.8968 132.619C68.7102 136.069 62.332 137.45 62.332 137.45Z" fill="#01A657"/>
<g opacity="0.2">
<path d="M62.332 137.45L77.3478 140.012L78.924 139.905C81.6666 139.632 83.8675 139.051 87.22 135.728C90.4994 132.492 92.1293 124.016 92.1293 124.016C92.1293 124.016 88.3131 125.811 82.545 125.48C76.7768 125.148 74.7126 124.06 74.7126 124.06C74.7126 124.06 74.4686 129.833 71.8968 132.619C68.7102 136.069 62.332 137.45 62.332 137.45Z" fill="black"/>
</g>
<path d="M78.9244 139.904C78.9244 139.904 75.3718 140.28 69.9208 135.263C66.4414 132.062 60.6488 122.404 60.6488 122.404C59.3077 124.116 57.6345 125.538 55.7298 126.586C50.6253 129.373 47.7266 130.002 47.7266 130.002C47.7266 130.002 50.718 134.882 55.4321 136.952C66.7976 141.944 78.9244 139.904 78.9244 139.904Z" fill="#01A657"/>
<g opacity="0.2">
<path d="M74.2256 140.32C73.4546 139.871 68.8869 138.07 65.671 138.256C62.4551 138.441 61.6743 138.914 62.9382 139.3C64.7194 139.83 66.5575 140.146 68.4136 140.242C70.3476 140.384 72.2885 140.41 74.2256 140.32Z" fill="white"/>
</g>
<g opacity="0.2">
<path d="M49.3376 131.096C51.3931 133.417 53.7692 135.433 56.3941 137.083C56.9504 137.415 57.5409 137.732 58.1509 138.03C60.1883 138.733 62.2788 139.271 64.4022 139.641C62.3965 139.109 59.7857 138.816 56.4966 136.386C54.8536 135.149 53.292 133.807 51.8215 132.369C52.3583 132.081 52.4071 131.027 52.046 130.603C53.4516 130.119 54.8039 129.493 56.0818 128.734C57.2632 128.017 58.4036 127.235 59.4978 126.391C59.3979 126.585 59.3539 126.803 59.3709 127.021C59.4685 127.724 60.4396 128.216 61.1179 128.046C61.2521 128.026 61.3784 127.97 61.4833 127.884C61.5882 127.798 61.6677 127.685 61.7133 127.558C63.5091 130.383 66.5006 134.878 68.2671 136.478C70.042 138.031 72.0326 139.318 74.1768 140.299H74.2207C75.0064 140.275 75.6262 140.211 76.2362 140.168C73.5329 139.158 71.0335 137.671 68.8576 135.776C66.3688 133.536 61.0496 124.757 60.9813 124.669L60.7031 124.215L60.2981 124.556C58.8142 125.783 57.249 126.908 55.6133 127.924C53.744 129.033 51.7118 129.842 49.5914 130.32L48.8203 130.466L49.3376 131.096Z" fill="white"/>
</g>
<path d="M169.912 48.9456C169.912 48.9456 173.421 46.0907 177.886 41.8305C183.332 36.6382 194.624 26.2926 204.238 30.2064L215.262 43.3823C215.262 43.3823 209.894 42.2648 202.672 44.9342C196.274 47.301 191.784 52.0053 189.759 54.1672C188.944 55.0407 187.875 56.2119 187.017 57.0366C185.553 58.4225 183.918 60.3452 181.326 62.4339L169.912 48.9456Z" fill="#01A657"/>
<g opacity="0.2">
<path d="M196.112 39.3469C197.386 42.3677 195.844 45.8959 192.667 47.2379C189.49 48.5799 185.884 47.2379 184.61 44.2025C183.337 41.1672 184.883 37.6536 188.06 36.3165C191.237 34.9793 194.844 36.3311 196.112 39.3469Z" fill="white"/>
</g>
<path d="M193.077 43.3839L193.736 44.0281L193.248 44.5551L192.584 43.9207C192.101 44.3774 191.49 44.6754 190.832 44.7747L190.393 43.7987C190.913 43.7325 191.403 43.521 191.808 43.1887L190.832 42.2127C190.1 42.6422 189.246 43.0814 188.392 42.2566C187.763 41.6466 187.621 40.7194 188.324 39.7825L187.67 39.1432L188.182 38.6162L188.826 39.2457C189.225 38.8879 189.709 38.6391 190.232 38.5234L190.72 39.4994C190.326 39.5843 189.953 39.7505 189.627 39.9874L190.632 40.9634C191.359 40.5291 192.203 40.0997 193.038 40.9146C193.633 41.5295 193.775 42.4567 193.077 43.3839ZM189.954 41.3636L189.114 40.5438C189.022 40.6626 188.976 40.8112 188.986 40.9614C188.996 41.1116 189.061 41.253 189.168 41.3587C189.378 41.5637 189.641 41.5149 189.954 41.3636ZM192.262 41.8516C192.052 41.6466 191.774 41.6906 191.481 41.8516L192.296 42.647C192.394 42.5355 192.447 42.3907 192.442 42.2421C192.438 42.0934 192.377 41.9521 192.272 41.8467L192.262 41.8516Z" fill="#01A657"/>
<g opacity="0.2">
<path d="M203.417 30.3138L203.305 30.2797C203.022 30.1869 196.331 28.1813 186.884 35.3988C183.353 38.1013 180.048 41.0863 177.002 44.3243C175.05 46.3349 173.649 47.7842 171.951 48.6821L171.502 48.9164L181.535 61.3799L181.862 61.0188C181.96 60.9163 191.315 50.6195 195.814 47.4426C199.381 44.9245 206.301 40.8937 212.513 42.1917L213.743 42.4553L203.417 30.3138ZM195.351 46.7643C192.1 49.053 186.567 54.787 183.477 58.0664C183.002 57.6003 182.366 57.3336 181.7 57.3209C181.034 57.3082 180.389 57.5504 179.896 57.9981L174.396 51.1661C174.666 50.9721 174.888 50.7193 175.046 50.4268C175.204 50.1343 175.294 49.8097 175.308 49.4776C175.324 48.8356 175.143 48.2041 174.791 47.6671C175.665 46.8961 176.558 45.9786 177.602 44.9001C180.617 41.691 183.892 38.7352 187.391 36.0625C192.139 32.4366 196.146 31.2752 198.669 30.9385C199.327 30.8479 199.991 30.8022 200.655 30.8018C201.007 31.4818 201.558 32.0381 202.235 32.3965C202.912 32.7548 203.682 32.8982 204.442 32.8075L210.191 39.5712C209.79 39.6981 209.317 40.0592 209.449 41.1181C203.92 41.3377 198.425 44.5927 195.351 46.7643Z" fill="white"/>
</g>
<path d="M30.026 175.012C30.026 175.012 33.5298 177.871 38.605 181.38C44.7977 185.665 57.2124 194.629 55.3336 204.853L44.666 218.312C44.666 218.312 44.666 212.807 40.6009 206.297C36.9702 200.495 31.4558 197.025 28.9377 195.503C27.9178 194.883 26.5563 194.073 25.5705 193.4C23.926 192.272 21.7056 191.033 19.1387 188.92L30.026 175.012Z" fill="#01A657"/>
<g opacity="0.2">
<path d="M44.7227 198.739C47.4198 196.882 48.0214 193.075 46.0664 190.236C44.1115 187.397 40.3403 186.601 37.6432 188.458C34.9462 190.315 34.3446 194.122 36.2995 196.961C38.2544 199.8 42.0256 200.596 44.7227 198.739Z" fill="white"/>
</g>
<path d="M40.1083 196.536L39.6203 197.317L39.0006 196.922L39.4886 196.161C38.9451 195.78 38.5313 195.242 38.3027 194.619L39.186 193.989C39.3589 194.485 39.6665 194.922 40.0742 195.253L40.8159 194.087C40.245 193.462 39.6447 192.711 40.2791 191.72C40.7671 190.978 41.6309 190.651 42.6947 191.154L43.1827 190.383L43.8025 190.778L43.3145 191.534C43.7406 191.853 44.0769 192.277 44.2905 192.764L43.4316 193.423C43.2661 193.05 43.0213 192.716 42.7143 192.447L41.9676 193.638C42.5386 194.258 43.1339 194.999 42.5044 195.98C42.0359 196.702 41.1673 197.029 40.1083 196.536ZM41.4503 195.424C41.6065 195.18 41.5089 194.936 41.3088 194.658L40.6939 195.634C40.8238 195.697 40.9726 195.711 41.1121 195.673C41.2515 195.634 41.3719 195.545 41.4503 195.424ZM41.4503 193.067L42.0799 192.091C41.9438 192.028 41.7895 192.016 41.6452 192.057C41.501 192.098 41.3763 192.19 41.2942 192.315C41.1429 192.545 41.2454 192.794 41.4796 193.067H41.4503Z" fill="#01A657"/>
<g opacity="0.2">
<path d="M55.0561 204.052V203.93C55.0902 203.637 55.7002 196.678 46.7162 188.889C43.3564 185.979 39.7659 183.347 35.9802 181.018C33.6182 179.52 31.9151 178.436 30.6951 176.953L30.3682 176.562L20.2031 188.933L20.6228 189.177C20.7448 189.251 32.7252 196.326 36.7268 200.089C39.9134 203.076 45.2619 209.034 45.2522 215.383V216.598L55.0561 204.052ZM37.3124 199.479C34.4137 196.766 27.6793 192.496 23.8387 190.144C24.1984 189.584 24.331 188.909 24.2094 188.255C24.0879 187.601 23.7214 187.018 23.1848 186.625L28.7529 179.852C28.9975 180.077 29.2904 180.244 29.6091 180.34C29.9279 180.435 30.2642 180.457 30.5926 180.403C31.2246 180.292 31.8062 179.986 32.2567 179.53C33.1888 180.232 34.2722 180.92 35.541 181.726C39.294 184.034 42.852 186.645 46.1794 189.534C50.6934 193.438 52.6454 197.137 53.4994 199.542C53.7206 200.169 53.8984 200.809 54.0313 201.46C53.4381 201.943 53.006 202.594 52.7924 203.328C52.5788 204.062 52.5939 204.844 52.8357 205.569L47.3603 212.557C47.1602 212.191 46.7015 211.801 45.6962 212.143C44.3591 206.775 40.0647 202.056 37.3124 199.479Z" fill="white"/>
</g>
<path d="M6.83203 94.2084C6.83203 94.2084 14.64 85.0975 29.8949 90.9632C30.4747 91.1833 31.0745 91.3467 31.6859 91.4512C33.4267 91.7962 35.2281 91.6681 36.9026 91.0803C39.8794 89.8847 44.1103 88.1523 44.1103 88.1523L57.2034 95.9018C57.2034 95.9018 51.7134 99.9034 46.3991 100.24C41.0848 100.577 34.8042 96.2141 28.7091 97.7025C25.6097 98.3738 22.7958 99.9922 20.6571 102.334L6.83203 94.2084Z" fill="#01A657"/>
<g opacity="0.2">
<path d="M38.3953 96.2137C37.8048 96.7407 34.2619 96.2576 30.475 95.1352C26.6882 94.0128 24.0969 92.6952 24.6874 92.1437C25.2778 91.5923 28.8207 92.0998 32.6076 93.2271C36.3945 94.3544 38.9809 95.6866 38.3953 96.2137Z" fill="white"/>
</g>
<path d="M33.1166 95.1951L33.3558 95.4489L32.5603 95.2732L32.3261 95.0243C31.5982 94.8581 30.8798 94.6529 30.174 94.4094L30.3497 94.2289C30.8377 94.3997 31.4574 94.5851 32.043 94.7169L31.6868 94.3411C30.745 94.0825 29.6762 93.7848 29.3688 93.4578C29.1443 93.2187 29.5591 93.1455 30.7791 93.3797L30.54 93.1309L31.3354 93.3017L31.5697 93.5505C32.1797 93.6969 32.8043 93.8677 33.3167 94.0385L33.1801 94.2337C32.7165 94.0776 32.2626 93.9458 31.8527 93.8482L32.2187 94.2337C33.1557 94.4875 34.2098 94.7852 34.5123 95.1024C34.7368 95.3561 34.3269 95.4245 33.1166 95.1951ZM31.3696 94.0141L31.0622 93.6921C30.6669 93.6286 30.5742 93.6579 30.6327 93.7311C30.8608 93.8659 31.1099 93.9615 31.3696 94.0141ZM33.2582 94.8633C33.0352 94.7286 32.791 94.6329 32.5359 94.5802L32.8336 94.8925C33.185 94.956 33.3265 94.9365 33.2582 94.8633Z" fill="#01A657"/>
<g opacity="0.2">
<path d="M43.9201 89.0938L43.7737 89.1621C41.3174 90.3649 38.7582 91.3448 36.1267 92.0901C34.2967 92.5781 33.4427 92.4073 31.886 92.134L30.91 91.9681C29.9973 91.7803 29.0989 91.5291 28.2211 91.2165C26.2691 90.5821 23.7852 89.7916 21.3257 89.7135H21.2622C21.1939 89.7135 14.4302 89.1279 8.92071 93.5541L8.59375 93.8176L20.3546 100.938L20.5156 100.786C20.579 100.728 26.8889 95.0278 35.4191 97.175C36.4293 97.4288 37.3711 97.663 38.2495 97.9119C45.1596 99.737 48.6244 100.654 55.5735 96.4821L55.9932 96.2283L43.9201 89.0938ZM38.3959 97.3361C37.5126 97.1018 36.5708 96.8481 35.5606 96.5992C29.7583 95.1352 24.9515 97.1848 22.3114 98.7805C20.3594 97.7557 19.0077 98.6781 18.5099 99.127L11.6291 94.9644C12.9565 93.8078 12.1806 92.8074 11.7316 92.3926C14.6555 90.8684 17.9288 90.1397 21.2232 90.2796C23.6388 90.3479 26.0788 91.1287 28.0552 91.7436C28.962 92.0638 29.8898 92.3214 30.8319 92.5146L31.8079 92.6805C33.389 92.9587 34.3455 93.1197 36.2926 92.6269C38.2678 92.0893 40.1994 91.4025 42.0706 90.5724C42.5586 90.9969 43.8615 91.8021 45.7891 90.8408L52.8066 94.9888C52.2795 95.2377 51.4938 95.8867 52.748 97.3019C47.5703 99.7614 44.247 98.883 38.3959 97.3361Z" fill="white"/>
</g>
<path d="M185.441 217.161C185.441 217.161 184.518 205.22 199.49 198.617C200.062 198.367 200.607 198.063 201.12 197.709C202.59 196.725 203.77 195.365 204.536 193.771C205.8 190.843 207.572 186.597 207.572 186.597L222.314 182.85C222.314 182.85 221.25 189.56 217.722 193.547C214.194 197.534 206.664 198.876 203.394 204.234C201.672 206.895 200.82 210.026 200.954 213.193L185.441 217.161Z" fill="#01A657"/>
<g opacity="0.2">
<path d="M209.225 196.338C209.181 197.128 206.326 199.266 202.851 201.159C199.377 203.053 196.595 203.916 196.639 203.111C196.683 202.306 199.538 200.183 203.012 198.29C206.487 196.396 209.269 195.547 209.225 196.338Z" fill="white"/>
</g>
<path d="M204.761 199.337H205.112L204.424 199.777H204.082C203.452 200.172 202.8 200.532 202.13 200.855V200.606C202.664 200.352 203.183 200.071 203.687 199.762H203.16C202.316 200.25 201.349 200.782 200.9 200.772C200.569 200.772 200.813 200.416 201.842 199.723H201.496L202.184 199.284H202.526C203.057 198.957 203.624 198.64 204.112 198.405L204.151 198.635C203.711 198.854 203.301 199.079 202.935 199.298H203.467C204.312 198.81 205.268 198.283 205.707 198.322C206.024 198.308 205.78 198.649 204.761 199.337ZM202.691 199.733H202.247C201.92 199.962 201.867 200.06 201.974 200.06C202.23 199.992 202.473 199.882 202.691 199.733ZM204.643 199.006C204.39 199.067 204.15 199.171 203.931 199.313H204.365C204.658 199.103 204.731 199.006 204.629 199.006H204.643Z" fill="#01A657"/>
<g opacity="0.2">
<path d="M208.128 187.392L208.079 187.543C207.182 190.128 206.057 192.628 204.717 195.014C203.741 196.629 203.038 197.132 201.745 198.04C201.491 198.215 201.218 198.406 200.92 198.62C200.139 199.131 199.324 199.587 198.48 199.987C196.631 200.934 194.327 202.105 192.532 203.788L192.488 203.832C192.434 203.876 187.227 208.224 186.451 215.261L186.402 215.681L199.764 212.426V212.206C199.764 212.119 200.218 203.627 207.772 199.128C208.67 198.596 209.509 198.113 210.295 197.664C216.483 194.087 219.567 192.296 221.563 184.429L221.685 183.941L208.128 187.392ZM210.017 197.152C209.226 197.61 208.382 198.093 207.489 198.616C202.35 201.675 200.384 206.511 199.637 209.508C198.969 209.667 198.37 210.038 197.93 210.566C197.49 211.094 197.233 211.75 197.197 212.436L189.389 214.334C189.511 212.577 188.257 212.416 187.647 212.441C188.645 209.299 190.455 206.476 192.893 204.257C194.65 202.603 196.928 201.431 198.749 200.499C199.617 200.085 200.457 199.612 201.262 199.084C201.555 198.869 201.828 198.679 202.077 198.503C203.395 197.581 204.185 197.039 205.22 195.302C206.248 193.528 207.14 191.678 207.889 189.768C208.538 189.719 210.026 189.378 210.71 187.328L218.61 185.322C218.415 185.864 218.313 186.879 220.196 187.001C218.23 192.374 215.253 194.102 210.017 197.152Z" fill="white"/>
</g>
<path d="M207.287 98.9705C207.287 98.9705 203.969 87.4585 217.286 77.9425C217.797 77.5857 218.271 77.1786 218.701 76.7274C219.949 75.4673 220.834 73.8946 221.263 72.1744C221.907 69.0317 222.786 64.5372 222.786 64.5372L236.45 57.8809C236.45 57.8809 236.762 64.6641 234.117 69.2854C231.472 73.9068 224.357 76.7421 222.249 82.6517C221.103 85.6086 220.903 88.8486 221.678 91.9237L207.287 98.9705Z" fill="#01A657"/>
<g opacity="0.2">
<path d="M226.353 73.7468C226.47 74.5276 224.113 77.2214 221.088 79.759C218.062 82.2966 215.52 83.7216 215.403 82.9408C215.285 82.16 217.647 79.4662 220.668 76.9286C223.689 74.391 226.236 72.9612 226.353 73.7468Z" fill="white"/>
</g>
<path d="M222.592 77.5917L222.939 77.5283L222.353 78.0992L222.016 78.1578C221.477 78.6785 220.909 79.1673 220.313 79.6218L220.259 79.3778C220.729 79.0221 221.18 78.6426 221.611 78.2408L221.099 78.3286C220.367 78.9728 219.527 79.6999 219.088 79.7926C218.761 79.8463 218.932 79.4608 219.801 78.5726L219.454 78.636L220.04 78.0651L220.377 78.0065C220.835 77.5771 221.323 77.1525 221.753 76.8207L221.836 77.0403C221.45 77.3428 221.094 77.6503 220.782 77.9333L221.309 77.8406C222.036 77.1964 222.865 76.484 223.3 76.4108C223.617 76.3229 223.451 76.7036 222.592 77.5917ZM220.64 78.4018L220.201 78.475C219.932 78.7727 219.898 78.8752 220.001 78.8556C220.24 78.7401 220.458 78.585 220.645 78.3969L220.64 78.4018ZM222.387 77.294C222.151 77.4042 221.937 77.5545 221.753 77.7381L222.182 77.6649C222.446 77.3819 222.49 77.2696 222.392 77.2892L222.387 77.294Z" fill="#01A657"/>
<g opacity="0.2">
<path d="M223.464 65.1976V65.3538C223.109 68.0655 222.515 70.7404 221.688 73.3472C221.068 75.1284 220.473 75.7628 219.389 76.9096C219.175 77.139 218.945 77.3976 218.696 77.6514C218.038 78.309 217.335 78.9204 216.593 79.4814C214.968 80.7844 212.953 82.4094 211.538 84.4102L211.498 84.459C211.459 84.5127 207.243 89.8514 207.902 96.8737L207.941 97.2934L220.365 91.4032L220.331 91.1837C220.331 91.1007 219.038 82.6924 225.528 76.7584C226.295 76.0556 227.022 75.4115 227.7 74.8064C233.034 70.0484 235.708 67.662 236.055 59.5661V59.0781L223.464 65.1976ZM227.29 74.3623C226.607 74.9723 225.88 75.6213 225.114 76.3143C220.697 80.35 219.746 85.4887 219.629 88.568C219.003 88.8576 218.49 89.3428 218.165 89.9503C217.84 90.5577 217.722 91.2545 217.828 91.9352L210.562 95.3804C210.327 93.6383 209.063 93.731 208.473 93.8774C208.812 90.598 210.013 87.4667 211.952 84.8006C213.338 82.8486 215.334 81.2187 216.94 79.9206C217.709 79.3416 218.436 78.7089 219.116 78.0272C219.36 77.7588 219.604 77.5392 219.794 77.2952C220.897 76.1288 221.561 75.4212 222.234 73.5229C222.87 71.5777 223.36 69.5876 223.698 67.5693C224.328 67.3888 225.714 66.7544 225.968 64.612L233.288 61.0448C233.21 61.6206 233.317 62.6308 235.186 62.3721C234.371 68.0427 231.799 70.3363 227.29 74.3623Z" fill="white"/>
</g>
<path d="M65.8222 59.921C62.6517 59.6673 59.584 58.6782 56.8625 57.0321C53.2952 54.8263 43.7548 47.4185 40.8463 45.7739C37.5779 43.9475 34.0496 42.631 30.3836 41.8699L30.0859 24.5605C33.2933 24.998 36.4412 25.7952 39.4702 26.9371C44.194 28.7866 51.3383 37.1851 57.8873 39.3762C62.1329 40.8109 70.4923 40.2205 70.4923 40.2205L65.8222 59.921Z" fill="#01A657"/>
<g opacity="0.2">
<path d="M31.2312 41.1667L31.5435 41.2595C31.6021 41.2595 37.2873 42.904 40.2251 44.573C42.2942 45.7442 45.6809 48.15 48.9554 50.4778C51.4393 52.2443 53.7866 53.8938 55.4946 55.0015C60.9651 58.4859 64.3811 58.4175 64.5275 58.4175H64.8544L69.1439 41.7523L68.5437 41.7865C68.4803 41.7865 62.2827 42.133 58.9545 41.0594C54.5235 39.6344 51.3124 36.8479 48.2185 34.1493C45.9981 32.2266 43.9046 30.4063 41.3865 29.0351C39.1433 27.8118 36.7676 26.849 34.3056 26.1656C33.3282 25.8832 32.3317 25.6712 31.3239 25.5312L30.8359 25.4727L31.2312 41.1667ZM58.6861 41.8987C60.6625 42.5331 63.5075 42.6991 65.6401 42.7235C65.4626 43.2344 65.4748 43.7921 65.6743 44.2948C66.1623 45.0561 66.9333 44.9975 67.5482 44.4168L64.7666 55.2407L64.6983 55.1821C63.4002 54.2354 62.0191 55.8799 62.3266 57.1927L62.2143 57.1634C59.9977 56.5046 57.8923 55.5177 55.9679 54.2354C54.2746 53.1569 51.9371 51.4977 49.4629 49.736L48.6138 49.1309C50.1168 49.3017 51.7516 48.4428 52.6203 45.6271C53.4255 43.0211 52.6935 40.1029 51.5808 38.0533C53.7074 39.7252 56.1014 41.0254 58.6617 41.8987H58.6861ZM40.9327 29.8061C43.3727 31.1335 45.4223 32.9195 47.6036 34.8179C47.8135 34.9935 48.0184 35.1741 48.2234 35.3547C47.1924 35.3879 46.2004 35.7566 45.3981 36.4048C44.5957 37.053 44.0268 37.9454 43.7777 38.9463C43.2897 41.1228 43.1238 44.0801 44.7537 46.4567C43.1531 45.3831 41.7232 44.4071 40.635 43.8068C38.5707 42.6356 35.306 41.5132 33.3638 40.8788C33.5736 40.7304 33.7164 40.5052 33.7611 40.2521C33.8059 39.999 33.7491 39.7385 33.6029 39.5271C33.3296 39.0391 32.6269 38.5511 32.0999 38.8878L32.0315 38.9415L31.7631 28.0395C32.705 29.2644 34.0079 28.1225 33.315 26.8342C35.9704 27.4964 38.5303 28.4951 40.9327 29.8061Z" fill="white"/>
</g>
<path d="M48.3126 38.8637L48.5615 37.834L49.3814 38.0341L49.1374 39.0101C49.8668 39.2205 50.5141 39.6498 50.9918 40.2398L50.2646 41.2744C49.896 40.8017 49.4024 40.4416 48.8397 40.2349L48.4639 41.7673C49.313 42.2553 50.2402 42.8213 49.9279 44.1341C49.6888 45.1101 48.8543 45.7884 47.5221 45.6371L47.2781 46.657L46.4582 46.4569L46.7022 45.4809C46.1184 45.2938 45.5935 44.9574 45.1797 44.5049L45.8726 43.4655C46.1911 43.8045 46.579 44.0708 47.0097 44.2463L47.3903 42.6847C46.5412 42.226 45.6238 41.6453 45.9263 40.3521C46.1557 39.3956 46.9755 38.7221 48.3126 38.8637ZM47.2732 40.5619C47.1951 40.884 47.3903 41.1133 47.7075 41.3378L48.015 40.0739C47.8515 40.0478 47.6842 40.0832 47.5454 40.1734C47.4065 40.2635 47.3061 40.402 47.2634 40.5619H47.2732ZM48.1418 43.1141L47.8246 44.4073C47.9959 44.4279 48.1688 44.3852 48.3108 44.2872C48.4528 44.1893 48.5541 44.0428 48.5957 43.8754C48.6591 43.568 48.459 43.3337 48.1321 43.1141H48.1418Z" fill="#01A657"/>
<path d="M139.377 220.693C136.207 220.439 133.141 219.448 130.422 217.799C126.85 215.598 117.309 208.19 114.401 206.545C111.134 204.719 107.607 203.403 103.943 202.641L103.641 185.332C106.849 185.766 109.997 186.563 113.025 187.709C117.749 189.558 124.893 197.932 131.447 200.148C135.688 201.578 144.047 200.992 144.047 200.992L139.377 220.693Z" fill="#01A657"/>
<g opacity="0.2">
<path d="M104.764 201.94L105.077 202.028C105.135 202.028 110.825 203.677 113.763 205.346C115.827 206.518 119.214 208.923 122.489 211.251C124.973 213.018 127.32 214.667 129.033 215.775C134.498 219.259 137.919 219.191 138.061 219.191H138.393L142.677 202.521L142.077 202.555C142.013 202.555 135.821 202.902 132.488 201.828C128.057 200.403 124.846 197.617 121.752 194.918C119.531 192.995 117.433 191.175 114.92 189.804C112.68 188.582 110.307 187.621 107.849 186.939C106.871 186.657 105.875 186.445 104.867 186.305L104.379 186.246L104.764 201.94ZM132.219 202.672C134.201 203.307 137.041 203.472 139.178 203.497C139.001 204.008 139.013 204.566 139.212 205.068C139.7 205.83 140.471 205.771 141.086 205.19L138.3 216.014L138.231 215.956C136.938 215.009 135.557 216.653 135.865 217.966L135.752 217.937C133.537 217.288 131.431 216.309 129.506 215.033C127.813 213.955 125.475 212.296 123.001 210.534L122.147 209.929C123.655 210.1 125.285 209.241 126.153 206.425C126.959 203.819 126.232 200.901 125.114 198.851C127.25 200.517 129.652 201.809 132.219 202.672ZM114.49 190.58C116.93 191.902 118.98 193.693 121.166 195.586C121.371 195.767 121.576 195.948 121.786 196.123C120.754 196.158 119.762 196.528 118.959 197.177C118.156 197.826 117.586 198.718 117.335 199.72C116.847 201.896 116.681 204.854 118.311 207.225C116.73 206.137 115.295 205.195 114.212 204.58C112.143 203.409 108.883 202.287 106.936 201.652C107.046 201.579 107.14 201.484 107.212 201.374C107.284 201.263 107.333 201.139 107.356 201.009C107.378 200.879 107.375 200.746 107.344 200.617C107.314 200.489 107.258 200.368 107.18 200.261C106.907 199.773 106.204 199.285 105.672 199.627L105.604 199.681L105.34 188.774C106.282 190.004 107.58 188.862 106.887 187.573C109.54 188.246 112.095 189.256 114.49 190.58Z" fill="white"/>
</g>
<path d="M121.858 199.63L122.111 198.605L122.926 198.806L122.682 199.806C123.414 200.014 124.064 200.444 124.542 201.036L123.819 202.031C123.45 201.557 122.955 201.196 122.389 200.992L121.999 202.519C122.848 203.007 123.78 203.573 123.463 204.886C123.229 205.862 122.394 206.54 121.062 206.389L120.813 207.409L119.998 207.209L120.242 206.233C119.656 206.047 119.129 205.711 118.715 205.257L119.403 204.232C119.72 204.571 120.106 204.837 120.535 205.013L120.916 203.451C120.067 202.993 119.154 202.412 119.452 201.119C119.71 200.167 120.535 199.494 121.858 199.63ZM120.818 201.333C120.74 201.655 120.935 201.885 121.252 202.109L121.565 200.845C121.402 200.822 121.237 200.858 121.099 200.948C120.962 201.038 120.862 201.175 120.818 201.333ZM121.687 203.886L121.37 205.189C121.541 205.208 121.713 205.165 121.855 205.067C121.997 204.969 122.098 204.824 122.141 204.657C122.219 204.335 121.999 204.1 121.687 203.886Z" fill="#01A657"/>
<path d="M104.252 79.2813C101.134 79.3594 95.4046 79.2374 89.9878 76.7535C83.2778 73.6742 80.3742 69.2578 80.3742 69.2578L78.9102 85.6985C82.8142 94.9022 98.3277 95.5366 105.56 95.7074C103.647 87.7433 103.149 84.0003 104.252 79.2813Z" fill="#01A657"/>
<g opacity="0.2">
<path d="M101.795 89.5323C102.979 86.6157 101.449 83.2402 98.3776 81.993C95.3061 80.7458 91.8561 82.0992 90.6718 85.0158C89.4874 87.9325 91.0173 91.3079 94.0887 92.5551C97.1602 93.8023 100.61 92.449 101.795 89.5323Z" fill="white"/>
</g>
<path d="M95.4766 84.3511V83.4629H96.1842V84.3315C96.8232 84.3485 97.4416 84.5614 97.9556 84.9415L97.5799 85.9175C97.1815 85.6067 96.7021 85.417 96.1988 85.371V86.6934C96.9845 86.8984 97.8678 87.1814 97.8824 88.3185C97.8824 89.1578 97.3554 89.885 96.2428 90.046V90.9244H95.5352V90.0607C95.0129 90.0286 94.5082 89.8604 94.0712 89.5727L94.4128 88.5967C94.7428 88.8052 95.114 88.94 95.501 88.9919V87.6451C94.7153 87.4499 93.8467 87.1571 93.832 86.0444C93.8418 85.2392 94.3688 84.517 95.4766 84.3511ZM94.9886 85.9566C94.9886 86.2347 95.1984 86.3811 95.5059 86.4983V85.4003C95.1594 85.493 94.9886 85.7028 94.9886 85.9566ZM96.233 87.8403V88.9627C96.3757 88.9436 96.5065 88.8731 96.6009 88.7644C96.6953 88.6556 96.7467 88.5161 96.7454 88.3722C96.76 88.1086 96.5453 87.9574 96.233 87.8403Z" fill="#01A657"/>
<g opacity="0.2">
<path d="M105.13 93.8481C101.518 93.9693 97.9027 93.7553 94.3304 93.2089C88.6354 92.4476 85.1218 90.5151 83.1747 89.0267C82.6673 88.6413 82.1864 88.2223 81.7351 87.7725C81.9571 87.0716 81.9603 86.3197 81.744 85.6169C81.5278 84.9142 81.1025 84.2941 80.5248 83.8393L81.208 75.3334C81.5643 75.5189 82.1352 75.5921 82.7648 74.782C86.6688 78.3883 92.6175 79.9109 96.1848 80.5209C98.7465 80.8671 101.33 81.0302 103.915 81.0089L104.066 80.1451C101.49 80.1778 98.9156 80.0311 96.3604 79.7059C92.2222 78.9934 84.7802 77.0365 81.4374 71.9369L80.7932 70.9609L79.5684 86.2061L79.622 86.3085C79.7489 86.5623 82.9356 92.472 94.262 93.9848C97.9023 94.5411 101.586 94.7632 105.266 94.6485L105.13 93.8481Z" fill="white"/>
</g>
</svg>
