<svg width="24" height="25" viewBox="0 0 24 25" fill="none" xmlns="http://www.w3.org/2000/svg">
<path fill-rule="evenodd" clip-rule="evenodd" d="M12.0194 20.8681C15.2562 20.8681 18.0214 20.3781 18.0214 18.4161C18.0214 16.4541 15.2742 14.7461 12.0194 14.7461C8.78257 14.7461 6.01743 16.4381 6.01743 18.3991C6.01743 20.3601 8.76459 20.8681 12.0194 20.8681Z" stroke="#01A657" stroke-width="1.5" stroke-linecap="round" stroke-linejoin="round"/>
<path fill-rule="evenodd" clip-rule="evenodd" d="M12.0194 11.949C9.89482 11.949 8.17198 10.226 8.17198 8.1C8.17198 5.974 9.89482 4.25 12.0194 4.25C14.144 4.25 15.8668 5.974 15.8668 8.1C15.8728 10.218 14.164 11.942 12.0464 11.949H12.0194Z" stroke="#01A657" stroke-width="1.5" stroke-linecap="round" stroke-linejoin="round"/>
<path d="M5.63404 10.891C4.39787 10.56 3.48648 9.43205 3.48648 8.08905C3.48648 6.68805 4.47882 5.51805 5.79993 5.24805" stroke="#707070" stroke-width="1.5" stroke-linecap="round" stroke-linejoin="round"/>
<path d="M5.05334 14.0449C3.30052 14.0449 1.80353 15.2339 1.80353 16.2959C1.80353 16.9209 2.32018 17.6019 3.10366 17.7859" stroke="#707070" stroke-width="1.5" stroke-linecap="round" stroke-linejoin="round"/>
<path d="M18.4038 10.891C19.641 10.56 20.5524 9.43205 20.5524 8.08905C20.5524 6.68805 19.559 5.51805 18.2389 5.24805" stroke="#707070" stroke-width="1.5" stroke-linecap="round" stroke-linejoin="round"/>
<path d="M18.9854 14.0449C20.7382 14.0449 22.2352 15.2339 22.2352 16.2959C22.2352 16.9209 21.7186 17.6019 20.9341 17.7859" stroke="#707070" stroke-width="1.5" stroke-linecap="round" stroke-linejoin="round"/>
</svg>
