<svg width="24" height="25" viewBox="0 0 24 25" fill="none" xmlns="http://www.w3.org/2000/svg">
<path opacity="0.4" fill-rule="evenodd" clip-rule="evenodd" d="M12.0001 2.66406C19.5591 2.66406 22.2371 5.34206 22.2371 12.9011C22.2371 20.4601 19.5591 23.1381 12.0001 23.1381C4.44206 23.1381 1.76306 20.4601 1.76306 12.9011C1.76306 5.34206 4.44206 2.66406 12.0001 2.66406Z" fill="#01A657"/>
<path d="M11.2504 13.6521H8.42237C8.00837 13.6521 7.67237 13.3161 7.67237 12.9021C7.67237 12.4881 8.00837 12.1521 8.42237 12.1521H11.2504V9.32812C11.2504 8.91412 11.5864 8.57812 12.0004 8.57812C12.4144 8.57812 12.7504 8.91412 12.7504 9.32812V12.1521H15.5784C15.9924 12.1521 16.3284 12.4881 16.3284 12.9021C16.3284 13.3161 15.9924 13.6521 15.5784 13.6521H12.7504V16.4761C12.7504 16.8901 12.4144 17.2261 12.0004 17.2261C11.5864 17.2261 11.2504 16.8901 11.2504 16.4761V13.6521Z" fill="#01A657"/>
</svg>
