<svg width="24" height="25" viewBox="0 0 24 25" fill="none" xmlns="http://www.w3.org/2000/svg">
<path d="M9.23163 9.11762C7.26389 9.56284 6.28001 9.78545 6.04594 10.5382C5.81186 11.2909 6.4826 12.0753 7.82408 13.6439L8.17113 14.0498C8.55234 14.4955 8.74294 14.7184 8.82869 14.9942C8.91444 15.2699 8.88562 15.5673 8.82799 16.162L8.77552 16.7035C8.5727 18.7965 8.4713 19.843 9.08412 20.3082C9.69694 20.7734 10.6181 20.3492 12.4605 19.5009L12.9372 19.2815C13.4607 19.0404 13.7225 18.9199 14 18.9199C14.2775 18.9199 14.5393 19.0404 15.0628 19.2815L15.5395 19.5009C17.3819 20.3492 18.3031 20.7734 18.9159 20.3082C19.5287 19.843 19.4273 18.7965 19.2245 16.7035M20.1759 13.6439C21.5174 12.0753 22.1881 11.2909 21.9541 10.5382C21.72 9.78545 20.7361 9.56284 18.7684 9.11762L18.2593 9.00244C17.7001 8.87592 17.4205 8.81266 17.196 8.64225C16.9716 8.47183 16.8276 8.21355 16.5396 7.69699L16.2775 7.2267C15.2641 5.4089 14.7575 4.5 14 4.5C13.2425 4.5 12.7359 5.4089 11.7225 7.2267" stroke="#707070" stroke-width="1.5" stroke-linecap="round"/>
<path d="M2.08887 16.5C3.20445 15.621 4.68639 15.2971 6.08887 15.6257" stroke="#01A657" stroke-width="1.5" stroke-linecap="round"/>
<path d="M2.08887 11C3.08887 10.5 3.37862 10.5605 4.08887 10.5" stroke="#01A657" stroke-width="1.5" stroke-linecap="round"/>
<path d="M2 6.10769L2.20816 5.98578C4.41383 4.69408 6.75032 4.34589 8.95304 4.98063L9.16092 5.04054" stroke="#01A657" stroke-width="1.5" stroke-linecap="round"/>
</svg>
