<svg width="24" height="24" viewBox="0 0 24 24" fill="none" xmlns="http://www.w3.org/2000/svg">
<path opacity="0.4" fill-rule="evenodd" clip-rule="evenodd" d="M17.2702 15.1719C15.4432 15.1719 13.9572 13.6859 13.9572 11.8599C13.9572 10.0329 15.4432 8.54594 17.2702 8.54594H21.4802C20.6022 4.49194 17.8092 2.96094 12.0002 2.96094C4.76422 2.96094 2.19922 5.32694 2.19922 11.9999C2.19922 18.6739 4.76422 21.0389 12.0002 21.0389C17.9422 21.0389 20.7302 19.4389 21.5382 15.1719H17.2702Z" fill="#7B4794"/>
<path fill-rule="evenodd" clip-rule="evenodd" d="M11.6518 8.64062H7.5918C7.1778 8.64062 6.8418 8.30463 6.8418 7.89062C6.8418 7.47662 7.1778 7.14062 7.5918 7.14062H11.6518C12.0658 7.14062 12.4018 7.47662 12.4018 7.89062C12.4018 8.30463 12.0658 8.64062 11.6518 8.64062Z" fill="#7B4794"/>
<path fill-rule="evenodd" clip-rule="evenodd" d="M17.27 13.6729C16.271 13.6729 15.457 12.8599 15.457 11.8609C15.457 10.8609 16.271 10.0469 17.27 10.0469H21.706C21.765 10.6559 21.8 11.2989 21.8 12.0009C21.8 12.5959 21.772 13.1449 21.73 13.6729H17.27ZM18.1602 11.8008C18.1602 12.2148 17.8242 12.5508 17.4102 12.5508C16.9962 12.5508 16.6602 12.2148 16.6602 11.8008C16.6602 11.3868 16.9962 11.0508 17.4102 11.0508C17.8242 11.0508 18.1602 11.3868 18.1602 11.8008Z" fill="#7B4794"/>
</svg>
