<svg width="20" height="20" viewBox="0 0 20 20" fill="none" xmlns="http://www.w3.org/2000/svg">
<path opacity="0.4" fill-rule="evenodd" clip-rule="evenodd" d="M10 0.25C2.802 0.25 0.25 2.802 0.25 10C0.25 17.198 2.802 19.75 10 19.75C17.198 19.75 19.75 17.198 19.75 10C19.75 2.802 17.198 0.25 10 0.25Z" fill="#7B4794"/>
<path d="M9.99609 7.25H10.0051C10.4191 7.25 10.7511 6.914 10.7511 6.5C10.7511 6.086 10.4101 5.75 9.99609 5.75C9.58209 5.75 9.24609 6.086 9.24609 6.5C9.24609 6.914 9.58209 7.25 9.99609 7.25Z" fill="#7B4794"/>
<path d="M10.0001 14.645C10.4141 14.645 10.7501 14.309 10.7501 13.895V10C10.7501 9.586 10.4141 9.25 10.0001 9.25C9.58609 9.25 9.25009 9.586 9.25009 10V13.895C9.25009 14.309 9.58609 14.645 10.0001 14.645Z" fill="#7B4794"/>
</svg>
