<svg width="57" height="33" viewBox="0 0 57 33" fill="none" xmlns="http://www.w3.org/2000/svg">
<path d="M57 8.35998C40.258 5.59061 31.887 25.1549 18.3297 26.8522C8.50288 28.1029 1.31475 21.1348 0.0408995 16.0428C-0.687012 25.8696 8.41188 32.927 18.5117 32.4803C35.5266 31.7656 44.5345 11.4867 57 8.35998ZM43.9886 8.09198C31.2501 6.39463 28.1565 15.6854 17.8747 18.9908C11.2325 21.1348 6.13716 19.5268 2.40661 15.5067C4.1354 20.8668 10.6866 24.6189 16.4189 24.1722C27.7925 23.2789 34.2528 10.9507 43.9886 8.09198Z" fill="url(#paint0_linear_3936_3947)"/>
<path d="M16.8727 16.5802C19.3294 15.7762 21.0582 14.7935 22.514 13.8108C23.6969 13.0068 27.8823 10.1481 29.9751 8.80811C28.2463 3.98405 23.4239 0.5 17.8736 0.5C10.7764 0.5 4.95312 6.12808 4.95312 13.1855C4.95312 13.8108 4.95312 14.3469 5.04411 14.8829C8.13774 17.0269 12.2322 18.0989 16.8727 16.5802Z" fill="#7B4794"/>
<defs>
<linearGradient id="paint0_linear_3936_3947" x1="0" y1="20.1935" x2="57" y2="20.1935" gradientUnits="userSpaceOnUse">
<stop stop-color="#7B4794"/>
<stop offset="1" stop-color="#01A657"/>
</linearGradient>
</defs>
</svg>
