<svg width="18" height="18" viewBox="0 0 18 18" fill="none" xmlns="http://www.w3.org/2000/svg">
<path opacity="0.4" fill-rule="evenodd" clip-rule="evenodd" d="M8.99955 3.14844C4.94805 3.14844 1.68555 6.34944 1.68555 8.99994C1.68555 11.6504 4.94805 14.8514 8.99955 14.8514C13.051 14.8514 16.3135 11.6504 16.3135 8.99994C16.3135 6.34944 13.051 3.14844 8.99955 3.14844Z" fill="#01A657"/>
<path fill-rule="evenodd" clip-rule="evenodd" d="M8.99943 11.9344C7.38168 11.9344 6.06543 10.6182 6.06543 9.00041C6.06543 7.38266 7.38168 6.06641 8.99943 6.06641C10.6172 6.06641 11.9334 7.38266 11.9334 9.00041C11.9334 10.6182 10.6172 11.9344 8.99943 11.9344ZM7.19043 9.00019C7.19043 8.00269 8.00193 7.19119 8.99943 7.19119C9.99693 7.19119 10.8084 8.00269 10.8084 9.00019C10.8084 9.99769 9.99693 10.8092 8.99943 10.8092C8.00193 10.8092 7.19043 9.99769 7.19043 9.00019Z" fill="#01A657"/>
</svg>
